<svg width="18" height="18" viewBox="0 0 18 18" fill="none" xmlns="http://www.w3.org/2000/svg">
<path fill-rule="evenodd" clip-rule="evenodd" d="M4 6C5.10457 6 6 5.10457 6 4C6 2.89543 5.10457 2 4 2C2.89543 2 2 2.89543 2 4C2 5.10457 2.89543 6 4 6ZM4 8C6.20914 8 8 6.20914 8 4C8 1.79086 6.20914 0 4 0C1.79086 0 0 1.79086 0 4C0 6.20914 1.79086 8 4 8Z" fill="white"/>
<path fill-rule="evenodd" clip-rule="evenodd" d="M14 16C15.1046 16 16 15.1046 16 14C16 12.8954 15.1046 12 14 12C12.8954 12 12 12.8954 12 14C12 15.1046 12.8954 16 14 16ZM14 18C16.2091 18 18 16.2091 18 14C18 11.7909 16.2091 10 14 10C11.7909 10 10 11.7909 10 14C10 16.2091 11.7909 18 14 18Z" fill="white"/>
<path fill-rule="evenodd" clip-rule="evenodd" d="M15.6001 0.200059C16.0419 0.53143 16.1314 1.15823 15.8001 1.60006L3.80006 17.6001C3.46869 18.0419 2.84189 18.1314 2.40006 17.8001C1.95823 17.4687 1.86869 16.8419 2.20006 16.4001L14.2001 0.400059C14.5314 -0.0417689 15.1582 -0.131312 15.6001 0.200059Z" fill="#232323"/>
</svg>
