<svg width="25" height="27" viewBox="0 0 25 27" fill="none" xmlns="http://www.w3.org/2000/svg">
<path d="M8.34808 10.5933L9.37016 11.1834C9.78297 11.4217 9.97017 11.9183 9.81742 12.3698L8.44615 16.4234L3.11464 16.7672C2.3176 16.8186 1.78491 15.961 2.18426 15.2693L4.25 11.6913C5.07843 10.2565 6.9132 9.76483 8.34808 10.5933Z" fill="white"/>
<path d="M17.0084 15.5933L15.9863 15.0032C15.5735 14.7648 15.0498 14.851 14.7351 15.2091L11.9103 18.4234L14.2783 23.2125C14.6323 23.9285 15.6414 23.961 16.0407 23.2693L18.1064 19.6913C18.9349 18.2565 18.4432 16.4217 17.0084 15.5933Z" fill="white"/>
<path d="M9.68803 20.6043L7.6685 19.4384C7.2583 19.2015 6.73181 19.2879 6.5302 19.7165C6.21266 20.3916 5.99679 21.4667 7.03107 22.4828C7.12525 22.5753 7.24298 22.6433 7.3702 22.6786C8.76728 23.0663 9.59046 22.3417 10.0163 21.7292C10.2867 21.3403 10.0982 20.8412 9.68803 20.6043Z" fill="white"/>
<path d="M10.3481 7.12914C12.1221 5.55609 15.4972 4.58281 17.0752 4.19424C17.5616 4.07445 18.0471 4.35471 18.1866 4.83589C18.639 6.39672 19.4837 9.80626 19.0083 12.1291C18.5181 14.5247 15.6183 17.6622 13.7675 19.4638C12.8549 20.3521 11.4712 20.4793 10.3682 19.8425L7.98071 18.464C6.88139 17.8294 6.29943 16.5732 6.60845 15.342C7.235 12.8457 8.49373 8.77338 10.3481 7.12914Z" fill="#232323"/>
<circle cx="13.6783" cy="11.3612" r="2" transform="rotate(30 13.6783 11.3612)" fill="white"/>
</svg>
