<svg width="54" height="49" viewBox="0 0 54 49" fill="none" xmlns="http://www.w3.org/2000/svg">
<path d="M0.110638 26.2728C0.150318 24.1025 0.0854836 21.8844 0.563557 19.7589C1.38809 16.0964 5.84752 16.1641 8.86887 15.8407C18.3529 14.8266 28.0305 14.9611 37.5581 15.0833C41.3604 15.1319 45.3176 15.0012 49.0744 15.6099C52.5661 16.1737 53.9452 18.7944 53.9858 22.0027C53.9752 24.8991 53.9858 27.7945 53.9858 30.6899C53.9858 32.8307 54.1523 35.0669 53.2813 37.0751C51.9951 40.0392 47.3867 40.0488 44.6218 40.2358C44.0663 40.273 43.5108 40.3006 42.9563 40.3312C44.1834 42.3804 45.6157 44.2998 46.8708 46.329C48.8896 49.5937 47.9025 49.5498 45.246 47.8898C41.3014 45.4237 37.1749 43.2504 33.2719 40.7166C27.6589 40.8396 22.0304 40.8301 16.4271 40.8416C9.79501 40.8549 1.30679 41.9196 0.168709 33.3726C-0.144844 31.0572 0.0661201 28.6006 0.110638 26.2728Z" fill="#4071E6"/>
<path d="M46.7749 33.6454V33.9116C46.7749 33.9316 46.8166 34.1158 46.8166 34.1558V34.2589C46.8166 35.0135 45.7598 35.2129 45.181 35.2129C45.0209 35.2206 44.8604 35.2068 44.7039 35.1719C44.2694 35.0297 43.9171 34.2741 43.9171 33.8658C43.914 33.6532 43.9545 33.4421 44.0363 33.2454C44.1182 33.0486 44.2396 32.8702 44.3933 32.721C44.6836 32.5779 44.9739 32.4348 45.3049 32.4348C45.9262 32.4348 46.6095 32.8841 46.7333 33.4966C46.7578 33.5427 46.772 33.5935 46.7749 33.6454ZM12.2259 17.2956C10.1443 17.784 7.83812 17.5064 5.82905 18.1895C2.81932 19.217 2.89674 22.6571 2.02188 25.171C2.00059 25.233 1.89414 25.2463 1.88059 25.171C1.47413 22.9767 2.07414 19.0653 4.20321 17.7736C6.56067 16.3425 9.57331 16.7165 12.1863 17.0103C12.3353 17.0285 12.3943 17.2555 12.2211 17.2956H12.2259ZM13.153 16.9207C13.4521 16.7814 13.7618 16.8062 14.0821 16.7613C14.2413 16.7247 14.4068 16.7247 14.566 16.7613C14.6511 16.7909 14.715 16.8424 14.7953 16.873C14.8112 16.8775 14.8258 16.8855 14.838 16.8964C14.8503 16.9072 14.8599 16.9207 14.8661 16.9357C14.8724 16.9508 14.8751 16.967 14.874 16.9833C14.873 16.9995 14.8683 17.0153 14.8602 17.0294C14.6831 17.3567 14.4663 17.4702 14.0802 17.4959C13.7569 17.5169 13.4521 17.5303 13.153 17.392C13.1113 17.3681 13.0765 17.334 13.0522 17.2929C13.0278 17.2519 13.0148 17.2052 13.0143 17.1577C13.0138 17.1101 13.0259 17.0632 13.0494 17.0217C13.0729 16.9801 13.1069 16.9453 13.1482 16.9207H13.153ZM51.3989 34.3285C51.2682 39.9705 41.0381 40.0812 37.1351 39.0442C37.1173 39.0388 37.1017 39.0279 37.0907 39.0131C37.0796 38.9984 37.0737 38.9805 37.0737 38.9621C37.0737 38.9438 37.0796 38.9259 37.0907 38.9112C37.1017 38.8964 37.1173 38.8855 37.1351 38.8801C41.6749 37.7057 48.7482 39.5822 51.1415 34.2598C51.1986 34.132 51.4018 34.1997 51.3989 34.3285ZM51.8266 33.4766C51.6989 33.5777 51.4599 33.529 51.4724 33.3325C51.4928 33.0225 51.5692 32.721 51.6157 32.4148C51.6621 32.1085 51.7124 31.8595 51.9128 31.6096C51.9354 31.5874 51.966 31.575 51.9979 31.575C52.0298 31.575 52.0604 31.5874 52.0831 31.6096C52.6657 32.0646 52.327 33.0826 51.8266 33.4766Z" fill="white"/>
<path d="M7.32422 31.9648C6.90234 31.8242 6.7207 31.4434 6.7207 31.1562C6.72656 30.6348 6.83789 30.0898 6.86719 29.5801C6.89648 29.0352 6.9082 28.4844 6.91992 27.9336C6.94336 27.0371 6.95508 26.1406 6.95508 25.2441C6.95508 24.8281 6.94336 24.4121 6.94336 23.9902C6.94336 23.6445 7.20117 23.0879 7.88672 23.0879C8.0625 23.0879 8.2207 23.1289 8.35547 23.1992C8.78906 23.416 8.85352 23.8496 8.85352 24.2656C8.85352 24.6934 8.84766 25.1211 8.84766 25.5488C8.84766 26.4395 8.8418 27.3359 8.81836 28.2266C8.80078 28.918 8.77734 29.6152 8.73047 30.3066C8.93555 30.3125 9.14648 30.3184 9.35742 30.3184C9.94336 30.3184 10.4531 30.2832 10.9453 30.1777C11.4141 30.0781 11.8418 29.9609 12.2812 29.9609C12.9199 29.9609 13.3242 30.2363 13.3242 30.7402C13.3242 30.8926 13.2832 31.0449 13.2129 31.1797C13.0781 31.4316 12.8555 31.5781 12.5977 31.666C12.3281 31.7656 12.0645 31.8008 11.8125 31.8418C10.9336 32.0117 10.2188 32.0703 9.31055 32.0703C8.60156 32.0703 7.74023 32.1172 7.32422 31.9648ZM16.0312 30.5293C16.3711 30.5293 16.7871 30.3887 17.0684 30.2246C17.4785 29.9902 17.7012 29.8086 17.7422 29.0938C17.5137 29.1582 17.2383 29.2344 16.9102 29.3105C16.6289 29.3691 16.3418 29.4336 16.1426 29.5098C15.8496 29.6211 15.6211 29.832 15.6211 30.2246C15.6211 30.4355 15.75 30.5293 16.0312 30.5293ZM18.9316 32.2988C18.4102 32.2988 18.1465 31.9824 17.9707 31.5195C17.4141 31.918 16.7168 32.1758 15.9609 32.1758C14.4727 32.1758 13.7988 31.2031 13.7988 30.248C13.7988 29.4805 14.1445 28.8066 15.0176 28.332C16.2129 27.6699 17.6895 27.875 17.8242 27.4004C17.9062 27.0898 17.1094 27.043 16.7812 27.043C16.3535 27.043 16.0605 27.0723 15.9199 27.2832C15.7441 27.5586 15.5684 27.9453 14.9766 27.957C14.5605 27.9629 14.3145 27.752 14.1914 27.5059C14.0508 27.2246 14.0156 26.9023 14.4434 26.3281C14.9238 25.6777 15.6914 25.3965 16.7812 25.3965C18.6445 25.3965 19.5762 26.0938 19.5762 27.5176C19.5762 28.1211 19.4531 28.5723 19.4531 29.498C19.4531 29.8672 19.4648 30.2363 19.541 30.5996C19.5996 30.8984 19.834 31.2793 19.834 31.543C19.834 31.918 19.5176 32.2988 18.9316 32.2988ZM21.457 29.4512C21.7148 29.4512 21.9316 29.5742 22.0781 29.6914C22.3828 29.9434 22.4707 30.1777 22.6934 30.3477C22.9863 30.5703 23.6426 30.582 24.0527 30.582C24.3867 30.582 24.791 30.5059 24.791 30.1777C24.791 29.9668 24.5684 29.8262 24.252 29.7148C23.1094 29.334 22.3008 29.3457 21.6387 28.8711C21.0059 28.4258 20.8359 27.8223 20.8359 27.2188C20.8359 26.0703 21.9668 25.3438 23.4199 25.3438C23.9414 25.3438 24.4746 25.4258 24.9434 25.6191C25.8164 25.9414 26.25 26.334 26.3262 26.9668C26.3906 27.5586 25.9922 27.8867 25.5 27.9219C25.3066 27.9395 25.0723 27.8809 24.8672 27.7109C24.6445 27.5293 24.6152 27.377 24.4746 27.2539C24.2578 27.0547 23.748 26.9844 23.4141 26.9844C23.0918 26.9844 22.7812 27.0547 22.6582 27.2188C22.5645 27.3535 22.5527 27.4707 22.8633 27.5703C23.2383 27.7285 24.2344 27.8691 25.1016 28.2148C25.9512 28.5547 26.5957 29.0703 26.5957 30.0254C26.5957 30.9102 26.0684 31.918 24.7734 32.1699C24.0762 32.2988 22.834 32.2168 22.2656 32.0293C21.6035 31.8184 20.9414 31.2266 20.7129 30.7227C20.6543 30.582 20.6191 30.459 20.6191 30.3066C20.6191 30.0371 20.8418 29.4512 21.457 29.4512ZM28.0781 24.4297C28.0781 24.0605 28.3711 23.5859 29.0156 23.5859C29.6836 23.5859 29.8828 24.1016 29.918 24.7578C29.9297 24.9805 29.9355 25.1973 29.9355 25.4199C30.1465 25.4199 30.4453 25.4199 30.709 25.4844C31.0781 25.5781 31.3242 25.7891 31.3242 26.2578C31.3242 26.6094 31.0371 27.0898 30.4043 27.0898C30.2344 27.0898 30.0879 27.0781 29.9473 27.0488C29.9355 27.6699 29.918 28.291 29.918 28.9121C29.918 29.5918 29.8945 29.8086 29.8945 30.0254C29.8945 30.418 29.9355 30.459 30.1406 30.4238C30.2051 30.4121 30.3223 30.3945 30.3926 30.3945C31.0488 30.3945 31.3066 30.9277 31.3066 31.2676C31.3066 31.9531 30.5508 32.1641 29.8594 32.1641C29.4668 32.1641 29.0508 32.0469 28.7637 31.8301C28.1191 31.3379 28.1074 30.4531 28.1074 29.8848C28.1074 29.709 28.1133 29.5391 28.1133 29.3633C28.1133 28.5957 28.1191 27.834 28.1367 27.0664C28.002 27.0547 27.8613 27.0488 27.7266 27.0312C27.123 26.9551 26.9414 26.5859 26.9414 26.2227C26.9414 25.5605 27.4746 25.3789 28.1426 25.4199C28.1309 25.0625 28.0781 24.7402 28.0781 24.4297ZM37.6465 28.332C37.6699 27.6289 37.6875 26.9316 37.7051 26.2285C37.3184 26.3574 36.8965 26.4219 36.4688 26.4219C35.7656 26.4219 35.5195 25.7891 35.5195 25.4492C35.5195 24.6875 36.498 24.7285 36.9785 24.6055C37.4297 24.4941 37.6523 24.2539 37.9277 23.9258C38.1797 23.6211 38.4785 23.3457 38.877 23.3457C39.5918 23.3457 39.7031 24.002 39.6621 24.5176C39.5508 25.7891 39.5684 27.0664 39.5449 28.3379C39.5449 29.1699 39.5801 29.9375 39.5918 30.7109C39.5918 30.8691 39.6094 31.0332 39.6094 31.1914C39.6094 31.5312 39.5332 31.8594 39.1934 32.0586C38.8652 32.2402 38.4844 32.293 38.1738 32.123C37.6641 31.8301 37.6875 31.2148 37.6758 30.7344C37.6348 29.832 37.6289 29.082 37.6465 28.332ZM44.0449 29.4277C44.1973 30.0312 44.4668 30.4824 45.0996 30.4824C45.6152 30.4824 45.8555 29.9668 45.9492 29.5508C46.1191 28.8418 46.2188 28.1035 46.2188 27.3828C46.2188 26.7793 46.1133 25.8418 45.6797 25.3789C45.5566 25.2441 45.3867 25.1738 45.1699 25.1738C44.7539 25.1738 44.4551 25.4316 44.2441 25.748C43.9336 26.2227 43.8574 27.0078 43.8574 27.5586C43.8574 28.2266 43.9043 28.8477 44.0449 29.4277ZM42.627 24.8457C43.2012 23.9199 44.1562 23.4102 45.1758 23.4102C46.0137 23.4102 46.6934 23.7617 47.1328 24.2598C47.8945 25.127 48.0996 26.3398 48.0996 27.3301C48.0996 28.1914 47.9883 29.0703 47.7891 29.9199C47.5488 30.9453 46.8164 32.2461 45.0645 32.2461C43.7871 32.2461 42.7969 31.4961 42.3691 30.3301C42.041 29.4336 41.9707 28.4727 41.9707 27.5762C41.9707 26.6914 42.1113 25.6719 42.627 24.8457Z" fill="white"/>
<path d="M10.9979 17.138C11.2361 15.9032 11.8971 14.7898 12.8672 13.9896C11.233 13.1134 9.42566 12.6085 7.57399 12.511C7.25543 14.3612 6.45704 16.1533 5.02455 17.4876C6.4891 17.13 7.26946 16.7293 10.9979 17.138Z" fill="#4071E6"/>
<path d="M5.06245 17.4876C7.04189 17.2643 9.01732 17.1791 11.0098 17.1491C11.0089 16.414 11.1932 15.6905 11.5457 15.0454C11.7405 14.6876 11.9813 14.3569 12.262 14.0617C10.9978 13.4887 9.51719 12.9918 8.13279 12.8896C7.95054 13.8209 7.58532 14.7067 7.05829 15.4958C6.53125 16.2849 5.85287 16.9616 5.06245 17.4866V17.4876Z" fill="white"/>
<path d="M7.29833 15.1115C7.6409 15.22 8.01125 15.2 8.34014 15.0553C8.66904 14.9105 8.93398 14.651 9.08544 14.3251C9.30063 14.4173 9.53775 14.4457 9.7686 14.407C9.99946 14.3683 10.2143 14.2641 10.3877 14.1068C10.5006 14.4409 10.7352 14.7202 11.0448 14.8891C11.2003 14.9727 11.3703 15.0257 11.5457 15.0454C11.7405 14.6876 11.9813 14.3569 12.262 14.0617C10.9978 13.4887 9.51719 12.9918 8.13278 12.8896C7.98225 13.6721 7.7001 14.4234 7.29833 15.1115Z" fill="#F4F0FF"/>
<path d="M14.451 16.1873C15.601 16.1873 16.6719 15.432 17.1056 14.3842C17.2468 14.4311 17.3946 14.4547 17.5434 14.4543C17.7381 14.457 17.931 14.4157 18.1076 14.3335C18.2841 14.2513 18.4399 14.1303 18.5632 13.9795C18.6693 13.8397 18.7451 13.6793 18.7856 13.5085C18.8261 13.3377 18.8306 13.1604 18.7986 12.9878C18.8557 12.9878 18.9118 12.9928 18.9689 12.9928C20.0608 12.9928 21.1186 12.4679 21.7307 11.6224C22.6012 10.4203 22.5381 8.65224 21.5834 7.51526C20.771 6.54457 19.5799 6.23904 18.7335 6.15289C18.5271 6.13286 18.3538 6.12284 18.1885 6.12284H18.1615C18.4779 5.56642 18.6147 4.9258 18.5531 4.28865C18.483 3.65755 17.9461 3.07454 17.2509 2.86918C17.1076 2.82776 16.9592 2.80684 16.8101 2.80708C16.4378 2.80776 16.0753 2.92706 15.7753 3.14767C15.6355 2.84773 15.4263 2.58537 15.165 2.38226C14.9037 2.17916 14.5979 2.04115 14.2727 1.97964C14.1749 1.96442 14.0761 1.95672 13.9772 1.9566C13.6568 1.96168 13.3417 2.039 13.0553 2.18278C12.769 2.32657 12.5188 2.53312 12.3233 2.78704C11.7373 1.80533 11.0711 1.09109 10.2998 0.615265C9.65734 0.218397 8.91821 0.00563343 8.16308 0.000195873C7.56602 -0.0064037 6.97899 0.153886 6.46814 0.463C5.49845 1.06405 4.89741 2.23508 4.89841 3.51531C4.89841 4.35376 5.13682 5.21326 5.60764 6.07776C5.43709 6.14056 5.28087 6.23693 5.14821 6.36116C5.01555 6.48539 4.90915 6.63495 4.8353 6.80102C4.61491 7.3099 4.69405 7.93599 5.04667 8.47493C5.14812 8.62892 5.26492 8.77223 5.39527 8.90267C5.05465 9.04564 4.75377 9.26906 4.51841 9.55379C4.28305 9.83852 4.12024 10.1761 4.04392 10.5375C3.85159 11.5032 4.30237 12.6021 5.16487 13.2703C6.0444 13.9535 7.11226 14.0967 7.85354 14.0967H7.91866C8.72005 14.0877 9.48939 13.9274 10.3228 13.7231C10.4543 13.8964 10.6243 14.0368 10.8194 14.1331C11.0144 14.2294 11.2292 14.279 11.4468 14.278C11.5517 14.2783 11.6563 14.2662 11.7583 14.242C12.146 15.3268 13.2279 16.1603 14.3919 16.1863L14.451 16.1873Z" fill="#4071E6"/>
<path d="M5.52548 13.081C6.21669 13.6169 7.12026 13.8213 7.99377 13.8102C8.86729 13.7992 9.72779 13.5919 10.5753 13.3765C10.7395 13.9655 11.6111 14.1979 12.0468 13.7682C12.1931 14.9001 13.2489 15.8448 14.3859 15.8718C15.5229 15.8989 16.6198 15.0033 16.8191 13.8783C17.1517 14.279 17.8549 14.261 18.1725 13.8533C18.49 13.4456 18.3307 12.7604 17.8659 12.535C19.054 13.0078 20.5366 12.5771 21.2859 11.5413C21.952 10.6217 21.9871 9.30139 21.4041 8.33572C21.3325 8.21294 21.2504 8.09664 21.1587 7.98811C20.5286 7.2358 19.5699 6.8862 18.6162 6.78602C18.1094 6.73393 17.6145 6.73493 17.1307 6.9443C17.2619 6.86716 18.2236 5.87644 18.0803 4.59321C18.0252 4.10136 17.5674 3.67762 17.0786 3.53437C16.4214 3.34204 15.619 3.7838 15.5249 4.46198C15.6321 3.64055 15.004 2.79609 14.1895 2.66486C13.3751 2.53363 12.5126 3.13568 12.3564 3.94508C11.8254 2.89125 11.1242 1.8825 10.1225 1.26442C9.28602 0.748527 8.20815 0.554189 7.29356 0.863727C7.11126 0.926141 6.93653 1.0088 6.77265 1.11016C5.89112 1.66312 5.41429 2.73799 5.41429 3.7798C5.41429 4.82161 5.83502 5.82836 6.41603 6.69386C6.01534 6.50453 5.49543 6.76899 5.31913 7.1787C5.14282 7.58842 5.25101 8.08027 5.49443 8.45092C5.73785 8.82156 6.09548 9.10305 6.46311 9.3625C5.60061 9.21625 4.73411 9.92348 4.5598 10.781C4.3855 11.6385 4.83428 12.545 5.52548 13.081Z" fill="white"/>
<path d="M4.56781 10.781C4.73811 9.92347 5.60461 9.21624 6.47112 9.36249C6.10849 9.10304 5.74686 8.82356 5.50243 8.45091C5.25801 8.07826 5.14982 7.58741 5.32713 7.1787C5.50444 6.76999 6.01533 6.50452 6.41602 6.69385C5.83501 5.82835 5.41428 4.8226 5.41428 3.77979C5.41428 2.73698 5.89111 1.66311 6.77665 1.11215C6.94053 1.0108 7.11525 0.928136 7.29755 0.865723C6.91859 1.33432 6.6432 1.8779 6.48953 2.46064C6.33586 3.04338 6.30739 3.65206 6.406 4.2466C6.53736 4.94473 6.84153 5.59882 7.29072 6.14916C7.73991 6.69949 8.31981 7.12852 8.97748 7.39708C8.8246 7.47623 8.70563 7.60814 8.64261 7.76834C8.5796 7.92854 8.57683 8.10616 8.63482 8.26824C8.6928 8.43033 8.8076 8.56589 8.95793 8.64977C9.10826 8.73365 9.28391 8.76016 9.4523 8.72438C8.73105 8.92473 8.38745 9.8834 8.69999 10.5726C9.01955 11.2738 9.83096 11.6635 10.6033 11.6745C11.3756 11.6855 12.1229 11.389 12.8171 11.0434C12.8081 11.404 13.318 11.6445 13.5915 11.407C13.7324 11.7228 13.9723 11.9841 14.2749 12.1514C14.5774 12.3187 14.9263 12.383 15.2686 12.3344C15.611 12.2859 15.9282 12.1272 16.1723 11.8823C16.4164 11.6375 16.5742 11.3198 16.6218 10.9773C16.7082 11.0587 16.8189 11.1097 16.937 11.1226C17.0551 11.1354 17.1742 11.1094 17.2761 11.0484C17.3781 10.9875 17.4574 10.8949 17.502 10.7848C17.5466 10.6747 17.5541 10.5531 17.5233 10.4384C18.4089 11.1015 19.7552 11.0504 20.5887 10.3232C20.8638 10.0722 21.0794 9.76302 21.22 9.41817C21.3605 9.07332 21.4224 8.70147 21.4011 8.3297C21.9821 9.30139 21.952 10.6187 21.2859 11.5413C20.5366 12.5771 19.054 13.0078 17.8659 12.535C18.3307 12.7604 18.49 13.4456 18.1725 13.8533C17.8549 14.261 17.1517 14.274 16.8191 13.8783C16.6188 15.0033 15.5269 15.8979 14.3859 15.8718C13.2449 15.8458 12.1931 14.9001 12.0468 13.7682C11.6111 14.1979 10.7445 13.9685 10.5753 13.3765C9.72778 13.5918 8.87229 13.8002 7.99376 13.8102C7.11524 13.8202 6.21668 13.6169 5.52547 13.081C4.83427 12.545 4.39751 11.6384 4.56781 10.781ZM17.4793 13.3614C17.4993 13.4372 17.5391 13.5063 17.5945 13.5618C17.6275 13.5935 17.6686 13.6155 17.7132 13.6256C17.7579 13.6357 17.8045 13.6333 17.8479 13.6189C17.9019 13.6011 17.9484 13.5658 17.9801 13.5187C18.0045 13.4772 18.0186 13.4305 18.0212 13.3825C18.0263 13.3056 18.014 13.2285 17.9851 13.1571C17.9623 13.0836 17.9248 13.0154 17.8749 12.9567C17.8606 12.9421 17.8428 12.9314 17.8231 12.9256C17.8035 12.9199 17.7827 12.9192 17.7627 12.9237C17.7315 12.9078 17.6967 12.9001 17.6617 12.9014C17.6266 12.9026 17.5925 12.9127 17.5624 12.9307C17.5259 12.9569 17.4962 12.9916 17.4758 13.0316C17.4554 13.0717 17.4449 13.1161 17.4452 13.1611C17.4442 13.2294 17.4557 13.2973 17.4793 13.3614ZM6.78867 7.59342C6.82541 7.61301 6.86625 7.62365 6.90788 7.62447C6.9273 7.625 6.94666 7.62194 6.96498 7.61546C6.99294 7.60658 7.01836 7.59112 7.03911 7.57038C7.0598 7.54919 7.07479 7.5231 7.08267 7.49454C7.09056 7.46599 7.09108 7.4359 7.08418 7.40709C7.07182 7.37351 7.05286 7.34275 7.02843 7.3166C7.00401 7.29045 6.9746 7.26945 6.94194 7.25483C6.90587 7.23479 6.86681 7.21977 6.82974 7.20073C6.79898 7.18455 6.76344 7.17993 6.72957 7.18771C6.70261 7.19557 6.67902 7.21212 6.66245 7.23479C6.64124 7.244 6.62163 7.25651 6.60435 7.27186C6.58043 7.29637 6.56703 7.32927 6.56703 7.36352C6.56703 7.39777 6.58043 7.43067 6.60435 7.45518C6.64271 7.49178 6.68391 7.52527 6.72756 7.55535C6.74665 7.56999 6.76711 7.58274 6.78867 7.59342ZM6.64242 7.79377C6.65104 7.74742 6.64864 7.6997 6.63542 7.65446C6.62219 7.60921 6.59851 7.56771 6.56628 7.53331C6.45992 7.4389 6.33193 7.37215 6.19363 7.33898C6.17156 7.33142 6.1476 7.33142 6.12552 7.33898C6.07665 7.31045 6.02002 7.29809 5.96371 7.30367C5.9074 7.30925 5.85429 7.33247 5.81197 7.37003C5.76891 7.41263 5.74274 7.46939 5.73832 7.5298C5.7339 7.59022 5.75152 7.65019 5.78793 7.6986C5.81692 7.7382 5.85055 7.77419 5.8881 7.80579C5.89812 7.8158 5.90814 7.82682 5.91816 7.83584C5.96216 7.87521 6.01097 7.90887 6.06341 7.93601C6.19363 8.00413 6.36393 8.05622 6.49817 7.9851C6.53479 7.96628 6.56675 7.93951 6.59171 7.90675C6.61666 7.874 6.63399 7.83608 6.64242 7.79577V7.79377Z" fill="#F4F0FF"/>
<path d="M11.4505 12.5701C11.3853 12.6788 11.3483 12.8021 11.3429 12.9288C11.3374 13.0554 11.3638 13.1814 11.4195 13.2953C11.4769 13.4082 11.5563 13.5085 11.653 13.5904C11.7496 13.6723 11.8616 13.7341 11.9824 13.7722C12.2261 13.8458 12.4861 13.8458 12.7297 13.7722C12.862 13.7384 12.9856 13.6769 13.0924 13.5918C13.2014 13.5061 13.2732 13.3816 13.2927 13.2442C12.8695 13.3791 12.4116 13.3541 12.0055 13.1741C11.725 13.0489 11.5046 12.8666 11.4505 12.5701Z" fill="#4071E6"/>
<path d="M7.85547 9.10294C7.68802 9.02057 7.50523 8.97401 7.31878 8.96625C7.13233 8.95849 6.9463 8.98969 6.77259 9.05786C6.62475 9.10997 6.49714 9.20743 6.40795 9.33634C6.3249 9.48396 6.30091 9.65758 6.34084 9.82219C6.38479 10.0151 6.48679 10.19 6.63311 10.3233C6.77943 10.4565 6.96304 10.5417 7.15926 10.5675C6.97532 10.3916 6.8495 10.1637 6.79863 9.91435C6.77751 9.78785 6.79041 9.658 6.836 9.53813C6.88159 9.41825 6.95824 9.31266 7.05808 9.23216C7.17715 9.15262 7.31573 9.10723 7.45878 9.10093C7.59079 9.08933 7.72359 9.09 7.85547 9.10294Z" fill="#4071E6"/>
</svg>
