<svg width="107" height="111" viewBox="0 0 107 111" fill="none" xmlns="http://www.w3.org/2000/svg">
<path d="M85.6065 40.9837L84.3269 41.8075L79.4811 36.1394L78.8797 35.4356C79.289 34.4751 79.6414 33.4915 79.9352 32.4897C80.4473 30.6907 80.3386 29.9768 80.3386 29.9768C80.3386 29.9768 77.7253 21.9519 70.6654 18.844C63.6055 15.736 55.9336 19.2381 55.9336 19.2381C55.9336 19.2381 55.334 19.6392 54.3509 21.2342C53.8086 22.1267 53.3203 23.051 52.8888 24.002L44.5129 24.301L44.2496 22.7959L51.5844 22.3488C52.2658 20.6348 53.2361 19.0503 54.4531 17.6644C54.5211 17.5889 54.5928 17.5169 54.6682 17.4488C56.3648 16.3733 59.1556 15.6578 62.2236 15.5213C65.2418 15.3496 68.2621 15.8198 71.0852 16.901L71.4536 17.0571C77.0818 19.5366 81.8097 25.7423 82.5225 29.6752C82.5225 29.6752 82.5897 31.6671 80.9944 35.2638L85.6248 40.9716L85.6065 40.9837Z" fill="white"/>
<path d="M84.2306 42.0236C84.1967 42.0149 84.1659 41.9971 84.1414 41.9721L78.704 35.5833C78.676 35.5504 78.6577 35.5103 78.6513 35.4676C78.645 35.4249 78.6507 35.3813 78.668 35.3417C79.0718 34.3894 79.4193 33.4142 79.7087 32.4212C79.9729 31.6521 80.1046 30.8437 80.0982 30.0306C79.9416 29.5665 77.2648 22.0144 70.5727 19.0735C63.8805 16.1326 56.4931 19.2498 56.0489 19.4406C55.4497 19.9917 54.9449 20.6374 54.5548 21.352C54.0159 22.2352 53.5325 23.1511 53.1074 24.0943C53.0898 24.134 53.0613 24.168 53.0253 24.1922C52.9893 24.2165 52.9471 24.2301 52.9036 24.2314L44.526 24.5237C44.4692 24.5264 44.4135 24.5081 44.3694 24.4722C44.3253 24.4363 44.2961 24.3854 44.2873 24.3292L44.0215 22.8284C44.0147 22.7862 44.0195 22.7429 44.0354 22.7033C44.0514 22.6636 44.0778 22.629 44.1119 22.6032C44.1542 22.5704 44.2063 22.5526 44.2599 22.5528L51.4451 22.1098C52.1225 20.4302 53.077 18.8763 54.269 17.5128C54.3434 17.4307 54.4236 17.354 54.509 17.2834C54.512 17.2739 54.5171 17.2652 54.5237 17.2579C56.2898 16.1602 59.0661 15.4306 62.1937 15.2889C65.2527 15.1131 68.3141 15.5896 71.175 16.6868L71.5434 16.8429C77.2553 19.3538 82.022 25.6101 82.7392 29.6531C82.737 29.6611 82.7327 29.6684 82.7269 29.6744C82.7308 29.7559 82.7781 31.7136 81.2208 35.2247L85.7843 40.8033C85.8223 40.8422 85.8449 40.8935 85.8481 40.9477C85.8486 40.99 85.8377 41.0316 85.8166 41.0682C85.7955 41.1049 85.7649 41.1351 85.728 41.1558L84.4485 41.9796C84.4186 42.0043 84.3831 42.0213 84.3451 42.0289C84.307 42.0366 84.2677 42.0348 84.2306 42.0236ZM44.5284 23.0192L44.7099 24.0581L52.7354 23.7776C53.157 22.8673 53.6304 21.9819 54.1532 21.1258C55.151 19.5053 55.7787 19.0751 55.8062 19.057L55.8209 19.0315C55.9001 18.9923 63.6753 15.5272 70.7631 18.6456C77.8509 21.764 80.5205 29.8385 80.5586 29.9C80.5463 29.9213 80.6718 30.6844 80.182 32.5133C79.9037 33.472 79.5714 34.4143 79.1867 35.3355L84.4041 41.4388L85.2969 40.8729L80.8279 35.3659C80.8006 35.3322 80.7834 35.2915 80.7782 35.2484C80.773 35.2054 80.7801 35.1617 80.7986 35.1225C82.2906 31.7832 82.3169 29.8452 82.3171 29.6585C81.5675 25.7893 76.915 19.7178 71.3573 17.2733L70.9973 17.1221C68.204 16.0494 65.2149 15.5817 62.2275 15.75C59.2343 15.8844 56.4618 16.5879 54.8085 17.6374C54.7406 17.6943 54.6767 17.7558 54.6173 17.8215C53.4294 19.1887 52.483 20.7482 51.8189 22.4332C51.8008 22.4726 51.7722 22.5062 51.7363 22.5304C51.7003 22.5546 51.6584 22.5684 51.6151 22.5703L44.5284 23.0192Z" fill="#232323"/>
<path d="M50.1955 21.1165C50.046 21.4565 49.7989 21.7446 49.4856 21.9442C49.1723 22.1438 48.8068 22.246 48.4354 22.2379C48.064 22.2297 47.7034 22.1116 47.3991 21.8984C47.0949 21.6852 46.8607 21.3866 46.7262 21.0403C46.5917 20.694 46.563 20.3156 46.6436 19.953C46.7242 19.5903 46.9106 19.2598 47.1791 19.0031C47.4477 18.7464 47.7863 18.5751 48.1523 18.511C48.5182 18.4468 48.8949 18.4926 49.2348 18.6426C49.69 18.8435 50.0469 19.2169 50.227 19.6807C50.4072 20.1446 50.3958 20.661 50.1955 21.1165Z" fill="white"/>
<path d="M47.5927 22.3597C47.197 22.1853 46.8618 21.8976 46.6296 21.5328C46.3974 21.168 46.2786 20.7425 46.2882 20.3102C46.2978 19.8779 46.4353 19.4581 46.6834 19.104C46.9315 18.7498 47.2791 18.4772 47.6821 18.3205C48.0852 18.1638 48.5256 18.1302 48.9478 18.2238C49.3699 18.3175 49.7549 18.5341 50.0539 18.8465C50.3529 19.1589 50.5526 19.5529 50.6277 19.9787C50.7029 20.4046 50.65 20.8431 50.4759 21.239C50.3608 21.5024 50.1948 21.7404 49.9873 21.9394C49.7799 22.1384 49.5352 22.2945 49.2673 22.3986C48.9993 22.5028 48.7135 22.5529 48.4261 22.5463C48.1387 22.5396 47.8555 22.4762 47.5927 22.3597ZM49.1016 18.9226C48.8185 18.7981 48.505 18.7604 48.2005 18.8141C47.896 18.8678 47.6143 19.0105 47.3909 19.2242C47.1675 19.438 47.0124 19.7131 46.9454 20.0149C46.8783 20.3168 46.9021 20.6317 47.014 20.9199C47.1258 21.2082 47.3205 21.4568 47.5736 21.6344C47.8266 21.8121 48.1267 21.9107 48.4358 21.9179C48.7448 21.9251 49.0491 21.8405 49.3102 21.6748C49.5712 21.5091 49.7773 21.2698 49.9024 20.9871C50.0691 20.607 50.0785 20.1764 49.9284 19.7894C49.7783 19.4025 49.481 19.0908 49.1016 18.9226Z" fill="#232323"/>
<path d="M48.0674 18.8406C48.1881 18.8183 48.3122 18.8234 48.4306 18.8556C48.549 18.8877 48.6586 18.946 48.7515 19.0263C48.8443 19.1065 48.9179 19.2065 48.9668 19.319C49.0158 19.4315 49.0388 19.5536 49.0343 19.6762C49.0811 20.3599 47.3736 20.7385 47.3736 20.7385C47.3736 20.7385 48.2579 21.8152 49.3463 21.1754C50.4346 20.5356 49.8887 19.1278 49.8887 19.1278C49.8887 19.1278 49.1602 18.3109 48.3171 18.4865C47.4741 18.6622 48.0674 18.8406 48.0674 18.8406Z" fill="#232323"/>
<path d="M86.4839 37.6008C86.334 37.9392 86.0872 38.2256 85.7747 38.4239C85.4622 38.6221 85.0979 38.7233 84.7279 38.7147C84.3579 38.7061 83.9987 38.5881 83.6958 38.3755C83.3928 38.1629 83.1596 37.8654 83.0256 37.5204C82.8916 37.1754 82.8629 36.7984 82.943 36.4371C83.023 36.0757 83.2084 35.7462 83.4756 35.4901C83.7428 35.2341 84.0799 35.0629 84.4443 34.9983C84.8087 34.9336 85.1841 34.9784 85.5231 35.1269C85.749 35.2259 85.953 35.3685 86.1237 35.5465C86.2943 35.7245 86.428 35.9345 86.5173 36.1643C86.6066 36.3942 86.6496 36.6394 86.6438 36.8859C86.6381 37.1324 86.5838 37.3753 86.4839 37.6008Z" fill="white"/>
<path d="M83.8895 38.8487C83.4966 38.6704 83.1653 38.3798 82.9372 38.0135C82.7091 37.6472 82.5945 37.2216 82.6078 36.7903C82.6211 36.3591 82.7617 35.9413 83.0118 35.5898C83.262 35.2382 83.6106 34.9685 84.0138 34.8147C84.4169 34.6609 84.8565 34.6297 85.2773 34.7252C85.6981 34.8207 86.0812 35.0385 86.3785 35.3513C86.6757 35.6641 86.8738 36.0578 86.9477 36.4829C87.0217 36.908 86.9682 37.3455 86.794 37.7403C86.6768 38.0044 86.5085 38.2427 86.2989 38.4415C86.0892 38.6403 85.8423 38.7956 85.5723 38.8987C85.3024 39.0017 85.0148 39.0503 84.726 39.0417C84.4372 39.0332 84.1529 38.9676 83.8895 38.8487ZM85.396 35.4159C85.1136 35.2929 84.8011 35.2563 84.498 35.3107C84.1949 35.3652 83.9147 35.5081 83.6927 35.7216C83.4707 35.9351 83.3169 36.2095 83.2508 36.5103C83.1846 36.8111 83.209 37.1247 83.3209 37.4117C83.4327 37.6986 83.6271 37.946 83.8794 38.1226C84.1317 38.2992 84.4306 38.3971 84.7385 38.404C85.0464 38.4109 85.3495 38.3265 85.6094 38.1613C85.8694 37.9962 86.0746 37.7578 86.1992 37.4762C86.3658 37.0964 86.3748 36.6661 86.2242 36.2797C86.0735 35.8934 85.7756 35.5826 85.396 35.4159Z" fill="#232323"/>
<path d="M84.3601 35.3275C84.4811 35.3054 84.6056 35.3107 84.7243 35.343C84.843 35.3753 84.953 35.4338 85.0461 35.5142C85.1393 35.5946 85.2132 35.6948 85.2626 35.8075C85.3119 35.9202 85.3353 36.0426 85.3312 36.1655C85.378 36.8493 83.6681 37.2321 83.6681 37.2321C83.6681 37.2321 84.5604 38.2851 85.6389 37.6623C86.7175 37.0395 86.1856 35.6172 86.1856 35.6172C86.1856 35.6172 85.4528 34.7978 84.614 34.9759C83.7752 35.154 84.3601 35.3275 84.3601 35.3275Z" fill="#232323"/>
<path d="M55.3171 18.9331C55.322 18.8817 55.3119 18.83 55.2882 18.7841C55.2646 18.7382 55.2282 18.7001 55.1835 18.6743C55.1388 18.6484 55.0876 18.636 55.036 18.6384C54.9844 18.6409 54.9346 18.658 54.8925 18.6879C53.9967 19.3766 52.9943 22.5739 52.2289 23.0661C51.3483 23.6108 44.4855 22.8188 44.2715 22.7972L44.5348 24.3023L52.8863 24.0062C53.3179 23.0552 53.8061 22.1309 54.3484 21.2384C54.7887 20.5247 55.1154 19.747 55.3171 18.9331ZM53.1433 23.3846C52.9178 23.7753 52.5963 24.0086 52.461 23.9192C52.3258 23.8298 52.4163 23.4574 52.6588 23.0766C52.9013 22.6958 53.2076 22.4593 53.3386 22.5463C53.4696 22.6332 53.3834 23.008 53.1433 23.3846Z" fill="#232323"/>
<path d="M55.4536 18.1966C55.2595 18.6506 57.7277 18.4056 59.05 18.2236C60.1824 17.9404 61.3354 17.7466 62.4982 17.6442C64.1943 17.5428 65.8963 17.6221 67.5756 17.8808C67.5756 17.8808 68.1168 17.7574 67.7505 17.6761C66.1648 17.3332 64.5552 17.1117 62.9358 17.0137C60.418 16.913 55.6853 17.6679 55.4536 18.1966Z" fill="#232323"/>
<path d="M82.517 29.6945C82.1634 27.7184 80.8046 25.1788 78.8307 22.8221C76.9162 20.4816 74.5273 18.5737 71.8215 17.2241L71.0852 16.9009C68.261 15.8183 65.2392 15.3472 62.2194 15.5187C59.1514 15.6552 56.3606 16.3707 54.664 17.4463C54.5886 17.5143 54.5169 17.5863 54.449 17.6618L54.5397 17.9067C55.2161 17.3234 64.0649 14.7442 70.7418 17.682L71.478 18.0052C78.1422 20.9356 82.2279 29.2049 82.2623 30.0966L82.5053 29.9991C82.5408 29.8102 82.517 29.6945 82.517 29.6945Z" fill="#232323"/>
<path d="M82.464 38.8862C81.5598 37.9386 80.7523 36.9034 80.0531 35.7959C80.0116 35.7154 79.9878 35.627 79.9833 35.5365C79.9789 35.446 79.994 35.3557 80.0275 35.2716C80.6088 33.8135 81.0728 32.3113 81.4152 30.7794C81.4424 30.6355 81.437 30.4873 81.3995 30.3457C80.6537 27.4924 79.1188 24.907 76.9708 22.8862C73.4131 19.6546 70.7595 18.632 70.7595 18.632L70.6443 18.8316C77.7042 21.9396 80.3157 29.9578 80.3157 29.9578C80.3157 29.9578 80.4244 30.6716 79.9123 32.4706C79.6185 33.4724 79.2661 34.4561 78.8568 35.4165L78.9845 35.5582C79.0302 35.2095 79.1141 34.8668 79.2347 34.5364C79.4867 33.8157 80.0327 32.7326 80.1728 32.8135C80.3129 32.8944 80.1709 33.7975 79.7951 34.7524C79.6636 35.1457 79.4755 35.5177 79.2368 35.8567L79.4534 36.0894L79.4314 36.1276L84.2772 41.7956C84.2772 41.7956 84.6947 41.4648 82.464 38.8862Z" fill="#232323"/>
<path d="M59.1299 32.1172C56.301 34.0165 53.2684 34.8076 49.3999 35.3991C48.825 35.4861 48.2268 35.571 47.6054 35.6538C47.2068 35.7068 46.804 35.7573 46.4056 35.7707C42.8395 36.0542 39.2564 35.5015 35.9415 34.1563C35.8692 34.1246 35.8092 34.0701 35.7707 34.0011C35.7341 33.9427 35.7181 33.8737 35.7253 33.8051C35.92 30.9283 37.8232 27.6906 40.94 25.7536C42.3871 24.8581 44.0152 24.2955 45.7065 24.1067C47.7782 23.8673 49.8772 24.0893 51.853 24.7568C52.1372 24.8529 52.4165 24.9576 52.6908 25.0707C55.9444 26.417 58.4048 28.9018 59.2588 31.7273C59.2803 31.7963 59.2774 31.8706 59.2505 31.9377C59.2325 32.0097 59.1898 32.0732 59.1299 32.1172Z" fill="#8CA7AF"/>
<path d="M35.7566 34.6725L35.7227 34.6529C35.543 34.5844 35.3908 34.4587 35.2894 34.2952C35.223 34.1834 35.1832 34.0577 35.1731 33.928L35.1519 33.9158L35.1616 33.7911C35.1616 33.7911 35.1648 33.7364 35.1668 33.7036C35.4176 30.5139 37.5448 27.2413 40.6073 25.3296L40.6294 25.2914L40.6769 25.2679C42.1782 24.3527 43.8625 23.7789 45.6102 23.5871C47.7671 23.3441 49.951 23.5787 52.0071 24.2741C52.3192 24.3807 52.6027 24.4878 52.8771 24.6009C56.2982 26.01 58.8735 28.6291 59.7628 31.5995C59.8109 31.7757 59.8054 31.9622 59.7469 32.1352C59.6884 32.3082 59.5795 32.4597 59.4343 32.5705C56.4706 34.5562 53.3018 35.3478 49.4795 35.9377C48.9166 36.0204 48.3294 36.1059 47.674 36.1918C47.2688 36.2465 46.8599 36.2879 46.462 36.3299C42.8133 36.6158 39.1481 36.0484 35.7566 34.6725ZM41.1846 26.2516C38.4342 27.9756 36.5288 30.8837 36.3033 33.7257C39.5047 34.9968 42.9555 35.5151 46.389 35.2404C46.7729 35.213 47.1641 35.1727 47.5517 35.1191C48.1961 35.0326 48.7809 34.9513 49.3328 34.868C52.9452 34.2984 55.9466 33.5517 58.7046 31.7359C57.8679 29.1355 55.5569 26.8331 52.5037 25.5516C52.2488 25.444 51.9865 25.3492 51.6938 25.2482C49.7951 24.6074 47.7782 24.394 45.7874 24.6235C44.1813 24.8049 42.6356 25.3417 41.2627 26.1948L41.2357 26.2415L41.1846 26.2516Z" fill="#232323"/>
<path d="M35.7234 33.7986C35.7234 33.7986 46.1219 28.8589 58.0891 31.341C58.0891 31.341 54.9071 22.9481 44.9939 24.1938C45.0151 24.206 36.8785 25.8263 35.7234 33.7986Z" fill="#8CA7AF"/>
<path d="M57.5205 31.3354C57.5205 31.3354 53.5311 34.6368 50.2006 35.2671C46.8702 35.8975 39.6079 34.6599 37.2041 33.1362C39.5822 32.1265 42.0986 31.4801 44.6689 31.2185C48.8023 30.8252 54.3093 30.8571 54.3093 30.8571C53.3845 31.9894 52.2953 32.9769 51.0781 33.7866C51.0781 33.7866 54.5585 32.5238 55.9127 31.0412L57.5205 31.3354Z" fill="#232323"/>
<path d="M36.0585 34.4732L35.3623 33.6297C37.2783 32.0468 41.7528 30.837 47.3696 30.3944C51.6232 30.0479 57.0776 30.1512 59.5942 31.4796L59.0858 32.4485C57.1801 31.4445 52.6142 31.0672 47.456 31.4803C42.1451 31.9127 37.7755 33.0585 36.0585 34.4732Z" fill="#232323"/>
<path d="M49.3961 35.4253L48.9407 30.8994C48.4778 30.9265 46.2521 31.0455 45.7939 31.1037L46.4098 35.9204L49.3961 35.4253Z" fill="white"/>
<path d="M45.9539 36.5629L45.1824 30.643L45.7142 30.5651C46.0866 30.5084 47.3409 30.4343 48.4887 30.378L48.9096 30.355L49.4322 30.3226L49.9906 35.8761L45.9539 36.5629ZM46.4102 31.5953L46.901 35.2755L48.7925 34.9409L48.4492 31.4761C47.8962 31.5022 47.0015 31.5518 46.4102 31.5953Z" fill="#232323"/>
<path d="M48.7432 31.261C48.5723 31.4139 48.4197 31.586 48.2884 31.7741C48.1475 31.9694 48.0268 32.1785 47.9281 32.3982C47.8313 32.6303 47.7552 32.8705 47.7005 33.116C47.6474 33.3709 47.6171 33.6301 47.6101 33.8904C47.5237 33.637 47.4621 33.3758 47.4263 33.1105C47.39 32.8362 47.3794 32.559 47.3947 32.2827C47.4077 31.9966 47.4519 31.7127 47.5268 31.4362C47.6031 31.1475 47.7112 30.8681 47.8491 30.6033L48.7432 31.261Z" fill="#232323"/>
<path d="M52.7023 25.0606C52.4279 24.9475 52.1486 24.8429 51.8645 24.7468C50.067 24.5569 48.2498 24.7238 46.517 25.238C44.7842 25.7522 43.1701 26.6035 41.7671 27.743L40.4207 27.3393C40.8387 26.5981 41.4672 25.9975 42.2266 25.6136C43.4492 25.0061 41.044 25.7008 40.9514 25.7435C38.2068 27.5557 37.2572 31.8479 37.2403 32.0929C38.2019 31.5158 40.4666 30.8192 43.2857 30.3295C43.2096 29.6572 43.1663 28.1829 44.3059 28.1898C44.9207 28.1937 44.4366 29.7088 44.0245 30.2069C46.505 29.8144 49.0184 29.6688 51.5277 29.772C51.3949 29.1293 50.9541 26.5196 51.7526 26.2447C52.5511 25.9697 53.7729 26.7657 54.2795 27.5847C54.65 28.4077 54.8851 29.2852 54.9757 30.1833C56.4813 30.4565 57.9314 30.9762 59.2678 31.7215C58.4247 28.8966 55.9534 26.4112 52.7023 25.0606ZM45.9393 27.508C45.7865 27.4198 45.7635 27.1065 45.9067 26.7702C46.0499 26.434 46.3087 26.221 46.4756 26.2948C46.6425 26.3685 46.6514 26.6963 46.5015 27.0344C46.3516 27.3724 46.1062 27.5817 45.9393 27.508Z" fill="#232323"/>
<path d="M26.7712 74.7696L20.3182 81.7891L21.4941 83.4588L29.5527 79.4439L26.7712 74.7696Z" fill="#232323"/>
<path d="M21.3182 84.1553L19.6159 81.7402L26.8676 73.8571L30.3081 79.6648L21.3182 84.1553ZM21.0184 81.8309L21.6649 82.7703L28.7957 79.2445L26.6885 75.7068L21.0184 81.8309Z" fill="#232323"/>
<path d="M21.0548 82.837C21.0548 82.837 26.2749 77.257 27.1068 78.0713C27.9387 78.8856 21.1986 83.0389 21.1986 83.0389L21.0548 82.837Z" fill="white"/>
<path d="M25.6902 75.9457C26.3194 76.5523 25.8715 77.7204 23.9516 79.2218C22.0318 80.7233 20.3182 81.789 20.3182 81.789L25.6902 75.9457Z" fill="white"/>
<path d="M21.3182 84.1553L19.6159 81.7402L26.8676 73.8571L30.3081 79.6648L21.3182 84.1553ZM21.0184 81.8309L21.6649 82.7703L28.7957 79.2445L26.6885 75.7068L21.0184 81.8309Z" fill="#232323"/>
<path d="M24.7084 77.1979L23.8037 77.8118L26.1245 81.2318L27.0292 80.6179L24.7084 77.1979Z" fill="#232323"/>
<path d="M59.1204 88.9966L58.3131 98.4943L56.2832 98.7547L53.7974 90.107L59.1204 88.9966Z" fill="#232323"/>
<path d="M55.889 99.3593L53.1085 89.6923L59.7262 88.3103L58.82 98.9795L55.889 99.3593ZM54.4864 90.5219L56.6685 98.1563L57.7954 98.0087L58.5038 89.6823L54.4864 90.5219Z" fill="#232323"/>
<path d="M57.036 98.6571C57.036 98.6571 57.602 91.058 56.4694 90.9703C55.3369 90.8825 56.8018 98.6804 56.8018 98.6804L57.036 98.6571Z" fill="white"/>
<path d="M58.9832 90.5875C58.1102 90.5308 57.553 91.6527 57.7453 94.0849C57.8606 95.5633 58.0501 97.035 58.3131 98.4945L58.9832 90.5875Z" fill="white"/>
<path d="M55.889 99.3593L53.1085 89.6923L59.7262 88.3103L58.82 98.9795L55.889 99.3593ZM54.4864 90.5219L56.6685 98.1563L57.7954 98.0087L58.5038 89.6823L54.4864 90.5219Z" fill="#232323"/>
<path d="M58.728 92.1508L54.6389 92.7524L54.7981 93.8341L58.8871 93.2325L58.728 92.1508Z" fill="#232323"/>
<path d="M64.7974 34.9077L62.7958 34.0273L61.3588 37.2946L63.3605 38.1749L64.7974 34.9077Z" fill="#8CA7AF"/>
<path d="M63.6454 38.8968L60.6387 37.5741L62.5306 33.3165L65.5374 34.6392L63.6454 38.8968ZM62.0824 37.015L63.0796 37.4549L64.0718 35.1971L63.0746 34.7572L62.0824 37.015Z" fill="#232323"/>
<path d="M67.8955 34.438C67.7909 34.6782 67.6315 34.8905 67.43 35.058C67.2883 35.1814 67.1264 35.2795 66.9513 35.3478C66.5321 35.5115 66.065 35.5024 65.6525 35.3225L61.9052 33.6742C61.5588 33.5212 61.2736 33.2566 61.0951 32.9226C60.9165 32.5887 60.8548 32.2046 60.9198 31.8315C60.9442 31.6973 60.9837 31.5663 61.0376 31.441C61.1104 31.2749 61.2101 31.1221 61.3328 30.9886C61.5706 30.7237 61.8863 30.5409 62.2344 30.4663C62.5826 30.3917 62.9454 30.4292 63.2709 30.5734L67.0181 32.2217C67.1714 32.2812 67.3146 32.3638 67.4427 32.4668C67.7198 32.7032 67.9135 33.0226 67.995 33.3775C68.0766 33.7325 68.0417 34.1043 67.8955 34.438Z" fill="#232323"/>
<path d="M67.96 33.1788C67.9107 33.0394 67.832 32.9123 67.7292 32.8061C67.6264 32.6999 67.502 32.617 67.3643 32.5632L67.4354 32.44C67.3073 32.337 67.1641 32.2543 67.0108 32.1949L63.2636 30.5466C62.938 30.4024 62.5752 30.3649 62.2271 30.4394C61.8789 30.514 61.5633 30.6969 61.3255 30.9618C61.8764 30.8978 62.4339 31.0025 62.9241 31.2621L66.6349 32.895C66.5365 33.1487 66.54 33.4307 66.6448 33.6819C66.697 33.8924 66.8286 34.0744 67.0121 34.1899C67.1956 34.3054 67.4167 34.3452 67.629 34.3011C67.8178 34.1924 67.9574 34.0151 68.019 33.8062C68.0806 33.5972 68.0595 33.3726 67.96 33.1788Z" fill="white"/>
<path d="M67.4398 35.041C67.2981 35.1644 67.1361 35.2624 66.9611 35.3308C66.5418 35.4945 66.0748 35.4854 65.6622 35.3055L61.915 33.6572C61.5686 33.5042 61.2834 33.2396 61.1048 32.9056C60.9262 32.5717 60.8645 32.1876 60.9295 31.8145L61.3277 31.9877L61.3399 31.9665C61.5532 31.5971 62.4373 31.7622 63.2631 32.3126C63.9774 32.7816 64.4308 33.3887 64.3944 33.7753C65.369 34.2888 66.3883 34.7124 67.4398 35.041Z" fill="white"/>
<path d="M65.4551 35.7917L61.7011 34.1452C61.241 33.9426 60.8625 33.5908 60.6269 33.1467C60.3914 32.7025 60.3124 32.1918 60.4027 31.6972C60.4357 31.5201 60.4881 31.3472 60.5589 31.1816C60.6558 30.9614 60.7882 30.7586 60.9508 30.5813L61.0424 30.4814C61.2601 30.2711 61.5171 30.1059 61.7987 29.9952C62.0729 29.8874 62.3658 29.8354 62.6603 29.8421C62.9548 29.8488 63.2451 29.9142 63.514 30.0345L67.2613 31.6828C67.46 31.77 67.6448 31.8862 67.8095 32.0276C68.0584 32.239 68.2581 32.5022 68.3946 32.7989C68.5311 33.0955 68.6011 33.4184 68.5997 33.745C68.5983 34.0715 68.5255 34.3938 68.3865 34.6893C68.2475 34.9848 68.0455 35.2463 67.7948 35.4555C67.6108 35.6155 67.4012 35.7433 67.1747 35.8335C66.8997 35.9415 66.606 35.9934 66.3107 35.9862C66.0154 35.9791 65.7245 35.913 65.4551 35.7917ZM61.7141 31.3674C61.6538 31.4472 61.6036 31.5342 61.5646 31.6264C61.5267 31.7111 61.5 31.8003 61.485 31.8918C61.4403 32.1443 61.4818 32.4044 61.6029 32.6304C61.724 32.8565 61.9176 33.0351 62.1526 33.1378L65.8998 34.7861C66.0951 34.873 66.3108 34.9032 66.5224 34.8731C66.734 34.8431 66.9329 34.7541 67.0962 34.6162C67.2343 34.5028 67.3431 34.358 67.4137 34.1938C67.5064 33.9685 67.5253 33.7196 67.4676 33.4829C67.41 33.2462 67.2789 33.0339 67.093 32.8764C67.0074 32.807 66.9114 32.7516 66.8085 32.7121L63.0613 31.0638C62.9236 31.0026 62.7751 30.9693 62.6245 30.9659C62.4739 30.9626 62.3241 30.9891 62.1838 31.0441C62.013 31.1091 61.8614 31.2164 61.7434 31.356L61.7141 31.3674Z" fill="#232323"/>
<path d="M73.4273 58.0236L72.22 58.2861L72.2533 58.4394L73.4606 58.1769L73.4273 58.0236Z" fill="#232323"/>
<path d="M57.6933 86.8247C70.8963 83.287 78.7316 69.7159 75.1938 56.5129C71.6561 43.3098 58.085 35.4746 44.882 39.0123C31.679 42.5501 23.8437 56.1211 27.3815 69.3242C30.9192 82.5272 44.4903 90.3624 57.6933 86.8247Z" fill="white"/>
<path d="M45.3156 77.3655C53.2937 80.662 62.4336 76.8668 65.7301 68.8887C69.0266 60.9106 65.2314 51.7707 57.2533 48.4742C49.2752 45.1777 40.1353 48.9729 36.8388 56.951C33.5423 64.9292 37.3375 74.069 45.3156 77.3655Z" fill="#9036EE"/>
<path d="M41.102 86.0721C36.5235 84.057 32.6453 80.7296 29.9577 76.5106C27.2702 72.2915 25.894 67.3703 26.0032 62.3691C26.1124 57.368 27.702 52.5115 30.5712 48.4138C33.4403 44.3161 37.4601 41.1611 42.1222 39.3478C46.7843 37.5345 51.8794 37.1443 56.7633 38.2266C61.6471 39.3089 66.1004 41.815 69.56 45.4281C73.0196 49.0412 75.3302 53.599 76.1996 58.5252C77.069 63.4514 76.4582 68.5247 74.4444 73.1038C71.7382 79.2412 66.7072 84.0538 60.4559 86.4852C54.2046 88.9166 47.2439 88.768 41.102 86.0721ZM61.0339 40.7629C56.6516 38.8356 51.7962 38.2512 47.0817 39.0835C42.3672 39.9158 38.0054 42.1274 34.5479 45.4386C31.0903 48.7498 28.6923 53.012 27.6571 57.6861C26.6219 62.3602 26.996 67.2363 28.7321 71.6978C30.4681 76.1593 33.4882 80.0059 37.4103 82.751C41.3325 85.496 45.9806 87.0164 50.7669 87.1198C55.5531 87.2232 60.2626 85.905 64.2996 83.3319C68.3367 80.7588 71.5201 77.0463 73.4472 72.664C76.0252 66.7859 76.1655 60.1251 73.8374 54.1437C71.5093 48.1623 66.903 43.349 61.0296 40.7604L61.0339 40.7629Z" fill="#232323"/>
<path d="M62.3619 37.7368C57.3811 35.547 51.8628 34.8833 46.5049 35.8297C41.1469 36.7761 36.1899 39.2901 32.2607 43.0537C28.3315 46.8174 25.6066 51.6616 24.4305 56.9739C23.2545 62.2862 23.6801 67.8279 25.6536 72.8983C27.6271 77.9687 31.0598 82.34 35.5176 85.4595C39.9755 88.579 45.2582 90.3065 50.6979 90.4236C56.1375 90.5407 61.4898 89.0421 66.0777 86.1174C70.6657 83.1926 74.2834 78.9731 76.4732 73.9923C77.9273 70.6852 78.7157 67.1241 78.7934 63.5122C78.8712 59.9004 78.2368 56.3086 76.9264 52.942C75.616 49.5753 73.6554 46.4998 71.1564 43.8908C68.6574 41.2819 65.6691 39.1908 62.3619 37.7368ZM41.3107 85.5927C36.8287 83.6219 33.0318 80.3663 30.4002 76.2376C27.7685 72.1089 26.4203 67.2924 26.5261 62.3975C26.6319 57.5025 28.1868 52.7488 30.9944 48.7376C33.8019 44.7264 37.7359 41.6378 42.2988 39.8625C46.8617 38.0871 51.8486 37.7048 56.6288 38.7637C61.4091 39.8227 65.7679 42.2755 69.1541 45.8118C72.5403 49.3481 74.8018 53.8092 75.6526 58.6308C76.5033 63.4525 75.9052 68.4181 73.9337 72.8998C71.2882 78.9041 66.3668 83.6122 60.2512 85.9891C54.1356 88.3661 47.3265 88.2174 41.3205 85.5757L41.3107 85.5927Z" fill="#232323"/>
<path d="M26.9419 69.6201L27.0998 70.2095C27.1543 70.3995 27.2173 70.5943 27.2785 70.7825C27.3397 70.9707 27.4136 71.1662 27.4748 71.3544L27.5763 71.6395L27.6912 71.921C27.9852 72.6685 28.3189 73.3997 28.6909 74.1116L28.9562 74.6328C29.0466 74.8095 29.1505 74.9827 29.2288 75.1412C29.4231 75.4911 29.6356 75.8289 29.8506 76.1625C29.9545 76.3357 30.0699 76.4986 30.1786 76.6633L30.5157 77.158L31.2175 78.1292C33.1444 80.6503 35.523 82.7914 38.2321 84.4436C38.5717 84.6397 38.9114 84.8359 39.2553 85.0344C39.5993 85.233 39.9389 85.4291 40.308 85.5743L40.8445 85.8217C41.0144 85.9198 41.1989 85.9924 41.3859 86.0607L42.4883 86.5047C43.9779 87.0507 45.5115 87.4683 47.0723 87.7529L47.6611 87.8607C47.8567 87.8944 48.0542 87.9348 48.2505 87.9576L49.4363 88.1101C49.835 88.1647 50.2339 88.1799 50.624 88.2297L51.2253 88.2767L51.8303 88.2977C52.2291 88.3128 52.6298 88.3347 53.0336 88.3413C53.4373 88.348 53.8382 88.3303 54.2444 88.3328C54.4445 88.3294 54.6482 88.3394 54.8507 88.3318L55.4395 88.2925C55.8446 88.2772 56.2479 88.2553 56.6548 88.2468C56.2567 88.3283 55.8593 88.3989 55.457 88.478L54.8362 88.5726C54.6342 88.6088 54.4352 88.6298 54.2229 88.6544C53.8176 88.7091 53.413 88.7529 53.006 88.801C52.5989 88.849 52.192 88.8576 51.7839 88.888L51.1926 88.9315L50.5753 88.9318C50.1691 88.9294 49.7573 88.9464 49.3457 88.9239L48.1152 88.8589C47.9072 88.8464 47.7067 88.8212 47.4994 88.7977L46.8867 88.7214C45.2418 88.5195 43.6214 88.1529 42.0497 87.6272C41.6581 87.4916 41.272 87.3367 40.8853 87.1926C40.6898 87.1194 40.5016 87.0334 40.311 86.9517L39.7399 86.6956C39.3588 86.5321 38.9978 86.3237 38.6289 86.139C38.26 85.9543 37.9071 85.7223 37.5504 85.5164C33.2638 82.9231 29.931 79.0129 28.0494 74.3697C27.7447 73.6093 27.487 72.8309 27.2778 72.0389C27.0951 71.2441 26.9827 70.4347 26.9419 69.6201Z" fill="#8CA7AF"/>
<path d="M66.5986 41.7339C68.468 43.1846 70.2065 44.7964 71.7943 46.5509C72.5846 47.4419 73.3154 48.3839 73.982 49.3708C75.9892 52.3729 77.2289 55.8219 77.5921 59.4149C77.8217 61.8025 77.7628 64.2092 77.4166 66.5827L77.2801 67.4663C77.2338 67.7623 77.1681 68.0527 77.1175 68.3462C77.0079 68.9283 76.8824 69.5182 76.729 70.0977C76.6566 70.3899 76.5689 70.6789 76.488 70.9662C76.407 71.2535 76.3151 71.5401 76.2123 71.8261C76.0201 72.3945 75.8041 72.9548 75.5602 73.5047C74.5992 75.7073 73.2866 77.7391 71.6737 79.5206C70.8722 80.4065 70.0047 81.2305 69.0787 81.9853C68.1607 82.7388 67.1939 83.4307 66.1846 84.0565C65.1704 84.6704 64.1162 85.2155 63.029 85.6881C61.9483 86.1686 60.8287 86.5563 59.6822 86.8468C60.2401 86.6651 60.7871 86.4431 61.3239 86.2095C61.8607 85.976 62.3922 85.7223 62.9086 85.426C63.9522 84.8944 64.9609 84.2968 65.9286 83.637C67.856 82.3432 69.5984 80.7933 71.1079 79.0298C71.4856 78.5912 71.8404 78.1336 72.1806 77.662C72.5208 77.1904 72.8501 76.7181 73.1496 76.2287C73.7591 75.2451 74.2882 74.214 74.7317 73.1452C75.1793 72.0813 75.5454 70.985 75.827 69.8656C75.9748 69.3056 76.0856 68.7411 76.1927 68.1633C76.2427 67.8807 76.3017 67.5921 76.3474 67.3071L76.4783 66.4429C76.8267 64.1466 76.906 61.8175 76.7148 59.5028C76.6114 58.3516 76.4229 57.2097 76.151 56.0863C75.8733 54.9621 75.5098 53.8608 75.0638 52.7921C74.1433 50.6518 72.9281 48.6507 71.4537 46.8468C69.9564 45.0314 68.3341 43.323 66.5986 41.7339Z" fill="#8CA7AF"/>
<path d="M24.6146 58.8445C24.778 57.8066 24.9668 56.7833 25.1981 55.7846C25.4269 54.7674 25.7262 53.7674 26.0938 52.7917C26.8558 50.8379 27.8491 48.9824 29.0526 47.2649C31.4918 43.807 34.7133 40.9743 38.4548 38.9975C42.1963 37.0208 46.3519 35.9559 50.5829 35.8896C52.6825 35.8556 54.7785 36.0736 56.8261 36.5389C58.8537 37.0091 60.8151 37.7289 62.6655 38.6818C60.7344 37.9774 58.7393 37.4626 56.7085 37.1447C55.7025 36.9875 54.6883 36.8877 53.671 36.846C52.6557 36.7942 51.6384 36.7984 50.6236 36.8586C46.5714 37.0947 42.617 38.1972 39.0271 40.0915C35.4371 41.9859 32.2952 44.6281 29.8132 47.8399C28.5706 49.4529 27.499 51.1906 26.6157 53.0251C26.1887 53.9545 25.8175 54.9085 25.5041 55.882C25.1775 56.8597 24.8897 57.8484 24.6146 58.8445Z" fill="#8CA7AF"/>
<path d="M31.1308 46.6173L28.446 47.6086L28.8253 48.6356L31.51 47.6442L31.1308 46.6173Z" fill="#232323"/>
<path d="M30.851 47.641L28.7963 48.974L28.4486 48.1052L30.851 47.641Z" fill="#8CA7AF"/>
<path d="M39.9924 88.6019C34.9126 86.3676 30.6094 82.6771 27.6269 77.9972C24.6445 73.3172 23.1168 67.858 23.237 62.3098C23.3572 56.7617 25.1199 51.3737 28.3022 46.8273C31.4846 42.281 35.9436 38.7803 41.1154 36.7681C46.2872 34.7559 51.9396 34.3225 57.3577 35.5227C62.7759 36.7229 67.7164 39.5028 71.5547 43.5109C75.3929 47.519 77.9564 52.5752 78.9211 58.0402C79.8857 63.5052 79.2082 69.1335 76.9741 74.2134C73.973 81.0212 68.3932 86.3599 61.4596 89.0576C54.526 91.7552 46.8053 91.5913 39.9924 88.6019ZM62.1433 38.2332C57.2614 36.0861 51.8525 35.4349 46.6005 36.3619C41.3485 37.2889 36.4893 39.7524 32.6374 43.4409C28.7855 47.1295 26.1138 51.8774 24.9602 57.0843C23.8066 62.2912 24.223 67.7233 26.1565 72.6936C28.0901 77.6639 31.4541 81.9493 35.8232 85.0077C40.1922 88.0662 45.3701 89.7605 50.702 89.8763C56.0339 89.992 61.2804 88.5242 65.7781 85.6582C70.2758 82.7923 73.8227 78.657 75.9702 73.7754C78.8421 67.2277 78.9992 59.8082 76.407 53.1449C73.8148 46.4815 68.685 41.1187 62.1433 38.2332Z" fill="#232323"/>
<path d="M53.2512 63.7837C53.0799 64.1723 52.7972 64.5014 52.4389 64.7294C52.0806 64.9573 51.6627 65.0739 51.2381 65.0644C50.8135 65.055 50.4013 64.9198 50.0535 64.676C49.7058 64.4323 49.4381 64.0909 49.2844 63.695C49.1306 63.2991 49.0977 62.8665 49.1898 62.4519C49.2819 62.0373 49.4948 61.6594 49.8017 61.3658C50.1086 61.0722 50.4956 60.8762 50.9139 60.8026C51.3321 60.729 51.7628 60.781 52.1515 60.9522C52.4101 61.0653 52.6438 61.2285 52.8391 61.4322C53.0345 61.6359 53.1876 61.8763 53.2898 62.1394C53.392 62.4025 53.4412 62.6832 53.4345 62.9654C53.4279 63.2476 53.3656 63.5256 53.2512 63.7837Z" fill="#232323"/>
<path d="M35.688 64.5418L42.359 65.6758L51.0436 63.0868L51.0267 62.9298L51.0098 62.7728L41.975 62.046L35.688 64.5418Z" fill="#232323"/>
<path d="M51.6956 62.3987L57.158 52.5257L57.8483 48.4178L55.4755 51.9393L51.3946 62.2532L51.6956 62.3987Z" fill="#232323"/>
<path d="M51.9528 61.7376C52.1761 61.826 52.3647 61.9846 52.4902 62.1894C52.611 62.3917 52.6731 62.6236 52.6696 62.8592C52.6627 63.1022 52.5956 63.3396 52.4744 63.5503C52.3571 63.7577 52.1753 63.9211 51.9566 64.0157C52.0285 63.8176 52.0869 63.6149 52.1314 63.409C52.1725 63.2248 52.1955 63.0372 52.2002 62.8486C52.2047 62.6641 52.1855 62.4799 52.143 62.3004C52.0931 62.1085 52.0296 61.9204 51.9528 61.7376Z" fill="white"/>
<path d="M60.5501 42.8558C60.5054 42.9527 60.4249 43.0284 60.3254 43.0671C60.226 43.1058 60.1155 43.1044 60.017 43.0632C59.9446 43.0308 59.8834 42.9778 59.8411 42.9107C59.7988 42.8436 59.7772 42.7656 59.7792 42.6863C59.7811 42.607 59.8065 42.5301 59.8521 42.4651C59.8976 42.4002 59.9614 42.3503 60.0353 42.3215C60.1092 42.2927 60.19 42.2865 60.2674 42.3035C60.3449 42.3205 60.4156 42.3601 60.4706 42.4172C60.5256 42.4743 60.5625 42.5464 60.5767 42.6245C60.5908 42.7025 60.5816 42.783 60.5501 42.8558Z" fill="#232323"/>
<path d="M69.3131 49.9759C69.2695 50.0724 69.1896 50.1478 69.0908 50.1857C68.9919 50.2237 68.8821 50.2211 68.7851 50.1785C68.6882 50.136 68.6119 50.0569 68.5729 49.9584C68.5339 49.86 68.5354 49.7501 68.5769 49.6527C68.5977 49.6038 68.6281 49.5596 68.6662 49.5225C68.7042 49.4854 68.7493 49.4562 68.7987 49.4366C68.8481 49.4171 68.9009 49.4075 68.9541 49.4085C69.0072 49.4094 69.0596 49.4209 69.1083 49.4423C69.157 49.4636 69.2009 49.4945 69.2376 49.5329C69.2743 49.5714 69.303 49.6167 69.322 49.6663C69.3411 49.716 69.3501 49.7689 69.3486 49.822C69.347 49.8751 69.335 49.9274 69.3131 49.9759Z" fill="#232323"/>
<path d="M49.2845 40.943C49.2904 40.9953 49.2858 41.0483 49.2711 41.0988C49.2564 41.1494 49.2317 41.1965 49.1986 41.2374C49.1655 41.2783 49.1246 41.3123 49.0782 41.3373C49.0318 41.3622 48.981 41.3777 48.9286 41.3829C48.8494 41.3916 48.7694 41.3766 48.6987 41.3398C48.628 41.303 48.5699 41.246 48.5317 41.1761C48.4935 41.1062 48.4769 41.0265 48.4841 40.9471C48.4912 40.8678 48.5218 40.7924 48.5719 40.7304C48.622 40.6685 48.6894 40.6228 48.7655 40.5992C48.8416 40.5757 48.923 40.5752 48.9994 40.598C49.0757 40.6208 49.1436 40.6657 49.1944 40.7271C49.2451 40.7886 49.2765 40.8637 49.2845 40.943Z" fill="#232323"/>
<path d="M38.573 44.915C38.621 44.9788 38.6489 45.0555 38.6531 45.1352C38.6574 45.2149 38.6378 45.294 38.5969 45.3626C38.556 45.4311 38.4957 45.4859 38.4235 45.5201C38.3513 45.5542 38.2707 45.566 38.1917 45.5542C38.1128 45.5423 38.0392 45.5071 37.9803 45.4533C37.9214 45.3994 37.8799 45.3292 37.861 45.2517C37.8421 45.1741 37.8468 45.0927 37.8743 45.0178C37.9019 44.9429 37.9511 44.8779 38.0157 44.8311C38.1011 44.7692 38.2073 44.7434 38.3115 44.7591C38.4158 44.7748 38.5097 44.8308 38.573 44.915Z" fill="#232323"/>
<path d="M31.286 53.712C31.3592 53.7435 31.4214 53.7961 31.4646 53.8631C31.5079 53.9301 31.5302 54.0084 31.5289 54.0881C31.5275 54.1678 31.5025 54.2453 31.4569 54.3107C31.4114 54.3762 31.3474 54.4266 31.2732 54.4556C31.1989 54.4846 31.1177 54.4909 31.0399 54.4737C30.9621 54.4564 30.8911 54.4164 30.8361 54.3588C30.781 54.3011 30.7444 54.2283 30.7308 54.1498C30.7171 54.0712 30.7272 53.9904 30.7596 53.9176C30.8027 53.821 30.8821 53.7452 30.9806 53.7067C31.0791 53.6682 31.1888 53.6701 31.286 53.712Z" fill="#232323"/>
<path d="M29.3688 64.975C29.4217 64.9684 29.4754 64.9722 29.5268 64.9863C29.5782 65.0004 29.6264 65.0245 29.6685 65.0573C29.7106 65.09 29.7458 65.1307 29.7722 65.177C29.7985 65.2233 29.8155 65.2744 29.8222 65.3273C29.8288 65.3802 29.8249 65.4339 29.8108 65.4853C29.7967 65.5367 29.7726 65.5848 29.7399 65.6269C29.7072 65.669 29.6665 65.7042 29.6202 65.7306C29.5738 65.757 29.5227 65.774 29.4699 65.7806C29.363 65.794 29.2552 65.7644 29.1702 65.6983C29.0852 65.6323 29.0299 65.5351 29.0165 65.4283C29.0031 65.3215 29.0327 65.2137 29.0988 65.1287C29.1649 65.0437 29.262 64.9884 29.3688 64.975Z" fill="#232323"/>
<path d="M33.3476 75.6849C33.4112 75.6395 33.4867 75.6138 33.5648 75.611C33.6429 75.6083 33.7201 75.6287 33.7867 75.6696C33.8533 75.7106 33.9063 75.7702 33.9391 75.8411C33.9719 75.9121 33.9831 75.9911 33.9712 76.0683C33.9593 76.1456 33.9249 76.2176 33.8723 76.2754C33.8197 76.3331 33.7511 76.3741 33.6753 76.3931C33.5995 76.4121 33.5198 76.4084 33.4461 76.3823C33.3725 76.3562 33.3081 76.309 33.2612 76.2465C33.2287 76.2044 33.2052 76.1562 33.1919 76.1047C33.1786 76.0533 33.176 75.9997 33.1841 75.9472C33.1921 75.8947 33.2108 75.8444 33.2389 75.7993C33.267 75.7542 33.304 75.7153 33.3476 75.6849Z" fill="#232323"/>
<path d="M42.1422 82.9761C42.1741 82.9045 42.2264 82.844 42.2926 82.8021C42.3588 82.7602 42.4359 82.7389 42.5142 82.7407C42.5926 82.7425 42.6686 82.7675 42.7328 82.8124C42.7969 82.8573 42.8464 82.9202 42.8749 82.9932C42.9034 83.0662 42.9097 83.1459 42.893 83.2225C42.8762 83.299 42.8373 83.3689 42.7809 83.4233C42.7246 83.4777 42.6534 83.5143 42.5764 83.5284C42.4993 83.5424 42.4198 83.5334 42.3479 83.5024C42.2996 83.4816 42.2559 83.4515 42.2194 83.4137C42.1829 83.3759 42.1542 83.3312 42.1351 83.2822C42.1159 83.2333 42.1067 83.181 42.108 83.1284C42.1092 83.0759 42.1208 83.0241 42.1422 82.9761Z" fill="#232323"/>
<path d="M53.4035 84.8864C53.3942 84.7812 53.4261 84.6766 53.4925 84.5945C53.5589 84.5124 53.6546 84.4593 53.7594 84.4465C53.8117 84.4406 53.8647 84.4451 53.9153 84.4598C53.9658 84.4746 54.0129 84.4992 54.0539 84.5323C54.0948 84.5655 54.1287 84.6064 54.1537 84.6527C54.1787 84.6991 54.1942 84.75 54.1993 84.8024C54.2059 84.8553 54.2021 84.909 54.188 84.9604C54.1739 85.0118 54.1498 85.0599 54.117 85.102C54.0843 85.1441 54.0436 85.1793 53.9973 85.2057C53.951 85.2321 53.8999 85.249 53.847 85.2557C53.7941 85.2623 53.7404 85.2585 53.689 85.2444C53.6376 85.2302 53.5895 85.2061 53.5474 85.1734C53.5053 85.1407 53.4701 85.1 53.4437 85.0537C53.4173 85.0074 53.4003 84.9563 53.3937 84.9034L53.4035 84.8864Z" fill="#232323"/>
<path d="M64.1029 80.9356C64.0558 80.8715 64.0288 80.7949 64.0253 80.7154C64.0218 80.6359 64.0419 80.5572 64.0832 80.4892C64.1244 80.4212 64.1849 80.3669 64.257 80.3333C64.329 80.2997 64.4095 80.2882 64.4881 80.3003C64.5667 80.3124 64.64 80.3475 64.6986 80.4013C64.7572 80.455 64.7986 80.5249 64.8175 80.6022C64.8364 80.6795 64.8319 80.7606 64.8047 80.8353C64.7774 80.9101 64.7286 80.975 64.6644 81.022C64.5785 81.0849 64.4711 81.1112 64.3658 81.095C64.2605 81.0788 64.166 81.0215 64.1029 80.9356Z" fill="#232323"/>
<path d="M71.3971 72.1259C71.3244 72.0936 71.263 72.0404 71.2205 71.9731C71.1781 71.9058 71.1566 71.8275 71.1587 71.748C71.1608 71.6684 71.1865 71.5913 71.2324 71.5264C71.2784 71.4615 71.3426 71.4117 71.4168 71.3832C71.4911 71.3548 71.5722 71.349 71.6497 71.3666C71.7273 71.3843 71.7979 71.4245 71.8526 71.4823C71.9072 71.54 71.9436 71.6127 71.9569 71.6911C71.9703 71.7695 71.9601 71.8501 71.9276 71.9227C71.8842 72.02 71.8039 72.096 71.7044 72.1341C71.6049 72.1722 71.4944 72.1693 71.3971 72.1259Z" fill="#232323"/>
<path d="M73.3191 60.8543C73.24 60.8639 73.1598 60.8497 73.0887 60.8135C73.0177 60.7773 72.959 60.7209 72.9201 60.6513C72.8812 60.5817 72.8639 60.5021 72.8703 60.4226C72.8768 60.3432 72.9067 60.2674 72.9563 60.205C73.0059 60.1426 73.073 60.0964 73.1489 60.0722C73.2249 60.0479 73.3063 60.0469 73.3829 60.069C73.4595 60.0912 73.5277 60.1357 73.579 60.1967C73.6302 60.2578 73.6622 60.3327 73.6708 60.412C73.6771 60.4642 73.6729 60.5171 73.6586 60.5677C73.6443 60.6182 73.6201 60.6655 73.5874 60.7066C73.5546 60.7478 73.5141 60.782 73.468 60.8074C73.422 60.8327 73.3714 60.8487 73.3191 60.8543Z" fill="#232323"/>
<path d="M58.342 41.37L58.0431 41.2744L57.6666 42.4512L57.9655 42.5468L58.342 41.37Z" fill="#232323"/>
<path d="M56.0555 40.7455L55.7483 40.6816L55.4969 41.8913L55.8041 41.9552L56.0555 40.7455Z" fill="#232323"/>
<path d="M53.7117 40.369L53.3995 40.3376L53.276 41.567L53.5882 41.5983L53.7117 40.369Z" fill="#232323"/>
<path d="M51.3386 40.2388L51.0248 40.2402L51.0304 41.4757L51.3442 41.4743L51.3386 40.2388Z" fill="#232323"/>
<path d="M46.6258 40.7219L46.3192 40.7886L46.5816 41.9959L46.8882 41.9293L46.6258 40.7219Z" fill="#232323"/>
<path d="M44.3297 41.3321L44.0317 41.4304L44.4189 42.6037L44.7168 42.5054L44.3297 41.3321Z" fill="#232323"/>
<path d="M42.1115 42.1763L41.8254 42.3052L42.3329 43.4317L42.619 43.3028L42.1115 42.1763Z" fill="#232323"/>
<path d="M39.9915 43.2462L39.7205 43.4043L40.3431 44.4715L40.6141 44.3133L39.9915 43.2462Z" fill="#232323"/>
<path d="M36.1492 46.0243L35.917 46.2354L36.7479 47.1498L36.9801 46.9387L36.1492 46.0243Z" fill="#232323"/>
<path d="M34.4694 47.7056L34.2605 47.9397L35.1824 48.7622L35.3913 48.5281L34.4694 47.7056Z" fill="#232323"/>
<path d="M32.9687 49.5402L32.7854 49.7949L33.7882 50.5166L33.9715 50.2619L32.9687 49.5402Z" fill="#232323"/>
<path d="M32.7461 52.1468L31.6733 51.5339L31.5177 51.8064L32.5905 52.4193L32.7461 52.1468Z" fill="#232323"/>
<path d="M30.9175 56.2351L29.7407 55.8586L29.6451 56.1575L30.8219 56.534L30.9175 56.2351Z" fill="#232323"/>
<path d="M30.3239 58.4059L29.1143 58.1545L29.0504 58.4618L30.2601 58.7131L30.3239 58.4059Z" fill="#232323"/>
<path d="M29.9593 60.6159L28.73 60.4919L28.6985 60.8041L29.9278 60.9281L29.9593 60.6159Z" fill="#232323"/>
<path d="M29.8393 62.8597L28.6038 62.8662L28.6054 63.18L29.8409 63.1735L29.8393 62.8597Z" fill="#232323"/>
<path d="M30.3049 67.3168L29.0977 67.5798L29.1644 67.8864L30.3716 67.6234L30.3049 67.3168Z" fill="#232323"/>
<path d="M30.8707 69.4912L29.6973 69.8779L29.7955 70.1759L30.9689 69.7892L30.8707 69.4912Z" fill="#232323"/>
<path d="M31.6748 71.5818L30.5486 72.0898L30.6776 72.3759L31.8038 71.8678L31.6748 71.5818Z" fill="#232323"/>
<path d="M32.689 73.5826L31.6216 74.2048L31.7796 74.4759L32.847 73.8537L32.689 73.5826Z" fill="#232323"/>
<path d="M35.3148 77.2169L34.4006 78.0481L34.6117 78.2803L35.5258 77.4491L35.3148 77.2169Z" fill="#232323"/>
<path d="M36.8933 78.8227L36.071 79.7449L36.3053 79.9537L37.1275 79.0315L36.8933 78.8227Z" fill="#232323"/>
<path d="M38.6317 80.2285L37.9102 81.2314L38.1649 81.4147L38.8864 80.4117L38.6317 80.2285Z" fill="#232323"/>
<path d="M40.7849 81.6122L40.5125 81.4565L39.8996 82.5293L40.172 82.685L40.7849 81.6122Z" fill="#232323"/>
<path d="M44.9073 83.3854L44.6084 83.2898L44.2321 84.4666L44.531 84.5622L44.9073 83.3854Z" fill="#232323"/>
<path d="M47.0851 83.9407L46.7778 83.877L46.5267 85.0867L46.8339 85.1505L47.0851 83.9407Z" fill="#232323"/>
<path d="M49.2987 84.267L48.9865 84.2356L48.8629 85.4649L49.1751 85.4963L49.2987 84.267Z" fill="#232323"/>
<path d="M51.5356 84.3672L51.2218 84.3687L51.2274 85.6041L51.5412 85.6027L51.5356 84.3672Z" fill="#232323"/>
<path d="M55.993 83.8406L55.6864 83.9072L55.9488 85.1146L56.2554 85.0479L55.993 83.8406Z" fill="#232323"/>
<path d="M58.1548 83.2305L57.8568 83.3289L58.2441 84.5021L58.5421 84.4037L58.1548 83.2305Z" fill="#232323"/>
<path d="M60.2396 82.4045L59.9535 82.5334L60.4611 83.6599L60.7472 83.5309L60.2396 82.4045Z" fill="#232323"/>
<path d="M62.2317 81.3516L61.9607 81.5098L62.5835 82.5768L62.8545 82.4187L62.2317 81.3516Z" fill="#232323"/>
<path d="M65.8221 78.6852L65.5898 78.8962L66.4207 79.8106L66.653 79.5996L65.8221 78.6852Z" fill="#232323"/>
<path d="M67.392 77.0842L67.1831 77.3184L68.105 78.1409L68.3139 77.9068L67.392 77.0842Z" fill="#232323"/>
<path d="M68.7813 75.3112L68.598 75.5659L69.601 76.2874L69.7842 76.0327L68.7813 75.3112Z" fill="#232323"/>
<path d="M71.0609 74.0299L69.988 73.4172L69.8324 73.6897L70.9053 74.3024L71.0609 74.0299Z" fill="#232323"/>
<path d="M72.9347 69.6772L71.7579 69.3008L71.6623 69.5996L72.8391 69.9761L72.9347 69.6772Z" fill="#232323"/>
<path d="M73.5179 67.3825L72.3082 67.1311L72.2444 67.4383L73.4541 67.6897L73.5179 67.3825Z" fill="#232323"/>
<path d="M73.8655 65.0312L72.6362 64.9072L72.6047 65.2194L73.834 65.3434L73.8655 65.0312Z" fill="#232323"/>
<path d="M73.5721 62.5827L72.343 62.5864L72.344 62.8986L73.573 62.8948L73.5721 62.5827Z" fill="#232323"/>
<path d="M72.7699 55.6697L71.5966 56.0566L71.6948 56.3546L72.8682 55.9677L72.7699 55.6697Z" fill="#232323"/>
<path d="M71.8967 53.4548L70.7703 53.9624L70.8992 54.2485L72.0256 53.7408L71.8967 53.4548Z" fill="#232323"/>
<path d="M70.7932 51.3539L69.726 51.9763L69.884 52.2474L70.9513 51.625L70.7932 51.3539Z" fill="#232323"/>
<path d="M67.963 47.5504L67.048 48.3806L67.2588 48.613L68.1738 47.7828L67.963 47.5504Z" fill="#232323"/>
<path d="M66.2663 45.8943L65.4442 46.8167L65.6785 47.0254L66.5005 46.1031L66.2663 45.8943Z" fill="#232323"/>
<path d="M64.4035 44.4199L63.682 45.4229L63.9367 45.6061L64.6582 44.6031L64.4035 44.4199Z" fill="#232323"/>
<path d="M62.6711 43.3036L62.3987 43.1479L61.7858 44.2207L62.0582 44.3764L62.6711 43.3036Z" fill="#232323"/>
<path d="M45.2094 79.3401L44.9698 79.8925C44.856 79.7382 44.7034 79.6168 44.5274 79.5408C44.4258 79.494 44.3148 79.4713 44.2029 79.4745C44.0911 79.4777 43.9815 79.5067 43.8827 79.5592C43.6502 79.6912 43.4691 79.8978 43.3687 80.1456C43.4827 80.0727 43.6137 80.0306 43.7489 80.0233C43.884 80.016 44.0188 80.0438 44.14 80.104C44.254 80.1486 44.3565 80.2181 44.4401 80.3075C44.5237 80.3969 44.5862 80.5039 44.623 80.6207C44.6925 80.88 44.6643 81.1559 44.5435 81.3957C44.4875 81.5357 44.4038 81.663 44.2974 81.7699C44.1909 81.8768 44.0639 81.961 43.9241 82.0175C43.7838 82.0735 43.6334 82.0997 43.4825 82.0944C43.3315 82.0891 43.1833 82.0525 43.0473 81.9868C42.8924 81.9275 42.7543 81.8316 42.6447 81.7072C42.5351 81.5827 42.4573 81.4336 42.418 81.2725C42.3431 80.8815 42.4014 80.4766 42.5837 80.1227C42.7581 79.6702 43.0796 79.2896 43.4964 79.0418C43.6795 78.9418 43.884 78.8871 44.0925 78.8824C44.3011 78.8778 44.5078 78.9232 44.6952 79.0149C44.887 79.0872 45.0619 79.1978 45.2094 79.3401ZM43.7193 80.4895C43.6655 80.4638 43.6066 80.4504 43.547 80.4502C43.4873 80.4501 43.4284 80.4632 43.3745 80.4886C43.2598 80.5485 43.1704 80.6476 43.1227 80.7678C43.0611 80.9004 43.0408 81.0484 43.0642 81.1927C43.0751 81.2552 43.1016 81.314 43.1412 81.3636C43.1809 81.4132 43.2324 81.452 43.291 81.4765C43.3447 81.5021 43.4037 81.5144 43.4631 81.5122C43.5226 81.5101 43.5806 81.4935 43.6322 81.464C43.7552 81.3929 43.8496 81.2813 43.8994 81.1483C44.0261 80.8309 43.9655 80.6317 43.7193 80.4895Z" fill="#232323"/>
<path d="M67.2509 71.7078L67.5052 71.13C67.6421 71.3694 67.8551 71.5562 68.1104 71.6605C68.2456 71.7311 68.401 71.7529 68.5504 71.7221C68.6118 71.7073 68.6687 71.6779 68.7163 71.6364C68.764 71.5949 68.8008 71.5425 68.8239 71.4837C68.8539 71.4218 68.8664 71.3528 68.86 71.2843C68.8537 71.2158 68.8288 71.1503 68.7879 71.0949C68.6759 70.9506 68.5258 70.8404 68.3545 70.7768L68.0826 70.6594L68.3062 70.1544L68.5569 70.2595C68.9483 70.4346 69.1991 70.3925 69.3115 70.1291C69.424 69.8657 69.322 69.6992 69.0246 69.5671C68.8129 69.4779 68.5789 69.4554 68.3541 69.5027L68.5906 68.9656C68.8682 68.9559 69.1442 69.0123 69.3957 69.1303C69.6586 69.2265 69.8803 69.4105 70.0234 69.6513C70.0765 69.751 70.106 69.8616 70.1096 69.9746C70.1131 70.0876 70.0905 70.1998 70.0436 70.3027C69.9776 70.4829 69.8458 70.6316 69.6748 70.7187C69.5037 70.8058 69.306 70.825 69.1214 70.7723C69.3047 70.8682 69.446 71.0284 69.5183 71.2222C69.5526 71.3112 69.5685 71.4063 69.565 71.5016C69.5616 71.5969 69.5388 71.6905 69.4982 71.7768C69.4461 71.9057 69.3646 72.0208 69.2604 72.1129C69.1561 72.205 69.0319 72.2716 68.8974 72.3074C68.5733 72.3737 68.2362 72.3287 67.9408 72.1797C67.678 72.0768 67.442 71.9154 67.2509 71.7078Z" fill="#232323"/>
<path d="M32.1428 56.3071L32.3818 55.7657C32.5034 55.947 32.6773 56.0869 32.8805 56.1668C32.9791 56.2184 33.0886 56.2455 33.1999 56.2457C33.3112 56.2458 33.4209 56.2191 33.5196 56.1679C33.742 56.0344 33.9123 55.8293 34.0026 55.5862C33.8928 55.6537 33.7675 55.6918 33.6387 55.6968C33.5099 55.7017 33.3819 55.6734 33.2673 55.6146C33.1519 55.5679 33.0479 55.4969 32.9624 55.4065C32.8769 55.3161 32.8118 55.2084 32.7715 55.0906C32.6873 54.8356 32.7056 54.5578 32.8224 54.316C32.8769 54.1717 32.9612 54.0404 33.0698 53.9308C33.1784 53.8211 33.3089 53.7356 33.4527 53.6798C33.5966 53.624 33.7506 53.5991 33.9047 53.6068C34.0588 53.6145 34.2096 53.6546 34.3472 53.7244C34.4976 53.7824 34.6314 53.8766 34.7367 53.9987C34.842 54.1207 34.9156 54.2668 34.951 54.424C35.0272 54.822 34.9669 55.234 34.7798 55.5933C34.6098 56.047 34.2957 56.4324 33.8858 56.6907C33.7103 56.7859 33.5147 56.8381 33.315 56.843C33.1154 56.8478 32.9174 56.8051 32.7375 56.7184C32.512 56.6256 32.3092 56.4853 32.1428 56.3071ZM34.1006 54.2105C34.0463 54.185 33.9866 54.1732 33.9267 54.1761C33.8668 54.179 33.8085 54.1966 33.7569 54.2272C33.632 54.2932 33.5361 54.4033 33.488 54.5361C33.4215 54.6598 33.405 54.8042 33.4418 54.9397C33.4598 54.9962 33.4895 55.0483 33.5288 55.0927C33.5681 55.1371 33.6163 55.1728 33.6702 55.1976C33.7241 55.2223 33.7826 55.2355 33.8419 55.2364C33.9012 55.2372 33.9601 55.2257 34.0147 55.2025C34.1271 55.1481 34.2146 55.0528 34.2591 54.936C34.3278 54.8003 34.3495 54.6455 34.3207 54.496C34.3111 54.4319 34.285 54.3714 34.2449 54.3205C34.2048 54.2695 34.1522 54.2299 34.0921 54.2056L34.1006 54.2105Z" fill="#232323"/>
<path d="M57.9233 47.4252L56.0272 46.5909L56.2564 46.0665L56.8791 46.3411L57.7004 44.4772L57.0017 44.3342L57.2382 43.7971L58.6453 44.1056L57.5424 46.6335L58.1402 46.922L57.9233 47.4252Z" fill="#232323"/>
<path d="M59.3684 47.3933L60.5841 47.9254L60.3469 48.4735L58.3621 47.6163L58.5906 47.1028L59.8027 46.6704C59.9937 46.6076 60.1771 46.5235 60.3493 46.4198C60.4648 46.3452 60.556 46.2384 60.6116 46.1127C60.7314 45.8365 60.6448 45.6336 60.3474 45.5015C60.0668 45.3896 59.7552 45.3826 59.4699 45.4818L59.7243 44.904C60.066 44.8422 60.4185 44.884 60.7363 45.0241C61.0015 45.1235 61.2201 45.3184 61.3492 45.5705C61.4006 45.6874 61.426 45.814 61.4236 45.9417C61.4213 46.0693 61.3912 46.195 61.3356 46.3099C61.2179 46.5148 61.0585 46.6927 60.8677 46.8322C60.677 46.9717 60.4592 47.0697 60.2283 47.1198L59.3684 47.3933Z" fill="#232323"/>
<path d="M44.5413 87.3616L44.3753 88.9924L43.0973 87.9602L44.5413 87.3616Z" fill="#8CA7AF"/>
<path d="M44.187 86.3756L43.4656 86.6709L44.4741 89.1347L45.1955 88.8394L44.187 86.3756Z" fill="#232323"/>
<path d="M60.8126 49.8631C60.8126 49.8631 63.3544 60.6887 52.8764 75.4445C52.8764 75.4445 52.5725 76.6278 53.7795 75.8414C54.9865 75.055 64.7408 62.2195 64.5999 53.0404C64.4589 43.8613 60.5423 46.9386 60.8126 49.8631Z" fill="white"/>
<path d="M65.0346 54.6898C65.0346 54.6898 67.1812 61.8169 60.8682 72.0649C60.8682 72.0649 60.7169 72.8664 61.4868 72.2976C62.2568 71.7287 68.167 62.7767 67.684 56.661C67.201 50.5453 64.727 52.7516 65.0346 54.6898Z" fill="white"/>
<path d="M83.2607 54.7055C83.2087 54.7588 83.1417 54.7951 83.0687 54.8095C82.9957 54.8239 82.92 54.8159 82.8516 54.7864C79.2584 53.0695 76.1678 50.4565 73.8772 47.1989C71.1302 43.2691 69.283 40.1929 68.6897 36.3177C68.6824 36.2416 68.6991 36.1651 68.7373 36.0989C68.7755 36.0327 68.8334 35.9801 68.903 35.9483C71.5596 34.6515 75.052 34.7996 78.2441 36.2915C80.4063 37.3059 82.2755 38.8526 83.6766 40.7867C87.1428 45.579 86.1256 51.6946 83.2607 54.7055Z" fill="#8CA7AF"/>
<path d="M82.5942 55.2717C78.9337 53.5126 75.7841 50.8464 73.4448 47.5265C70.445 43.2697 68.7296 40.2299 68.1446 36.3991C68.1147 36.2062 68.1475 36.0088 68.2381 35.836C68.3288 35.6631 68.4725 35.5238 68.6481 35.4387C71.4418 34.0908 75.1046 34.2184 78.4594 35.7816C80.705 36.8356 82.6468 38.4417 84.1033 40.4498C85.7819 42.7657 86.5895 45.5997 86.384 48.4526C86.2567 50.9083 85.294 53.2468 83.6556 55.0806L83.564 55.1805L83.5305 55.1895C83.4024 55.2836 83.2517 55.3421 83.0937 55.3593C82.9357 55.3764 82.7759 55.3515 82.6306 55.287L82.5942 55.2717ZM69.2565 36.3561C69.8317 39.9095 71.49 42.803 74.3276 46.8701C76.539 50.006 79.5061 52.533 82.9541 54.2169C85.6007 51.3292 86.4511 45.5418 83.2126 41.0904C81.8659 39.2335 80.0713 37.7475 77.9958 36.7708C74.9954 35.3782 71.7359 35.2287 69.2565 36.3561Z" fill="#232323"/>
<path d="M73.1566 45.7015L76.7192 43.0708L78.0937 45.4948L74.7009 48.1159L73.1566 45.7015Z" fill="white"/>
<path d="M82.5973 54.413C82.5973 54.413 79.2123 43.4006 69.2944 36.2705C69.2944 36.2705 77.6321 32.9489 83.4101 41.0913C83.3931 41.0815 87.6878 48.175 82.5973 54.413Z" fill="#8CA7AF"/>
<path d="M76.4641 43.0027L73.1347 39.2971C71.8891 38.1043 70.5026 37.068 69.0058 36.2114C67.9536 35.7001 70.0836 40.9437 70.0836 40.9437L72.966 45.6197L73.3895 45.2981L73.3286 45.178L74.3254 44.3438L76.4641 43.0027ZM70.4461 37.3939C70.4461 37.3939 72.4417 38.5461 72.6381 39.2256C72.8029 39.7737 72.991 43.7036 73.1616 44.8495C72.4917 43.5682 70.594 38.7361 70.4461 37.3939Z" fill="#232323"/>
<path d="M82.9483 51.4226C83.022 51.6576 83.0799 51.9005 83.1378 52.1434C83.1957 52.3863 83.2385 52.6261 83.283 52.8726C83.3592 53.3603 83.3737 53.8556 83.3263 54.3469C83.3363 54.453 83.3409 54.5596 83.3401 54.6662C86.1558 51.6327 87.1345 45.574 83.673 40.8127C82.2733 38.8679 80.4012 37.3116 78.2333 36.2908C78.1161 36.2684 73.6912 35.3329 70.9253 36.3288C71.5147 36.6802 72.0798 37.0707 72.6168 37.4979C72.9301 37.7297 73.2149 37.9621 73.4863 38.198C74.1936 37.8832 74.9577 37.7162 75.7319 37.7076C76.506 37.6989 77.2737 37.8486 77.9879 38.1476C79.7794 38.9668 79.5233 40.087 78.4875 39.8513C77.4517 39.6156 75.7383 39.3964 75.5804 39.9053L75.5304 40.0802C76.6958 41.2134 77.7747 42.4324 78.7579 43.7269C79.137 44.2175 79.502 44.7227 79.853 45.2424C79.8962 45.2151 79.9306 45.176 79.9521 45.1297C80.1505 44.6781 80.3476 41.3951 81.2067 41.5741C82.0658 41.7531 83.2644 42.9716 83.2046 45.762C83.1663 47.5346 82.5954 48.4448 81.9062 48.7659C82.3211 49.6234 82.6695 50.5116 82.9483 51.4226Z" fill="#232323"/>
<path d="M82.5343 54.9144C82.4153 52.6887 80.3114 48.6943 77.0358 44.4933C73.8638 40.3975 70.4818 37.3126 68.4637 36.572L68.8307 35.5441C71.5045 36.5217 75.2775 40.4494 77.8999 43.8203C81.3569 48.2562 83.4967 52.3846 83.6274 54.8548L82.5343 54.9144Z" fill="#232323"/>
<path d="M74.7755 48.7025L74.1543 47.8174L77.6822 45.3251C77.3145 44.8638 76.7453 44.1728 76.3933 43.7431L73.171 46.157L72.5375 45.2931L76.5458 42.263L76.8773 42.6695L77.1477 42.9955C77.8765 43.8805 78.6749 44.851 78.8845 45.1645L79.1915 45.6134L74.7755 48.7025Z" fill="#232323"/>
<path d="M78.4783 46.0055C78.1828 45.9877 77.8489 45.9875 77.5198 46.0182C77.1907 46.049 76.8744 46.0476 76.5496 46.0808C75.8941 46.1422 75.2474 46.2758 74.6212 46.4791C74.8982 46.2898 75.1865 46.1179 75.4846 45.9642C75.7815 45.8129 76.091 45.6689 76.406 45.545C76.7209 45.4211 77.0377 45.304 77.3647 45.1984C77.6918 45.0928 78.0345 45.0189 78.3718 44.925L78.4783 46.0055Z" fill="#232323"/>
<path d="M81.141 49.6205C79.7132 47.2789 78.323 45.2251 78.323 45.2251L78.0938 45.4947L74.7009 48.1159C75.0858 48.7735 75.5511 49.3807 76.0861 49.9233C76.9592 50.784 79.7101 53.2951 82.5099 54.6625L83.035 54.7335C82.6817 52.9387 82.0422 51.2123 81.141 49.6205ZM81.594 52.758C81.1698 52.9829 79.1421 51.1215 77.9997 49.5505C79.1304 50.1807 82.0038 52.519 81.5728 52.7457L81.594 52.758Z" fill="#232323"/>
<path d="M83.2473 58.1508C84.0486 57.8845 84.801 57.4889 85.4746 56.9798C86.0992 56.4875 86.6471 55.9052 87.1006 55.252C87.5589 54.5743 87.9685 53.8648 88.3263 53.129C88.7097 52.3767 89.0598 51.5937 89.4715 50.7728C89.5865 51.6841 89.5235 52.609 89.2861 53.4963C89.0631 54.4017 88.6743 55.2579 88.1395 56.0217C87.5942 56.8181 86.8528 57.4606 85.9869 57.8869C85.1321 58.2904 84.1634 58.3837 83.2473 58.1508Z" fill="#232323"/>
<path d="M84.1224 60.3318C84.8314 60.0844 85.5134 59.8838 86.1422 59.6184C86.7698 59.3765 87.3711 59.0711 87.9366 58.7069C88.4948 58.3382 89.0105 57.9087 89.4741 57.4263C89.9519 56.9322 90.3825 56.3826 90.8503 55.7978C90.7518 56.5453 90.4906 57.2622 90.085 57.8979C89.6698 58.5515 89.1187 59.108 88.4693 59.5296C87.8253 59.954 87.1007 60.241 86.3407 60.3727C85.6055 60.5018 84.8524 60.488 84.1224 60.3318Z" fill="#232323"/>
<path d="M86.4843 61.9673C86.7492 61.9918 87.0155 61.996 87.2809 61.98C87.534 61.9546 87.7849 61.9102 88.0313 61.8471C88.5144 61.7097 88.9791 61.5141 89.415 61.2646C89.8653 61.0116 90.2996 60.731 90.7153 60.4245C91.1515 60.1102 91.5707 59.7861 92.0069 59.4718C91.7638 59.969 91.442 60.4236 91.0541 60.8182C90.6648 61.2196 90.2204 61.5635 89.7341 61.8395C89.2308 62.1259 88.6721 62.3013 88.0954 62.354C87.8096 62.3727 87.5225 62.3518 87.2424 62.2918C86.9732 62.2272 86.7169 62.1175 86.4843 61.9673Z" fill="#232323"/>
<path d="M32.1756 32.305C31.9887 31.2792 32.0703 30.2224 32.4125 29.2375C32.7445 28.2459 33.2634 27.3271 33.9412 26.5308C34.6009 25.7267 35.384 25.0323 36.2612 24.4735C37.1219 23.9157 38.0702 23.5063 39.0664 23.2624C38.2483 23.8657 37.4575 24.4509 36.7231 25.0855C35.9905 25.7189 35.3119 26.4122 34.6943 27.1581C34.0807 27.8829 33.5539 28.6769 33.1245 29.524C32.6886 30.4058 32.3697 31.3407 32.1756 32.305Z" fill="#232323"/>
<path d="M32.2432 24.0785C31.6988 24.7222 31.2443 25.4368 30.8922 26.2028C30.555 26.9376 30.3115 27.7119 30.1674 28.5074C30.0258 29.3102 29.9724 30.126 30.0082 30.9404C30.0542 31.7879 30.1637 32.6308 30.3357 33.462C29.7962 32.7462 29.4227 31.9195 29.2421 31.0416C29.0508 30.1509 29.0373 29.2312 29.2024 28.3353C29.3613 27.4332 29.7101 26.5751 30.2256 25.8179C30.7229 25.0615 31.4217 24.459 32.2432 24.0785Z" fill="#232323"/>
<path d="M26.9949 26.9814C26.8259 27.5806 26.7004 28.1912 26.6194 28.8084C26.5993 28.961 26.5858 29.1117 26.5767 29.2649C26.5675 29.4181 26.554 29.5689 26.56 29.7252C26.5538 30.031 26.5662 30.3369 26.5973 30.6412C26.648 31.2506 26.7544 31.854 26.9152 32.4439C27.0809 33.0459 27.2892 33.6354 27.5386 34.2078C27.1176 33.7214 26.7831 33.1664 26.5498 32.5669C26.3101 31.9668 26.16 31.3346 26.1045 30.6907C26.0783 30.3661 26.0773 30.04 26.1015 29.7153C26.1106 29.5529 26.1284 29.3912 26.1548 29.2308C26.1661 29.1524 26.1731 29.0716 26.1911 28.9914L26.2469 28.7575C26.3894 28.126 26.6426 27.5246 26.9949 26.9814Z" fill="#232323"/>
<path d="M66.0258 29.4296C66.392 28.7813 66.8839 28.2127 67.4727 27.757C68.0557 27.3043 68.6882 26.9193 69.3581 26.6093C70.0196 26.2984 70.7105 26.0544 71.4205 25.8809C72.1302 25.6944 72.8619 25.6046 73.5957 25.6139C72.9561 25.9862 72.3156 26.3014 71.6799 26.6081C71.0443 26.9148 70.4033 27.2015 69.7725 27.4997C69.1418 27.7979 68.5117 28.0852 67.8931 28.4017C67.2744 28.7182 66.6678 29.053 66.0258 29.4296Z" fill="#232323"/>
<path d="M64.6952 27.6651C64.9965 26.96 65.3916 26.2988 65.8697 25.6994C66.3442 25.0968 66.8794 24.5445 67.4667 24.0512C68.0561 23.5534 68.7017 23.1263 69.3904 22.7784C70.0741 22.4227 70.8174 22.1956 71.5832 22.1083C70.912 22.4345 70.2649 22.8082 69.6468 23.2265C69.0369 23.6368 68.45 24.0804 67.8889 24.5554C67.3249 25.0223 66.7681 25.5161 66.2556 26.0411C65.743 26.566 65.2164 27.1055 64.6952 27.6651Z" fill="#232323"/>
<path d="M62.6541 28.4058C62.4622 28.0181 62.3558 27.5937 62.3422 27.1613C62.3309 26.7302 62.376 26.2995 62.4762 25.88C62.5819 25.466 62.7305 25.0642 62.9194 24.6809C63.1064 24.2978 63.3458 23.9425 63.6307 23.6254C63.5182 24.0359 63.3936 24.4282 63.28 24.8212C63.1663 25.2141 63.0527 25.6071 62.9524 25.9965C62.8522 26.3858 62.7848 26.7772 62.7234 27.1776C62.6741 27.5851 62.6509 27.9953 62.6541 28.4058Z" fill="#232323"/>
<path d="M69.0145 30.1757C69.4668 29.7776 70.0499 29.56 70.6525 29.5645C70.952 29.5612 71.25 29.6088 71.5336 29.7053C71.8229 29.7917 72.0786 29.965 72.266 30.2017C72.0171 30.0736 71.748 29.9891 71.4705 29.9519C71.1993 29.9089 70.925 29.8887 70.6504 29.8917C70.3742 29.8999 70.0991 29.9304 69.8278 29.9829C69.5643 30.0176 69.2982 30.0961 69.0145 30.1757Z" fill="#232323"/>
</svg>
