<svg width="17" height="17" viewBox="0 0 17 17" fill="none" xmlns="http://www.w3.org/2000/svg">
<circle cx="9" cy="9" r="8" fill="#232323"/>
<circle cx="8" cy="8" r="7.5" fill="#87EE36" stroke="#232323"/>
<path d="M10.6577 6.00171C10.4877 6.00171 10.3097 6.05905 10.1797 6.18905L7.7064 8.68904C7.53507 8.86104 7.36306 8.82902 7.2284 8.62702L6.56375 7.62703C6.35975 7.32036 5.93374 7.23504 5.6284 7.43904C5.32307 7.64371 5.23773 8.07038 5.44107 8.37637L6.10641 9.37637C6.70641 10.279 7.87708 10.3937 8.64175 9.62702L11.1357 7.1477C11.3951 6.88704 11.3951 6.44971 11.1357 6.18905C11.0057 6.05905 10.8277 6.00171 10.6577 6.00171Z" fill="#232323"/>
</svg>
