<svg width="20" height="20" viewBox="0 0 20 20" fill="none" xmlns="http://www.w3.org/2000/svg">
<circle cx="10.5126" cy="10.5131" r="9.48718" fill="#232323"/>
<path d="M18.2052 11.6613L18.1942 11.7054C16.9751 16.4936 12.1133 19.4021 7.3123 18.2052C2.49871 17.0049 -0.431636 12.1282 0.769292 7.31418L0.769322 7.31405C1.96921 2.49902 6.84611 -0.431238 11.6602 0.769037L11.6603 0.769044C16.4755 1.96933 19.4058 6.84653 18.2052 11.6613Z" fill="#F7931A" stroke="#232323"/>
<path d="M13.6715 8.13547C13.8604 6.87293 12.899 6.19427 11.5845 5.74154L12.0109 4.03132L10.9698 3.77191L10.5546 5.4371C10.2809 5.36884 9.99983 5.30452 9.72045 5.24076L10.1386 3.56458L9.09806 3.30518L8.67139 5.01484C8.44488 4.96327 8.2224 4.91231 8.00656 4.85861L8.00777 4.85323L6.57196 4.49472L6.29499 5.60664C6.29499 5.60664 7.06746 5.78369 7.05118 5.79459C7.4728 5.89981 7.54905 6.17888 7.53638 6.40007L7.05062 8.34841C7.07966 8.35579 7.11732 8.36645 7.15887 8.38315C7.12413 8.37452 7.08717 8.36511 7.04882 8.35593L6.36794 11.0853C6.31642 11.2134 6.18563 11.4056 5.89086 11.3326C5.90129 11.3477 5.13411 11.1437 5.13411 11.1437L4.61719 12.3354L5.97211 12.6732C6.22417 12.7364 6.47118 12.8025 6.71443 12.8647L6.28358 14.5945L7.32356 14.8539L7.75023 13.1424C8.03434 13.2196 8.31006 13.2907 8.57998 13.3578L8.15474 15.0612L9.19596 15.3206L9.62677 13.594C11.4022 13.9299 12.7372 13.7945 13.2991 12.1888C13.7519 10.896 13.2765 10.1504 12.3425 9.66409C13.0228 9.50722 13.5352 9.05981 13.6719 8.13561L13.6715 8.13538L13.6715 8.13547ZM11.2927 11.4709C10.9709 12.7636 8.79401 12.0648 8.08823 11.8896L8.65998 9.59783C9.36571 9.774 11.6289 10.1226 11.2927 11.4709H11.2927ZM11.6147 8.11674C11.3211 9.29265 9.50929 8.69523 8.92155 8.54874L9.43991 6.47028C10.0277 6.61677 11.9204 6.89018 11.6147 8.11674H11.6147Z" fill="#232323"/>
</svg>
