<svg width="20" height="20" viewBox="0 0 20 20" fill="none" xmlns="http://www.w3.org/2000/svg">
<ellipse cx="10.2665" cy="10.263" rx="9.73333" ry="9.73709" fill="#232323"/>
<path d="M18.4122 9.45977C18.4122 14.4083 14.4023 18.4195 9.45612 18.4195C4.50997 18.4195 0.5 14.4083 0.5 9.45977C0.5 4.51124 4.50997 0.5 9.45612 0.5C14.4023 0.5 18.4122 4.51124 18.4122 9.45977Z" fill="#232323" stroke="#232323"/>
<path d="M9.45596 18.6167C14.5111 18.6167 18.6092 14.5171 18.6092 9.45998C18.6092 4.40284 14.5111 0.303223 9.45596 0.303223C4.40077 0.303223 0.302734 4.40284 0.302734 9.45998C0.302734 14.5171 4.40077 18.6167 9.45596 18.6167Z" fill="#7A6A2A"/>
<path d="M9.45646 18.4237C14.4051 18.4237 18.4168 14.4105 18.4168 9.45992C18.4168 4.50933 14.4051 0.496094 9.45646 0.496094C4.50779 0.496094 0.496094 4.50933 0.496094 9.45992C0.496094 14.4105 4.50779 18.4237 9.45646 18.4237Z" fill="#BA9F33"/>
<path fill-rule="evenodd" clip-rule="evenodd" d="M4.1343 8.44966C4.08074 8.40072 4.02416 8.35168 3.97211 8.30274C3.92006 8.2538 3.86661 8.20476 3.81305 8.15582L3.65388 8.00447C3.62786 7.97843 3.60032 7.95553 3.5743 7.92939C3.54828 7.90649 3.51771 7.88046 3.49169 7.85745C3.28048 7.65695 3.06806 7.45646 2.85977 7.25586C3.07552 7.45333 3.28673 7.64939 3.50248 7.84978L3.57743 7.92485C3.60345 7.95079 3.63098 7.97379 3.65701 7.99983L3.81607 8.14674C3.86963 8.19568 3.92168 8.24472 3.97524 8.2981C4.0288 8.35148 4.08084 8.40062 4.1344 8.44946L4.1343 8.44966ZM1.33116 8.41939C1.33116 8.41939 2.09924 8.4989 2.47416 8.55248C2.82144 8.60152 3.90786 8.76831 3.90786 8.76831L1.33116 8.41939ZM1.33116 8.41939C1.54691 8.43775 1.76266 8.46066 1.97841 8.48366C2.08855 8.49436 2.19416 8.50657 2.29976 8.51726L2.46186 8.53573C2.51541 8.5433 2.56746 8.55096 2.62102 8.55863L3.26373 8.66115L3.58499 8.71473C3.6906 8.7331 3.7962 8.75308 3.90635 8.77144C3.80074 8.76074 3.6906 8.74541 3.58499 8.73007L3.26373 8.68416L2.62102 8.58931C2.56746 8.58164 2.51541 8.57084 2.46186 8.56328L2.29966 8.54461C2.19406 8.53391 2.08391 8.51857 1.97831 8.50626C1.76256 8.48033 1.54681 8.45268 1.33105 8.41908L1.33116 8.41939ZM3.8314 8.96851C3.8314 8.96851 3.01127 9.17677 2.73429 9.25639C2.46196 9.33136 1.63718 9.58241 1.63718 9.58241L3.8313 8.96861L3.8314 8.96851Z" fill="#CFB66C"/>
<path fill-rule="evenodd" clip-rule="evenodd" d="M3.83152 8.96826C3.64946 9.02184 3.46841 9.07391 3.28373 9.12295L2.73593 9.26986C2.55386 9.32344 2.37281 9.37551 2.19125 9.42909L1.91892 9.50406C1.82864 9.5301 1.73686 9.553 1.64355 9.57914C1.73373 9.54886 1.82562 9.51789 1.91589 9.49185L2.18823 9.40467C2.37029 9.34796 2.55134 9.29438 2.7329 9.23778C2.91799 9.19187 3.10015 9.14283 3.28524 9.09843C3.46115 9.05403 3.64634 9.00973 3.83152 8.96836V8.96826ZM1.75219 10.0873C1.84236 10.0536 2.88289 9.56844 3.12466 9.45512C3.2457 9.39842 3.59752 9.2735 3.59752 9.2735L1.75219 10.0873Z" fill="#CFB66C"/>
<path fill-rule="evenodd" clip-rule="evenodd" d="M1.75205 10.0873C1.83154 10.0571 1.90658 10.02 1.98304 9.98482L2.20948 9.87918L2.66398 9.66031C2.81527 9.58837 2.96234 9.50896 3.11838 9.44135C3.19796 9.40775 3.27754 9.3802 3.35702 9.35417L3.47806 9.31593C3.51931 9.30523 3.55764 9.29292 3.5991 9.28223C3.4478 9.35417 3.28853 9.41542 3.13704 9.48575C2.98574 9.56082 2.83101 9.62207 2.67487 9.68938L2.21281 9.8929C2.05768 9.95576 1.90638 10.0231 1.75195 10.0873H1.75205ZM1.85292 10.5111C1.85292 10.5111 2.7954 9.95859 3.11979 9.781C3.28964 9.68615 3.83896 9.4136 3.83896 9.4136L1.85292 10.5111Z" fill="#CFB66C"/>
<path fill-rule="evenodd" clip-rule="evenodd" d="M1.85352 10.5112C2.01258 10.4132 2.17477 10.3137 2.33696 10.2127L2.57904 10.0657C2.66165 10.0168 2.74123 9.97086 2.82545 9.92193C2.90806 9.87289 2.98764 9.82395 3.07177 9.77804C3.11181 9.7533 3.15377 9.73181 3.19724 9.71376L3.32575 9.64948C3.4956 9.56684 3.66546 9.48259 3.8445 9.41064C3.6823 9.51326 3.51547 9.60055 3.34874 9.69075C3.26613 9.73667 3.18191 9.77804 3.0993 9.82395C3.01669 9.86986 2.93711 9.9189 2.85289 9.9633C2.77028 10.0122 2.6907 10.0581 2.60658 10.1025L2.35714 10.2388L1.85372 10.5112H1.85352ZM3.83189 9.53455C3.83189 9.53455 3.24586 9.98459 3.05613 10.1285C2.8664 10.2724 2.30791 10.6765 2.30791 10.6765L3.83189 9.53455Z" fill="#CFB66C"/>
<path fill-rule="evenodd" clip-rule="evenodd" d="M7.1944 13.164L6.89453 12.5961L7.06893 11.8858L8.3129 11.4052L7.78346 10.3185L8.0451 9.22093L8.53632 8.23812L10.0542 7.99938L11.1696 6.93555L13.5781 7.11768L14.0508 9.69386L13.1404 12.9374L12.6218 14.6167L10.5193 14.6963L9.54315 14.0197L8.40015 13.542L7.1944 13.164Z" fill="#E2CC85"/>
<path fill-rule="evenodd" clip-rule="evenodd" d="M10.8826 13.1459C10.8826 13.1459 10.5918 13.2791 10.0958 13.2485C9.95231 13.0556 8.94708 12.9653 8.94708 12.9653C8.94708 12.9653 8.82161 12.9271 8.5997 13.0189C8.37639 13.1097 8.16518 13.0985 7.96778 13.1475C7.77039 13.1964 7.57441 12.9393 7.42311 12.8857C7.27181 12.8291 7.07119 12.6929 7.07119 12.6929L6.64756 12.6515L5.79686 12.2918L4.44537 10.9448L4.07812 11.52L3.96484 12.2318L4.37345 13.0752L5.47359 14.0778L7.61879 14.6227L8.8903 14.2479L10.4832 13.5744L10.8826 13.1458V13.1459Z" fill="#F1D789"/>
<path fill-rule="evenodd" clip-rule="evenodd" d="M3.26111 8.38499L3.53345 7.56L3.85793 7.02722L4.9029 6.93994L4.58921 7.85534L3.71561 9.41058L4.07822 10.7989L3.43561 11.1203L3.23812 10.8173L3.07905 10.1224L3.06836 9.34166L3.26111 8.38499Z" fill="#F4ECB4"/>
<path fill-rule="evenodd" clip-rule="evenodd" d="M4.43264 13.0894L4.23222 12.8092C4.23222 12.8092 4.17866 12.676 4.20932 12.5597C4.23958 12.4418 4.23525 12.4342 4.22002 12.3898C4.20479 12.3454 4.07618 12.1923 4.08385 12.0606C4.09141 11.9274 4.07316 11.883 4.171 11.7775C4.27348 11.675 4.24291 11.4974 4.24291 11.4974L4.37605 11.58L4.40631 11.5341C4.40631 11.5341 4.45523 11.5724 4.45523 11.6321C4.46593 11.5495 4.42155 11.1667 4.52251 11.0795C4.62348 10.9924 4.80251 11.4882 4.80251 11.4882L4.69237 10.7688L4.40924 10.031L3.90582 9.35751L3.87556 8.61506V8.55078C3.87556 8.55078 3.64448 8.90596 3.58023 9.18648C3.53433 9.37931 3.64448 9.6135 3.62158 9.89059C3.60312 10.1662 3.58023 10.1447 3.64751 10.2538C3.71478 10.363 3.87859 10.5875 3.81434 10.7498C3.75775 10.8891 3.5649 10.7912 3.5649 10.7912C3.5649 10.7912 3.52667 10.9044 3.47462 10.9457C3.45626 10.8784 3.43639 10.8356 3.39968 10.7944C3.39655 10.8204 3.38899 10.8556 3.38899 10.8556C3.38899 10.8556 3.3553 10.75 3.32161 10.6168C3.27582 10.4393 3.2268 10.2051 3.18242 10.0796C3.16406 10.1515 3.11816 10.3704 3.11816 10.3704L3.14419 10.7072L3.26966 11.1694L3.3907 11.4722L3.50851 11.8426L3.61089 12.0914L3.6935 12.2812L3.76542 12.7083L4.1127 13.0756L4.29788 13.1584L4.43244 13.0895L4.43264 13.0894Z" fill="#F3E19D"/>
<path fill-rule="evenodd" clip-rule="evenodd" d="M3.44281 7.71171C3.44281 7.71171 3.19337 8.13551 3.12155 8.56274C3.04974 8.98997 2.98538 9.44141 3.03077 10.023C3.07667 10.6094 3.16392 10.969 3.23432 11.2262C3.35536 11.6533 3.66885 12.2473 3.66885 12.2473L3.67954 12.2243C3.62684 12.1243 3.58479 12.0191 3.55406 11.9104C3.51271 11.7482 3.49738 11.5554 3.45915 11.4681C3.42546 11.3809 3.36887 11.3058 3.34134 11.1987C3.31531 11.0961 3.31108 10.9339 3.23119 10.813C3.1975 10.764 3.15615 10.6354 3.14394 10.5069C3.12861 10.3139 3.15161 10.0981 3.13325 9.92061C3.09956 9.62516 3.07667 9.42466 3.10723 9.26998C3.13779 9.11529 3.29706 8.67616 3.395 8.32713C3.45925 8.10363 3.42092 7.91534 3.53873 7.7209C3.65654 7.52807 3.72856 7.35815 3.75448 7.24029C3.78474 7.13313 3.4424 7.71171 3.4424 7.71171H3.44281Z" fill="#F2E8B0"/>
<path fill-rule="evenodd" clip-rule="evenodd" d="M4.6257 7.5415C4.6257 7.5415 4.4972 7.57985 4.43597 7.64715C4.37475 7.71143 4.34872 7.76501 4.26612 7.87368C4.18351 7.98235 4.17887 8.07115 4.11149 8.20737C4.04421 8.34056 3.89574 8.54106 3.87738 8.61301C3.85902 8.68495 3.82846 9.02167 3.79023 9.18089C3.75654 9.34012 3.82846 9.53608 3.82846 9.53608L3.91561 9.51761C3.91561 9.51761 3.91561 9.63093 4.00286 9.70751C4.09 9.78249 4.10534 9.45334 4.10534 9.45334L4.43123 8.35277L4.92234 8.01908L4.9759 7.74967L4.6255 7.5415H4.6257Z" fill="#F5EEC0"/>
<path fill-rule="evenodd" clip-rule="evenodd" d="M4.86401 8.04106C4.86401 8.04106 4.63293 8.0563 4.51976 8.13904C4.47387 8.17264 4.45551 8.20019 4.40659 8.24156C4.31631 8.31653 4.22443 8.38545 4.18015 8.48373C4.13112 8.58161 4.07757 8.73014 4.04085 9.01025C4.02552 9.1281 4.02552 9.23678 4.01483 9.33173C3.9995 9.46028 3.9766 9.5628 3.9888 9.63444C4.00414 9.78136 4.15564 9.85794 4.17036 10.0247L4.48405 9.86561L4.77939 8.70067L5.40677 8.30715L5.05172 7.90918L4.86361 8.04036L4.86401 8.04106Z" fill="#E6DB9D"/>
<path fill-rule="evenodd" clip-rule="evenodd" d="M3.20909 15.8855C3.2104 15.874 3.21171 15.8625 3.21302 15.8507C3.25881 15.4572 3.26658 15.1589 3.30017 14.9721C3.34909 14.7074 3.38278 14.6089 3.37511 14.5098C3.36442 14.3507 3.35221 14.2343 3.36754 14.1118C3.39044 13.9496 3.54961 13.7568 3.54507 13.6236C3.54194 13.5179 3.48838 13.4491 3.44249 13.3848C3.39659 13.3205 3.35988 13.267 3.35988 13.267C3.35988 13.267 3.67357 13.0511 3.67054 12.1816C3.67695 12.1834 3.68311 12.186 3.6889 12.1893L3.84343 12.6285L3.94903 12.7571L4.35451 13.5133L4.87629 14.02L5.6474 14.5389L6.13095 15.0653L6.17987 16.469L5.54795 17.2894L5.44446 17.4769C4.62228 17.064 3.86834 16.5272 3.20898 15.8854L3.20909 15.8855Z" fill="#E5CB7A"/>
<path fill-rule="evenodd" clip-rule="evenodd" d="M5.13965 17.2282C5.13965 17.2282 5.15034 17.0537 5.29417 16.9404C5.31717 16.9786 5.3324 17.0155 5.32786 17.0429C5.35389 16.9971 5.53595 16.7032 5.94758 16.6266C6.35921 16.5516 6.45866 16.2516 6.45866 16.2516L7.33226 15.4572L8.33143 14.5373L9.54635 14.1101L10.1141 13.9708C10.1141 13.9708 10.1248 14.0122 10.1034 14.104C10.2089 14.0964 10.443 14.0428 10.6863 13.9571C10.7843 13.9188 10.8762 13.9035 10.9251 13.954C10.997 14.0213 11.0077 14.1806 11.0122 14.2754C11.13 14.2494 11.2662 14.1362 11.3753 14.1469C11.5498 14.1652 11.7044 14.3704 11.8819 14.3704C12.116 14.3704 12.2215 14.2265 12.3853 14.1132C12.4832 14.0459 12.624 13.9618 12.7035 13.905C12.8933 13.7657 14.9008 13.1519 14.9008 13.1519L15.6046 13.1978L15.7179 13.9539L15.6574 15.9307C15.6499 15.9378 15.6424 15.9453 15.6349 15.9525L12.4346 17.6245L7.99857 18.3048C7.00488 18.1424 6.04595 17.8124 5.16265 17.329L5.13995 17.2281L5.13965 17.2282Z" fill="#D8C173"/>
<path fill-rule="evenodd" clip-rule="evenodd" d="M3.47852 16.1366C3.54156 16.0047 3.59824 15.8944 3.60823 15.855C3.6161 15.9345 3.63052 16.109 3.65957 16.2944C3.59858 16.2426 3.53823 16.1899 3.47852 16.1365V16.1366Z" fill="#F1D789"/>
<path fill-rule="evenodd" clip-rule="evenodd" d="M6.71848 17.9971L7.2922 17.8375L7.34112 17.8529C7.34112 17.8529 7.36714 17.8682 7.36714 17.9202C7.43906 17.8789 7.50029 17.8865 7.54467 17.859C7.56756 17.908 7.59046 18.0702 7.69153 18.0901C7.79703 18.1131 7.9103 18.0442 8.02509 17.957C8.13826 17.8667 8.26717 17.7534 8.3647 17.7075C8.40049 17.7733 8.43219 17.8413 8.45962 17.911C8.58812 17.8085 8.81154 17.3921 9.12977 17.3997C9.22175 17.1822 9.37541 16.9965 9.57176 16.8655C9.86709 16.665 10.0522 16.6497 10.2833 16.668C10.375 16.5488 10.4881 16.4476 10.6168 16.3696C10.6551 16.3849 10.7607 16.4492 10.8923 16.3879C11.0254 16.3268 11.1753 16.0895 11.3727 16.0589C11.4791 16.0442 11.5872 16.067 11.6787 16.1232C11.6787 16.1232 12.2537 15.5521 12.6504 15.3623C12.635 15.3164 12.6045 15.1435 13.0696 14.7607C13.0956 14.7838 13.0772 14.848 13.0956 14.8516C13.1032 14.8516 13.2166 14.8026 13.3603 14.6923C13.5378 14.5592 13.7504 14.4199 13.8789 14.3817C14.121 14.3097 14.3778 14.4566 14.3778 14.4566C14.3996 14.4413 14.424 14.4299 14.4497 14.4229C14.5108 14.4122 14.5552 14.4046 14.5889 14.3926C14.5859 14.4723 14.6303 14.6085 14.5889 14.7263C14.6368 14.7533 14.6875 14.7748 14.7402 14.7906C14.7143 14.8472 14.6576 14.9911 14.5628 15.06C14.6423 15.0983 14.6529 15.1427 14.7662 15.1811C14.7203 15.2454 14.6452 15.3557 14.6117 15.4233C14.578 15.4952 14.4571 15.7937 14.4035 15.9069C14.3469 16.0202 14.2705 16.2284 14.2336 16.2702C14.1968 16.3119 14.0638 16.489 13.9613 16.5762C14.0521 16.5425 14.4235 16.4293 14.581 16.3864C14.5341 16.4552 14.2964 16.8081 14.0678 17.1474C12.9735 17.8036 11.7519 18.2189 10.4845 18.3657C9.21714 18.5125 7.93303 18.3874 6.71777 17.9987L6.71848 17.9971Z" fill="#E0CD81"/>
<path fill-rule="evenodd" clip-rule="evenodd" d="M4.90215 7.99957C4.90215 7.99957 4.76911 7.99957 4.74309 8.01794C4.71707 8.0363 4.87623 8.07465 4.92515 8.09301C4.97407 8.11137 5.07968 8.19553 5.10721 8.26293C5.13324 8.32721 6.06352 8.70217 6.06352 8.70217L6.72146 8.66847L6.94831 8.35496L6.51681 7.97687L6.8194 7.08447L6.41856 7.14875L5.45459 7.7239L4.97104 7.90916L4.90215 7.99957Z" fill="#DFC57C"/>
<path fill-rule="evenodd" clip-rule="evenodd" d="M6.34674 8.29516C6.35626 8.31056 6.36965 8.32319 6.38558 8.33178C6.40152 8.34037 6.41943 8.34462 6.43752 8.3441C6.57369 8.3441 6.69907 8.3778 6.75111 8.44662C6.83836 8.5569 7.08014 8.90896 7.08014 8.90896L7.6585 9.11712L7.69582 8.43582L7.0639 7.99658L6.34473 8.26136V8.29506H6.34634L6.34674 8.29516Z" fill="#E5CC7C"/>
<path fill-rule="evenodd" clip-rule="evenodd" d="M6.23295 8.5473C6.23295 8.5473 6.33846 8.55496 6.4716 8.50592C6.60474 8.45688 6.82352 8.35134 6.91843 8.39271C7.05147 8.44932 7.02394 8.62691 7.16787 8.78624C7.25502 8.88421 7.41419 8.88119 7.50446 8.98683C7.59473 9.09248 7.9053 9.04344 7.9053 9.04344L8.02311 9.67914L7.55035 10.2854L7.39573 11.0384H6.75644L6.17243 10.8066L5.88477 10.1104L6.0286 9.40629L6.23295 8.5473Z" fill="#D2C281"/>
<path fill-rule="evenodd" clip-rule="evenodd" d="M7.46987 8.57813C7.48572 8.58302 7.5022 8.5856 7.51879 8.5858C7.50043 8.60114 7.4621 8.63474 7.47743 8.72202C7.49276 8.8093 7.54168 8.91949 7.50043 8.98679C7.53336 9.02282 7.55792 9.06568 7.57235 9.11232C7.59837 9.18739 7.60604 9.25621 7.77579 9.267C7.75129 9.28209 7.7287 9.30008 7.70852 9.32058C7.70852 9.32058 7.82633 9.4231 7.88604 9.51795C7.94716 9.51533 8.10935 9.46488 8.10935 9.46488L8.14304 9.48788L8.21496 9.45761C8.21496 9.45761 8.14768 9.43158 8.1966 9.26781C8.2425 9.12392 8.28385 9.13159 8.28738 9.12089C8.29091 9.1102 8.32107 8.95864 8.32107 8.89739C8.34397 8.81788 8.36232 8.57601 8.36232 8.57601L8.3134 8.04182L8.03804 7.87493L7.81412 7.65869L7.60291 8.05666L7.46382 8.1954L7.45312 8.53979L7.46987 8.57813Z" fill="#E2C270"/>
<path fill-rule="evenodd" clip-rule="evenodd" d="M8.13184 8.13132C8.13184 8.13132 8.18076 8.27057 8.19921 8.37773C8.20572 8.3569 8.20932 8.33527 8.20991 8.31345C8.20991 8.31345 8.24813 8.52475 8.2557 8.61203C8.27103 8.6089 8.28596 8.60436 8.28939 8.6196C8.29282 8.63483 8.32772 8.80486 8.31965 8.89971C8.38336 8.79455 8.47153 8.70634 8.57665 8.6426C8.63788 8.60426 8.70979 8.56299 8.78484 8.55986C8.90265 8.55683 8.98828 8.63493 9.12909 8.63493C9.4687 8.63493 9.77634 8.3854 10.0028 8.30891C10.1695 8.2522 10.3133 8.21093 10.4143 8.11901C10.4633 8.07774 10.5506 7.98592 10.6301 7.8496C10.7357 7.66797 10.8458 7.50985 10.9561 7.48997C10.9062 7.49914 10.8554 7.50273 10.8048 7.50067C10.8048 7.50067 10.8385 7.46697 10.8955 7.42106C10.9526 7.37514 11.021 7.31854 11.1189 7.31854C11.2934 7.31854 11.3805 7.34447 11.4784 7.34447C11.5764 7.34144 11.633 7.31854 11.633 7.31854C11.633 7.31854 11.7355 7.39048 11.9665 7.39048C12.1976 7.39351 12.3521 7.41339 12.4731 7.42418C12.594 7.43498 12.9994 7.39048 13.1157 7.39391C13.1915 7.39684 13.266 7.41506 13.3346 7.44749L12.9597 6.35773L11.6129 5.18018L10.8111 5.74806L9.57774 6.98182L8.3843 7.42418L8.13486 7.70429V8.13132H8.13184Z" fill="#CCB360"/>
<path fill-rule="evenodd" clip-rule="evenodd" d="M10.8106 7.50682C10.8106 7.50682 10.8443 7.47322 10.9008 7.42731C10.9573 7.3814 11.0264 7.32469 11.1242 7.32469C11.2986 7.32469 11.3859 7.35072 11.4838 7.35072C11.5818 7.3477 11.6383 7.32469 11.6383 7.32469C11.6383 7.32469 11.741 7.39653 11.9719 7.39653C12.203 7.39956 12.3575 7.41944 12.4785 7.43013C12.5994 7.44083 13.0048 7.39653 13.1211 7.39986C13.1969 7.40272 13.2713 7.42095 13.3398 7.45344L13.17 6.96204L12.9727 6.58708L12.4096 5.97015C12.4096 5.97015 11.7338 5.57219 11.7286 5.56916C11.7256 5.56613 11.4945 5.50488 11.4945 5.50488L10.8825 5.8753L10.3271 7.31268L10.3164 7.61539L10.6759 7.78532C10.7662 7.63396 10.8657 7.51288 10.959 7.49754C10.8748 7.50672 10.8105 7.50672 10.8105 7.50672L10.8106 7.50682Z" fill="#D5B457"/>
<path fill-rule="evenodd" clip-rule="evenodd" d="M10.8029 7.60929C10.7493 7.61232 10.705 7.60162 10.6927 7.56338C10.6468 7.43483 10.6101 7.41646 10.5717 7.41646C10.5333 7.41646 10.4814 7.4991 10.4506 7.50667C10.4199 7.51424 10.3834 7.41182 10.3834 7.41182L10.3497 7.39648C10.3497 7.39648 10.1523 7.52504 10.0131 7.67659C9.8739 7.82815 9.64584 8.08536 9.54337 8.13117C9.44089 8.17698 9.08887 8.19242 8.96843 8.21845C8.848 8.24448 8.71445 8.33177 8.6961 8.35164C8.67774 8.37152 8.74976 8.39291 8.76045 8.41279C8.77114 8.43116 8.64254 8.42349 8.63185 8.44306C8.62428 8.4584 8.66211 8.54558 8.68087 8.58998C8.7137 8.57365 8.74972 8.56476 8.78637 8.56395C8.90418 8.56092 8.98992 8.63902 9.13063 8.63902C9.47034 8.63902 9.77788 8.38948 10.0043 8.3129C10.1712 8.25629 10.315 8.21492 10.416 8.1231C10.4649 8.08183 10.5521 7.9899 10.6317 7.85368C10.6898 7.76034 10.7465 7.67306 10.8032 7.60879L10.8029 7.60929Z" fill="#D2B257"/>
<path fill-rule="evenodd" clip-rule="evenodd" d="M5.93022 15.1846C5.93022 15.1846 5.89996 15.0713 5.61956 14.7789C5.53997 14.6963 5.49105 14.6276 5.43749 14.5784C5.30435 14.4528 5.22628 14.4192 5.13147 14.3473C4.92338 14.1927 4.69694 14.1927 4.52255 14.0029C4.34815 13.8131 4.14491 13.4504 4.00369 13.0798C3.8645 12.7094 3.82617 12.5915 3.82617 12.5808C3.82617 12.5701 3.8645 12.4982 3.91342 12.5089C3.96234 12.5196 3.96234 12.6144 3.97465 12.6374C3.99902 12.675 4.02666 12.7103 4.05725 12.743C4.12917 12.8257 4.23165 12.9246 4.2837 13.0721C4.27301 12.9466 4.23014 12.8074 4.23014 12.8074C4.23014 12.8074 4.49945 12.9773 4.72892 13.1548C4.96 13.3324 5.05481 13.3936 5.12229 13.5068C5.18977 13.6201 5.34873 13.9186 5.42489 14.0059C5.50104 14.0932 6.54449 14.4222 6.54449 14.4222L7.04085 14.7925L7.28726 15.3328L7.09441 15.6355L6.72413 15.7151L6.12277 15.4457L5.93022 15.1845V15.1846Z" fill="#D2B159"/>
<path fill-rule="evenodd" clip-rule="evenodd" d="M4.59473 13.3232C4.59473 13.3232 4.7202 13.5237 5.02623 13.7135C5.30169 13.8804 5.73773 14.032 6.12647 14.1223C6.34978 14.1759 6.5732 14.2172 6.77362 14.2203C7.31375 14.2278 7.68554 14.0734 8.14619 14.0228C8.39563 13.9968 8.70166 13.9769 9.01989 13.9017C9.42839 13.8037 9.67017 13.6935 9.99919 13.5385C10.2378 13.4283 10.4567 13.3456 10.6341 13.24C10.8836 13.0931 11.0656 12.9293 11.2769 12.8804C11.2508 12.9523 11.2233 13.0809 11.0152 13.2141C11.1253 13.2109 11.2769 13.2034 11.2769 13.2034C11.2769 13.2034 11.13 13.2905 10.8714 13.4865C10.7122 13.6076 10.5011 13.8125 10.2853 13.9487C10.146 14.036 9.99455 14.1001 9.8951 14.1524C9.65302 14.2856 9.55538 14.3529 9.39632 14.5156C9.4529 14.5126 9.45754 14.5156 9.45754 14.5156C9.45754 14.5156 9.25702 14.5417 9.11329 14.6181C9.08303 14.6181 9.03058 14.6074 8.93879 14.6335C8.86688 14.6564 8.77196 14.7086 8.67412 14.736C8.53483 14.7774 8.48903 14.759 8.48903 14.759L8.51193 14.8049C8.51193 14.8049 8.33037 14.8018 8.26985 14.8079C8.28055 14.811 8.27752 14.8156 8.27752 14.8156C8.26689 14.8174 8.25665 14.821 8.24726 14.8263C8.21814 14.8452 8.1861 14.8591 8.15245 14.8676C8.13409 14.8706 8.11876 14.8706 8.09576 14.8752C8.10343 14.8936 8.16314 14.9963 8.19067 15.0569C8.16778 15.0722 7.82342 15.3324 7.82342 15.3324C7.8341 15.3493 7.84283 15.3672 7.84945 15.386C7.86014 15.4196 7.86478 15.4687 7.87547 15.4916C7.90139 15.5375 7.91672 15.5451 7.91672 15.5451C7.91672 15.5451 7.87547 15.5528 7.80345 15.5712C7.74233 15.5865 7.66728 15.6125 7.56138 15.6278C7.52888 15.632 7.49619 15.6346 7.46344 15.6355C7.47877 15.6692 7.54604 15.7977 7.42208 15.9461C7.29812 16.0946 7.25989 16.1162 7.22166 16.211C7.20242 16.1965 7.18193 16.1836 7.16044 16.1727C7.11918 16.1543 7.0625 16.1269 7.04263 16.09C7.03104 16.1391 7.0157 16.1872 6.99673 16.2339C6.9585 16.3364 6.90192 16.4375 6.89123 16.514C6.84987 16.4681 6.77342 16.3778 6.66781 16.3962C6.5622 16.4145 6.47808 16.5584 6.45973 16.5998C6.45973 16.5738 6.44137 16.5539 6.43683 16.5845C6.4337 16.6182 6.3756 16.9701 6.05122 17.2549C6.0482 17.1829 6.0482 17.0237 6.04053 16.9717C6.01027 17.002 5.97325 17.0467 5.75286 17.1417C5.53711 17.2365 5.5713 17.3315 5.5713 17.3315C5.5713 17.3315 5.55295 17.1801 5.66924 17.0207C5.78706 16.8615 5.85897 16.7865 5.85897 16.7743C5.85707 16.7618 5.85176 16.7502 5.84364 16.7406C5.82831 16.7252 5.79775 16.7069 5.79775 16.6947C5.8161 16.6871 5.99817 16.5998 5.98747 16.4191C5.97678 16.2569 5.90799 16.1727 5.85897 16.113C5.85141 16.1054 5.93099 16.0488 5.9202 16.0304C5.91253 16.0197 5.81469 15.9477 5.80239 15.9093C5.80528 15.8864 5.81041 15.8639 5.81772 15.842C5.82841 15.8083 5.83608 15.7853 5.83305 15.7624C5.82538 15.7242 5.78403 15.6185 5.77182 15.6078C5.78252 15.6108 5.85897 15.6078 5.85897 15.6078C5.85897 15.6078 5.79785 15.5098 5.78706 15.4639C5.77626 15.418 5.75337 15.297 5.74116 15.2741C5.76718 15.2771 5.83144 15.2817 5.83144 15.2741C5.83456 15.2511 5.77485 15.2129 5.80118 15.1833C5.81953 15.1863 5.85474 15.2017 5.88832 15.2446C5.86997 15.1955 5.8394 15.1007 5.77505 15.0624C5.80531 15.0517 5.90819 15.0241 5.99847 15.0777C6.08874 15.1312 6.11951 15.2062 6.11951 15.2062C6.11951 15.2062 6.17307 15.2476 6.25578 15.3088C6.35059 15.3838 6.47143 15.4905 6.66428 15.5659C6.70564 15.5889 6.81114 15.5889 6.8877 15.5736C6.92103 15.5657 6.95299 15.5528 6.98251 15.5354C6.99317 15.5291 7.00446 15.5239 7.0162 15.52C6.99975 15.487 6.98084 15.4553 6.95961 15.4251C6.98564 15.4251 7.0162 15.4282 7.0162 15.4282C7.0162 15.4282 7.03456 15.3868 6.95195 15.3071C6.97031 15.2888 6.9933 15.2768 6.9933 15.2459C6.96728 15.2428 6.92139 15.2046 6.91069 15.1893C6.92592 15.1786 6.94892 15.1433 6.97495 15.1327C6.95195 15.1143 6.89536 15.0377 6.86934 15.0301C6.8942 15.0209 6.91825 15.0096 6.94126 14.9964C6.94126 14.9964 6.81275 14.9627 6.7714 14.9352C6.73004 14.9049 6.66892 14.8525 6.63221 14.8372C6.59388 14.8219 6.5266 14.8143 6.49906 14.7836C6.52499 14.7913 6.56634 14.7836 6.597 14.7836C6.6199 14.7836 6.63069 14.7867 6.63826 14.7867C6.63523 14.776 6.63523 14.753 6.69494 14.7454C6.72366 14.7411 6.75154 14.7323 6.77755 14.7194C6.77755 14.7194 6.72087 14.7163 6.65651 14.6551C6.59216 14.5938 6.5387 14.5449 6.50199 14.5372C6.46376 14.5295 6.39184 14.5633 6.34746 14.5601C6.28624 14.5526 6.26021 14.5219 6.26021 14.5219C6.26021 14.5219 6.05677 14.5402 5.6054 14.2648C5.21515 14.0259 5.04529 13.8147 5.04529 13.8147C5.00877 13.8015 4.97347 13.7851 4.93979 13.7657C4.79293 13.6892 4.58938 13.53 4.59553 13.3217L4.59473 13.3232Z" fill="#C2A44D"/>
<path fill-rule="evenodd" clip-rule="evenodd" d="M10.2239 4.13605C10.2593 4.14755 10.2908 4.16877 10.3147 4.1973C10.3866 4.27994 10.4325 4.43604 10.2688 4.60293C10.3331 4.62584 10.3596 4.6332 10.4157 4.62584C10.3591 4.69324 10.2306 4.83713 10.2229 4.96265C10.2152 5.06517 10.2795 5.09585 10.2795 5.09585C10.2795 5.09585 10.1816 5.20906 10.177 5.39856C10.2233 5.34638 10.2739 5.29824 10.3283 5.25467C10.4416 5.16436 10.5976 5.06184 10.7032 4.99757C10.7018 5.02451 10.7054 5.05148 10.7139 5.07708C10.7139 5.07708 10.9112 4.91483 11.077 4.98687C11.152 5.02057 11.1183 5.12612 11.1183 5.12612C11.1183 5.12612 11.2209 5.08788 11.2928 5.15982C11.3647 5.23177 11.4664 5.41733 11.5185 5.48927C11.5414 5.52298 11.6011 5.58725 11.6623 5.68674C11.7458 5.82604 11.8155 5.97314 11.8704 6.12598C11.8735 6.04637 11.8933 5.92245 12.1199 6.00045C12.3463 6.08007 12.6033 6.24696 12.8191 6.57561C13.0348 6.90425 13.0883 7.27528 13.1969 7.41654C13.3071 7.55276 13.4203 7.77929 13.428 7.87425C13.4357 7.9692 13.3943 8.27524 13.6208 9.10336C13.685 8.84626 13.783 8.27524 13.783 8.27524L13.8365 7.77163L13.8977 6.21336L12.2712 4.86155L10.9997 3.93848L10.1719 4.01809L10.2238 4.13595L10.2239 4.13605Z" fill="#CAA13E"/>
<path fill-rule="evenodd" clip-rule="evenodd" d="M13.2464 6.45495C13.2464 6.45495 13.2234 6.3036 12.8409 6.04629C12.4583 5.79221 12.1599 5.79221 11.8846 5.57638C11.6734 5.40646 11.4531 5.01606 11.3097 4.88751C11.1704 4.76047 11.1475 4.39307 11.1475 4.39307L11.6172 3.99955L12.3158 2.9894L12.9063 2.33887L13.1894 2.73239L13.5828 3.19464L13.8015 4.12225L13.8811 5.48002L13.2457 6.45505L13.2464 6.45495Z" fill="#B59544"/>
<path fill-rule="evenodd" clip-rule="evenodd" d="M13.7194 8.08234C13.7309 7.87644 13.7055 7.67012 13.6443 7.47319C13.5434 7.15937 13.3231 6.60218 13.2207 6.39351C13.1793 6.16234 13.21 6.14397 13.2544 6.11794C13.2988 6.09191 13.4656 5.99686 13.557 5.66337C13.6483 5.32988 13.9319 5.31898 13.9319 5.31898L14.1063 5.19043L14.371 5.85317L14.602 6.45173L14.6739 6.90943L14.7275 7.29973L14.602 8.12482L13.9824 8.68504L13.7193 8.08234H13.7194Z" fill="#C89D3A"/>
<path fill-rule="evenodd" clip-rule="evenodd" d="M5.07227 17.2787V17.2618C5.08514 17.2537 5.09651 17.2435 5.10585 17.2315C5.11655 17.2161 5.12431 17.1978 5.13188 17.1932C5.14721 17.1856 5.21913 17.163 5.25735 17.1702C5.29558 17.1775 5.39665 17.2192 5.45021 17.2161C5.56035 17.2131 5.68885 17.1289 5.8924 17.1672C6.19843 17.2238 6.27034 17.432 6.44787 17.5498C6.5689 17.6326 6.69418 17.5958 6.71254 17.5958H6.75379C6.76146 17.5958 6.81804 17.5315 6.8487 17.5346C6.90993 17.5376 6.91598 17.5882 6.95421 17.5912C7.04448 17.6019 7.21898 17.5453 7.30623 17.5683C7.3321 17.5764 7.35563 17.5907 7.37481 17.6098C7.39399 17.629 7.40825 17.6525 7.41637 17.6784C7.43473 17.735 7.4194 17.8069 7.37502 17.8483C7.28021 17.9355 7.18993 18.0182 7.17157 18.0905C7.19492 18.1083 7.21734 18.1273 7.23875 18.1474C6.48167 17.9544 5.75326 17.6627 5.07227 17.2796V17.2787Z" fill="#CEB052"/>
<path fill-rule="evenodd" clip-rule="evenodd" d="M13.2197 14.2203C13.2197 14.2203 13.4584 13.9019 13.5411 13.7442C13.6237 13.5817 13.2794 11.5232 13.2794 11.5232L13.9711 9.2563L13.9526 8.51848C13.9526 8.51848 13.9863 7.83728 14.0659 7.54183C14.1608 7.71176 14.4561 7.91689 14.5204 8.02557C14.5506 7.8173 14.6534 7.37807 14.6382 6.90967C14.6948 6.99685 14.8309 7.87401 14.8309 7.87401L14.9671 8.4648L15.1446 9.09243L15.342 9.75527L15.4598 10.213L15.5271 10.3232L15.5838 10.516L15.6374 10.7242L15.7919 11.2125L15.8827 11.6135L15.9546 12.3406C15.9702 12.3963 15.9815 12.4531 15.9883 12.5106C15.9913 12.5902 15.9776 12.6361 15.9776 12.6499C15.9776 12.6637 16.0036 12.8244 15.9929 12.9454C15.9776 13.0664 15.9776 13.1612 15.8827 13.2481C15.7878 13.3349 15.7281 13.8542 15.7281 13.8542L15.5583 13.741C15.5583 13.741 15.592 13.5863 15.5124 13.4455C15.4328 13.3048 15.2783 13.2756 15.191 13.2986C15.1039 13.317 14.9295 13.3444 14.8728 13.3935C14.8192 13.4424 14.6877 13.594 14.5668 13.6629C14.4155 13.7537 14.169 13.7609 14.0374 13.7914C13.9043 13.8217 13.7574 13.9125 13.6028 14.018C13.4816 14.0965 13.3536 14.164 13.2203 14.2198L13.2197 14.2203Z" fill="#CCA847"/>
<path fill-rule="evenodd" clip-rule="evenodd" d="M13.2197 17.5652C13.2197 17.5652 13.2298 17.5717 13.2493 17.5824C14.3364 17.0729 15.3104 16.3507 16.1139 15.4584C16.1051 15.1486 16.0937 14.8311 16.0812 14.7134C16.0553 14.4639 16.0736 14.2098 16.0659 14.0629C16.0583 13.916 15.9757 13.3174 15.9374 13.1628C15.8961 13.0082 15.8164 12.9316 15.8043 12.9316C15.7936 12.9348 15.7293 13.2225 15.7293 13.2949C15.7293 13.3672 15.7139 13.5414 15.7139 13.5858C15.7032 13.5827 15.6987 13.5555 15.6987 13.5444C15.6834 13.5827 15.665 13.6501 15.6573 13.6577C15.6497 13.6654 15.668 13.5935 15.6573 13.5781C15.6466 13.5628 15.6271 13.5705 15.6313 13.5322C15.6331 13.5095 15.6367 13.487 15.642 13.4649C15.642 13.4649 15.5961 13.5322 15.5625 13.7037C15.5288 13.8736 15.5288 13.8782 15.5166 13.8935C15.5059 13.9119 15.4447 13.9731 15.4416 13.9961C15.4386 14.0373 15.4983 14.0787 15.5028 14.1016C15.5058 14.14 15.4493 14.3175 15.4309 14.4043C15.4125 14.4912 15.4202 14.6614 15.4006 14.7487C15.3853 14.8283 15.3704 14.8742 15.318 14.9078C15.3563 14.9155 15.393 14.9262 15.393 14.9262C15.393 14.9262 15.4465 15.1527 15.3104 15.3457C15.2614 15.413 15.2492 15.4436 15.1972 15.5049C15.0946 15.6181 15.015 15.7471 15.0074 15.8309C15.0021 15.8062 14.9985 15.7811 14.9967 15.7558C14.9967 15.7558 14.8376 15.9411 14.7702 16.0468C14.6831 16.183 14.5621 16.1753 14.5282 16.209C14.4942 16.2427 14.4868 16.3039 14.4979 16.3529C14.4676 16.3605 14.4107 16.3713 14.3724 16.4891C14.3541 16.5503 14.3082 16.6102 14.2362 16.6514C14.1643 16.6925 14.0771 16.705 14.0327 16.7156C14.0709 16.7263 14.0863 16.7263 14.1046 16.7386C14.0817 16.7768 13.9761 16.8365 13.8583 16.9131C13.7405 16.9851 13.6838 17.0906 13.6548 17.1595C13.6245 17.2238 13.5798 17.2652 13.5079 17.2728C13.5382 17.2912 13.5829 17.334 13.6058 17.3478C13.5721 17.3555 13.5151 17.3555 13.4131 17.4428C13.306 17.5316 13.2693 17.5576 13.2202 17.5653L13.2197 17.5652Z" fill="#C39D3C"/>
<path fill-rule="evenodd" clip-rule="evenodd" d="M11.0913 18.2745C11.1499 18.2334 11.2134 18.1997 11.2802 18.1743C11.5189 18.0794 11.7714 18.0611 11.8708 18.0305C11.9657 18.0002 12.0407 17.9585 12.1585 17.9355C12.1554 17.9624 12.1527 17.9876 12.1499 18.0114C11.8026 18.1207 11.4489 18.2085 11.0908 18.2745H11.0913Z" fill="#D2BA6B"/>
<path fill-rule="evenodd" clip-rule="evenodd" d="M15.4926 11.9948C15.4926 11.9948 15.4437 12.2596 15.3565 12.4265C15.2692 12.5933 15.1749 12.8244 15.1749 12.8244C15.1755 12.7723 15.1816 12.7205 15.1933 12.6697C15.0831 12.734 14.8153 12.8887 14.7394 12.9575C14.6675 13.0218 14.5465 13.1351 14.516 13.1887C14.5879 12.9775 14.6628 12.7877 14.6751 12.7004C14.565 12.78 14.0508 13.204 13.7831 13.4841L12.9491 14.1592C12.8529 14.2111 12.7538 14.2575 12.6523 14.2982C12.5085 14.3594 12.3387 14.4114 12.2132 14.4605C12.2469 14.3702 12.3003 14.2905 12.3754 14.214C12.455 14.139 12.6936 13.8803 12.7303 13.7599C12.764 13.6344 12.7717 13.5594 12.7273 13.4538C12.686 13.4645 12.5911 13.4691 12.5269 13.4875C12.4626 13.5058 12.3938 13.5746 12.3938 13.5746C12.3938 13.5746 12.4427 13.2945 12.5483 13.0298C12.4687 13.0328 12.3325 13.0557 12.3325 13.0557C12.3325 13.0557 12.5223 12.7373 12.8469 12.5154C12.7475 12.5366 12.6502 12.5668 12.5562 12.6057C12.3665 12.6853 12.1584 12.8031 12.0039 12.8674C12.0911 12.7463 12.7031 11.8725 13.0673 11.0581C13.4304 10.2453 13.5661 10.0371 13.6457 9.60093C13.6869 9.3851 13.6759 9.06614 13.6869 8.78048C13.6976 8.49724 13.7328 8.24316 13.7099 8.07324C13.8048 8.1911 14.1598 8.52327 14.172 9.26573C14.1827 10.0081 13.8324 11.0108 13.4605 11.551C13.5513 11.577 13.7865 11.6077 14.0282 11.1878C14.2698 10.7678 14.2669 10.6505 14.3542 10.476C14.3649 10.5633 14.3617 10.5938 14.3617 10.5938C14.3617 10.5938 14.7138 10.1668 14.8805 9.62949C14.9142 9.86066 15.0136 10.0643 14.8575 10.4883C14.7183 10.8709 14.5362 10.9643 14.5362 10.9643C14.5362 10.9643 14.6265 10.949 14.7595 10.8694C14.7825 10.926 14.778 10.9905 14.8162 11.0133C14.8545 11.0361 14.9065 11.0745 14.9142 11.1113C14.9554 11.05 15.0197 10.9719 15.0396 10.9138C15.0243 11.0349 15.0136 11.5643 15.0699 11.8337C15.1878 11.823 15.3087 11.8154 15.3913 11.6026C15.3347 11.8108 15.3347 11.9363 15.3729 12.1139C15.4356 12.0711 15.4922 11.9945 15.4922 11.9945L15.4926 11.9948Z" fill="#C0993A"/>
<path fill-rule="evenodd" clip-rule="evenodd" d="M11.5172 3.55743C11.5172 3.55743 11.3994 3.60637 11.199 3.60637C11.0246 3.60637 11.0735 3.53906 10.8012 3.53906C10.382 3.53906 8.91764 3.78123 8.66053 3.7778C8.4937 3.77477 9.22356 3.84975 9.22356 3.84975L11.0889 3.87578L11.4637 3.84551L11.603 3.56197L11.5172 3.55743Z" fill="#A88F33"/>
<path fill-rule="evenodd" clip-rule="evenodd" d="M6.68031 7.20518C6.68031 7.20518 6.44157 7.38732 6.3406 7.52666C6.23963 7.66601 6.18607 7.75774 6.07129 7.87105C6.09823 7.87208 6.12515 7.86846 6.15087 7.86035C6.15087 7.86035 6.15087 7.89063 6.13251 7.8986C6.14838 7.89682 6.16444 7.89862 6.17952 7.90386C6.1946 7.9091 6.20831 7.91764 6.21966 7.92887C6.18597 7.94723 6.09419 8.03916 6.1661 8.14783C6.21966 8.23047 6.33293 8.23804 6.33293 8.23804C6.33293 8.23804 6.30691 8.31311 6.41554 8.30544C6.64965 8.29475 6.9113 8.19213 7.03213 8.21816C7.15317 8.24843 7.22196 8.25953 7.30759 8.40806C7.39837 8.55498 7.47745 8.57799 7.47745 8.57799C7.47745 8.57799 7.53101 8.44166 7.51881 8.23814C7.56272 8.12843 7.58706 8.01187 7.59072 7.89375L7.51114 7.3075L7.16386 6.86816L6.714 7.1177L6.68031 7.20488V7.20518Z" fill="#E3C571"/>
<path fill-rule="evenodd" clip-rule="evenodd" d="M7.10742 7.11762C7.10742 7.11762 7.14111 7.19723 7.28192 7.2048C7.26659 7.2385 7.26659 7.24314 7.27123 7.26908C7.27425 7.29511 7.27879 7.33335 7.27879 7.33335C7.29429 7.32585 7.30831 7.31559 7.32015 7.30308C7.32781 7.33678 7.31248 7.39026 7.32015 7.42861C7.32488 7.45193 7.33257 7.47454 7.34304 7.49591C7.34528 7.49067 7.34784 7.48558 7.35071 7.48067C7.35373 7.473 7.38097 7.56331 7.45631 7.63203C7.45625 7.62146 7.45885 7.61105 7.46388 7.60176C7.46503 7.62095 7.47138 7.63947 7.48224 7.65534C7.4766 7.65265 7.47145 7.64903 7.46701 7.64464C7.46701 7.64464 7.47457 7.88681 7.51593 8.01203C7.52284 8.00394 7.52898 7.99523 7.53428 7.986C7.53428 7.97843 7.53126 8.05341 7.52359 8.10709C7.5129 8.16067 7.52057 8.23564 7.52057 8.23564C7.54815 8.21391 7.57847 8.1959 7.61074 8.18206C7.65663 8.16359 7.73178 8.10699 7.77757 7.98146C7.80414 7.91037 7.82462 7.83716 7.8388 7.7626C7.85359 7.79109 7.8638 7.82174 7.86906 7.85341C7.87218 7.89166 7.9441 7.87178 7.9441 7.87178L7.95943 7.70488L8.05021 7.32679L8.13282 7.09259L8.53063 6.47274L9.2494 5.91898L9.87678 6.06287L10.4061 5.34342L9.4942 4.79541L8.63119 4.88572L7.84797 5.97094L7.22069 6.95526L7.10742 7.11752V7.11762Z" fill="#D8B65B"/>
<path fill-rule="evenodd" clip-rule="evenodd" d="M11.6279 5.54714C11.6279 5.54714 11.5743 5.55783 11.4198 5.63795C11.2653 5.71807 11.1582 5.7435 11.0985 5.86135C11.0387 5.97921 11.0342 6.07265 11.0342 6.07265C11.0342 6.07265 11.1398 6.02673 11.201 6.0114C11.2653 5.99616 11.3372 6.0007 11.3295 6.02673C11.3222 6.04458 11.312 6.06111 11.2993 6.07567C11.2993 6.07567 11.4203 6.07265 11.4171 6.13238C11.4139 6.19212 11.3942 6.25791 11.3713 6.28697C11.3483 6.31724 11.2535 6.36204 11.2428 6.39725C11.2168 6.4692 11.2535 6.47223 11.2397 6.53035C11.229 6.58705 11.1785 6.69724 11.0132 6.89007C10.8434 7.083 10.7711 7.21922 10.7711 7.21922C10.7711 7.21922 10.6885 7.06463 10.6457 6.93144C10.6154 6.94668 10.4529 7.03699 10.4529 7.03699L10.0765 5.72523L10.0841 5.63795C10.0841 5.63795 10.1177 5.59668 10.1254 5.52009C10.0688 5.50173 10.0612 5.48639 9.98611 5.41455C9.91107 5.3427 9.84994 5.25532 9.72457 5.19559C9.70621 5.16188 9.68321 5.11607 9.59143 5.09761C9.49964 5.07914 9.44457 5.06401 9.44457 5.06401C9.44457 5.06401 9.49349 5.04554 9.51648 5.0073C9.4598 5.01497 9.41401 5.03333 9.29004 5.0303C9.16457 5.02718 9.15075 5.02264 9.08196 5.03333C9.01317 5.04403 8.93066 5.0747 8.89989 4.96906C8.86621 4.94302 8.79429 4.96603 8.73306 5.05624C8.67184 5.14645 8.65046 5.21849 8.53264 5.25371C8.52436 5.30566 8.50618 5.35553 8.47909 5.40062C8.4454 5.45733 8.39184 5.51394 8.31992 5.59809C8.20665 5.73129 8.22501 5.95015 8.04446 6.11704C7.86239 6.28384 8.07472 5.6547 8.07472 5.6547L8.36541 4.95846L9.19321 4.1487L10.4785 4.06152L10.604 4.72749L11.2314 4.94333L11.6277 5.54794L11.6279 5.54714Z" fill="#D3AE4D"/>
<path fill-rule="evenodd" clip-rule="evenodd" d="M11.8306 5.69407L11.2905 4.91499L10.9126 4.62408C10.9126 4.62408 10.6433 4.12824 10.6249 4.1129C10.6096 4.10221 10.3556 4.07466 10.1934 4.06396L10.2237 4.13894C10.2591 4.15044 10.2905 4.17166 10.3144 4.20019C10.3864 4.28283 10.4322 4.43892 10.2685 4.60582C10.3328 4.62873 10.3593 4.63609 10.4154 4.62873C10.3588 4.69613 10.2303 4.84002 10.2227 4.96554C10.215 5.06806 10.2792 5.09864 10.2792 5.09864C10.2792 5.09864 10.1813 5.21195 10.1768 5.40135C10.223 5.34917 10.2736 5.30103 10.3281 5.25746C10.4413 5.16665 10.5974 5.06453 10.703 5.00025C10.7015 5.02723 10.7052 5.05423 10.7137 5.07987C10.7137 5.07987 10.911 4.91761 11.0768 4.98956C11.1517 5.02326 11.118 5.12891 11.118 5.12891C11.118 5.12891 11.2206 5.09067 11.2925 5.16261C11.3644 5.23455 11.4669 5.41971 11.519 5.49176C11.5419 5.52546 11.6016 5.58974 11.6627 5.68913C11.7462 5.82845 11.816 5.97559 11.8709 6.12846C11.8739 6.06722 11.8862 5.98155 11.9919 5.98155L11.8313 5.69377L11.8306 5.69407Z" fill="#CAA13E"/>
<path fill-rule="evenodd" clip-rule="evenodd" d="M3.73379 7.90775C3.73379 7.90775 3.69556 7.8128 3.73379 7.62764C3.77202 7.44248 3.83173 7.3552 3.8516 7.08276C3.87147 6.81032 4.04899 6.47047 4.04899 6.47047L4.5401 6.24707L4.88748 6.34192L4.98996 6.80729L4.5508 7.04946C4.5508 7.04946 4.5279 7.15198 4.40394 7.23462C4.27997 7.31726 4.1086 7.38154 4.06735 7.46579C4.04269 7.51738 4.02469 7.57191 4.01379 7.62805C4.01379 7.62805 3.88831 7.60201 3.81337 7.68465C3.73379 7.76891 3.73681 7.84388 3.73379 7.90816V7.90775Z" fill="#F4EFC8"/>
<path fill-rule="evenodd" clip-rule="evenodd" d="M4.72556 7.78388C4.72556 7.78388 4.6842 7.80992 4.65364 7.8747C4.62338 7.82576 4.55106 7.53485 4.54804 7.27311C4.54501 7.01136 4.52938 6.94648 4.58989 6.85627C4.65041 6.76606 4.88775 6.67101 4.85406 6.50855C4.82037 6.35397 4.67956 6.28969 4.50668 6.33409C4.38564 6.36436 4.29557 6.62187 4.17009 6.75042C4.07518 6.8484 3.96201 6.83306 3.93145 6.88664C3.89009 6.95859 3.92832 7.03053 3.91611 7.07644C3.91299 7.09178 3.87476 7.17442 3.80587 7.27391C3.66667 7.47441 3.43105 7.75765 3.40039 8.01172C3.41108 7.86783 3.40352 7.86481 3.44175 7.70558L3.41875 7.66734L3.57005 7.17139L3.66799 6.76273L3.88686 6.0784L4.27237 5.37893L4.64729 4.95947L5.03743 4.98551L5.08333 5.57176L5.30674 6.67242L5.77647 7.25101L5.02362 7.75785L4.72526 7.78388H4.72556Z" fill="#EBCC73"/>
<path fill-rule="evenodd" clip-rule="evenodd" d="M4.95935 7.99173C4.95935 7.99173 4.89509 8.00707 4.8721 7.99486C4.8491 7.98265 4.8263 7.96883 4.83387 7.95349C4.84143 7.93815 4.88279 7.91222 4.88279 7.89991C4.88364 7.88879 4.88012 7.87777 4.87298 7.8692C4.86585 7.86063 4.85565 7.85517 4.84456 7.854C4.80936 7.84946 4.79867 7.87236 4.79867 7.87236C4.79867 7.87236 4.76498 7.84643 4.73754 7.84209C4.75378 7.8401 4.77011 7.83906 4.78646 7.83896C4.74418 7.8198 4.69932 7.80692 4.65332 7.80072C4.69155 7.77782 4.76659 7.71041 4.81551 7.71041C4.86443 7.71041 4.89509 7.70284 4.88743 7.67681C4.87976 7.65078 4.84153 7.61254 4.80028 7.5972C4.81551 7.57883 4.8263 7.55129 4.78959 7.47611C4.75126 7.40114 4.76659 7.35059 4.7789 7.33232C4.78959 7.30932 4.82782 7.26805 4.84617 7.24202C4.86453 7.21598 4.87986 7.18077 4.91043 7.1624C4.92576 7.15171 4.97468 7.13213 5.0237 7.11346C5.07726 7.0951 5.12164 7.07209 5.1522 7.0951C5.18589 7.118 5.17056 7.14868 5.17056 7.14868C5.17056 7.14868 5.27616 7.11034 5.37098 7.15938C5.46589 7.20519 5.69697 7.23435 5.69697 7.23435L5.77978 7.40124L5.23198 7.87115L5.00554 7.98447L4.95965 7.99204L4.95935 7.99173Z" fill="#E5C66B"/>
<path fill-rule="evenodd" clip-rule="evenodd" d="M5.71975 7.22332C5.71975 7.22332 5.54989 7.33664 5.51167 7.37791C5.53456 7.38103 5.57279 7.39637 5.55746 7.41928C5.5391 7.44218 5.42896 7.5218 5.36773 7.59687C5.30348 7.67184 5.24226 7.76679 5.22087 7.8127C5.19798 7.85397 5.02348 7.97496 4.96387 7.99019C5.08934 7.99019 5.34181 7.83561 5.43662 7.83561C5.4336 7.88152 5.46265 7.93359 5.51621 7.93813C5.56976 7.94267 5.72429 7.97183 5.93238 7.84328C6.14046 7.71775 6.07167 7.62431 6.15882 7.56317C6.32565 7.45288 6.39293 7.3549 6.48471 7.29375C6.5765 7.2326 6.62401 7.21868 6.62401 7.21868C6.62401 7.21868 6.62703 7.17277 6.65427 7.17741C6.66172 7.17826 6.6688 7.18114 6.67474 7.18573C6.68068 7.19032 6.68525 7.19644 6.68796 7.20344C6.68796 7.20344 6.84712 7.09013 7.05107 7.05955C7.04631 7.05743 7.04251 7.05362 7.04038 7.04886C7.04038 7.04886 7.05561 7.04119 7.05874 7.03352C7.05874 7.03352 7.06943 7.01818 7.0771 7.02585C7.08476 7.03352 7.09545 7.09013 7.11078 7.11313C7.14447 7.0978 7.20872 6.95391 7.20872 6.95391L7.36335 6.51154V6.10742L7.24231 6.13043L6.33453 6.51608L5.7836 7.0871L5.71935 7.22332H5.71975Z" fill="#E6BD62"/>
<path fill-rule="evenodd" clip-rule="evenodd" d="M8.33283 5.24132C8.38193 5.22941 8.42901 5.2103 8.47253 5.18462C8.45417 5.23365 8.45417 5.28724 8.37459 5.40358C8.295 5.51992 8.29198 5.53677 8.22773 5.65765C8.16348 5.78318 8.15581 5.9638 8.09459 6.04331C8.12203 6.02997 8.15146 6.02121 8.18173 6.01738C8.18173 6.01738 8.12061 6.07096 8.09459 6.12757C8.06856 6.18417 8.02267 6.30203 7.9095 6.37407C7.79633 6.44612 7.65239 6.49193 7.49787 6.66185C7.34324 6.82865 7.18418 7.03994 7.10449 7.11592C7.14585 7.04398 7.20243 6.90009 7.21776 6.80524C7.2331 6.71039 7.21464 6.59697 7.24066 6.47155C7.26668 6.34612 7.26668 6.25571 7.39196 6.03675C7.51723 5.81779 7.73167 5.05707 7.73167 5.05707L8.19374 4.91016L8.33303 5.24082L8.33283 5.24132Z" fill="#B6933F"/>
<path fill-rule="evenodd" clip-rule="evenodd" d="M7.99887 4.96125C7.99887 4.96125 7.85968 5.16174 7.82145 5.33934C7.78322 5.51693 7.81832 5.50159 7.79543 5.58887C7.78173 5.64209 7.78173 5.69791 7.79543 5.75113C7.84363 5.67343 7.90964 5.60834 7.98798 5.56122C8.11961 5.48171 8.22673 5.425 8.29058 5.3577C8.35483 5.28576 8.40839 5.1679 8.54758 5.07759C8.49099 5.06992 8.41141 5.04389 8.39628 5.04732C8.45297 4.98304 8.62272 4.88506 8.79409 4.76721C8.96395 4.64612 8.95326 4.59729 9.22872 4.4764C9.13845 4.49174 9.09558 4.46873 9.02054 4.4764C9.0508 4.41213 9.15671 4.38145 9.26261 4.27591C9.36852 4.17036 9.19534 4.01416 9.19534 4.01416L8.38841 4.50244L7.99827 4.96165L7.99887 4.96125Z" fill="#C49937"/>
<path fill-rule="evenodd" clip-rule="evenodd" d="M5.80957 4.59683L5.82793 4.44991L6.05901 4.07949L6.30078 3.42897V2.5396L6.28243 2.02529L6.32065 1.68847L6.3497 1.58141L6.38037 1.54004L6.57766 1.64256L6.8501 2.01298L6.87612 2.72788L6.61135 3.85599L5.85546 4.68109L5.80957 4.59683Z" fill="#DFC068"/>
<path fill-rule="evenodd" clip-rule="evenodd" d="M6.41079 1.49842C6.41079 1.49842 6.28975 1.50155 6.26393 2.00516C6.23811 2.50878 6.2256 2.77355 6.20725 3.02309C6.18889 3.27262 6.14612 3.42408 6.12464 3.5711C6.10315 3.71811 6.09095 3.91851 6.02216 4.04101C5.9919 4.09761 5.92724 4.27521 5.77574 4.4084C5.60589 4.55532 5.35211 4.65794 5.31368 4.6656C5.2463 4.68084 4.90508 4.71454 4.76588 4.79113C4.71696 4.81716 4.63274 4.84774 4.53944 4.93502C4.35425 5.10181 4.10794 5.40029 3.93041 5.76001C3.65808 6.29733 3.38574 7.81422 3.38574 7.81422L3.44697 7.7117C3.44697 7.7117 3.45463 7.57548 3.5908 7.33664C3.72394 7.0979 3.68572 6.83 3.8708 6.3723C3.94272 6.19783 4.03299 5.9713 4.14314 5.77838C4.31764 5.46456 4.52875 5.19515 4.74147 5.04823C5.08875 4.80949 5.47133 4.75743 5.47133 4.75743L5.88296 4.48499C5.88296 4.48499 5.95488 4.34574 6.0498 4.18651C6.18284 3.96311 6.35239 3.71357 6.38941 3.35082C6.4461 2.81351 6.30983 2.46145 6.31749 2.1431C6.32516 1.82475 6.32818 1.59055 6.39254 1.53384C6.45689 1.47713 6.41089 1.49862 6.41089 1.49862L6.41079 1.49842Z" fill="#A88F33"/>
<path fill-rule="evenodd" clip-rule="evenodd" d="M6.4109 3.90181C6.4109 3.90181 6.59245 3.45481 6.67557 3.05836C6.6909 2.97874 6.72146 2.89923 6.72913 2.83495C6.76735 2.45989 6.77805 2.30531 6.72913 2.10017C6.6909 1.94881 6.54404 1.81239 6.46748 1.70664C6.39254 1.59635 6.35734 1.55529 6.37267 1.53208C6.388 1.50887 6.44761 1.47093 6.50571 1.47547C6.56747 1.47727 6.62821 1.49161 6.68426 1.51763C6.7403 1.54365 6.79047 1.5808 6.83171 1.62683C6.94952 1.76305 7.04282 2.22539 7.04282 2.22539L7.14096 2.83546L7.3904 3.60384L6.4111 3.90242L6.4109 3.90181Z" fill="#C99E3D"/>
<path fill-rule="evenodd" clip-rule="evenodd" d="M8.11681 3.43649C8.11681 3.43649 8.08312 3.45172 8.02199 3.43649C8.0246 3.46148 8.02026 3.4867 8.00946 3.50938C7.99866 3.53206 7.98181 3.55132 7.96077 3.56504C7.89652 3.53901 7.29506 3.59107 7.29506 3.59107C7.29506 3.59107 7.01506 3.54203 6.92781 3.17161C6.86668 2.92511 6.9737 2.58536 6.9385 2.36186C6.88494 2.03271 6.81 1.96833 6.80233 1.86591C6.79466 1.7635 6.787 1.73736 6.787 1.67309C6.75331 1.66542 6.73344 1.65472 6.69985 1.65472C6.69219 1.62445 6.70742 1.59801 6.67383 1.54443C6.69219 1.5521 6.81766 1.56744 6.96452 1.70669C7.08556 1.82 7.08556 1.86127 7.10382 1.88428C7.12671 1.90718 7.3119 2.06591 7.39148 2.22412C7.47107 2.38234 7.62559 2.88686 7.66079 2.9695C7.67149 3.00321 7.69448 3.03691 7.75157 3.11339C7.84033 3.22368 7.97035 3.40601 8.11721 3.43629L8.11681 3.43649Z" fill="#B58634"/>
<path fill-rule="evenodd" clip-rule="evenodd" d="M7.12598 1.89209C7.21867 2.04188 7.30194 2.19731 7.37532 2.35746C7.46559 2.56098 7.51915 2.72788 7.63242 2.8641C7.5712 2.68661 7.46256 2.33758 7.39831 2.21357C7.3264 2.0824 7.17954 1.94113 7.12598 1.89219V1.89209Z" fill="#A88F33"/>
<path fill-rule="evenodd" clip-rule="evenodd" d="M6.08573 4.4083C6.08573 4.4083 5.9312 4.44655 5.64354 4.5981C5.54862 4.64704 5.45845 4.68831 5.3712 4.72666C5.14455 4.82918 4.90147 4.92392 4.70862 4.97619C4.72395 4.99456 4.73151 5.00213 4.73151 5.00213C4.73151 5.00213 4.73151 5.0772 4.77287 5.11998C4.74997 5.14299 4.44384 5.35115 4.53422 6.04759C4.59534 6.02469 4.66726 5.99401 4.67795 5.99401C4.69641 5.99714 4.70095 6.04759 4.72385 6.04759C4.74674 6.04759 4.82179 6.01732 4.90137 5.9144C4.89834 5.95577 4.85245 6.3721 5.09876 6.65221C5.14466 6.59863 5.26095 6.42104 5.26095 6.42104L5.26398 6.36443C5.26398 6.36443 5.27467 6.16696 5.33902 5.98634C5.40338 5.80573 5.52875 5.67253 5.52875 5.67253L6.18347 4.73725L6.08553 4.4082L6.08573 4.4083Z" fill="#E6C367"/>
<path fill-rule="evenodd" clip-rule="evenodd" d="M5.47334 5.78175C5.44336 5.80294 5.41034 5.81944 5.3754 5.83069C5.3647 5.79245 5.34937 5.66077 5.43965 5.53221C5.54525 5.37753 5.77624 5.17703 5.84049 5.0176C5.88184 4.91498 5.86348 4.65788 6.23073 4.32873C6.59798 3.99958 6.74172 3.88637 6.74172 3.88637L7.33541 3.58789L8.06527 3.87567L7.70266 5.29741L7.42115 5.96338L6.30154 5.75218L5.47324 5.78175H5.47334Z" fill="#DCBA5A"/>
<path fill-rule="evenodd" clip-rule="evenodd" d="M5.90039 5.39588L6.03969 5.22142V5.09741C6.03969 5.09741 6.19421 5.05604 6.36094 4.88611C6.52767 4.71619 6.75875 4.39017 6.9623 4.41005C7.16585 4.43305 7.18572 4.85241 7.19338 4.97037C7.20105 5.08833 7.22707 5.35603 7.26833 5.50002C7.31422 5.64391 6.77257 6.18879 6.77257 6.18879L6.40472 6.4689L5.90039 5.39588Z" fill="#E9CE77"/>
<path fill-rule="evenodd" clip-rule="evenodd" d="M6.33203 6.84844C6.33203 6.84844 6.4453 6.67084 6.36229 6.6326C6.41121 6.52241 6.50149 6.40607 6.50149 6.40607C6.50149 6.40607 6.56574 6.24695 6.77382 6.05099C6.98191 5.85503 7.11051 5.72487 7.1442 5.59329C7.16497 5.50754 7.17626 5.41976 7.17789 5.33154C7.20038 5.34993 7.22445 5.3663 7.2498 5.38048C7.28349 5.39582 7.44256 5.5274 7.41966 5.79227C7.39677 6.05715 7.29862 6.16733 7.29862 6.16733C7.29862 6.16733 7.20381 6.26218 7.13653 6.31122C7.06451 6.36016 7.03859 6.41677 6.91766 6.42141C6.93009 6.41152 6.94406 6.40375 6.95901 6.3984C6.95901 6.3984 6.83353 6.38317 6.76616 6.44431C6.69878 6.50546 6.55555 6.69385 6.48363 6.75056C6.41172 6.79647 6.33233 6.84854 6.33233 6.84854L6.33203 6.84844Z" fill="#CDAE50"/>
<path fill-rule="evenodd" clip-rule="evenodd" d="M11.4196 3.87126C11.2389 3.80535 11.0489 3.76817 10.8566 3.76107C10.5352 3.75038 10.0655 3.76874 9.60496 3.77177C9.10921 3.7748 8.65935 3.60185 8.03509 3.57127C7.93261 3.51002 7.67198 3.24212 6.8584 3.81001C6.90732 3.80698 7.44907 3.68449 7.63718 3.9203C7.82691 4.1545 7.77335 4.55246 7.74743 4.64731C7.6984 4.85861 7.53924 5.16626 7.47509 5.3821C7.41094 5.59793 7.42607 5.71135 7.38017 5.86271C7.33428 6.01406 7.23331 6.08924 7.29293 6.2637C7.37251 6.21476 7.41396 6.21476 7.5469 5.91629C7.67985 5.61781 7.65251 5.405 7.8729 5.15244C8.08865 4.89836 8.44783 4.55085 8.58441 4.46357C8.72098 4.37629 9.80538 3.81304 10.9408 4.35035C11.2147 4.32129 11.4197 3.87116 11.4197 3.87116L11.4196 3.87126Z" fill="#D2A83E"/>
<path fill-rule="evenodd" clip-rule="evenodd" d="M7.31541 3.66284C7.31429 3.65134 7.31175 3.64002 7.30785 3.62914C7.29723 3.60676 7.28329 3.58611 7.26649 3.56789C7.26649 3.56789 6.99718 3.51895 6.86102 3.53419C6.62227 3.56022 6.40652 3.85567 6.30555 4.00723C6.20459 4.15879 6.07911 4.39289 5.94294 4.51387C5.94443 4.50208 5.94172 4.49015 5.93527 4.48017C5.93527 4.48017 5.94294 4.49086 5.92771 4.5062C5.91248 4.52154 5.91238 4.52911 5.92004 4.53647L5.94304 4.55938C5.95061 4.55938 6.16182 4.46443 6.44949 4.19612C6.75551 3.91601 6.98962 3.77232 7.11207 3.72308C7.17737 3.69532 7.24563 3.67511 7.31552 3.66284H7.31541Z" fill="#C29637"/>
<path fill-rule="evenodd" clip-rule="evenodd" d="M12.5389 2.51172C12.5389 2.51172 12.4898 2.57287 12.4286 2.64027C12.2924 2.78416 12.1149 2.94631 11.9634 3.11321C11.8197 3.27244 11.6575 3.39645 11.4753 3.60461C11.2932 3.81278 11.082 4.04385 11.0285 4.11125C10.9796 4.17866 10.9414 4.28884 10.9414 4.34545C10.9153 4.32709 10.8848 4.30721 10.8848 4.30721C10.8976 4.33124 10.913 4.35384 10.9307 4.37461C10.9689 4.42819 11.0285 4.4957 11.0592 4.53687C11.0968 4.58928 11.1238 4.64854 11.1386 4.71133C11.157 4.71436 11.2748 4.73736 11.4218 4.4955C11.5687 4.25363 11.7614 3.98886 11.7614 3.98886L12.0674 3.53418L12.2603 3.14853L12.5023 2.71686L12.5392 2.51172H12.5389Z" fill="#AC8132"/>
<path fill-rule="evenodd" clip-rule="evenodd" d="M12.8527 2.20264C12.8527 2.20264 12.6675 2.35399 12.5956 2.44481C12.5237 2.53562 12.3535 2.77396 12.3535 2.77396L12.4147 2.76629L12.7254 2.49082L12.8464 2.27499L12.8526 2.20304L12.8527 2.20264Z" fill="#A88F33"/>
<path fill-rule="evenodd" clip-rule="evenodd" d="M12.7967 14.3673C12.7967 14.3673 12.7937 14.2418 12.8641 14.1668C12.936 14.0917 13.1181 13.9815 13.2956 13.5682C13.4731 13.1549 13.4929 13.0616 13.4929 13.0616C13.4929 13.0616 13.1746 13.334 12.9785 13.3983C13.0244 13.3033 13.0504 13.236 13.0734 13.187C13.0474 13.1641 12.9372 13.1381 12.9265 13.1259C12.9876 13.0646 13.0213 12.9146 13.1453 12.8151C13.3045 12.694 13.5952 12.4859 13.8211 12.3005C14.047 12.115 14.4912 11.6836 14.5479 11.5581C14.5816 11.607 14.5892 11.6376 14.5892 11.6376C14.5892 11.6376 14.3659 11.9285 14.2496 12.1137C14.147 12.2729 14.1547 12.3632 14.1547 12.3632L14.3659 12.2724C14.3659 12.2724 14.427 12.4989 14.1501 12.8434C14.2712 12.7975 14.32 12.8251 14.3888 12.7867C14.2755 12.8588 14.1195 12.9567 13.9726 13.2261C13.8288 13.4955 13.6329 13.8093 13.3024 14.0051C12.9811 14.2118 12.7959 14.3664 12.7959 14.3664L12.7967 14.3673Z" fill="#A67A2E"/>
<path fill-rule="evenodd" clip-rule="evenodd" d="M11.9671 4.03038C11.9671 4.03038 11.8417 4.29203 11.8233 4.49565C11.8203 4.54469 11.808 4.58293 11.808 4.63954C11.8049 4.82167 11.8187 5.0253 11.7777 5.12015C11.7624 5.08191 11.7547 5.05587 11.7394 5.04064C11.7165 5.10491 11.6751 5.30541 11.6414 5.38038C11.6262 5.33144 11.5925 5.16152 11.5956 4.96102C11.5988 4.76053 11.6032 4.72218 11.6032 4.68091C11.5956 4.74206 11.5543 4.8248 11.539 4.87374C11.5161 4.83247 11.49 4.77889 11.4594 4.73449C11.441 4.76476 11.4181 4.80946 11.3983 4.83247C11.3951 4.81411 11.3876 4.76507 11.3829 4.69625C11.3799 4.61664 11.3753 4.51412 11.3799 4.49262C11.3875 4.45135 11.4518 4.2891 11.588 4.14057C11.7502 3.96298 11.917 3.62172 11.9659 3.51607C12.0148 3.41043 12.2229 2.97119 12.2229 2.97119H12.3821L12.151 3.49771C12.151 3.49771 12.0118 3.78549 11.9399 3.89124C11.868 3.99698 11.7165 4.3 11.6491 4.41785C11.698 4.35358 11.7394 4.31988 11.7884 4.25863C11.8358 4.21574 11.9673 4.03058 11.9673 4.03058L11.9671 4.03038Z" fill="#8C6228"/>
<path fill-rule="evenodd" clip-rule="evenodd" d="M12.8556 2.18262C12.8296 2.26267 12.7885 2.33699 12.7346 2.40158C12.6397 2.51489 12.4361 2.66635 12.3368 2.78723C12.246 2.90509 12.0644 3.22657 12.1469 3.60769C12.1772 3.52505 12.2342 3.36128 12.3857 3.17602C12.5372 2.99076 12.6994 2.77805 12.7791 2.61277C12.8585 2.44588 12.8692 2.3143 12.8692 2.3143L12.8995 2.27605L12.8811 2.18877L12.8551 2.18262H12.8556Z" fill="#CBA94C"/>
<path fill-rule="evenodd" clip-rule="evenodd" d="M15.9547 12.3361C15.9547 12.3361 15.8935 12.1694 15.8751 12.0178C15.8568 11.8662 15.9054 11.8362 15.8491 11.6627C15.8154 11.5571 15.7543 11.5719 15.739 11.5571C15.7236 11.5422 15.7129 11.3826 15.716 11.2953C15.719 11.208 15.7129 11.0948 15.6976 11.0458C15.6747 11.0274 15.6594 11.0121 15.6257 10.8989C15.5875 10.7856 15.5691 10.7289 15.5507 10.6953C15.5324 10.6617 15.4787 10.6311 15.4787 10.5974C15.4787 10.53 15.54 10.4948 15.54 10.4763C15.5369 10.438 15.491 10.4687 15.4787 10.4579C15.4635 10.4396 15.5171 10.3294 15.4972 10.314C15.4895 10.3065 15.436 10.3707 15.4221 10.3524C15.4068 10.3339 15.3885 10.1518 15.3609 10.0309C15.335 9.91303 15.3074 9.82737 15.3043 9.79215C15.3013 9.75845 15.0931 9.16453 15.0427 9.02064C15.002 8.89905 14.9678 8.77541 14.9402 8.65022C14.9249 8.57827 14.9142 8.43126 14.9065 8.44659C14.8989 8.46193 14.9035 8.5369 14.8912 8.53388C14.8805 8.53075 14.8423 8.2691 14.8301 8.22773C14.8194 8.18636 14.755 8.0461 14.7393 7.9446C14.724 7.84198 14.6904 7.57407 14.6674 7.39194C14.6444 7.20981 14.6337 7.13484 14.6337 7.08923C14.6374 6.97768 14.6313 6.86601 14.6153 6.75554C14.5851 6.56261 14.5245 6.32841 14.4715 6.19229C14.369 5.93509 14.0966 5.27689 14.0479 5.11312C14.0479 5.07175 14.1014 5.09476 14.1014 5.09476C14.1014 5.09476 14.2345 5.42845 14.3324 5.68555C14.4273 5.94276 14.5176 6.16929 14.5406 6.19229C14.5589 6.2152 14.7028 6.46776 14.767 6.88106C14.8313 7.29437 14.8542 7.67548 14.8925 7.92956C14.9109 8.05065 14.9262 8.1791 14.9644 8.30765C15.0057 8.447 15.0699 8.59089 15.1541 8.81126C15.2261 8.99652 15.2796 9.15111 15.3087 9.2843C15.3424 9.45422 15.3424 9.58277 15.3622 9.66703C15.3807 9.73897 15.4081 9.88276 15.4725 10.0908C15.5368 10.2989 15.6315 10.5669 15.6958 10.7337C15.8214 11.0674 15.8773 11.346 15.8963 11.4945C15.9131 11.6476 15.9697 12.1772 15.9544 12.3364L15.9547 12.3361Z" fill="#A88F33"/>
<path fill-rule="evenodd" clip-rule="evenodd" d="M12.864 2.16455L12.8563 2.18291C12.8563 2.18291 12.8792 2.19058 12.8746 2.22126C12.875 2.26323 12.8724 2.30517 12.867 2.34678C12.8594 2.40036 12.8441 2.44163 12.8411 2.47533C12.8411 2.54728 12.8517 2.62992 12.7503 2.83506C12.72 2.89167 12.7014 2.9406 12.686 2.97431C12.6478 3.05695 12.6401 3.06926 12.6064 3.1075C12.66 3.07723 12.8529 2.95614 12.9507 2.97431C12.8834 3.01255 12.7808 3.08762 12.7166 3.1856C12.7319 3.18863 12.7962 3.20094 12.8981 3.1856C13.068 3.15957 13.2577 3.09832 13.4245 3.11053C13.6066 3.12122 13.5347 2.89167 13.5347 2.89167L13.3245 2.42942L12.9267 2.14941L12.864 2.16465V2.16455Z" fill="#BE9C44"/>
<path fill-rule="evenodd" clip-rule="evenodd" d="M13.9011 5.62689C13.9011 5.62689 13.7236 5.44929 13.6517 4.83983C13.5798 4.22755 13.5951 3.32627 13.5951 3.32627L13.4513 2.97422C13.4513 2.97422 13.421 2.74002 13.3457 2.65284C13.2703 2.56565 13.1223 2.41864 13.055 2.34669C12.9876 2.27475 12.9111 2.17677 12.8652 2.16143C12.8881 2.12319 12.9907 1.90736 13.3839 1.90433C13.7771 1.9013 13.8983 2.12016 13.9393 2.19978C13.9804 2.27939 14.1658 2.62357 14.2346 3.27945C14.2988 3.93452 14.302 3.98356 14.2913 4.21009C14.2836 4.33561 14.2422 4.62642 14.1702 4.9371C14.1045 5.20046 14.0325 5.4944 13.9009 5.62749L13.9011 5.62689Z" fill="#A17C34"/>
<path fill-rule="evenodd" clip-rule="evenodd" d="M13.3446 6.14894C13.4037 6.15321 13.4629 6.13987 13.5144 6.1106C13.571 6.10757 13.7761 6.1336 13.9336 5.93311C13.9443 5.97892 13.972 6.10303 13.9 6.21322C13.9383 6.17487 13.9949 6.15964 14.0025 6.14894C14.0056 6.20555 14.0591 6.38001 13.8327 6.80401C13.8938 6.73671 13.9657 6.73973 14.03 6.73206C14.0331 6.81168 14.0759 7.07948 13.9627 7.22347C13.8877 7.32145 13.7653 7.29077 13.7653 7.29077C13.7671 7.26938 13.7671 7.24788 13.7653 7.2265C13.7623 7.18512 13.7469 7.14385 13.7577 7.11631C13.6986 7.08927 13.6447 7.05193 13.5986 7.00602C13.4654 6.8805 13.2925 6.66628 13.2803 6.50705C13.265 6.32946 13.4242 6.29121 13.4242 6.29121C13.4108 6.27928 13.3995 6.26532 13.3905 6.24984C13.3828 6.22391 13.3752 6.18254 13.3446 6.14894Z" fill="#8C6228"/>
<path fill-rule="evenodd" clip-rule="evenodd" d="M12.1642 4.22308C12.1642 4.22308 12.1565 4.21238 12.1152 4.26132C12.1229 4.21238 12.1306 4.16637 12.1336 4.12197C12.1531 4.08087 12.1784 4.04275 12.2086 4.00876C12.1856 4.05457 12.1703 4.09594 12.1703 4.09594C12.1703 4.09594 12.227 3.99029 12.3096 3.92602C12.3662 3.8801 12.4381 3.85871 12.4687 3.81583C12.5024 3.76992 12.4947 3.76225 12.5024 3.75458C12.5024 3.75458 12.5774 3.70564 12.6922 3.56165C12.7074 3.54329 12.7304 3.52341 12.7457 3.50504C12.7717 3.49435 12.8329 3.4668 12.9048 3.42997C12.9799 3.3887 13.064 3.33209 13.116 3.30889C13.2185 3.26297 13.3272 3.26762 13.3777 3.19557C13.4159 3.18487 13.4571 3.07005 13.4496 2.97217C13.5062 2.99507 13.7969 3.17569 13.8964 3.57063C13.9683 3.85074 13.8397 4.28241 13.7862 4.49068C13.7326 4.69894 13.725 4.85343 13.65 4.94828C13.5551 5.0739 13.2492 5.25099 13.1741 5.33867C13.1099 5.41062 12.9171 5.59275 12.9247 5.72433C12.9323 5.82231 13.0532 5.87569 13.0793 5.89425C13.1054 5.91282 13.1052 5.93562 13.1542 5.92452C13.2033 5.91342 13.2215 5.89082 13.2415 5.89082C13.2644 5.89385 13.2644 5.89849 13.2751 5.89849C13.2828 5.89826 13.2905 5.89721 13.2981 5.89536C13.2981 5.89536 13.2904 6.03471 12.9645 6.07699C12.9415 6.08012 12.9186 6.08769 12.8895 6.09233C12.9278 6.07396 12.9507 6.07396 12.9921 6.01736C12.9462 6.00969 12.8145 6.00202 12.7808 5.99132C12.7915 5.97296 12.8267 5.92392 12.8558 5.90101C12.8818 5.87811 12.8528 5.87074 12.8299 5.88265C12.7904 5.90948 12.7526 5.93859 12.7166 5.96983C12.6784 6.00353 12.6447 6.04944 12.5835 6.09092C12.5651 6.02967 12.5681 5.91332 12.6401 5.82917C12.6217 5.8322 12.5865 5.88578 12.5529 5.87508C12.5468 5.81925 12.5504 5.76279 12.5636 5.70819C12.5819 5.63927 12.6814 5.51838 12.6814 5.51838L13.1618 4.65959L13.2643 4.00906L12.1642 4.22288V4.22308Z" fill="#92723A"/>
<path fill-rule="evenodd" clip-rule="evenodd" d="M12.138 4.26015C12.138 4.26015 12.1119 4.27852 12.164 4.31373C12.1563 4.32443 12.138 4.36267 12.115 4.38871C12.089 4.41898 12.0614 4.43774 12.0507 4.46378C12.0278 4.51736 12.0094 4.55409 12.0094 4.57709C12.0094 4.6001 12.0018 4.74702 11.9375 4.84187C11.9145 4.87557 11.8885 4.93218 11.8702 4.97042C11.8319 5.03772 11.7982 5.0915 11.7906 5.12177C11.7753 5.17535 11.7646 5.32227 11.7646 5.32227C11.7646 5.32227 11.7983 5.2809 11.8105 5.26566C11.7921 5.30391 11.7722 5.34518 11.7432 5.37585C11.7615 5.36051 11.8151 5.32227 11.9054 5.24266C12.0308 5.13711 12.2267 4.95952 12.4655 4.81886C12.3934 4.84489 12.3323 4.84489 12.2834 4.85256C12.3216 4.81432 12.6659 4.4102 12.8464 4.37196C12.8574 4.35805 12.8628 4.34059 12.8618 4.32292L12.7071 4.30768L12.3934 4.37498L12.3476 4.13281L12.138 4.25985V4.26015Z" fill="#B18E3E"/>
<path fill-rule="evenodd" clip-rule="evenodd" d="M12.6368 5.63782C12.6368 5.63782 12.5955 5.67909 12.5572 5.78171C12.5278 5.75096 12.5026 5.71646 12.4822 5.67909C12.4256 5.58424 12.3385 5.46325 12.1349 5.53217C12.1319 5.46789 12.1273 5.43419 12.1349 5.38828C12.1686 5.38071 12.2711 5.29807 12.3736 5.17709C12.4456 5.09445 12.5129 4.9995 12.5588 4.87861C12.589 4.85561 12.6414 4.81736 12.7101 4.77297C12.808 4.70566 12.9258 4.61374 12.9442 4.51122C12.8983 4.52959 12.8003 4.5755 12.6534 4.56793C12.7101 4.5419 12.7972 4.51435 12.7865 4.40103C12.8095 4.3857 12.8279 4.375 12.8279 4.375C12.8106 4.36925 12.7925 4.36665 12.7743 4.36733C12.7712 4.35664 12.7666 4.3414 12.7406 4.34897C12.7146 4.35653 12.7104 4.35664 12.7069 4.36733C12.6962 4.37046 12.661 4.36733 12.635 4.3858C12.609 4.40426 12.5371 4.46531 12.5095 4.47601C12.5202 4.45764 12.5355 4.43019 12.5355 4.43019C12.5355 4.43019 12.4605 4.43776 12.4069 4.46047C12.309 4.49417 12.1958 4.55542 12.0811 4.61505C12.0917 4.59669 12.0964 4.58478 12.104 4.58135C12.1115 4.57792 12.13 4.57378 12.13 4.57065C12.13 4.56753 12.1224 4.54038 12.1269 4.52938C12.1613 4.45666 12.2018 4.38701 12.248 4.32122C12.3015 4.24917 12.3122 4.14665 12.3122 4.14665L12.5463 4.0288L13.2043 3.87744L13.6313 3.90347L13.5777 4.19892L13.3255 4.71474L13.1098 5.18466L12.8634 5.47254L12.6369 5.63782H12.6368Z" fill="#543E26"/>
<path fill-rule="evenodd" clip-rule="evenodd" d="M13.7037 4.35886C13.7037 4.35886 13.4466 4.67721 13.3747 4.72625C13.4206 4.62827 13.7037 4.04504 13.8062 3.88279C13.7833 3.86443 13.7526 3.86443 13.8245 3.58008C13.7634 3.72387 13.7419 3.79894 13.6915 3.83718C13.6411 3.87542 13.6348 3.86322 13.6007 3.86322C13.6071 3.85157 13.6098 3.8382 13.6083 3.82497C13.6083 3.82497 13.3925 3.79894 13.2452 3.79894C13.0978 3.79894 12.8061 3.87855 12.6438 3.94283C12.5153 3.99641 12.4434 3.99641 12.3975 4.03001C12.3516 4.06825 12.3256 4.10962 12.3026 4.12032C12.2842 4.13101 12.1971 4.15856 12.1771 4.18762C12.1587 4.21789 12.1282 4.2519 12.1282 4.25957C12.1282 4.26724 12.1205 4.27803 12.1435 4.27026C12.1511 4.26724 12.2078 4.23656 12.272 4.19832C12.3592 4.14938 12.4648 4.09277 12.5413 4.05907C12.7601 3.97179 12.829 3.98713 12.9268 3.96876C13.0293 3.9504 13.1763 3.90751 13.2741 3.90751C13.3721 3.90448 13.5572 3.90751 13.6001 3.91518C13.5817 3.93052 13.5664 3.94888 13.5741 4.01316C13.5741 4.03152 13.5588 4.0514 13.5438 4.0958C13.498 4.22132 13.4108 4.42949 13.3623 4.53514C13.295 4.67892 13.2185 4.79991 13.1807 4.87488C13.1429 4.94985 13.0597 5.14732 12.9773 5.25297C12.8949 5.35862 12.8518 5.42289 12.826 5.4459C12.8001 5.4689 12.6148 5.60502 12.6286 5.65406C12.6623 5.64337 12.875 5.56325 13.0294 5.38929C13.1838 5.21533 13.2146 5.10918 13.3354 5.01423C13.4563 4.91928 13.5512 4.76015 13.6078 4.62857C13.6552 4.50608 13.6445 4.46783 13.7041 4.35916L13.7037 4.35886Z" fill="#806031"/>
<path fill-rule="evenodd" clip-rule="evenodd" d="M8.16323 6.73517C8.16323 6.73517 8.12954 6.87442 8.05298 6.94333C7.97804 7.01074 7.8449 7.06886 7.82967 7.18217C7.81131 7.29539 7.96281 7.3521 7.96281 7.3521C7.96281 7.3521 7.8801 7.48832 7.8801 7.59084C7.8801 7.69648 7.87707 7.71636 7.88777 7.81736C7.87563 7.82517 7.86531 7.8355 7.85751 7.84764C7.85751 7.84764 7.86507 7.94561 7.94012 8.00676C8.01516 8.06791 8.07931 8.10474 8.11754 8.0894C8.12337 8.10188 8.12849 8.11468 8.13287 8.12775C8.13287 8.12775 8.18956 7.98386 8.22778 7.85833C8.26601 7.72978 8.2997 7.74804 8.31493 7.57509C8.33016 7.40214 8.49649 7.10518 8.49649 7.10518L8.60996 6.85141L8.42487 6.70752L8.16323 6.73507V6.73517Z" fill="#B6903C"/>
<path fill-rule="evenodd" clip-rule="evenodd" d="M8.50793 6.98438C8.46976 7.02357 8.43453 7.06553 8.40253 7.1099C8.35361 7.1773 8.31538 7.23845 8.24346 7.26459C8.17155 7.29072 8.12565 7.29052 8.13019 7.36256C8.13473 7.43461 8.20211 7.46508 8.24034 7.50181C8.28169 7.54005 8.31538 7.60433 8.29702 7.67638C8.31992 7.66568 8.36127 7.65337 8.3995 7.57073C8.43773 7.48809 8.70512 6.98448 8.70512 6.98448H8.50793V6.98438Z" fill="#685026"/>
<path fill-rule="evenodd" clip-rule="evenodd" d="M9.56246 5.82287C9.56246 5.82287 9.58535 5.76173 9.56246 5.71733C9.53946 5.67142 9.40027 5.65608 9.33138 5.60401C9.25946 5.55043 9.17221 5.5132 9.10029 5.53671C9.11099 5.51068 9.15385 5.45397 9.11865 5.44176C9.08496 5.43106 8.95959 5.48767 8.9259 5.5137C8.89221 5.53974 8.81565 5.57031 8.80042 5.58878C8.78519 5.60724 8.75907 5.64236 8.74374 5.62702C8.7284 5.61632 8.72084 5.58878 8.69481 5.60401C8.66879 5.61925 8.54352 5.72187 8.52042 5.7816C8.49732 5.84134 8.44538 5.97453 8.28934 6.12599C8.1333 6.27745 8.06592 6.37553 8.11181 6.43213C8.15771 6.48874 8.17919 6.44747 8.18686 6.49641C8.19275 6.54445 8.19016 6.59316 8.17919 6.6403C8.16083 6.71991 8.13027 6.79488 8.17153 6.81022C8.27713 6.84392 8.37971 6.77995 8.40261 6.79953C8.4485 6.8408 8.37659 6.98933 8.48522 7.01839C8.59546 7.04866 8.7041 6.99235 8.7041 6.99235L9.10493 6.77652L9.49054 6.573L9.68783 6.1826L9.58203 5.85658L9.56185 5.82287H9.56246Z" fill="#D4B968"/>
<path fill-rule="evenodd" clip-rule="evenodd" d="M9.18408 6.75524C9.18408 6.75524 9.1167 6.65272 9.19941 6.56231C9.28212 6.4719 9.39983 6.43376 9.44572 6.37715C9.43698 6.36637 9.42527 6.3584 9.41203 6.35425C9.44249 6.29971 9.48897 6.25586 9.54517 6.22862C9.52228 6.20572 9.49161 6.18735 9.45802 6.18735C9.38298 6.18735 9.33699 6.23326 9.2682 6.23326C9.20092 6.23326 9.19325 6.19956 9.19325 6.19956C9.19325 6.19956 9.30653 6.18886 9.29573 6.13831C9.28504 6.08473 9.26547 6.08473 9.26547 6.08473C9.26547 6.08473 9.48425 5.99392 9.52248 5.94548C9.56071 5.89705 9.55617 5.83984 9.56383 5.81693C9.58976 5.81693 9.74125 5.73732 9.80248 5.77102C9.86371 5.80472 9.82084 5.89654 9.82084 5.89654C9.82084 5.89654 10.0061 5.7572 10.1005 5.62057C10.1831 5.62824 10.2216 5.56396 10.2821 5.56396C10.3571 5.56396 10.4749 5.66648 10.4978 5.88534C10.5132 6.01087 10.5361 6.08281 10.5132 6.3048C10.5025 6.43033 10.5055 6.69833 10.5434 6.83132C10.5694 6.93697 10.6306 6.92627 10.6306 6.92627C10.6212 6.95846 10.6026 6.9872 10.577 7.00891C10.5357 7.04716 10.5311 7.14826 10.5357 7.1865C10.5418 7.21446 10.5494 7.24205 10.5587 7.26914C10.5587 7.26914 10.5097 7.32575 10.4974 7.3641C10.4867 7.40234 10.4363 7.42837 10.3995 7.42837C10.3627 7.42837 10.3811 7.42524 10.3322 7.42837C10.2833 7.4315 10.268 7.43907 10.2373 7.42837C10.2066 7.41768 10.1838 7.40536 10.1961 7.30729C10.2067 7.20931 9.81811 6.98126 9.81811 6.98126L9.18266 6.75474L9.18408 6.75524Z" fill="#CCA849"/>
<path fill-rule="evenodd" clip-rule="evenodd" d="M8.45363 7.72254C8.45363 7.72254 8.59282 7.9078 9.16513 7.9078C9.43747 7.9078 9.53238 7.88176 9.58877 7.86642C9.64999 7.85109 9.87946 7.76088 10.1105 7.48834C10.3186 7.24193 10.2727 7.14092 10.2727 7.14092L10.1517 7.12256L9.75832 7.17614L8.59434 7.67208L8.45312 7.72254H8.45363Z" fill="#585136"/>
<path fill-rule="evenodd" clip-rule="evenodd" d="M8.88052 7.76812C8.88052 7.76812 8.38477 7.87841 8.38477 7.56459C8.38477 7.25845 8.69079 6.93697 8.76735 6.88036C8.84693 6.82365 9.03666 6.75928 9.03666 6.75928H9.49418L9.58133 6.99045L9.5431 7.48942L8.88052 7.76802V7.76812Z" fill="#252211"/>
<path fill-rule="evenodd" clip-rule="evenodd" d="M9.33795 6.85295C9.33795 6.85295 9.24314 6.76566 9.02739 6.88322C8.81163 7.00077 8.63714 7.24647 8.62645 7.46957C8.61575 7.66694 8.78864 7.81396 9.05795 7.82163C9.25837 7.82919 9.3793 7.80629 9.44053 7.79136C9.4252 7.77299 9.34562 7.6735 9.34562 7.6735L9.33805 6.85305L9.33795 6.85295Z" fill="#C3B378"/>
<path fill-rule="evenodd" clip-rule="evenodd" d="M9.24469 6.90205C9.24469 6.90205 9.22179 6.88369 9.15391 6.92042C9.09732 6.95069 9.01472 7.0307 8.95046 7.08731C8.90911 7.12101 8.88309 7.13625 8.85969 7.16228C8.76477 7.2756 8.68519 7.46086 8.73118 7.55268C8.77718 7.6445 8.92858 7.75015 9.31418 7.67821L9.24358 6.90215L9.24469 6.90205Z" fill="#E6D89C"/>
<path fill-rule="evenodd" clip-rule="evenodd" d="M9.12023 7.0917C9.12023 7.0917 9.05901 7.18665 9.05901 7.33821C9.05901 7.49279 9.14625 7.7392 9.46761 7.75757C9.71392 7.7729 9.87914 7.40249 10.0582 7.2586C10.1943 7.14841 10.277 7.14528 10.277 7.14528C10.277 7.14528 10.1378 6.99392 9.76597 6.79787C9.39872 6.6004 8.98709 6.57436 8.76367 6.87748C8.86928 6.86981 9.2105 6.78253 9.2105 6.78253L9.37734 6.83611L9.12023 7.0918V7.0917Z" fill="#252211"/>
<path fill-rule="evenodd" clip-rule="evenodd" d="M9.59931 7.29222C9.58862 7.26931 9.58095 7.23864 9.62533 7.23107C9.66971 7.2235 9.68958 7.22794 9.70491 7.26134C9.72024 7.29474 9.73517 7.32259 9.71248 7.33642C9.68958 7.34863 9.62987 7.33642 9.59921 7.29202L9.59931 7.29222ZM9.52739 7.07639C9.52739 7.07639 9.51206 7.08708 9.51972 7.06569C9.52275 7.03976 9.54272 6.99375 9.59164 7.00454C9.64056 7.01534 9.62997 7.06882 9.6219 7.08416C9.61383 7.09949 9.57298 7.12543 9.54232 7.11443C9.53843 7.11343 9.53483 7.11154 9.53182 7.10889C9.5288 7.10624 9.52645 7.10292 9.52495 7.0992C9.52346 7.09547 9.52287 7.09145 9.52322 7.08745C9.52357 7.08345 9.52486 7.07959 9.52699 7.07618L9.52739 7.07639Z" fill="#6F674D"/>
<path fill-rule="evenodd" clip-rule="evenodd" d="M5.38574 7.17412C5.38574 7.17412 5.50678 7.26493 5.64739 7.2614C5.78658 7.25827 5.96562 7.11448 6.04823 7.02256C6.09714 6.96898 6.139 6.91237 6.18439 6.86797C6.22272 6.82973 6.24864 6.81137 6.267 6.78533C6.29303 6.75506 6.32056 6.69815 6.33438 6.67969C6.30069 6.70572 6.25177 6.75173 6.20124 6.78231C6.15232 6.81258 6.04671 6.86949 6.00384 6.88483C5.96259 6.90016 5.53412 7.127 5.53412 7.127L5.38574 7.17412Z" fill="#AC924C"/>
<path fill-rule="evenodd" clip-rule="evenodd" d="M5.57129 6.0432C5.57129 6.0432 5.63857 5.99729 5.76868 5.96813C5.89416 5.93786 6.14662 5.91455 6.14662 5.91455L6.35471 6.00536L6.43732 6.31918L6.28602 6.6453L6.09327 6.76638L5.87439 6.41433L5.57179 6.04381L5.57129 6.0432Z" fill="#9F8E57"/>
<path fill-rule="evenodd" clip-rule="evenodd" d="M5.29956 6.32338L5.22754 6.37716C5.22754 6.37716 5.246 6.34346 5.26123 6.24094C5.27646 6.13842 5.35614 5.88889 5.47244 5.745C5.58874 5.60111 5.58571 5.60878 5.58571 5.60878C5.57501 5.60682 5.56401 5.60716 5.55346 5.60979C5.5429 5.61242 5.53302 5.61727 5.52449 5.62401C5.53982 5.59011 5.63776 5.46902 5.7357 5.40848C5.83364 5.34794 5.87187 5.32887 5.97435 5.37821C6.07682 5.42755 6.10285 5.45318 6.17789 5.45015C6.25294 5.44713 6.31709 5.36751 6.31709 5.36751C6.31709 5.36751 6.33242 5.41645 6.27583 5.52977C6.21925 5.64308 5.99583 5.87415 5.99583 5.87415L5.53064 6.19251L5.29956 6.32368V6.32338Z" fill="#EAC970"/>
<path fill-rule="evenodd" clip-rule="evenodd" d="M5.64298 6.00509C5.64298 6.00509 5.97967 6.051 6.08215 5.95615C6.08518 5.96685 6.09748 5.96685 6.09748 5.97451C6.09666 5.98029 6.09396 5.98565 6.08982 5.98975C6.10096 5.98797 6.11222 5.98696 6.1235 5.98672C6.13698 5.99074 6.15084 5.99331 6.16486 5.99439C6.17615 5.99415 6.18741 5.9931 6.19855 5.99126C6.19748 5.99887 6.1949 6.00619 6.19095 6.01278C6.187 6.01936 6.18176 6.02509 6.17555 6.02961C6.19088 6.02961 6.20581 6.03264 6.20581 6.04484C6.20581 6.05705 6.20884 6.09388 6.19048 6.10155C6.17527 6.10576 6.15908 6.10466 6.14458 6.09842C6.1458 6.12741 6.15367 6.15572 6.16758 6.18117C6.19784 6.23777 6.2624 6.30225 6.34914 6.28368C6.34914 6.28368 6.39493 6.39387 6.20218 6.63877C6.17626 6.67247 6.14862 6.71838 6.11503 6.75662C6.10176 6.78556 6.09162 6.81584 6.08477 6.84693C6.08477 6.84693 6.41077 6.72141 6.50407 6.43514C6.59898 6.14736 6.61734 5.86423 6.59898 5.59945C6.59586 5.52438 6.58365 5.4709 6.56529 5.43256C6.5194 5.33761 6.3908 5.35294 6.33885 5.40652C6.26381 5.4816 6.13833 5.66827 5.96394 5.79682C5.78641 5.92537 5.77885 5.94818 5.64258 6.00509H5.64298Z" fill="#D7BC6B"/>
<path fill-rule="evenodd" clip-rule="evenodd" d="M5.23927 6.41842C5.23927 6.41842 5.17502 6.45666 5.14133 6.60004C5.10764 6.74696 5.17159 6.92607 5.20861 6.98267C5.24563 7.03928 5.32965 7.19397 5.50394 7.20164C5.54708 7.20141 5.58974 7.19256 5.62942 7.1756C5.69026 7.14769 5.74734 7.11219 5.79928 7.06996C5.87432 7.01335 5.93544 6.96441 5.92778 6.95977C5.90942 6.9521 5.46571 6.58471 5.46571 6.58471L5.29888 6.39844L5.23917 6.41862L5.23927 6.41842Z" fill="#585136"/>
<path fill-rule="evenodd" clip-rule="evenodd" d="M5.65814 7.02762C5.65814 7.02762 5.74841 7.02005 5.80197 6.98635C5.85553 6.95264 5.48828 6.58838 5.48828 6.58838L5.5143 6.98191L5.65814 7.02762Z" fill="#453A25"/>
<path fill-rule="evenodd" clip-rule="evenodd" d="M5.26811 6.39079C5.26811 6.39079 5.22222 6.47807 5.22222 6.50107C5.21455 6.57605 5.23755 6.81176 5.25591 6.88673C5.27426 6.96634 5.37372 7.08723 5.50232 7.08723C5.5818 7.08723 5.69205 7.03829 5.69205 7.02608C5.69205 7.01074 5.57878 6.99581 5.54821 6.9388C5.52986 6.90853 5.52219 6.83325 5.51796 6.75717C5.51493 6.70823 5.51493 6.65465 5.53329 6.63608C5.57464 6.59017 5.58221 6.45849 5.58221 6.45849L5.72907 6.18555H5.53591L5.30483 6.32944L5.26811 6.39079Z" fill="#84754B"/>
<path fill-rule="evenodd" clip-rule="evenodd" d="M5.21191 6.4747C5.21191 6.4747 5.36321 6.27421 5.49958 6.22819C5.63595 6.18218 5.69698 6.20983 5.69698 6.20983L5.61739 6.41345L5.50412 6.53898L5.51179 6.60326C5.51179 6.60326 5.49333 6.77318 5.6066 6.89103C5.71987 7.00889 5.80399 7.00435 5.85301 7.00435C5.90203 7.00435 6.04274 6.96298 6.11466 6.79306C6.17891 6.63393 6.23247 6.4298 6.10397 6.22517C5.97839 6.02154 5.75659 6.01367 5.71372 6.01367C5.67085 6.01367 5.33426 6.03052 5.21191 6.4744V6.4747Z" fill="#252211"/>
<path fill-rule="evenodd" clip-rule="evenodd" d="M9.09635 7.15633C9.03976 7.13029 9.09332 6.97117 9.14991 6.92213C9.20649 6.87309 9.27841 6.81658 9.40398 6.80881C9.44978 6.80578 9.49416 6.83484 9.48659 6.86552C9.4759 6.92213 9.39632 7.00174 9.3244 7.05835C9.22495 7.13645 9.1606 7.18539 9.09635 7.15633Z" fill="#F7F7E7"/>
<path fill-rule="evenodd" clip-rule="evenodd" d="M6.03642 6.28828C6.07777 6.28525 6.13133 6.31855 6.14202 6.36335C6.15271 6.41229 6.116 6.51027 6.03642 6.51027C5.97217 6.51027 5.93848 6.43065 5.93848 6.40775C5.9392 6.38891 5.94446 6.37053 5.95381 6.35417C5.95683 6.34953 5.9645 6.29595 6.03642 6.28828Z" fill="#F8F6DE"/>
<path fill-rule="evenodd" clip-rule="evenodd" d="M5.43964 6.32324C5.43964 6.32324 5.33403 6.37218 5.28511 6.4746C5.25016 6.55023 5.23958 6.63486 5.25485 6.71677C5.26252 6.75501 5.30075 6.84986 5.32677 6.88356C5.35279 6.91727 5.38799 6.94027 5.41402 6.93714C5.44004 6.93402 5.4935 6.8652 5.4935 6.82393C5.4935 6.78266 5.49663 6.60809 5.54706 6.51314C5.59144 6.41829 5.43994 6.32334 5.43994 6.32334L5.43964 6.32324Z" fill="#D4C38B"/>
<path fill-rule="evenodd" clip-rule="evenodd" d="M5.45464 6.31578C5.43629 6.32648 5.40572 6.34182 5.41329 6.36169C5.42096 6.38006 5.48521 6.39197 5.5082 6.43677C5.53423 6.48268 5.53423 6.53162 5.52656 6.55462C5.54655 6.54512 5.56468 6.53214 5.58012 6.51628C5.61381 6.47804 5.65506 6.42607 5.69027 6.42607C5.71326 6.42607 5.73616 6.43677 5.75764 6.43677C5.79133 6.43677 5.82492 6.42607 5.82956 6.39086C5.83713 6.34494 5.76531 6.30357 5.72395 6.31124C5.73162 6.28097 5.74231 6.23627 5.70862 6.2056C5.67493 6.17492 5.56943 6.2286 5.54643 6.24394C5.52343 6.25928 5.45464 6.31588 5.45464 6.31588V6.31578Z" fill="#E2D59D"/>
<path fill-rule="evenodd" clip-rule="evenodd" d="M7.88643 9.53174L8.11287 9.46484L8.17712 9.51076C8.17712 9.51076 8.22291 9.60873 8.29493 9.62094C8.27193 9.66988 8.21222 9.71176 8.21535 9.74647C8.21847 9.78118 8.24904 9.80772 8.24904 9.80772C8.24904 9.80772 8.04549 10.1444 8.44643 10.4838C8.35152 10.522 8.23068 10.5746 8.16643 10.6049C8.21222 10.6156 8.31016 10.6351 8.35152 10.6723C8.39287 10.7094 8.39287 10.7212 8.4311 10.7442C8.46933 10.7672 8.49222 10.7978 8.48466 10.8115C8.45863 10.7962 8.37139 10.7504 8.35616 10.7931C8.34093 10.8359 7.97821 10.8192 7.97821 10.8192L7.36616 10.937C7.36616 10.937 7.38906 10.8758 7.32481 10.8192C7.24987 10.7519 7.15808 10.8222 7.06014 10.7472C6.93164 10.6493 6.927 10.5359 6.88574 10.4932C6.927 10.4671 7.01122 10.4289 7.21164 10.4023C7.20397 10.387 7.17795 10.3411 7.19328 10.2998C7.21164 10.2462 7.28809 10.2125 7.2652 10.1485C7.29889 10.1408 7.31412 10.1408 7.39834 10.0352C7.47792 9.92951 7.52684 9.9066 7.58807 9.89893C7.64929 9.89127 7.68601 9.89893 7.79928 9.79329C7.87876 9.71832 7.85284 9.65404 7.85284 9.65404C7.85284 9.65404 7.90478 9.63719 7.88653 9.53154L7.88643 9.53174Z" fill="#CBAC5A"/>
<path fill-rule="evenodd" clip-rule="evenodd" d="M7.21786 9.56588C7.22089 9.55054 7.23319 9.54287 7.3158 9.55054C7.39841 9.55821 7.9217 9.5016 8.06402 9.49393C8.20785 9.48324 8.7143 9.49081 8.96071 9.54287C9.20713 9.59494 9.45647 9.65619 9.5773 9.68676C9.69834 9.72046 9.73647 9.73257 9.73183 9.74791C9.7288 9.76325 9.70157 9.77818 9.68593 9.77394C9.6707 9.77092 9.26976 9.64842 9.1459 9.62259C9.02204 9.59676 8.59346 9.52764 8.35915 9.53177C8.14038 9.5349 8.05313 9.52875 7.86804 9.55014C7.68285 9.57314 7.37683 9.60372 7.28504 9.59151C7.19426 9.58081 7.21302 9.58081 7.21766 9.56548L7.21786 9.56588Z" fill="#D6BC6F"/>
<path fill-rule="evenodd" clip-rule="evenodd" d="M8.44971 10.7657C8.44971 10.7657 8.76341 10.9356 8.87668 11.1438C8.95929 11.2984 8.82776 11.3749 8.82776 11.3749C8.82776 11.3749 9.00528 11.3749 8.98228 11.4729C8.97159 11.5341 8.67626 11.6993 8.47886 11.7866C8.27845 11.8739 8.28611 11.8694 8.18817 11.8846C8.09326 11.8999 7.83312 11.8543 7.77957 11.9305C7.72601 12.0067 7.74931 12.0852 7.76423 12.0974C7.77957 12.1081 7.90353 12.1234 7.90353 12.1234C7.90353 12.1234 7.87751 12.1954 7.6205 12.2031C7.3635 12.2107 7.29914 12.229 7.28381 12.2566C7.26848 12.2826 7.33273 12.2673 7.45064 12.2869C7.56845 12.3053 7.73367 12.3172 7.73367 12.3172C7.73367 12.3172 7.68011 12.3631 7.54092 12.3998C7.38175 12.4411 7.13231 12.4794 7.05737 12.5253C7.0956 12.5514 7.15228 12.5896 7.17841 12.5927C7.11416 12.608 7.02378 12.6417 7.00855 12.6539C7.03145 12.6692 7.06211 12.6876 7.06211 12.6876C7.06211 12.6876 6.93351 12.8422 6.85856 12.8805C6.78362 12.9189 6.35212 13.1193 6.20365 13.081C5.83337 12.983 5.78748 12.5774 5.6972 12.5468C5.56103 12.5009 5.49678 12.5927 5.37585 12.5284C5.4294 12.4901 5.45855 12.4672 5.51514 12.4412C5.45391 12.4109 5.1372 12.21 5.1372 12.21C5.10408 12.1378 5.06732 12.0673 5.02705 11.9988C4.96583 11.8932 4.87576 11.7523 4.80818 11.6283C4.66132 11.3559 4.65365 11.2303 4.52051 11.0758C4.54351 11.0455 4.62299 11.0497 4.62299 11.0497L5.73856 11.4171L7.71663 11.4744L8.23104 10.7397L8.44982 10.7658L8.44971 10.7657Z" fill="#DFC677"/>
<path fill-rule="evenodd" clip-rule="evenodd" d="M5.51855 11.8859C5.53049 11.8991 5.54441 11.9105 5.55981 11.9196C5.59814 11.9456 5.65472 11.9763 5.69295 12.0221C5.70828 11.9992 5.74651 11.9578 5.81399 12.0221C5.88147 12.0864 5.96529 12.0405 6.01743 12.0558C6.07099 12.0742 6.07402 12.0818 6.07402 12.0818C6.07402 12.0818 6.10428 12.0558 6.17196 12.0282C6.21331 12.0129 6.26223 12.0022 6.31579 11.987C6.36471 11.9763 6.41827 11.9609 6.45509 11.9609C6.48878 11.9838 6.60961 12.1123 7.09468 11.9227C7.5522 11.7451 7.65771 11.7252 7.73426 11.7527C7.74193 11.7343 7.74959 11.6991 7.8674 11.7037C7.8674 11.6548 7.76946 11.4879 7.76946 11.4879L7.22933 11.3027H6.9339L6.048 11.465L5.55709 11.7452L5.51886 11.8865L5.51855 11.8859Z" fill="#C4A859"/>
<path fill-rule="evenodd" clip-rule="evenodd" d="M5.22363 11.5751C5.22363 11.5751 5.23432 11.6577 5.35677 11.745C5.47781 11.8322 5.51584 11.8843 5.51584 11.8843C5.51584 11.8843 5.53884 11.854 5.55719 11.8231C5.57555 11.7894 5.59088 11.7512 5.62145 11.7405C5.68267 11.7145 5.82186 11.7634 5.85253 11.7557C5.87855 11.7482 5.87088 11.6946 5.89842 11.6946C5.96267 11.6914 6.00393 11.7358 6.02692 11.7358C6.04992 11.7358 6.10641 11.7328 6.11407 11.7206C6.12174 11.7084 6.12476 11.5813 6.21201 11.52C6.30693 11.4527 6.42322 11.4818 6.45409 11.4971C6.45409 11.52 6.45711 11.5767 6.51834 11.5797C6.57956 11.5828 6.58562 11.5721 6.63938 11.5904C6.69314 11.6088 6.75719 11.5874 6.78624 11.6776C6.81226 11.6701 6.87349 11.6624 6.85815 11.5751C6.88841 11.5522 6.91484 11.5369 6.97919 11.4466C6.99452 11.4236 7.02045 11.3976 7.04042 11.3639C7.09398 11.3639 7.15823 11.3532 7.24386 11.4282C7.21784 11.4466 7.20251 11.4585 7.19494 11.4771C7.21734 11.4993 7.23779 11.5234 7.25607 11.5491C7.27907 11.5793 7.2944 11.6165 7.32345 11.6241C7.3877 11.6425 7.4933 11.6165 7.61111 11.6241C7.72439 11.6318 7.8192 11.6731 7.86055 11.6991C7.87589 11.6915 7.87589 11.6884 7.91411 11.6961C7.95234 11.7038 7.98139 11.7068 7.94014 11.6578C7.96303 11.6685 7.98906 11.6915 8.01205 11.6685C8.03505 11.6455 8.05331 11.6119 8.11756 11.6043C8.18181 11.5966 8.20481 11.6073 8.23083 11.54C8.26452 11.4573 8.14822 11.4573 8.14822 11.4573C8.14822 11.4573 8.20178 11.4083 8.26149 11.344C8.33341 11.2767 8.41602 11.1894 8.43589 11.0823C8.46958 10.8848 8.27682 10.8589 8.27682 10.8589L7.3419 11.1467L6.1989 11.09L5.22424 11.5752L5.22363 11.5751Z" fill="#927D49"/>
<path fill-rule="evenodd" clip-rule="evenodd" d="M4.38392 8.87331C4.38392 8.87331 4.35366 8.91155 4.335 9.00186C4.31634 9.09217 4.32431 9.08148 4.30898 9.14575C4.29365 9.21003 4.10533 9.84986 4.17594 10.0657C4.24654 10.2815 4.36879 10.3611 4.44525 10.5356C4.46058 10.5738 4.47551 10.5969 4.48347 10.6306C4.5095 10.7438 4.4866 10.8311 4.51716 10.9444C4.52786 10.9826 4.55549 11.027 4.59675 11.0729C4.68753 11.1678 4.83549 11.2581 4.89934 11.3224C4.98952 11.4173 5.11812 11.6102 5.28182 11.6285C5.36907 11.6392 5.49304 11.6025 5.59551 11.5413C5.68629 11.4846 5.74237 11.4051 5.83759 11.3597C5.90487 11.326 5.97678 11.3138 6.04104 11.2984C6.17418 11.2724 6.29512 11.2682 6.36703 11.2831C6.47718 11.3061 6.73731 11.3857 6.88145 11.3857C6.99407 11.3839 7.10607 11.3685 7.21501 11.3398C7.43378 11.2755 7.69845 11.1652 7.87295 11.1163C7.97543 11.086 8.05804 11.0781 8.14226 11.0597C8.2861 11.026 8.40693 10.9801 8.47582 10.8928C8.42993 10.8392 8.37334 10.7566 8.06722 10.7596C7.71994 10.7673 7.319 10.9601 7.12161 10.9908C6.92421 11.0215 6.83858 11.0474 6.61819 10.9678C6.40213 10.8874 6.39497 10.8342 6.39497 10.8342C6.39497 10.8342 6.16813 10.6755 6.07321 10.2708C5.9783 9.86621 6.07321 9.57137 6.31963 9.29116C6.38388 9.21921 6.36855 9.15494 6.36855 9.15494C6.36855 9.15494 6.53074 8.93607 6.48636 8.73114C6.43744 8.52751 6.12375 8.56888 6.12375 8.56888L4.38402 8.87331H4.38392Z" fill="#6E6342"/>
<path fill-rule="evenodd" clip-rule="evenodd" d="M4.64552 9.55469C4.63203 9.58006 4.62569 9.60863 4.62716 9.63733C4.63019 9.6786 4.64249 9.73218 4.76636 9.85316C4.87196 9.95871 4.84897 10.0766 4.84897 10.0766C4.84897 10.0766 4.90212 10.0873 5.04636 10.0198C5.15963 9.96618 5.19766 10.0611 5.19766 10.0611C5.23063 10.0438 5.26637 10.0324 5.30326 10.0274C5.33669 10.0243 5.36904 10.014 5.39808 9.99715C5.39808 9.99715 5.53122 10.1334 5.64752 10.1976C5.75312 10.2544 5.81435 10.2926 5.86639 10.2544C5.91531 10.2207 5.91531 10.1517 5.91219 10.1212C5.90005 10.0929 5.88468 10.0662 5.86639 10.0416C5.8327 9.99261 5.77915 9.9359 5.77561 9.89019C5.76795 9.78465 5.8552 9.65902 5.83674 9.62845C5.81828 9.59787 5.74959 9.59021 5.57973 9.65145C5.40383 9.70958 4.64481 9.55499 4.64481 9.55499L4.64552 9.55469Z" fill="#39331F"/>
<path fill-rule="evenodd" clip-rule="evenodd" d="M5.04648 10.2392C5.04648 10.2392 4.95934 10.1565 4.9899 9.75542C5.0269 9.75489 5.06384 9.75847 5.10004 9.76612C5.10004 9.76612 5.14755 10.0769 5.04648 10.2392Z" fill="#292311"/>
<path fill-rule="evenodd" clip-rule="evenodd" d="M4.425 8.56732C4.43716 8.55832 4.44844 8.54818 4.45869 8.53705C4.42843 8.59366 4.28873 8.82019 4.402 9.17688C4.51528 9.53197 4.79982 9.79674 5.15022 9.80905C5.50063 9.82136 5.68481 9.64982 5.89541 9.39272C5.97802 9.2902 6.07294 9.16155 6.15706 9.07437C6.28254 8.93804 6.38048 8.8998 6.38048 8.76822C6.38048 8.49881 6.10501 8.37782 5.69953 8.25694C5.29406 8.13606 4.92832 8.15099 4.73859 8.23373C4.5535 8.32394 4.47392 8.41889 4.4249 8.56742L4.425 8.56732Z" fill="#252211"/>
<path fill-rule="evenodd" clip-rule="evenodd" d="M5.72687 10.36L5.75717 10.3447C5.75717 10.3447 5.76475 10.2234 5.81385 10.2266C5.86285 10.2343 5.88588 10.2988 5.88124 10.3217C5.87821 10.3447 5.86598 10.3831 5.81688 10.3784C5.75253 10.3799 5.72656 10.36 5.72656 10.36H5.72687Z" fill="#3F3824"/>
<path fill-rule="evenodd" clip-rule="evenodd" d="M5.59082 9.84569C5.59082 9.84569 5.62108 9.83499 5.6581 9.87172C5.68836 9.87172 5.82029 9.85638 5.86164 9.88242C5.903 9.90845 5.9152 9.93135 5.9152 9.93135C5.9152 9.93135 5.76068 9.96506 5.67645 9.93135C5.59082 9.90229 5.59082 9.84569 5.59082 9.84569Z" fill="#2D2815"/>
<path fill-rule="evenodd" clip-rule="evenodd" d="M6.27223 9.86868C6.27223 9.86102 6.18962 9.80441 6.10237 9.78594C6.08704 9.78292 6.08391 9.79361 6.07211 9.79361C6.06445 9.79058 6.06142 9.76758 6.06142 9.76758L6.0118 9.79371C6.0118 9.79371 6.00413 9.80441 6.03015 9.82398C6.05305 9.84235 6.09138 9.85769 6.10207 9.88826C6.11276 9.91883 6.11276 9.92953 6.1174 9.93417C6.12043 9.9372 6.17399 9.93417 6.20001 9.91883C6.22603 9.9035 6.27505 9.87847 6.27193 9.86838L6.27223 9.86868Z" fill="#82764F"/>
<path fill-rule="evenodd" clip-rule="evenodd" d="M5.49902 10.1794C5.49902 10.1794 5.51425 10.0739 5.61683 10.0693C5.72234 10.0616 5.74231 10.1641 5.74231 10.1641L5.68109 10.2254C5.68109 10.2238 5.63519 10.1596 5.49953 10.1794H5.49902Z" fill="#2D2816"/>
<path fill-rule="evenodd" clip-rule="evenodd" d="M6.16552 9.72471C6.16552 9.72471 6.10884 9.78596 5.98346 9.80432C5.97277 9.78899 5.94977 9.75841 5.98346 9.70947C6.01715 9.66053 6.05538 9.6452 6.09361 9.66043C6.11048 9.66317 6.12621 9.67067 6.13895 9.68206C6.15169 9.69345 6.16091 9.70825 6.16552 9.72471Z" fill="#574F35"/>
<path fill-rule="evenodd" clip-rule="evenodd" d="M6.39604 9.79962C6.39917 9.78428 6.38847 9.78125 6.39604 9.77358C6.4036 9.76591 6.44506 9.75068 6.45273 9.75824C6.45575 9.76137 6.45273 9.77358 6.45273 9.78852C6.45273 9.80345 6.45273 9.81879 6.44506 9.82979C6.43437 9.84512 6.40381 9.85279 6.38847 9.84825C6.37314 9.84371 6.37012 9.82222 6.37012 9.81798C6.37768 9.81495 6.39604 9.80728 6.39604 9.79962ZM6.65728 9.63433C6.65728 9.62667 6.6833 9.61133 6.69863 9.61133C6.72153 9.61133 6.72153 9.62969 6.72466 9.63433C6.73222 9.63736 6.73222 9.63121 6.73989 9.64503C6.74755 9.65885 6.75835 9.68327 6.75058 9.69861C6.74281 9.71395 6.71235 9.72454 6.70479 9.72152C6.6941 9.71385 6.66041 9.64503 6.65728 9.63433Z" fill="#82764F"/>
<path fill-rule="evenodd" clip-rule="evenodd" d="M6.13086 9.83506C6.13086 9.83506 6.16449 9.84262 6.21031 9.8809C6.19501 9.89158 6.17205 9.90377 6.17205 9.90377C6.17205 9.90377 6.16903 9.86861 6.13086 9.83496V9.83506Z" fill="#6E6342"/>
<path fill-rule="evenodd" clip-rule="evenodd" d="M6.0559 9.49806C6.04823 9.49049 6.07879 9.47213 6.09715 9.47515C6.11551 9.47818 6.12317 9.49049 6.14304 9.49352C6.16292 9.49654 6.16604 9.48585 6.1733 9.47818C6.18057 9.47051 6.20699 9.47515 6.21153 9.47818C6.21436 9.48154 6.21692 9.48512 6.2192 9.48887C6.21952 9.48305 6.22104 9.47736 6.22366 9.47215C6.22628 9.46694 6.22994 9.46233 6.23443 9.4586C6.2403 9.45429 6.24707 9.45136 6.25423 9.45003C6.26139 9.4487 6.26876 9.44901 6.27578 9.45093C6.27881 9.46163 6.29414 9.49987 6.29111 9.50754C6.28809 9.51521 6.2422 9.52601 6.23443 9.51824C6.24209 9.5367 6.27578 9.57495 6.28032 9.58251C6.28486 9.59008 6.24663 9.60855 6.2314 9.60552C6.21002 9.60401 6.07839 9.52742 6.05549 9.49836L6.0559 9.49806ZM6.25632 9.24398C6.25348 9.23627 6.24807 9.22978 6.24099 9.22562C6.23029 9.22259 6.19509 9.22562 6.19509 9.24398C6.19509 9.26234 6.22535 9.36507 6.25934 9.41854C6.29767 9.47212 6.32359 9.51642 6.34962 9.52873C6.35779 9.53245 6.36706 9.53294 6.37558 9.5301C6.3841 9.52725 6.39122 9.52128 6.39551 9.51339C6.39854 9.50573 6.4062 9.44912 6.40318 9.31593C6.40015 9.18273 6.39551 9.05418 6.38785 9.04651C6.38018 9.03884 6.34962 9.03894 6.33893 9.05418C6.32823 9.06942 6.25934 9.22108 6.25622 9.24398H6.25632Z" fill="#585136"/>
<path fill-rule="evenodd" clip-rule="evenodd" d="M6.12053 10.0276C6.12053 10.0276 6.06689 9.9938 6.01475 10.0168C5.96576 10.0399 5.96879 10.1303 5.96879 10.1303C5.97981 10.1347 5.99172 10.1362 6.00348 10.1349C6.01524 10.1335 6.0265 10.1293 6.03627 10.1227C6.07002 10.0997 6.11285 10.0614 6.12053 10.0277V10.0276Z" fill="#574F35"/>
<path fill-rule="evenodd" clip-rule="evenodd" d="M6.22167 10.1488C6.21864 10.1185 6.19141 10.1185 6.19141 10.1029C6.19328 10.0954 6.19761 10.0888 6.2037 10.0841C6.20979 10.0793 6.21729 10.0768 6.22499 10.0769C6.24033 10.0769 6.25525 10.0952 6.27401 10.1071C6.29237 10.1178 6.31991 10.1374 6.32293 10.1607C6.32596 10.184 6.29267 10.2479 6.25566 10.2479C6.21864 10.2479 6.22963 10.179 6.22197 10.1484L6.22167 10.1488ZM6.517 10.1074C6.517 10.1074 6.45577 10.1258 6.46031 10.1074C6.46485 10.0891 6.47877 10.0845 6.49864 10.0845C6.50874 10.074 6.52232 10.0674 6.53687 10.0661C6.54519 10.0657 6.55337 10.0684 6.55977 10.0737C6.55977 10.0737 6.60112 10.0554 6.61333 10.0661C6.62553 10.0768 6.61645 10.0768 6.62402 10.0891C6.63365 10.1027 6.63997 10.1185 6.64248 10.135C6.64248 10.1472 6.59658 10.1732 6.55977 10.1687C6.517 10.1595 6.52456 10.1151 6.517 10.1074ZM6.87346 10.0385C6.87346 10.0385 6.89181 10.0492 6.87658 10.0615C6.86589 10.0722 6.81233 10.0918 6.76634 10.0952C6.72044 10.0952 6.67919 10.1028 6.67919 10.0876C6.67919 10.0723 6.71742 10.0416 6.74031 10.034C6.74491 10.0282 6.75074 10.0236 6.75738 10.0204C6.76401 10.0172 6.77128 10.0156 6.77864 10.0156C6.797 10.0156 6.86882 10.0079 6.88879 10.0049C6.90715 10.0018 6.92248 10.0125 6.91168 10.0278C6.90715 10.0385 6.87346 10.0385 6.87346 10.0385ZM6.97906 9.56588C6.97906 9.56588 6.95607 9.61482 6.93014 9.61482C6.90412 9.61179 6.90412 9.60413 6.90412 9.59646C6.90412 9.58576 6.93014 9.55821 6.92702 9.55054C6.91945 9.55054 6.90099 9.55054 6.90412 9.53218C6.90412 9.51684 6.93014 9.49848 6.95304 9.50191C6.97034 9.48769 6.99188 9.47963 7.01427 9.479C7.04029 9.479 7.06318 9.48657 7.06318 9.50191C7.06318 9.51725 7.03293 9.55085 7.02183 9.55862C7.00963 9.57083 6.99429 9.5788 6.97906 9.56619V9.56588ZM6.63017 10.4705C6.63017 10.4705 6.59991 10.4736 6.59991 10.4889C6.59991 10.4965 6.60748 10.4965 6.61827 10.492C6.62449 10.4916 6.63064 10.4906 6.63663 10.4889C6.63965 10.492 6.63965 10.5072 6.66265 10.5072C6.68153 10.5047 6.69973 10.4984 6.71621 10.4889C6.73457 10.4813 6.7499 10.4735 6.7499 10.4586C6.74223 10.4325 6.7269 10.4202 6.704 10.4202C6.69227 10.4195 6.68057 10.4222 6.67031 10.4279C6.67031 10.4279 6.66265 10.4126 6.63663 10.4279C6.6106 10.4432 6.61363 10.4432 6.62129 10.4509C6.63501 10.4631 6.63047 10.4711 6.63047 10.4711L6.63017 10.4705ZM6.45729 10.6297C6.45729 10.622 6.49552 10.6067 6.50621 10.6114C6.5169 10.6144 6.54746 10.6725 6.54746 10.6787C6.54746 10.6863 6.50923 10.7047 6.4939 10.7047C6.47857 10.7047 6.45265 10.6787 6.45265 10.6744C6.45265 10.6714 6.47101 10.6668 6.47101 10.6637C6.47554 10.6562 6.45729 10.6377 6.45729 10.63V10.6297ZM6.33625 10.4062C6.34391 10.4032 6.34391 10.3955 6.35461 10.3878C6.35795 10.3856 6.36177 10.3842 6.36575 10.3837C6.36974 10.3831 6.37379 10.3835 6.3776 10.3848C6.3803 10.38 6.38404 10.3759 6.38854 10.3727C6.39304 10.3695 6.39819 10.3673 6.40363 10.3664C6.42198 10.3633 6.43732 10.3664 6.43389 10.374C6.43389 10.397 6.44922 10.4123 6.44922 10.4306C6.44922 10.449 6.43853 10.472 6.4003 10.4873C6.36207 10.498 6.31002 10.498 6.30236 10.495C6.29469 10.492 6.28703 10.4613 6.29469 10.446C6.30236 10.4306 6.32374 10.4139 6.33605 10.4062H6.33625Z" fill="#82764F"/>
<path fill-rule="evenodd" clip-rule="evenodd" d="M6.38452 10.4165C6.38452 10.4165 6.35854 10.4318 6.35854 10.4395C6.35624 10.4469 6.35522 10.4546 6.35552 10.4623C6.35552 10.4669 6.38916 10.4593 6.39369 10.4547C6.3952 10.4517 6.38452 10.4245 6.38452 10.4165Z" fill="#6E6342"/>
<path fill-rule="evenodd" clip-rule="evenodd" d="M6.15749 10.3444C6.17275 10.3476 6.19881 10.3444 6.21871 10.3521C6.23407 10.3598 6.24478 10.3752 6.22942 10.3936C6.21407 10.412 6.19912 10.4395 6.16507 10.4349C6.12678 10.4319 6.09 10.412 6.09 10.3966C6.08936 10.3869 6.09065 10.3771 6.09381 10.3679C6.09697 10.3587 6.10192 10.3502 6.10839 10.3429C6.12375 10.3307 6.13132 10.3384 6.15739 10.3444H6.15749Z" fill="#585136"/>
<path fill-rule="evenodd" clip-rule="evenodd" d="M6.13842 10.3599C6.13842 10.3599 6.0895 10.3981 6.0772 10.4166C6.06187 10.4349 5.98692 10.5298 5.96403 10.5497C5.97163 10.5362 5.9803 10.5235 5.98995 10.5114C5.95969 10.5308 5.937 10.56 5.9257 10.5941C5.90734 10.6508 6.02828 10.6813 6.10776 10.7044C6.18724 10.7274 6.21801 10.7346 6.21801 10.7346C6.18874 10.6906 6.16362 10.644 6.14296 10.5954C6.1127 10.5234 6.09707 10.5158 6.11694 10.4821C6.13227 10.4484 6.15527 10.4255 6.15527 10.3994C6.14609 10.3752 6.13842 10.3599 6.13842 10.3599Z" fill="#574F35"/>
<path fill-rule="evenodd" clip-rule="evenodd" d="M4.39473 10.4808C4.40587 10.4828 4.41729 10.4828 4.42842 10.4808C4.45132 10.4776 4.69007 10.39 4.93951 10.4057C5.12624 10.417 5.31132 10.4474 5.49184 10.4965C5.80554 10.5792 6.19568 10.7429 6.44815 10.8364C6.51543 10.8623 6.58129 10.9083 6.62971 10.9266C6.82256 11.0016 6.83013 11.0016 6.9434 11.0215C7.07654 11.0399 7.21271 10.9955 7.35503 10.9649C7.52942 10.9266 7.82778 10.9082 8.08943 10.87C8.17403 10.8582 8.25748 10.8393 8.33887 10.8134C8.33887 10.8134 8.13078 11.0215 7.6319 11.0965C7.43025 11.1271 7.22534 11.1297 7.02298 11.1042C6.86381 11.0888 6.75831 11.0658 6.67873 11.0429C6.58845 11.0169 6.40326 10.948 6.17531 10.8916C6.01614 10.8502 5.83862 10.8196 5.63517 10.7814C5.13327 10.6894 4.5886 10.5839 4.39453 10.4814L4.39473 10.4808Z" fill="#252211"/>
<path fill-rule="evenodd" clip-rule="evenodd" d="M3.83145 9.53467C3.71041 9.63719 3.58201 9.73516 3.45663 9.83001L3.07869 10.1205C2.95019 10.2154 2.82471 10.3133 2.69611 10.4083C2.56751 10.5032 2.4391 10.5935 2.30273 10.6807C2.42377 10.5782 2.55217 10.4833 2.68068 10.3899C2.80918 10.2966 2.94242 10.2051 3.06639 10.1104L3.44433 9.81952C3.57434 9.72467 3.69982 9.62669 3.83145 9.53487V9.53467ZM3.16281 10.6062C3.16281 10.6062 3.29898 10.4929 3.46884 10.3337C3.67995 10.1364 3.93857 9.8837 4.02118 9.83789L3.16271 10.6063L3.16281 10.6062Z" fill="#CFB66C"/>
<path fill-rule="evenodd" clip-rule="evenodd" d="M3.16309 10.6065C3.23046 10.5392 3.30238 10.4734 3.3743 10.409L3.48444 10.3142C3.51813 10.2839 3.55646 10.2499 3.59005 10.2162C3.65733 10.1489 3.72319 10.0768 3.79047 10.008C3.82381 9.97341 3.85907 9.94069 3.89607 9.91003C3.91457 9.89366 3.93512 9.87975 3.9572 9.86866C3.97566 9.85797 3.99553 9.83839 4.02145 9.83496C4.00622 9.85797 3.98786 9.86866 3.97253 9.88854C3.95417 9.90388 3.93884 9.92224 3.92361 9.93748C3.88992 9.97118 3.85169 10.0018 3.818 10.0324C3.74609 10.0937 3.67114 10.1535 3.59923 10.2176C3.52731 10.2817 3.46003 10.3508 3.38802 10.4151C3.31005 10.481 3.23813 10.5452 3.16309 10.6068V10.6065ZM4.07814 9.99419C4.07814 9.99419 3.57936 10.4826 3.47678 10.5621L4.07814 9.99419Z" fill="#CFB66C"/>
<path fill-rule="evenodd" clip-rule="evenodd" d="M4.07792 9.99414C4.03305 10.0461 3.98494 10.0952 3.93389 10.1411L3.78259 10.2849C3.73367 10.3339 3.68767 10.3829 3.63573 10.4319C3.58217 10.4778 3.53325 10.5227 3.47656 10.5651L3.62342 10.4212C3.67244 10.3722 3.726 10.331 3.77805 10.2819L3.92491 10.138C3.97534 10.0876 4.02436 10.0385 4.07792 9.99414ZM4.10082 10.2589C4.05484 10.3873 4.00067 10.5126 3.93863 10.634C3.81012 10.8912 3.61737 11.2126 3.53315 11.3764L4.10082 10.2589Z" fill="#CFB66C"/>
<path fill-rule="evenodd" clip-rule="evenodd" d="M4.10034 10.2588C4.10034 10.3154 4.085 10.3644 4.06665 10.4134C4.04875 10.4624 4.02835 10.5104 4.00552 10.5573C3.98253 10.6032 3.9565 10.6522 3.93048 10.6966C3.90446 10.741 3.87389 10.7868 3.8509 10.8328L3.69637 11.1053C3.64281 11.1961 3.59077 11.2874 3.53418 11.3747C3.57241 11.2767 3.62445 11.1849 3.67347 11.0946C3.72703 11.0038 3.77595 10.913 3.82477 10.819C3.84861 10.7722 3.87005 10.7242 3.88902 10.6752C3.91192 10.6262 3.93482 10.5803 3.95327 10.5359C3.97617 10.4869 3.99453 10.4409 4.01753 10.3966C4.04345 10.3491 4.06493 10.3032 4.10013 10.2588H4.10034Z" fill="#CFB66C"/>
<path fill-rule="evenodd" clip-rule="evenodd" d="M4.64504 11.5142C4.64504 11.5142 4.49375 11.7147 4.50888 11.9687C4.55013 11.8356 4.60218 11.632 4.64504 11.5142ZM4.78888 11.7152C4.78888 11.7152 4.73532 12.26 4.69094 12.5279C4.75368 12.2183 4.76588 12.2443 4.78888 11.7152ZM5.79108 12.5601C5.79108 12.5601 5.56463 13.2261 5.55999 13.4112C5.60901 13.2209 5.70383 12.8321 5.79108 12.5596V12.5601Z" fill="#DEC270"/>
<path fill-rule="evenodd" clip-rule="evenodd" d="M6.32129 11.4727C6.32129 11.4727 6.68854 12.0788 6.964 12.5961C6.88946 12.3358 6.71799 11.8583 6.32129 11.4727Z" fill="#CBAF59"/>
<path fill-rule="evenodd" clip-rule="evenodd" d="M7.30762 12.3652C7.50926 12.7218 7.69109 13.0892 7.85229 13.4658C7.82173 13.2056 7.73902 12.7602 7.30762 12.3652Z" fill="#E3C677"/>
<path fill-rule="evenodd" clip-rule="evenodd" d="M10.2093 13.259C10.2705 13.2208 10.3914 13.0125 10.497 12.9606C10.6025 12.907 10.6821 12.8963 10.777 12.7907C10.8718 12.6804 10.8981 12.6131 11.1059 12.5259C11.3967 12.4003 11.1967 12.238 11.1967 12.238C11.2288 12.2065 11.263 12.1774 11.2992 12.1508C11.3742 12.0942 11.4614 12.0253 11.4538 11.9043C11.4431 11.7008 11.4049 11.4053 11.2381 11.2339C11.4003 11.2002 11.7108 11.1773 11.9038 11.1284C12.1271 11.0716 12.2297 10.992 12.2297 10.992C12.2297 10.992 12.1012 10.7732 12.3093 10.5528C12.5173 10.3324 12.6872 10.2007 12.8127 9.95423C12.6688 9.93587 12.4496 9.85938 11.89 10.0721C11.9202 10.0863 11.9493 10.1027 11.9772 10.121C11.9772 10.121 11.633 10.216 11.5075 10.3216C11.2886 10.5068 11.2611 10.6583 11.0239 10.7717C10.7868 10.885 10.5481 10.8543 10.3508 10.9461C10.1535 11.0379 10.1243 11.116 10.0523 11.1497C10.0676 11.1681 10.0493 11.1987 10.0783 11.2247C10.06 11.2508 9.95285 11.4252 9.84422 11.4252C9.85491 11.4666 9.9467 11.4972 9.9467 11.4972C9.9467 11.4972 9.87942 11.5462 9.70805 11.5584C9.7952 11.6492 9.87791 11.7482 10.1059 11.8921C10.0875 11.9303 10.0109 11.987 10.0416 12.059C10.0753 12.1309 10.1626 12.2289 10.5113 12.3085C10.3338 12.3161 10.1258 12.3575 9.84563 12.3192C9.56563 12.2855 9.51973 12.2656 9.34685 12.3085C9.36521 12.3269 9.41413 12.3269 9.457 12.3758C9.4111 12.3789 9.12343 12.3421 9.02549 12.4708C8.92301 12.6039 8.87863 12.8228 8.8863 12.9698C8.83274 12.9958 8.78069 13.0417 8.80672 13.1367C8.83274 13.2316 8.96891 13.2622 9.05616 13.3218C9.1433 13.3861 9.15097 13.409 9.23368 13.3938C9.32083 13.3754 9.44933 13.2882 9.52437 13.2882C9.59942 13.2882 9.65288 13.3448 9.65288 13.3448C9.65288 13.3448 9.85642 13.2468 9.87629 13.2652C9.89465 13.2836 9.87932 13.4014 9.89919 13.4198C9.91936 13.4336 10.1486 13.2974 10.2099 13.259H10.2093Z" fill="#ECD592"/>
<path fill-rule="evenodd" clip-rule="evenodd" d="M14.657 7.13332C13.7007 4.66278 11.3367 4.20508 11.3367 4.20508H4.5919L4.61792 6.72153H5.96114V12.3408H4.5918V14.8527H11.15C12.7305 14.8527 13.9975 13.2638 13.9975 13.2638C16.0264 10.383 14.6569 7.13332 14.6569 7.13332H14.657ZM11.1852 11.5708C11.1852 11.5708 10.6707 12.3132 10.111 12.3132H8.99144L8.96491 6.72768H10.4017C10.4017 6.72768 11.0674 6.86693 11.5325 8.18484C11.5325 8.18484 12.1491 10.0717 11.1852 11.5708Z" fill="white" fill-opacity="0.8"/>
</svg>
