<svg width="20" height="20" viewBox="0 0 20 20" fill="none" xmlns="http://www.w3.org/2000/svg">
<circle cx="10.5126" cy="10.5131" r="9.48718" fill="#232323"/>
<path d="M18.2052 11.6613L18.1942 11.7054C16.9751 16.4936 12.1133 19.4021 7.3123 18.2052C2.49871 17.0049 -0.431636 12.1282 0.769292 7.31418L0.769322 7.31405C1.96921 2.49902 6.84611 -0.431238 11.6602 0.769037L11.6603 0.769044C16.4755 1.96933 19.4058 6.84653 18.2052 11.6613Z" fill="#D36F9F" stroke="#232323"/>
<path d="M9.23176 3.58984L9.15332 3.84889V11.3653L9.23176 11.4414L12.8204 9.37901L9.23176 3.58984Z" fill="#232323"/>
<path d="M9.23127 3.58984L5.64258 9.37901L9.23127 11.4414V7.79312V3.58984Z" fill="#232323"/>
<path d="M9.23073 12.1018L9.18652 12.1542V14.8317L9.23073 14.9571L12.8215 10.0405L9.23073 12.1018Z" fill="#232323"/>
<path d="M9.23127 14.9571V12.1018L5.64258 10.0405L9.23127 14.9571Z" fill="#232323"/>
<path d="M9.23145 11.4412L12.82 9.37886L9.23145 7.79297V11.4412Z" fill="#232323"/>
<path d="M5.64258 9.37886L9.23127 11.4412V7.79297L5.64258 9.37886Z" fill="#232323"/>
</svg>
