<svg width="20" height="20" viewBox="0 0 20 20" fill="none" xmlns="http://www.w3.org/2000/svg">
<circle cx="10.5126" cy="10.5131" r="9.48718" fill="#232323"/>
<path d="M18.2052 11.6613L18.1942 11.7054C16.9751 16.4936 12.1133 19.4021 7.3123 18.2052C2.49871 17.0049 -0.431636 12.1282 0.769292 7.31418L0.769322 7.31405C1.96921 2.49902 6.84611 -0.431238 11.6602 0.769037L11.6603 0.769044C16.4755 1.96933 19.4058 6.84653 18.2052 11.6613Z" fill="#5FC475" stroke="#232323"/>
<path fill-rule="evenodd" clip-rule="evenodd" d="M10.5576 10.1086C10.4977 10.1133 10.1886 10.1326 9.49908 10.1326C8.95065 10.1326 8.56126 10.1154 8.42465 10.1086C6.30522 10.0112 4.72324 9.62563 4.72324 9.16399C4.72324 8.70235 6.30522 8.3173 8.42465 8.21831V9.72462C8.56326 9.73504 8.96012 9.75953 9.50855 9.75953C10.1667 9.75953 10.4962 9.73087 10.5556 9.72514V8.21935C12.6705 8.31783 14.249 8.70339 14.249 9.16399C14.249 9.62458 12.671 10.0101 10.5556 10.1081L10.5576 10.1086ZM10.5576 8.06356V6.71564H13.5091V4.66016H5.4731V6.71564H8.42415V8.06304C6.02552 8.17819 4.22168 8.67474 4.22168 9.26976C4.22168 9.86478 6.02552 10.3608 8.42415 10.4765V14.7959H10.5571V10.4749C12.9502 10.3598 14.7511 9.86374 14.7511 9.26924C14.7511 8.67474 12.9517 8.17871 10.5571 8.06304L10.5576 8.06356Z" fill="#232323"/>
</svg>
