<svg width="20" height="20" viewBox="0 0 20 20" fill="none" xmlns="http://www.w3.org/2000/svg">
<circle cx="10.5126" cy="10.5126" r="9.48718" fill="#232323"/>
<path d="M9.48718 0.5C14.451 0.5 18.4744 4.52333 18.4744 9.48718C18.4744 14.451 14.451 18.4744 9.48718 18.4744C4.52333 18.4744 0.5 14.451 0.5 9.48718C0.5 4.52333 4.52333 0.5 9.48718 0.5Z" fill="#F31C58" stroke="#232323"/>
<path fill-rule="evenodd" clip-rule="evenodd" d="M6.23298 5.64111H12.181C13.0791 5.64128 13.8656 6.24372 14.0997 7.11084C13.7889 7.49459 13.0828 7.67111 12.5839 7.72483C12.416 7.36141 12.0518 7.12909 11.6514 7.13003H6.76639C6.1984 7.13003 5.73796 7.59048 5.73796 8.15846V10.5607C5.74006 11.1278 6.19927 11.587 6.76639 11.5891H12.181C13.5586 11.5891 13.9078 11.1555 14.1649 10.7065V11.0902C14.1607 12.1842 13.2749 13.07 12.181 13.0742H6.23298C5.14052 13.07 4.25535 12.1865 4.24904 11.0941V7.64041C4.247 7.1122 4.45488 6.60481 4.82694 6.22987C5.199 5.85493 5.70477 5.64314 6.23298 5.64111Z" fill="#232323"/>
<path fill-rule="evenodd" clip-rule="evenodd" d="M7.70275 8.37299H12.3537C13.1402 8.38217 13.8447 7.88781 14.1036 7.14502C14.4664 7.57151 14.6518 8.12088 14.6216 8.67999C14.6174 9.30425 14.2947 9.88315 13.7659 10.215C13.4938 10.3984 13.173 10.496 12.8449 10.4951H7.70275C7.5352 10.4962 7.37431 10.4295 7.25656 10.3103C7.1388 10.1911 7.07415 10.0294 7.07726 9.86191V8.99082C7.07827 8.82594 7.14474 8.66822 7.26205 8.55236C7.37935 8.43649 7.53788 8.37197 7.70275 8.37299ZM8.39733 9.00617H8.01359C7.84192 9.00617 7.70275 9.14533 7.70275 9.317V9.57027C7.70275 9.74193 7.84192 9.8811 8.01359 9.8811H8.39733C8.56899 9.8811 8.70816 9.74193 8.70816 9.57027V9.317C8.70816 9.14533 8.56899 9.00617 8.39733 9.00617Z" fill="#232323"/>
</svg>
