<svg width="20" height="20" viewBox="0 0 20 20" fill="none" xmlns="http://www.w3.org/2000/svg">
<ellipse cx="10.75" cy="10.75" rx="9.24998" ry="9.24999" fill="#232323"/>
<path d="M9.75021 17.5527C14.0597 17.5527 17.5532 14.0592 17.5532 9.74973C17.5532 5.44028 14.0597 1.94678 9.75021 1.94678C5.44076 1.94678 1.94727 5.44028 1.94727 9.74973C1.94727 14.0592 5.44076 17.5527 9.75021 17.5527Z" fill="#232323"/>
<path d="M19 9.7508C19.0034 8.53964 18.7683 7.33964 18.3081 6.21931C17.8478 5.09878 17.1712 4.07989 16.3172 3.22081C15.4631 2.36173 14.4481 1.67929 13.3303 1.21246C12.2125 0.74562 11.0137 0.503527 9.80228 0.5H9.80083H9.74998C7.92051 0.5 6.13212 1.0425 4.61097 2.05891C3.08982 3.07531 1.90422 4.51996 1.20412 6.21017C0.504008 7.90039 0.320827 9.76025 0.67774 11.5546C1.03465 13.3489 1.91563 14.9971 3.20926 16.2907C4.50289 17.5844 6.15108 18.4653 7.9454 18.8223C9.73972 19.1792 11.5996 18.996 13.2898 18.2959C14.98 17.5958 16.4247 16.4102 17.4411 14.889C18.4573 13.3681 18.9998 11.58 19 9.7508ZM19 9.7508C19 9.75102 19 9.75123 19 9.75145L18.5 9.74999H19C19 9.75026 19 9.75053 19 9.7508ZM13.8688 13.3643L14.1144 13.3559L13.8688 13.3643ZM13.8688 13.3643L13.8674 13.3648L13.8687 13.3643L13.8688 13.3643ZM13.8688 13.3643L13.8657 13.3643M9.52364 9.63313L9.49715 9.64064L9.41892 9.90445L8.5079 12.9765L8.31747 13.6186H8.98727H13.541L13.2474 14.6313H6.58311L7.645 11.0137L7.85185 10.309L7.88645 10.2985L7.96269 10.0395L9.68414 4.19068H11.1244L9.7364 8.90976L9.52364 9.63313Z" fill="#345D9D" stroke="#232323"/>
</svg>
