<svg width="20" height="20" viewBox="0 0 20 20" fill="none" xmlns="http://www.w3.org/2000/svg">
<circle cx="10.5126" cy="10.5126" r="9.48718" fill="#232323"/>
<path d="M9.48718 0.5C14.451 0.5 18.4744 4.52333 18.4744 9.48718C18.4744 14.451 14.451 18.4744 9.48718 18.4744C4.52333 18.4744 0.5 14.451 0.5 9.48718C0.5 4.52333 4.52333 0.5 9.48718 0.5Z" fill="#F0B90B" stroke="#232323"/>
<path d="M5.21405 9.48708L5.22089 11.9957L7.35246 13.25V14.7187L3.97342 12.7369V8.7535L5.21405 9.48708ZM5.21405 6.97845V8.4403L3.97266 7.70596V6.24411L5.21405 5.50977L6.46152 6.24411L5.21405 6.97845ZM8.24265 6.24411L9.48404 5.50977L10.7315 6.24411L9.48404 6.97845L8.24265 6.24411Z" fill="#232323"/>
<path d="M6.11133 11.4757V10.0071L7.35272 10.7414V12.2032L6.11133 11.4757ZM8.2429 13.7761L9.48429 14.5104L10.7318 13.7761V15.2379L9.48429 15.9723L8.2429 15.2379V13.7761ZM12.5121 6.24411L13.7535 5.50977L15.001 6.24411V7.70596L13.7535 8.4403V6.97845L12.5121 6.24411ZM13.7535 11.9957L13.7604 9.48708L15.0018 8.75274V12.7361L11.6227 14.718V13.2493L13.7535 11.9957Z" fill="#232323"/>
<path d="M12.8635 11.476L11.6221 12.2035V10.7417L12.8635 10.0073V11.476Z" fill="#232323"/>
<path d="M12.8633 7.49848L12.8702 8.96717L10.7325 10.2215V12.7362L9.49114 13.4637L8.24974 12.7362V10.2215L6.11209 8.96717V7.49848L7.3588 6.76414L9.48353 8.02453L11.6212 6.76414L12.8687 7.49848H12.8633ZM6.11133 4.99061L9.48429 3.00195L12.8633 4.99061L11.622 5.72496L9.48429 4.46456L7.35272 5.72496L6.11133 4.99061Z" fill="#232323"/>
</svg>
