<svg width="24" height="37" viewBox="0 0 24 37" fill="none" xmlns="http://www.w3.org/2000/svg">
<path d="M1.82651 35.8151C1.39939 35.8151 0.985374 35.2982 0.461956 34.6438L0.30801 34.4518C0.297397 34.4379 0.289 34.4224 0.283116 34.406C0.273068 34.3866 0.267822 34.3652 0.267822 34.3434C0.267822 34.3216 0.273068 34.3002 0.283116 34.2808C1.78393 31.2019 3.459 28.1086 4.91068 25.4482C4.93393 25.408 4.94606 25.3623 4.94582 25.3158C4.94558 25.2693 4.93297 25.2237 4.9093 25.1837C4.88563 25.1437 4.85175 25.1107 4.81112 25.0882C4.7705 25.0656 4.72459 25.0542 4.67812 25.0552C4.66461 25.0539 4.65101 25.0539 4.63751 25.0552C4.15339 25.1292 3.68238 25.1901 3.23758 25.236C3.12032 25.236 2.92379 24.953 2.82945 24.8167C2.78163 24.7473 2.73774 24.6857 2.69844 24.6359C2.35582 24.2108 2.05514 23.8184 1.78131 23.4358C1.75511 23.3991 1.76166 23.3893 1.76821 23.3788C1.77879 23.3627 1.78737 23.3453 1.79376 23.3271C1.81139 23.3089 1.82698 23.289 1.84027 23.2675C3.21072 20.8325 4.73118 18.4525 6.1678 16.2429C6.19386 16.2029 6.20863 16.1566 6.21056 16.1089C6.21249 16.0611 6.20151 16.0138 6.17877 15.9718C6.15603 15.9298 6.12237 15.8947 6.08136 15.8703C6.04034 15.8458 5.99348 15.8329 5.94572 15.8328C5.93242 15.8319 5.91907 15.8319 5.90576 15.8328L5.06528 15.9599C4.99977 15.9697 4.92182 15.9868 4.83927 16.0051C4.7088 16.0402 4.57516 16.0621 4.44032 16.0706C4.41342 16.0714 4.38653 16.0686 4.3604 16.0621C4.21694 16.0228 4.00665 15.7195 3.88153 15.538C3.82323 15.4548 3.77017 15.3782 3.723 15.3192L3.67059 15.2537C3.41642 14.936 3.15373 14.6078 2.92641 14.2711C2.89562 14.2265 2.90741 14.2115 2.92051 14.1951C4.98274 10.672 6.78555 6.95896 8.53137 3.36775C8.986 2.43316 9.44129 1.50053 9.89723 0.569861C9.92001 0.546508 9.95109 0.533089 9.9837 0.532521C13.7524 0.512213 17.5828 0.387745 21.2827 0.270484H21.3338C21.3469 0.268918 21.3601 0.271331 21.3718 0.277408C21.3835 0.283485 21.3931 0.292943 21.3993 0.304549C21.4118 0.324382 21.426 0.343022 21.4419 0.360232C21.8464 0.936194 22.2824 1.48928 22.7482 2.01696C22.7861 2.05954 22.8137 2.11522 22.7442 2.20038C21.0076 4.26719 19.3698 6.48599 17.7865 8.6301C17.3991 9.15417 17.0115 9.67825 16.6237 10.2023C16.5943 10.2418 16.5764 10.2886 16.5721 10.3377C16.5678 10.3867 16.5773 10.436 16.5994 10.4799C16.6215 10.5239 16.6553 10.5609 16.6972 10.5867C16.7391 10.6125 16.7874 10.6262 16.8366 10.6262H16.8635L19.2002 10.3857C19.22 10.3836 19.2395 10.3794 19.2585 10.3733C19.2682 10.3756 19.278 10.3771 19.288 10.3779C19.3043 10.3969 19.3463 10.4316 19.3535 10.4434C19.8546 11.033 20.3014 11.6022 20.7193 12.1807C20.7298 12.1944 20.7193 12.2554 20.6748 12.3058C18.5661 14.7631 16.3656 17.2151 14.2379 19.5858L14.1894 19.6402C14.1538 19.6778 14.1301 19.7251 14.1213 19.7761C14.1126 19.8271 14.1191 19.8796 14.1402 19.9269C14.1612 19.9742 14.1957 20.0142 14.2395 20.0419C14.2832 20.0695 14.3342 20.0836 14.3859 20.0824C14.3944 20.0824 16.7973 19.8518 16.7973 19.8518C16.8108 19.8507 16.8242 19.8483 16.8373 19.8446C16.8484 19.8481 16.8598 19.8508 16.8713 19.8525L16.9047 19.876L16.9139 19.8846C17.4057 20.4483 17.8681 21.0369 18.2994 21.6481C18.3035 21.6655 18.3038 21.6835 18.3003 21.701C18.2968 21.7186 18.2896 21.7351 18.2791 21.7496C15.7452 24.028 13.1229 26.2972 10.587 28.4911C9.60004 29.3463 8.61151 30.2031 7.62145 31.0617L2.61721 35.4155C2.308 35.6847 2.0499 35.8151 1.82651 35.8151Z" fill="#F7931A"/>
<path d="M22.9497 2.36622C23.0175 2.29477 23.0553 2.20004 23.0553 2.10156C23.0553 2.00308 23.0175 1.90835 22.9497 1.8369C22.4858 1.31102 22.0512 0.759907 21.6481 0.186073C21.6422 0.178212 21.6356 0.172971 21.6304 0.165765C21.6 0.112312 21.5552 0.0684835 21.5011 0.0392901C21.447 0.0100968 21.3858 -0.0032826 21.3244 0.000681989C17.5452 0.123839 13.764 0.246996 9.98219 0.267304C9.91679 0.266978 9.85247 0.283955 9.79575 0.316514C9.73903 0.349074 9.69193 0.396056 9.65923 0.452695C7.42078 5.0023 5.27012 9.65345 2.71526 14.0327C2.67064 14.0875 2.64578 14.1557 2.64471 14.2263C2.64364 14.2969 2.66642 14.3658 2.70937 14.4219C2.9583 14.792 3.24065 15.1425 3.51906 15.4883C3.70314 15.7176 3.98287 16.2345 4.29272 16.3197C4.52397 16.3852 4.88231 16.2594 5.10831 16.2253L5.94879 16.0982C4.44209 18.4114 2.96158 20.7435 1.60882 23.1418C1.58014 23.1697 1.5578 23.2034 1.54331 23.2407C1.50898 23.2943 1.49257 23.3575 1.49646 23.4211C1.50034 23.4847 1.52432 23.5454 1.56493 23.5944C1.86234 24.0078 2.17285 24.41 2.49253 24.8064C2.66548 25.0206 2.93013 25.5387 3.26554 25.504C3.73721 25.4556 4.20887 25.3933 4.67857 25.3213C3.0795 28.243 1.50073 31.1758 0.0424936 34.1643C0.0164598 34.2147 0.00200817 34.2703 0.00019474 34.3269C-0.00161869 34.3836 0.0092519 34.44 0.0320122 34.4919C0.0468249 34.5395 0.0703728 34.5839 0.101452 34.6229C1.0664 35.8217 1.61209 36.6471 2.79126 35.6199C4.45868 34.1648 6.12698 32.712 7.79615 31.2616C11.3559 28.1644 14.9504 25.0998 18.4597 21.9462C18.5189 21.8882 18.5568 21.8119 18.5674 21.7297C18.578 21.6474 18.5606 21.5641 18.518 21.4929C18.0862 20.8795 17.6227 20.2891 17.1292 19.7242C17.1214 19.7137 17.1129 19.7045 17.1043 19.6947L17.0998 19.6888H17.0958C17.0678 19.6583 17.0342 19.6334 16.9969 19.6154C16.9818 19.6064 16.966 19.5985 16.9497 19.5918C16.8942 19.5735 16.8344 19.5722 16.7781 19.5879C15.9828 19.6639 15.1873 19.7403 14.3916 19.8172C16.5731 17.3868 18.7545 14.9571 20.8809 12.4802C20.9831 12.3609 21.0421 12.1683 20.9392 12.0268C20.503 11.4222 20.0431 10.8411 19.5636 10.2732C19.5309 10.212 19.4778 10.1642 19.4135 10.1382L19.3821 10.1231H19.3775C19.314 10.1005 19.2445 10.1005 19.181 10.1231C18.4027 10.2031 17.624 10.2832 16.8449 10.3636C18.8357 7.6718 20.7977 4.93024 22.9497 2.36622ZM14.5436 9.87159C14.5888 9.95479 14.6438 10.0341 14.6923 10.1094C14.7847 10.2522 14.8757 10.3976 14.9733 10.5378C14.6432 10.5693 14.313 10.5998 13.9828 10.6295C14.1695 10.3767 14.3569 10.1251 14.5436 9.87159ZM15.2956 10.5083C15.1685 10.3033 15.012 10.1153 14.8685 9.91876C14.8119 9.8366 14.7486 9.75925 14.6792 9.68751C14.8292 9.48443 14.9779 9.2807 15.1273 9.07762C15.2354 9.27808 15.3775 9.47068 15.481 9.65607C15.5944 9.86111 15.688 10.2175 15.8577 10.433L15.8387 10.4586C15.6572 10.4762 15.4758 10.4907 15.295 10.5083H15.2956ZM19.5786 3.12416C19.669 3.37637 19.8046 3.6253 19.8904 3.84476C19.9894 4.10155 20.0333 4.45858 20.159 4.73175C20.0195 4.91452 19.8813 5.0986 19.7417 5.28137C19.6657 5.12087 19.5681 4.96693 19.5144 4.86146C19.3834 4.59942 19.274 4.08714 19.0559 3.79628C19.2301 3.5742 19.4031 3.3482 19.5786 3.12416ZM18.8397 4.08255C18.9176 4.36031 19.0775 4.65314 19.1672 4.86408C19.257 5.07502 19.3703 5.28399 19.4594 5.50017C19.4751 5.53817 19.4862 5.5742 19.4974 5.60826L19.0388 6.2116C18.9845 6.06158 18.9144 5.91615 18.8561 5.78252C18.7178 5.46676 18.558 5.04423 18.3484 4.72651C18.5102 4.51098 18.6752 4.29677 18.8397 4.08255ZM18.1413 4.99968C18.2069 5.19097 18.3045 5.37767 18.3805 5.55061C18.4925 5.80544 18.6189 6.04979 18.7139 6.31314C18.7405 6.39124 18.7624 6.47086 18.7794 6.55159C18.6215 6.76057 18.4623 6.96758 18.3045 7.17655C18.2305 6.99218 18.1451 6.81256 18.049 6.63872C17.9134 6.36031 17.7752 6.01442 17.6029 5.72159C17.7804 5.47921 17.9612 5.24141 18.1413 5.00099V4.99968ZM17.3788 6.01835C17.4535 6.20374 17.5518 6.38323 17.6297 6.54242C17.7524 6.78826 17.8594 7.04163 17.9501 7.30102C17.9841 7.4019 17.9992 7.47658 18.0267 7.54275L17.483 8.26793C17.3572 7.98231 17.2295 7.69735 17.0899 7.41631C16.994 7.21809 16.8882 7.02482 16.7729 6.83721C16.9742 6.56513 17.1762 6.29218 17.3788 6.01835ZM16.5796 7.09925C16.6949 7.35211 16.8312 7.60105 16.9399 7.83819C17.0277 8.02686 17.0991 8.37864 17.2603 8.56469C17.0856 8.79746 16.9109 9.03046 16.7362 9.26367C16.6451 8.95774 16.4741 8.66492 16.3182 8.39633C16.2246 8.22082 16.1168 8.05322 15.9959 7.89518L16.5796 7.09925ZM15.8079 8.14739C15.8898 8.28562 15.9809 8.41991 16.0516 8.54896C16.2311 8.87651 16.3425 9.23353 16.5069 9.56567L16.068 10.15C15.992 9.95741 15.8603 9.76678 15.7804 9.62135C15.6494 9.38879 15.4974 9.07042 15.2858 8.85882L15.8079 8.14739ZM20.4558 4.34263C20.3759 4.08059 20.2422 3.812 20.163 3.61351C20.0654 3.36851 19.9664 3.0724 19.8007 2.84181C19.9977 2.59157 20.1955 2.3422 20.3942 2.0937C20.4597 2.29678 20.5593 2.49592 20.6399 2.67869C20.7428 2.91144 20.8325 3.14984 20.9085 3.39274C20.9386 3.48904 20.9517 3.57879 20.974 3.66395L20.5534 4.21292L20.4558 4.34263ZM21.0945 1.24535C21.1484 1.51273 21.2229 1.77554 21.3172 2.03146C21.3978 2.27188 21.4725 2.59877 21.6297 2.82674C21.5039 2.98659 21.3775 3.14512 21.2537 3.30693C21.1954 3.12678 21.1076 2.94925 21.0493 2.80775C20.9248 2.50575 20.7873 2.14152 20.5907 1.85066C20.7558 1.64758 20.9242 1.44647 21.0945 1.24535ZM22.2213 2.10221C22.2016 2.11244 22.1845 2.12673 22.1708 2.14414C22.0444 2.29874 21.9225 2.45793 21.7987 2.6145C21.7385 2.3898 21.6218 2.16248 21.5531 1.96596C21.4476 1.6692 21.3631 1.36131 21.2334 1.07372C21.2589 1.04359 21.2838 1.0128 21.3094 0.982008C21.5138 1.2578 21.7221 1.53032 21.9383 1.79891C22.0214 1.90849 22.1151 2.00964 22.218 2.1009L22.2213 2.10221ZM9.71164 2.03146C9.90816 1.63579 10.1047 1.23946 10.3012 0.842474C10.2626 0.92043 14.0457 0.950564 14.4977 0.940083C16.5045 0.89641 18.5106 0.840072 20.5161 0.771069C17.8302 4.02687 15.3873 7.50802 12.8666 10.8863C12.7002 11.1084 12.9229 11.4713 13.1895 11.4497C14.9137 11.3102 16.6346 11.1294 18.3556 10.9512C15.6042 14.133 12.784 17.2558 9.96581 20.3779C9.76929 20.5915 9.87934 21.0619 10.2278 21.0167C12.0575 20.7834 13.8964 20.6066 15.7306 20.4317C11.0552 24.621 6.28944 28.7166 1.5492 32.8325C2.87773 30.205 4.27766 27.6101 5.69003 25.0252C6.09401 24.2853 6.49776 23.546 6.9013 22.807C7.07096 22.4959 6.79583 22.2083 6.47876 22.2574C5.18496 22.4539 3.89443 22.678 2.60521 22.9033C4.40605 19.7759 6.41194 16.7546 8.38115 13.732C8.52658 13.5087 8.33922 13.1425 8.05753 13.1687C6.6124 13.3193 5.17513 13.5205 3.73393 13.7451C5.90687 9.94496 7.77257 5.94891 9.71164 2.03146ZM18.9615 11.9738C19.1037 12.3328 19.2321 12.7049 19.3808 13.0606C19.2498 13.2132 19.1135 13.3652 18.9799 13.5191C18.8582 13.0105 18.6439 12.5286 18.3477 12.0976C18.5043 11.9174 18.6615 11.7373 18.8174 11.5565C18.8557 11.6992 18.9039 11.8391 18.9615 11.9751V11.9738ZM17.897 13.9246C17.7837 13.6488 17.692 13.3043 17.5301 13.0376C17.7581 12.7756 17.9841 12.5136 18.2114 12.2515C18.3195 12.7822 18.6392 13.2715 18.7152 13.8172C18.5187 14.0412 18.3222 14.2653 18.1256 14.4887C18.064 14.2908 17.9651 14.0917 17.897 13.926V13.9246ZM16.8285 14.7108C16.9026 14.9957 16.9452 15.3744 17.1129 15.637C16.9733 15.7949 16.8318 15.9521 16.691 16.11C16.6323 15.9068 16.5607 15.7074 16.4768 15.5132C16.3634 15.2433 16.2475 14.9341 16.0994 14.6616C16.296 14.4409 16.4925 14.2207 16.689 13.9993C16.7169 14.2391 16.7635 14.4763 16.8285 14.7088V14.7108ZM15.0598 17.9403C14.957 17.6731 14.8476 17.4084 14.7545 17.1372C14.6785 16.9171 14.6235 16.6557 14.5259 16.4317C14.7054 16.2312 14.8862 16.0314 15.065 15.8303C15.1239 16.059 15.1979 16.2835 15.2865 16.5024C15.3782 16.752 15.4633 17.0756 15.6435 17.2885C15.4483 17.5038 15.2533 17.7205 15.0585 17.9384L15.0598 17.9403ZM11.804 19.4569C11.8492 19.5774 11.9101 19.6953 11.9468 19.7929C11.9754 19.8827 12.0105 19.9703 12.0516 20.055C11.7581 20.0871 11.462 20.1205 11.1712 20.1572L11.804 19.4569ZM11.9887 19.2538L12.7218 18.4415C12.7919 18.714 12.9412 19.0016 13.0159 19.2355C13.0814 19.4431 13.124 19.7039 13.2033 19.9331C12.9111 19.9633 12.6189 19.9943 12.3268 20.0262C12.3038 19.8185 12.1329 19.4693 11.9887 19.2538ZM13.2858 19.0167C13.2059 18.7815 13.103 18.4363 12.9163 18.2253C13.1172 18.0013 13.3181 17.7775 13.519 17.5538C13.572 17.7175 13.6341 17.878 13.7051 18.0347C13.8361 18.3622 13.9494 18.7055 14.0857 19.0324C13.8892 19.2486 13.6998 19.4661 13.5059 19.6822C13.445 19.4444 13.3461 19.2047 13.2832 19.0167H13.2858ZM14.1283 18.169C14.0195 17.9168 13.9265 17.5466 13.7712 17.2722C13.9416 17.0822 14.1117 16.8924 14.2816 16.7029C14.3209 16.8843 14.3864 17.0645 14.4375 17.223C14.5407 17.5597 14.6691 17.8881 14.8213 18.2057C14.6615 18.3845 14.5023 18.564 14.3425 18.7422C14.2827 18.5466 14.2102 18.3552 14.1256 18.169H14.1283ZM15.5885 16.5234C15.4646 16.2384 15.3638 15.9338 15.2196 15.6554C15.4384 15.4104 15.6553 15.1634 15.8747 14.9178C15.9199 15.0612 15.9795 15.2021 16.0339 15.3383C16.178 15.6999 16.3326 16.0511 16.4054 16.4323L15.8046 17.1064C15.7686 16.902 15.6638 16.7055 15.5858 16.5234H15.5885ZM16.2154 22.9289C16.0333 22.4533 15.8439 21.9796 15.6513 21.5086C15.88 21.3042 16.1099 21.1012 16.3392 20.8968C16.3843 21.1608 16.4532 21.4201 16.5449 21.6717C16.6183 21.8978 16.6661 22.1958 16.7735 22.4389L16.2154 22.9289ZM14.5272 24.4061C14.393 24.1403 14.273 23.8676 14.1676 23.5892C14.1021 23.4071 14.0477 23.1961 13.9651 23.0081L14.6039 22.4402C14.6871 22.7022 14.8063 22.9642 14.8888 23.2001C14.9589 23.3966 15.031 23.6586 15.1509 23.8611L14.5272 24.4061ZM13.7018 25.1267C13.5499 24.8544 13.4154 24.5728 13.2989 24.2836C13.2334 24.1211 13.183 23.9377 13.1089 23.7693C13.3212 23.582 13.5308 23.3927 13.7431 23.2053C13.7883 23.4071 13.8571 23.6075 13.916 23.787C14.0051 24.0556 14.1125 24.3766 14.2809 24.621L13.7018 25.1267ZM12.8462 25.8722C12.7414 25.5912 12.6379 25.3088 12.5233 25.0311C12.4551 24.8479 12.3712 24.671 12.2724 24.5024C12.4827 24.3183 12.6936 24.1355 12.9032 23.9508C12.9543 24.167 13.0343 24.3832 13.0952 24.5758C13.1749 24.847 13.3015 25.1022 13.4692 25.3298L12.8462 25.8722ZM11.2085 27.3003C11.1247 27.1038 11.0271 26.9158 10.9432 26.7238C10.8345 26.4755 10.7329 26.2089 10.5809 25.9796L11.1476 25.4844C11.1993 25.6514 11.2734 25.8119 11.3264 25.9534C11.4326 26.2318 11.5426 26.5902 11.7267 26.8483L11.2085 27.3003ZM2.86135 34.5646C2.77653 34.3452 2.67965 34.1307 2.57115 33.922C2.45716 33.6979 2.37462 33.4391 2.25015 33.2131L2.89869 32.6504C2.96879 32.8314 3.04928 33.0081 3.13976 33.1797C3.25834 33.4254 3.35267 33.751 3.50465 34.0045L2.86135 34.5646ZM1.92129 34.6118C1.82762 34.4061 1.69856 34.0674 1.51776 33.8486L2.04183 33.39C2.08773 33.5389 2.14421 33.6842 2.21084 33.825C2.34907 34.1388 2.5076 34.4428 2.62879 34.7631L2.1735 35.1561C2.10669 34.9629 1.99139 34.7657 1.92129 34.6118ZM3.50858 33.2682C3.38215 33.0232 3.26882 32.7159 3.10766 32.469C3.32603 32.279 3.54439 32.0888 3.76276 31.8984C3.82826 32.1119 3.94618 32.3229 4.02872 32.5109C4.13157 32.7467 4.22132 33.0251 4.35627 33.261L3.76669 33.7732C3.6979 33.5957 3.58916 33.4241 3.50858 33.2682ZM4.35299 32.4821C4.23835 32.2475 4.14336 31.9396 3.98287 31.7117L4.58686 31.1876C4.65311 31.3882 4.73031 31.585 4.81811 31.7772C4.92554 32.0274 5.00939 32.3268 5.15089 32.5712L4.62682 33.0297C4.54362 32.8417 4.43881 32.6589 4.35299 32.4808V32.4821ZM5.145 31.9095C5.01398 31.6285 4.89999 31.3239 4.74736 31.0481C4.96179 30.8625 5.17535 30.6773 5.38804 30.4925C5.45793 30.6735 5.53821 30.8502 5.62846 31.0219C5.73589 31.2525 5.84005 31.4844 5.92521 31.7241C5.94421 31.7759 5.95535 31.8217 5.96648 31.8637L5.37231 32.3812C5.30681 32.2194 5.21771 32.0628 5.145 31.9082V31.9095ZM6.04182 31.2459C5.918 30.9701 5.78764 30.5908 5.60749 30.3032L6.23834 29.7556C6.31614 29.9541 6.40854 30.1465 6.51479 30.3314C6.62616 30.5489 6.71591 30.862 6.88033 31.0677C6.66197 31.2577 6.44361 31.4475 6.22524 31.637C6.17218 31.4961 6.09291 31.356 6.04182 31.2446V31.2459ZM6.76962 30.3288C6.64909 30.1054 6.54362 29.8407 6.40539 29.6121L7.06048 29.0415C7.11551 29.1778 7.18299 29.3101 7.24063 29.4346C7.36576 29.7032 7.49022 30.1015 7.68348 30.37L7.05852 30.9138C7.01004 30.7028 6.8633 30.4991 6.76962 30.3262V30.3288ZM7.57014 29.5689C7.45616 29.352 7.36838 29.1031 7.26225 28.8692L7.82498 28.3818C7.87666 28.5404 7.93836 28.6956 8.00971 28.8463C8.13025 29.1162 8.23834 29.4706 8.40801 29.7412L7.88393 30.1945C7.81842 29.9711 7.67037 29.7569 7.57014 29.5662V29.5689ZM8.34774 28.9629C8.2331 28.7225 8.14138 28.4572 8.02019 28.2141L8.59471 27.7169C8.63598 27.8479 8.69559 27.9757 8.74865 28.1015C8.88557 28.4225 9.00545 28.7703 9.1666 29.0841L8.63336 29.5453C8.55606 29.3402 8.43552 29.1437 8.34774 28.9603V28.9629ZM9.09585 28.2109C9.00152 28.0006 8.9157 27.7523 8.79451 27.5414C9.00479 27.3592 9.21311 27.1758 9.42274 26.9931C9.48825 27.2223 9.60682 27.4483 9.69002 27.6567C9.78697 27.899 9.86296 28.1513 9.95206 28.3976L9.38213 28.8948C9.30326 28.6594 9.20759 28.4299 9.09585 28.2082V28.2109ZM9.98612 27.5748C9.8931 27.3272 9.79942 27.0324 9.64613 26.7978C9.90816 26.5686 10.1702 26.3386 10.4322 26.108C10.4897 26.3119 10.5595 26.512 10.6412 26.7074C10.7441 26.9695 10.8377 27.2531 10.9688 27.5066C10.7128 27.7302 10.4567 27.9536 10.2003 28.1768C10.1394 27.9731 10.0615 27.77 9.98612 27.5722V27.5748ZM11.5885 25.8768C11.519 25.7012 11.4627 25.4778 11.3775 25.2793C11.6022 25.0828 11.8282 24.8863 12.0529 24.6898C12.1119 24.8823 12.2056 25.0736 12.2724 25.2459C12.3824 25.527 12.4833 25.8119 12.5836 26.0975L11.9481 26.6517C11.8512 26.3891 11.6867 26.1251 11.5885 25.8768ZM15.3343 23.5538C15.2282 23.3383 15.1528 23.1077 15.067 22.8837C14.9953 22.6693 14.9052 22.4615 14.7978 22.2626L15.4227 21.7071C15.5537 22.1958 15.7876 22.6636 15.9776 23.1326C15.7811 23.3055 15.5845 23.4785 15.388 23.6514C15.369 23.622 15.3513 23.5899 15.3343 23.5564V23.5538ZM5.45879 23.8879C5.39327 23.7295 5.31891 23.5749 5.23606 23.4248C5.20527 23.3658 5.17513 23.2938 5.14172 23.2282L5.88525 23.1071L5.45879 23.8879ZM3.84595 24.15C3.72421 23.93 3.58695 23.7189 3.43521 23.5184C3.61929 23.4864 3.80272 23.4529 3.9868 23.4222C4.04182 23.6396 4.19315 23.8663 4.28224 24.0432C4.37134 24.2201 4.44274 24.4244 4.55935 24.5908C4.41588 24.6125 4.27242 24.6341 4.1283 24.6531C4.06213 24.467 3.92325 24.2803 3.84595 24.1486V24.15ZM6.66284 14.6099C6.62419 14.4474 6.59733 14.2673 6.55213 14.095C6.805 14.0626 7.05874 14.0321 7.31335 14.0033L6.74014 14.8804C6.71394 14.7822 6.6825 14.6878 6.66219 14.6092L6.66284 14.6099ZM3.68218 14.5077C3.93832 14.4671 4.19381 14.4264 4.4506 14.3878C4.50044 14.6178 4.56611 14.8442 4.64713 15.0652C4.69299 15.204 4.71788 15.3717 4.76046 15.5276L4.53576 15.5617C4.24163 15.2211 3.95142 14.8712 3.68152 14.5064L3.68218 14.5077ZM5.05787 15.4824C5.02091 15.3551 4.97717 15.2298 4.92685 15.1071C4.83561 14.8516 4.72457 14.6037 4.59472 14.3655C4.83579 14.3297 5.0773 14.2945 5.31925 14.26C5.35397 14.4887 5.39983 14.7186 5.45027 14.9433C5.47379 15.1003 5.50904 15.2554 5.55574 15.4071L5.05787 15.4824ZM5.89639 15.3547C5.86232 15.185 5.77061 15.0023 5.73589 14.864C5.68919 14.6457 5.61958 14.433 5.52823 14.2293C5.77323 14.1945 6.01889 14.1638 6.26455 14.1317C6.27725 14.2857 6.29912 14.4388 6.33006 14.5902C6.35954 14.7618 6.39557 15.0488 6.51348 15.225C6.50497 15.2374 6.49645 15.2505 6.48859 15.2636C6.28944 15.2938 6.09291 15.3252 5.89639 15.3547ZM3.17645 24.469C2.95896 24.207 2.75064 23.9397 2.5456 23.6691L3.07622 23.5768C3.19348 23.8028 3.36905 24.013 3.4981 24.2187C3.57409 24.3386 3.64418 24.5332 3.73459 24.6996C3.65401 24.7094 3.57409 24.7212 3.49351 24.7304C3.15876 24.769 3.40704 24.7448 3.17645 24.469ZM4.86855 24.5345C4.81811 24.3039 4.65695 24.0759 4.55607 23.8794C4.47733 23.701 4.38238 23.5302 4.27242 23.3691C4.45781 23.3376 4.6432 23.3088 4.82793 23.278C4.85807 23.3743 4.90327 23.4693 4.9334 23.5519C5.00504 23.771 5.10432 23.9802 5.22885 24.1742C5.24137 24.1927 5.25767 24.2083 5.27667 24.2201C5.22754 24.3098 5.17906 24.4002 5.12928 24.4899C5.04477 24.5076 4.95568 24.5201 4.86855 24.5352V24.5345ZM0.860702 34.4185L1.31075 34.0287C1.39722 34.2423 1.54593 34.4624 1.62323 34.6347C1.72411 34.8587 1.825 35.0815 1.91343 35.3107L1.93112 35.354C1.50728 35.5839 1.20463 34.9583 0.860702 34.4185ZM17.6749 21.6442L17.295 21.9783L17.0578 22.186C17.0048 22.0334 16.9334 21.8827 16.8862 21.7445C16.7735 21.413 16.6897 21.0389 16.539 20.7153C16.6255 20.6374 16.7132 20.5607 16.801 20.4828C17.0041 20.716 17.2 20.9538 17.3828 21.2034C17.4879 21.3443 17.5855 21.4908 17.6749 21.6423V21.6442ZM17.371 15.3475C17.3264 15.1549 17.2399 14.963 17.1843 14.7815C17.084 14.454 17.0041 14.1113 16.8652 13.7989C17.027 13.6148 17.1895 13.4327 17.3513 13.2486C17.3926 13.4641 17.4954 13.6803 17.5688 13.8722C17.6513 14.0917 17.7319 14.3098 17.8 14.5339C17.8276 14.6243 17.842 14.7121 17.8616 14.7959L17.8007 14.8654C17.6579 15.0252 17.5138 15.1844 17.371 15.3455V15.3475ZM19.8099 12.5745C19.7339 12.6623 19.6566 12.7488 19.5799 12.8365C19.5176 12.6329 19.441 12.4339 19.3506 12.2411C19.2537 12.0131 19.1639 11.7825 19.0716 11.5526C19.046 11.4839 19.0241 11.4139 19.0061 11.3429C19.0873 11.2486 19.1692 11.1562 19.2498 11.0619C19.5072 11.3672 19.7581 11.6783 19.9953 12C20.3045 12.4042 20.1662 12.1605 19.8099 12.5725V12.5745ZM5.19216 12.6439C6.53969 9.33573 8.24161 6.09303 9.96123 2.95973C9.97236 2.94008 10.0071 2.95383 9.99857 2.97611C8.69559 6.29807 7.00218 9.55846 5.27798 12.68C5.25243 12.7258 5.17186 12.6944 5.19216 12.6439ZM10.0674 2.6276C10.0359 2.50051 10.1158 2.37801 10.1604 2.2614C10.1753 2.21044 10.2004 2.16304 10.2342 2.12205C10.268 2.08107 10.3097 2.04736 10.3569 2.02295C10.3631 2.01942 10.3702 2.01758 10.3774 2.0176C10.3845 2.01763 10.3916 2.01952 10.3978 2.02309C10.404 2.02666 10.4092 2.03178 10.4128 2.03796C10.4164 2.04414 10.4184 2.05116 10.4185 2.05832C10.4224 2.23913 10.3104 2.61187 10.1047 2.6479C10.0971 2.65017 10.089 2.64938 10.082 2.6457C10.075 2.64203 10.0698 2.63576 10.0674 2.62825V2.6276ZM11.6147 17.7654C12.7441 15.9521 14.2527 14.3269 15.7581 12.8208C15.7876 12.7913 15.8302 12.8352 15.8033 12.8667C14.408 14.5005 13.0467 16.1592 11.6605 17.8008C11.6389 17.827 11.5957 17.7936 11.6147 17.7661V17.7654ZM15.9573 12.6C16.0156 12.4035 16.1597 12.1618 16.3785 12.1258C16.3855 12.1241 16.3927 12.1243 16.3996 12.1262C16.4065 12.1282 16.4127 12.1319 16.4178 12.1369C16.4228 12.142 16.4265 12.1482 16.4285 12.1551C16.4304 12.162 16.4306 12.1692 16.4289 12.1762C16.3949 12.3819 16.1735 12.5326 16.009 12.64C16.003 12.6434 15.9961 12.645 15.9892 12.6445C15.9823 12.644 15.9757 12.6416 15.9702 12.6374C15.9647 12.6332 15.9605 12.6275 15.9582 12.621C15.9559 12.6145 15.9556 12.6074 15.9573 12.6007V12.6ZM5.15548 28.843C6.81841 27.1187 8.61766 25.5313 10.5357 24.0962C10.5875 24.0576 10.6451 24.1395 10.6013 24.1834C8.95239 25.8971 7.01463 27.3553 5.20854 28.9C5.20098 28.9071 5.19094 28.9108 5.18062 28.9104C5.1703 28.9101 5.16055 28.9056 5.15351 28.8981C5.14648 28.8905 5.14273 28.8805 5.1431 28.8701C5.14347 28.8598 5.14792 28.8501 5.15548 28.843ZM10.9144 23.9017C10.9045 23.9012 10.8951 23.897 10.888 23.89C10.881 23.883 10.8769 23.8736 10.8764 23.8637C10.858 23.6626 11.1535 23.4811 11.3238 23.447C11.3533 23.4411 11.3893 23.4667 11.3782 23.5008C11.316 23.6593 11.1057 23.9226 10.9144 23.9017Z" fill="#232323"/>
</svg>
