<svg width="57" height="62" viewBox="0 0 57 62" fill="none" xmlns="http://www.w3.org/2000/svg">
<path d="M53.9018 48.0931C53.8467 47.1526 53.6278 46.2289 53.2548 45.3637C52.868 44.4912 52.3573 43.6792 51.7384 42.9527C50.4541 41.498 48.8898 40.317 47.1389 39.4803C45.3785 38.6167 43.5076 37.9994 41.579 37.6456C37.6802 36.9325 33.6702 37.1158 29.8526 38.1813C27.9423 38.7076 26.1151 39.4987 24.4242 40.5317C23.5856 41.0546 22.7956 41.6518 22.0637 42.3159C21.3312 42.9756 20.6781 43.7186 20.1178 44.5297C20.0521 44.6359 19.9813 44.7319 19.9156 44.838L19.7286 45.1565C19.5921 45.3637 19.491 45.5861 19.3748 45.8034C19.3141 45.9096 19.2737 46.0258 19.2231 46.137L19.0765 46.4757L18.9502 46.8194C18.9046 46.9333 18.8658 47.0497 18.8339 47.1681C18.233 49.0565 18.3463 51.0997 19.1524 52.91C19.1974 53.0245 19.2497 53.1359 19.3091 53.2436L19.4708 53.5721L19.6528 53.8906C19.7134 53.9967 19.7741 54.1079 19.8448 54.209C19.9813 54.4112 20.1077 54.6184 20.2643 54.8105L20.4867 55.1036C20.5626 55.1997 20.6434 55.2957 20.7243 55.3867C21.3696 56.1339 22.1008 56.8024 22.9028 57.3782C23.6989 57.957 24.5446 58.4645 25.43 58.8945C27.2276 59.7396 29.1348 60.3283 31.096 60.6433C35.0094 61.274 39.0148 61.0114 42.8123 59.8751C43.7516 59.5867 44.6717 59.2389 45.567 58.8338C46.4575 58.4292 47.3189 57.963 48.1447 57.4388C49.7906 56.4106 51.2123 55.0612 52.3248 53.4711C52.593 53.0758 52.8328 52.6619 53.0425 52.2327C53.2477 51.8062 53.4168 51.3632 53.5479 50.9084C53.832 49.9984 53.9518 49.0451 53.9018 48.0931Z" fill="white"/>
<path d="M54.392 47.8656C54.665 52.7988 50.394 57.2871 44.0557 59.4909L44.7532 57.2821L52.4612 47.6028L54.3566 47.4512C54.3718 47.5775 54.3819 47.7191 54.392 47.8656Z" fill="#232323"/>
<path d="M54.9025 48.0375C54.9548 49.0971 54.8214 50.1576 54.5083 51.1713C54.3537 51.6745 54.1593 52.1646 53.927 52.6371C53.4596 53.5708 52.8717 54.4392 52.1782 55.2199C51.8361 55.6082 51.4716 55.9761 51.0864 56.3217C50.8994 56.5037 50.7023 56.6655 50.5052 56.8272C50.308 56.9889 50.1059 57.1507 49.8986 57.3023C49.4892 57.6157 49.0646 57.8987 48.63 58.1717C47.7626 58.7119 46.8552 59.185 45.9157 59.5869C44.9783 59.986 44.0159 60.3237 43.0347 60.5978C39.1168 61.6918 35.0014 61.8802 31 61.1488C29.0152 60.7851 27.0888 60.1543 25.2733 59.2736C23.4383 58.3964 21.8011 57.1547 20.4615 55.6242C20.3806 55.5282 20.2947 55.4322 20.2189 55.3311L19.9863 55.0278C19.8297 54.8307 19.6982 54.6083 19.5567 54.4011C19.4844 54.2957 19.4186 54.1859 19.3596 54.0725L19.1675 53.7389L19.0007 53.3952C18.9404 53.2845 18.888 53.1697 18.844 53.0515C18.4388 52.1125 18.1994 51.1104 18.1364 50.0896C18.087 49.0648 18.2135 48.039 18.5104 47.0569C18.5408 46.9306 18.5863 46.8143 18.6267 46.693L18.7581 46.3341L18.9097 45.9803C18.9603 45.8641 19.0058 45.7478 19.0664 45.6366C19.1877 45.4092 19.2939 45.1767 19.4253 44.9644L19.6224 44.6358C19.6881 44.5246 19.764 44.4236 19.8297 44.3174C20.9916 42.6484 22.4808 41.2331 24.2068 40.1576C25.9178 39.0681 27.7697 38.2178 29.7111 37.6304C33.6038 36.472 37.7096 36.2179 41.7155 36.8874C43.7325 37.2096 45.6943 37.8136 47.5432 38.6817C48.471 39.126 49.3574 39.652 50.1918 40.2536C51.035 40.8582 51.8051 41.5587 52.4865 42.3411C53.1708 43.1317 53.7346 44.0191 54.1595 44.9745C54.5835 45.9445 54.835 46.981 54.9025 48.0375ZM53.8916 48.0931C53.8366 47.1526 53.6177 46.2289 53.2447 45.3637C52.8579 44.4912 52.3472 43.6792 51.7283 42.9527C50.444 41.498 48.8797 40.317 47.1288 39.4803C45.3684 38.6167 43.4975 37.9993 41.5689 37.6455C37.67 36.9325 33.6601 37.1157 29.8425 38.1813C27.9322 38.7076 26.105 39.4987 24.4141 40.5316C23.5755 41.0546 22.7855 41.6517 22.0536 42.3158C21.3211 42.9756 20.668 43.7186 20.1077 44.5297C20.0419 44.6358 19.9712 44.7319 19.9055 44.838L19.7185 45.1565C19.582 45.3637 19.4809 45.5861 19.3647 45.8034C19.304 45.9096 19.2636 46.0258 19.213 46.137L19.0664 46.4757L18.9401 46.8194C18.8945 46.9333 18.8557 47.0497 18.8238 47.1681C18.2229 49.0565 18.3362 51.0997 19.1423 52.91C19.1872 53.0244 19.2396 53.1359 19.2989 53.2436L19.4607 53.5721L19.6426 53.8906C19.7033 53.9967 19.764 54.1079 19.8347 54.209C19.9712 54.4112 20.0975 54.6184 20.2542 54.8105L20.4766 55.1036C20.5524 55.1997 20.6333 55.2957 20.7142 55.3867C21.3595 56.1339 22.0907 56.8023 22.8927 57.3781C23.6888 57.957 24.5345 58.4644 25.4199 58.8945C27.2206 59.7405 29.1314 60.3292 31.096 60.6433C35.0094 61.274 39.0148 61.0113 42.8123 59.875C43.7516 59.5867 44.6717 59.2389 45.567 58.8338C46.4575 58.4291 47.3189 57.963 48.1447 57.4388C49.7906 56.4106 51.2123 55.0611 52.3248 53.471C52.593 53.0757 52.8328 52.6619 53.0425 52.2327C53.2477 51.8062 53.4168 51.3632 53.5479 50.9084C53.832 49.9984 53.9518 49.0451 53.9018 48.0931H53.8916Z" fill="#232323"/>
<path d="M54.2858 46.0109C54.6548 52.617 46.871 58.4246 36.8985 58.9806C26.9261 59.5366 18.5407 54.6287 18.197 48.0074C17.8533 41.386 25.6119 35.5987 35.5844 35.0427C40.9977 34.7394 45.946 36.0536 49.3931 38.3635C51.6373 39.8798 53.2497 41.8056 53.9421 44.0042C54.1416 44.6558 54.2571 45.3301 54.2858 46.0109Z" fill="white"/>
<path d="M54.589 45.9852C54.643 46.9978 54.5198 48.0121 54.2251 48.9825C53.9304 49.9465 53.4907 50.86 52.9211 51.6916C51.775 53.3316 50.3104 54.724 48.6147 55.7858C46.9375 56.846 45.1252 57.6756 43.2266 58.2523C41.3347 58.8245 39.3853 59.1856 37.414 59.3289C36.9086 59.3744 36.4031 59.3845 35.933 59.3997H35.2153C34.9676 59.3997 34.7099 59.3997 34.4723 59.3997C33.4859 59.3636 32.5023 59.2741 31.5256 59.1318C29.5651 58.8512 27.6489 58.3194 25.8241 57.5498C24.9092 57.1585 24.0284 56.6919 23.1908 56.1547C22.3493 55.6183 21.5667 54.9948 20.8556 54.2947C20.1372 53.5901 19.5183 52.7909 19.0158 51.9191C18.7656 51.4751 18.551 51.012 18.3739 50.5342C18.3284 50.4179 18.293 50.2966 18.2526 50.1753C18.2121 50.054 18.1717 49.9377 18.1414 49.8164L18.0554 49.4475C18.0554 49.3818 18.0201 49.3211 18.0099 49.2605L17.9796 49.0734C17.7959 48.0709 17.7959 47.0433 17.9796 46.0408C18.1645 45.0529 18.5057 44.1008 18.9905 43.2204C19.4766 42.3474 20.0729 41.5405 20.7646 40.8195C21.4583 40.1115 22.2182 39.4717 23.0341 38.9089C24.6517 37.7631 26.4276 36.8589 28.3059 36.225C29.2352 35.9026 30.1818 35.6326 31.1414 35.4163C32.1012 35.2072 33.0713 35.0486 34.0477 34.9412C34.2903 34.9412 34.5532 34.8856 34.7806 34.8704L35.5135 34.8199C35.7561 34.8199 36.019 34.8199 36.2464 34.7895H36.6154H36.9844C37.9668 34.7837 38.9488 34.831 39.9261 34.9311C40.1687 34.9614 40.4315 34.9816 40.6539 35.017L41.3868 35.1231L42.1096 35.2545C42.3522 35.295 42.5898 35.3506 42.8324 35.4062C43.7939 35.6145 44.7397 35.8898 45.6629 36.2301C46.5903 36.5657 47.4908 36.9713 48.3569 37.4431L48.6804 37.6251C48.79 37.6831 48.8963 37.7472 48.9988 37.8172C49.2111 37.9486 49.4234 38.0749 49.6256 38.2165C50.0392 38.4909 50.4374 38.7879 50.8184 39.106C51.5893 39.7395 52.2786 40.4662 52.8705 41.2694C52.9413 41.3704 53.0171 41.4715 53.0879 41.5777L53.2901 41.8911C53.4215 42.1084 53.5478 42.3257 53.6641 42.5481C53.8931 42.9959 54.0874 43.4606 54.2453 43.9381V43.9735V44.019V43.9432C54.4456 44.6066 54.5611 45.2927 54.589 45.9852ZM53.9471 46.0205C53.914 45.37 53.7985 44.7263 53.6034 44.1049V44.0645V44.0291V44.1049C53.4707 43.6572 53.3016 43.2211 53.098 42.8009C52.9969 42.5886 52.8756 42.3864 52.7593 42.1842L52.5673 41.886C52.5066 41.7849 52.4308 41.6939 52.3651 41.5928C51.8092 40.8237 51.1607 40.126 50.4343 39.5155C50.0653 39.2122 49.6913 38.919 49.292 38.6511C49.0948 38.5147 48.8927 38.3883 48.6905 38.262C48.5945 38.1912 48.4883 38.1356 48.3872 38.0749L48.0688 37.898C47.2304 37.433 46.3587 37.0309 45.4607 36.6951C44.5582 36.3612 43.6346 36.0877 42.6959 35.8762C41.7583 35.6591 40.8078 35.502 39.8502 35.4062C38.8903 35.3009 37.9248 35.2537 36.9591 35.2647H36.6002H36.2363L35.5135 35.295L34.7958 35.3708C34.5532 35.3708 34.2903 35.4163 34.073 35.4416C33.1162 35.5482 32.1662 35.7085 31.2273 35.9217C30.2878 36.1364 29.3613 36.4047 28.4524 36.7254C26.6342 37.3501 24.9163 38.2354 23.3525 39.3537C22.5853 39.9136 21.8743 40.5467 21.2296 41.2441C20.5773 41.9341 20.0167 42.7054 19.5617 43.5388C19.1124 44.3656 18.7952 45.2575 18.6215 46.1823C18.4547 47.1048 18.4547 48.0498 18.6215 48.9723L18.6519 49.1442C18.6519 49.1998 18.6771 49.2554 18.6923 49.316L18.7782 49.6547C18.8035 49.7659 18.849 49.8771 18.8844 49.9883C18.9197 50.0995 18.9551 50.2107 18.9956 50.3168C19.1655 50.7536 19.3701 51.1761 19.6072 51.5804C20.0848 52.3931 20.6696 53.1377 21.3459 53.7943C22.7354 55.1001 24.3526 56.14 26.1173 56.8624C27.8854 57.5996 29.7401 58.1091 31.6368 58.3787C32.5869 58.5109 33.5437 58.5903 34.5026 58.6162C34.7402 58.6162 34.9778 58.6162 35.2204 58.6162H35.9381C36.4435 58.6162 36.8984 58.5809 37.3736 58.5404C39.2856 58.4149 41.1777 58.0758 43.0143 57.5295C44.8495 56.9873 46.6026 56.1983 48.2255 55.1843C49.8504 54.192 51.2583 52.882 52.3651 51.3328C52.9061 50.5588 53.3255 49.7065 53.6085 48.8056C53.8851 47.9077 54.0064 46.9693 53.9673 46.0307L53.9471 46.0205Z" fill="#232323"/>
<path d="M53.9217 44.0188L48.665 49.8062L49.3727 38.4033C51.6168 39.8843 53.2292 41.8201 53.9217 44.0188Z" fill="#232323"/>
<path d="M20.936 33.4099L21.6083 45.48C21.9368 51.4189 28.6845 55.8669 36.7009 55.4221C44.7173 54.9773 50.9241 49.8015 50.5905 43.8625L49.9183 31.7925L20.936 33.4099Z" fill="#9036EE"/>
<path d="M36.7264 55.8769C32.9697 56.1536 29.2228 55.2239 26.0312 53.2233C23.0591 51.2672 21.3255 48.5277 21.1587 45.5102L20.4864 33.4351C20.4823 33.3759 20.4901 33.3164 20.5094 33.2602C20.5286 33.204 20.5589 33.1523 20.5985 33.108C20.6381 33.0637 20.6861 33.0278 20.7398 33.0024C20.7934 32.977 20.8517 32.9626 20.911 32.96L49.8932 31.3274C49.9523 31.324 50.0115 31.3323 50.0674 31.3518C50.1233 31.3713 50.1748 31.4016 50.2189 31.4411C50.2631 31.4805 50.299 31.5283 50.3246 31.5816C50.3503 31.635 50.3651 31.6929 50.3684 31.752L51.0507 43.8422C51.2226 46.8749 49.8073 49.7762 47.0678 52.0557C44.1143 54.396 40.492 55.7345 36.7264 55.8769ZM21.4114 33.8546L22.0584 45.4799C22.3768 51.1611 28.9324 55.4321 36.6758 54.9974C44.4193 54.5627 50.4593 49.574 50.1409 43.8928L49.4939 32.2675L21.4114 33.8546Z" fill="#232323"/>
<path d="M24.3074 27.1427L19.3237 21.5828C19.3237 21.5828 24.9241 23.9786 25.7176 19.3235C26.5112 14.6683 25.8187 4.9284 25.4801 1.5874C27.8708 8.52717 30.9945 15.5326 33.1881 15.7399C38.8592 16.2959 48.8569 1.63289 48.8569 1.63289C48.8569 1.63289 43.2465 15.8561 45.2531 18.818C47.4215 22.0276 55.8675 17.5241 55.8675 17.5241L46.7037 26.5008L24.3074 27.1427Z" fill="#FFF403"/>
<path d="M24.2219 27.3446C24.0045 27.1273 23.7923 26.8948 23.5749 26.6724L22.933 25.985C22.5034 25.525 22.0839 25.0499 21.6643 24.5849C21.2448 24.1199 20.8253 23.6296 20.4209 23.1494L19.8093 22.4216C19.6122 22.179 19.41 21.9161 19.218 21.6887L18.8237 21.1832L19.3848 21.4663C19.6274 21.5522 19.8902 21.628 20.1379 21.6937C20.3856 21.7594 20.6433 21.8201 20.9062 21.8605C21.1636 21.9074 21.4235 21.9395 21.6846 21.9566C21.9419 21.9768 22.2005 21.9768 22.4579 21.9566C22.9593 21.9376 23.4514 21.8154 23.9035 21.5977C24.0117 21.5439 24.1164 21.4831 24.2168 21.4157L24.3584 21.3045L24.4291 21.2489L24.4948 21.1883L24.6212 21.0619L24.7324 20.9204L24.793 20.8547L24.8436 20.7789L24.9396 20.6272C25.1844 20.1848 25.3406 19.699 25.3996 19.1968C25.4299 18.939 25.4653 18.6914 25.5007 18.4134C25.536 18.1354 25.5462 17.9079 25.5714 17.6249C25.6574 16.5685 25.6978 15.502 25.713 14.4355C25.7281 13.369 25.713 12.2975 25.713 11.231C25.713 10.1645 25.6725 9.08791 25.6321 8.01637C25.5916 6.94482 25.5664 5.87833 25.531 4.80679C25.531 4.5389 25.531 4.27102 25.5007 3.99808V3.19442L25.4046 1.60732V0.965401L25.5765 1.57699L26.0112 2.68392L26.4509 3.79084C26.7441 4.52879 27.0473 5.26169 27.3607 5.98953C27.9723 7.45027 28.6193 8.89584 29.3319 10.301C29.6908 11.0036 30.0598 11.7011 30.4591 12.3733C30.8437 13.0457 31.2815 13.6863 31.7682 14.2889C32 14.5766 32.2646 14.8361 32.5567 15.0623C32.6882 15.165 32.8327 15.2499 32.9863 15.315C33.0534 15.3415 33.1228 15.3618 33.1935 15.3757H33.4362C33.7983 15.3805 34.1592 15.3329 34.5077 15.2341C34.8664 15.1329 35.2163 15.0028 35.554 14.8449C35.9006 14.6853 36.2381 14.5064 36.5649 14.3092C36.8934 14.107 37.2118 13.8896 37.5303 13.6672C38.1621 13.2123 38.7636 12.717 39.3549 12.2015C40.5276 11.1602 41.6193 10.023 42.6959 8.86552C43.7725 7.70805 44.7834 6.50003 45.7791 5.26674C46.7749 4.03346 47.7453 2.78501 48.6855 1.51634L49.7418 0L49.0292 1.73368C48.1547 3.99808 47.3561 6.28269 46.6536 8.62796C46.2998 9.79048 45.9763 10.9631 45.6932 12.1661C45.4068 13.3406 45.1974 14.5327 45.0665 15.7345C45.0084 16.3278 45.0084 16.9254 45.0665 17.5187C45.0912 17.8046 45.1506 18.0863 45.2434 18.3578C45.2634 18.4238 45.2887 18.488 45.3192 18.5499C45.3495 18.6105 45.3849 18.6661 45.4152 18.7217C45.49 18.8394 45.5782 18.9479 45.6781 19.0452C46.0943 19.4363 46.6266 19.6811 47.1944 19.7427C47.7796 19.8236 48.3732 19.8236 48.9584 19.7427C50.1487 19.5689 51.3165 19.2655 52.4409 18.838C53.5768 18.4216 54.6858 17.9354 55.7617 17.3823L57 16.6089L56.0195 17.731C55.3118 18.5347 54.584 19.3131 53.8562 20.0965L52.7341 21.2186C52.3702 21.6078 51.9961 21.9869 51.6271 22.371L51.0509 22.9573L50.4848 23.5285L49.383 24.6657L48.2457 25.7929L47.6796 26.3539L47.3966 26.6319L47.25 26.7735L47.2146 26.8088C47.2146 26.8088 47.2146 26.8392 47.1742 26.8088H47.1287L47.068 26.7785H47.0074L46.9619 26.7482L46.8406 26.6623L46.7799 26.7229H46.694L24.2219 27.3446ZM24.5049 26.6825C31.8676 26.5241 39.2656 26.391 46.6991 26.2832L46.5525 26.3438L55.6909 17.3974L55.9487 17.7462C54.8533 18.3093 53.724 18.8039 52.5673 19.2272C51.41 19.6652 50.2084 19.9753 48.9837 20.1521C48.3583 20.2405 47.7237 20.2405 47.0984 20.1521C46.7779 20.1042 46.4652 20.0141 46.1683 19.8842C46.0173 19.8201 45.8733 19.7405 45.7387 19.6467C45.5997 19.5545 45.4709 19.4478 45.3546 19.3282C45.235 19.2101 45.1282 19.0797 45.0361 18.939C44.9889 18.8688 44.9483 18.7944 44.9148 18.7167C44.8755 18.6424 44.8434 18.5645 44.8188 18.4841C44.7101 18.1794 44.6421 17.8616 44.6166 17.539C44.5559 16.9188 44.5559 16.2941 44.6166 15.6739C44.7509 14.4514 44.9654 13.2391 45.2585 12.0448C45.5416 10.8519 45.8651 9.67423 46.2189 8.50665C46.9535 6.16475 47.7605 3.85318 48.64 1.57194L49.0241 1.77411C48.8068 2.11276 48.5844 2.4413 48.362 2.78501C48.1396 3.12871 47.9071 3.44208 47.6746 3.76557C47.2096 4.41254 46.7378 5.05446 46.2593 5.69132C45.2889 6.96167 44.278 8.19496 43.2266 9.39118C42.174 10.5997 41.0481 11.7425 39.8553 12.813C39.254 13.3513 38.6247 13.8574 37.97 14.3294C37.6415 14.5669 37.3028 14.7944 36.9591 15.0067C36.6073 15.2223 36.2427 15.4164 35.8674 15.5879C35.4876 15.7669 35.0915 15.9091 34.6846 16.0125C34.2647 16.1255 33.8303 16.1749 33.3957 16.1591H33.234H33.1481H33.047C32.9235 16.1358 32.8031 16.0985 32.6881 16.0479C32.4757 15.9546 32.2754 15.8358 32.0917 15.6941C31.7616 15.4274 31.4631 15.1239 31.2021 14.7893C30.7003 14.1526 30.2507 13.4765 29.8576 12.7676C29.4583 12.07 29.0944 11.3523 28.7608 10.6245C28.0936 9.17384 27.4972 7.69794 26.9361 6.20687C26.6565 5.43186 26.3902 4.66189 26.1375 3.89699L25.7787 2.76479L25.4248 1.62248L25.5714 1.59215C25.905 3.72008 26.1224 5.86317 26.2689 8.00626C26.4155 10.1493 26.4863 12.3076 26.4458 14.4659C26.4458 15.0067 26.4458 15.5475 26.4004 16.0883C26.4004 16.3562 26.365 16.6241 26.3498 16.897C26.3347 17.17 26.2841 17.4379 26.2841 17.7058C26.2841 17.9736 26.2336 18.2466 26.1982 18.5195C26.1628 18.7925 26.1173 19.0604 26.0718 19.3282C25.9814 19.9006 25.7806 20.45 25.4804 20.9457C25.1641 21.451 24.7075 21.8532 24.1663 22.1031C23.6406 22.3397 23.0697 22.4587 22.4933 22.4519C22.2144 22.451 21.9358 22.4324 21.6593 22.3963C21.3863 22.3609 21.1134 22.3104 20.8455 22.2497C20.3116 22.1314 19.7903 21.9621 19.2887 21.7443L19.4555 21.5168L20.0823 22.1941L20.7242 22.8411L21.9979 24.1502L23.2514 25.434L23.8832 26.0658L24.5049 26.6825Z" fill="#232323"/>
<path d="M29.1649 12.2266C29.0537 13.1768 28.8971 14.1119 28.7555 15.052L28.6494 15.7546L28.5483 16.4571L28.4573 17.1749C28.4573 17.4124 28.4017 17.6449 28.3815 17.8774C28.2793 18.8193 28.2253 19.7657 28.2198 20.713C28.2192 21.6604 28.2715 22.607 28.3765 23.5485C28.1211 22.6264 27.9685 21.6788 27.9216 20.7231C27.8684 19.7657 27.8937 18.8055 27.9974 17.8522C27.9974 17.6146 28.058 17.3771 28.0883 17.1395C28.1187 16.9019 28.1541 16.6644 28.1894 16.4268L28.3057 15.699C28.3512 15.4614 28.4017 15.2289 28.4523 14.9964C28.6595 14.0664 28.8971 13.1313 29.1649 12.2266Z" fill="#232323"/>
<path d="M31.5911 16.4316C31.4041 17.0634 31.2322 17.6851 31.0856 18.3119C30.9391 18.9387 30.7571 19.5654 30.5802 20.1922C30.4033 20.8189 30.282 21.4507 30.1556 22.0825C30.1556 22.1634 30.1202 22.2392 30.1051 22.3201L30.0646 22.5576C30.0646 22.6385 30.0293 22.7194 30.0192 22.7952L29.9838 23.0378C29.9321 23.3575 29.8983 23.6798 29.8827 24.0032C29.8102 23.6814 29.7729 23.3526 29.7715 23.0227V22.775C29.7715 22.6891 29.7715 22.6082 29.7715 22.5273C29.7715 22.3605 29.7715 22.1937 29.8069 22.0219C29.8754 21.3676 29.9903 20.719 30.1506 20.081C30.3083 19.4436 30.5024 18.8159 30.7318 18.2007C30.961 17.5849 31.2487 16.9925 31.5911 16.4316Z" fill="#232323"/>
<path d="M49.9189 31.7928C50.202 36.8017 43.9395 41.2244 35.9333 41.6692C27.927 42.114 21.0934 38.404 20.8103 33.4153C20.5273 28.4265 26.9212 23.9786 34.9224 23.5287C42.9236 23.0789 49.6409 26.7788 49.9189 31.7928Z" fill="#9036EE"/>
<path d="M50.3684 31.7671C50.392 32.1906 50.3751 32.6155 50.3178 33.0358C50.2608 33.4508 50.1678 33.8601 50.0398 34.259C49.9025 34.6544 49.7335 35.0381 49.5344 35.4063C49.333 35.7682 49.1049 36.1145 48.852 36.4425C48.3564 37.0977 47.7826 37.6901 47.1436 38.2065C46.5109 38.7226 45.8344 39.1826 45.1218 39.5813C43.7174 40.3735 42.2152 40.9785 40.6537 41.3807C39.0952 41.7915 37.4974 42.0355 35.8873 42.1085C34.2892 42.1904 32.6869 42.1074 31.1058 41.8609C29.5164 41.6203 27.9641 41.1787 26.4861 40.5467C24.9837 39.9217 23.6185 39.0081 22.4678 37.8577C22.1834 37.5613 21.9199 37.2455 21.6793 36.9126C21.439 36.5745 21.2261 36.2179 21.0424 35.8461C20.8596 35.4703 20.714 35.0775 20.6077 34.6734C20.5008 34.2685 20.4364 33.8534 20.4156 33.4351C20.3969 33.0178 20.4189 32.5997 20.4814 32.1866C20.5505 31.7767 20.6571 31.3741 20.7998 30.9837C20.9395 30.5973 21.1085 30.2222 21.3052 29.8616C21.5121 29.51 21.7417 29.1723 21.9926 28.8507C22.5133 28.2141 23.1052 27.6392 23.7566 27.1372C24.3923 26.6385 25.0686 26.1938 25.7784 25.8079C27.175 25.0413 28.6626 24.4538 30.2061 24.0591C30.9724 23.8605 31.7485 23.7019 32.5312 23.5839C33.3083 23.4634 34.0911 23.3824 34.8764 23.3413C35.67 23.3009 36.4585 23.2958 37.252 23.3413C38.0456 23.3868 38.829 23.4576 39.6125 23.5688C40.3969 23.6867 41.1746 23.8453 41.9426 24.0439C42.3267 24.145 42.7058 24.2612 43.0849 24.3876C43.464 24.514 43.838 24.6454 44.207 24.792C44.9501 25.0924 45.667 25.4542 46.3501 25.8736C47.0417 26.3059 47.6826 26.8145 48.2607 27.39C48.5478 27.6709 48.8131 27.9734 49.0542 28.2947C49.302 28.6281 49.5217 28.9814 49.7113 29.3511C49.8977 29.7287 50.0483 30.123 50.1611 30.5288C50.2729 30.9333 50.3423 31.3483 50.3684 31.7671ZM49.4687 31.8177C49.454 31.456 49.4015 31.0968 49.312 30.7461C49.2177 30.4 49.096 30.062 48.9481 29.7352C48.6294 29.0624 48.2102 28.442 47.7047 27.8954C46.6494 26.7775 45.3811 25.8821 43.9745 25.262C42.5627 24.6161 41.0671 24.172 39.5316 23.9428C38.7631 23.8243 37.9885 23.7483 37.2116 23.7154C36.8224 23.7154 36.4332 23.6901 36.044 23.7154C35.6548 23.7406 35.2656 23.7154 34.8764 23.7558C33.3231 23.8498 31.7845 24.1108 30.287 24.5342C28.7926 24.9476 27.3572 25.5506 26.016 26.3285C24.6829 27.0829 23.5088 28.0888 22.5587 29.2904C22.1018 29.8853 21.7387 30.5467 21.4821 31.2516C21.3677 31.5923 21.2831 31.9424 21.2294 32.2978C21.1805 32.6613 21.167 33.0286 21.189 33.3946C21.215 33.7598 21.2742 34.1219 21.3659 34.4763C21.4672 34.8242 21.5992 35.1625 21.7601 35.4872C21.9267 35.8187 22.1194 36.1365 22.3363 36.4374C22.5595 36.7366 22.8027 37.0203 23.0642 37.2866C23.5917 37.8265 24.1803 38.3032 24.8181 38.7069C25.4617 39.1171 26.1379 39.4738 26.8399 39.7734C28.2553 40.373 29.7415 40.7892 31.2625 41.0117C34.3161 41.4717 37.4317 41.2997 40.4161 40.5063C41.8951 40.1105 43.3182 39.5297 44.6518 38.7776C45.9711 38.0415 47.1349 37.0562 48.0787 35.8764C48.3055 35.5846 48.5116 35.2772 48.6953 34.9565C48.872 34.6313 49.024 34.2934 49.1502 33.9456C49.272 33.6025 49.3617 33.2489 49.4181 32.8892C49.4687 32.5395 49.4856 32.1858 49.4687 31.8328V31.8177Z" fill="#232323"/>
<path d="M48.2105 36.609V40.602L47.8061 37.0184C47.4116 37.3792 46.9964 37.7167 46.5627 38.0293V44.9893L45.8197 38.5701C45.2587 38.9492 44.8543 39.1918 44.8543 39.1918L44.9503 52.9147C44.9503 52.9147 41.9531 54.3906 45.0919 52.9147C48.2307 51.4388 49.7268 48.0371 49.7268 48.0371C49.7268 48.0371 49.5095 35.684 49.6763 34.8955C49.5347 34.8652 48.6199 36.1693 48.2105 36.609Z" fill="#232323"/>
<path d="M43.7568 39.5713L43.5322 53.5552L44.3307 53.568L44.5553 39.5841L43.7568 39.5713Z" fill="#232323"/>
<path d="M42.377 54.0472L42.2607 42.0024L43.4789 53.9866L42.377 54.0472Z" fill="#232323"/>
<path d="M43.3175 22.1587C43.2426 22.4826 43.1429 22.8003 43.0193 23.1089C42.898 23.4122 42.7666 23.7104 42.62 24.0036C42.4734 24.2967 42.3117 24.5848 42.1399 24.8628C41.9673 25.1454 41.773 25.4142 41.5586 25.6665C41.6335 25.3442 41.7332 25.0282 41.8568 24.7213C41.9781 24.413 42.1146 24.1148 42.2612 23.8267C42.4077 23.5386 42.5644 23.2454 42.7363 22.9674C42.9117 22.6851 43.1059 22.4149 43.3175 22.1587Z" fill="#232323"/>
<path d="M28.2046 42.7861C28.349 42.3402 28.5868 41.9301 28.9021 41.5832C29.2017 41.2438 29.5411 40.9417 29.913 40.6835C30.2896 40.428 30.6929 40.2144 31.116 40.0466C31.5434 39.8714 31.9951 39.7623 32.4554 39.7231C32.1392 40.0378 31.8014 40.33 31.4445 40.5976C31.0907 40.8604 30.7369 41.103 30.3831 41.3456C30.0292 41.5882 29.6704 41.8207 29.3115 42.0532C28.9527 42.2858 28.6039 42.5334 28.2046 42.7861Z" fill="#232323"/>
<path d="M28.1392 42.104C28.2924 41.6677 28.5351 41.2683 28.8518 40.9314C29.1608 40.5933 29.5086 40.293 29.888 40.0367C30.2645 39.784 30.6659 39.5706 31.0859 39.3999C31.5082 39.2212 31.9543 39.1054 32.4102 39.0562C32.0816 39.3658 31.7338 39.6545 31.369 39.9205C31.0202 40.1782 30.6613 40.4259 30.3075 40.6635L29.236 41.3761L28.1392 42.104Z" fill="#232323"/>
<path d="M40.602 39.4621L39.3452 40.0791L40.5504 42.5337L41.8071 41.9166L40.602 39.4621Z" fill="#232323"/>
<path d="M54.5335 45.4348L50.9297 48.3058L53.8309 44.7222L54.5335 45.4348Z" fill="#232323"/>
<path d="M54.6196 47.3245L50.6519 49.3969L54.0586 46.4956L54.6196 47.3245Z" fill="#232323"/>
<path d="M29.8574 59.7535C30.173 59.4885 30.5113 59.2517 30.8683 59.0459C31.2269 58.8405 31.5964 58.6549 31.9752 58.4899C32.3557 58.3268 32.7456 58.1867 33.1428 58.0704C33.5439 57.9469 33.9576 57.8689 34.3761 57.8379C34.0226 58.0551 33.6582 58.2542 33.2843 58.4343C32.9204 58.6163 32.5514 58.7932 32.1724 58.9398C31.7933 59.0863 31.4192 59.2531 31.0351 59.3947C30.6501 59.5378 30.2568 59.6576 29.8574 59.7535Z" fill="white"/>
<path d="M29.5645 59.6325C29.8532 59.3248 30.1753 59.0501 30.5248 58.8137C30.8694 58.5768 31.2309 58.3656 31.6065 58.1819C31.9852 57.9993 32.3793 57.8505 32.7841 57.7371C33.1914 57.62 33.614 57.5655 34.0376 57.5754L32.9206 58.0808L31.844 58.6216L30.7371 59.1271C30.3277 59.3141 29.9638 59.4809 29.5645 59.6325Z" fill="#232323"/>
<path d="M23.8379 57.4081C23.984 57.2333 24.1542 57.0802 24.3433 56.9532C24.5176 56.8289 24.7039 56.7222 24.8993 56.6348C25.0921 56.5439 25.2936 56.4727 25.5008 56.4225C25.7168 56.3657 25.9397 56.3402 26.1629 56.3467C26.0122 56.511 25.8425 56.6569 25.6575 56.7814C25.4789 56.8959 25.2932 56.9988 25.1015 57.0897C24.9102 57.177 24.7125 57.2497 24.5101 57.307C24.2918 57.3714 24.0655 57.4054 23.8379 57.4081Z" fill="white"/>
<path d="M23.5444 57.2722C23.6934 57.06 23.8781 56.8753 24.0903 56.7263C24.2936 56.5784 24.5102 56.4498 24.7373 56.3421C24.9636 56.2361 25.1987 56.1499 25.4399 56.0844C25.6852 56.0133 25.9379 55.9709 26.193 55.958C26.0189 56.1518 25.8201 56.3217 25.6016 56.4635C25.392 56.5921 25.176 56.7102 24.9546 56.8173C24.7324 56.9208 24.5046 57.0119 24.2723 57.0902C24.0345 57.1686 23.7912 57.2295 23.5444 57.2722Z" fill="#232323"/>
<path d="M42.0438 58.344H41.9123L40.9419 60.6134C40.9419 60.6134 42.8676 60.3506 43.1103 59.8907L43.9038 57.8335C43.2964 58.0467 42.6749 58.2173 42.0438 58.344Z" fill="#232323"/>
<path d="M40.3089 58.3809L39.4033 60.8159L40.0618 61.0608L40.9674 58.6258L40.3089 58.3809Z" fill="#232323"/>
<path d="M31.6621 25.5755C32.5862 25.4313 33.5177 25.3402 34.4522 25.3026C35.39 25.2546 36.3297 25.2546 37.2675 25.3026C38.2105 25.3553 39.1492 25.4684 40.0778 25.6412C41.0161 25.8142 41.9365 26.0731 42.8274 26.4146C43.7384 26.7585 44.5908 27.241 45.3546 27.845C46.1408 28.4628 46.7768 29.2509 47.2147 30.1498C47.315 30.3808 47.4027 30.617 47.4775 30.8574C47.5493 31.1037 47.6001 31.3557 47.6291 31.6106C47.6773 32.108 47.6569 32.6097 47.5685 33.1016C47.4843 33.5898 47.3131 34.0589 47.063 34.4865C46.8237 34.9087 46.4743 35.2581 46.0521 35.4974C46.6382 34.8114 46.9591 33.9382 46.9569 33.0359C46.9735 32.6007 46.9413 32.165 46.8609 31.7369C46.8237 31.5306 46.7696 31.3278 46.6991 31.1304L46.5778 30.8372L46.4464 30.5441C46.0613 29.7616 45.5112 29.0718 44.834 28.5223C44.4832 28.2467 44.1095 28.0015 43.717 27.7894C43.3302 27.5648 42.9302 27.364 42.5191 27.1879C40.8182 26.5146 39.0351 26.071 37.217 25.8687C35.3744 25.6418 33.5183 25.5438 31.6621 25.5755Z" fill="white"/>
<path d="M25.728 41.5122L26.284 51.2168C27.2616 51.9486 28.3435 52.5296 29.4936 52.9403L28.9123 42.7455C27.8021 42.4737 26.7317 42.0591 25.728 41.5122Z" fill="white"/>
<path d="M30.4136 43.0894C30.8615 43.2121 31.3202 43.2917 31.7833 43.3269L32.3494 53.7492C31.8884 53.7139 31.4353 53.61 31.0049 53.4409L30.4136 43.0894Z" fill="white"/>
<path d="M12.8644 44.5449C13.1719 44.622 13.4595 44.7633 13.7085 44.9594C14.0897 45.2122 14.4452 45.5017 14.77 45.8237C15.0651 46.1146 15.342 46.4235 15.5989 46.7486C15.7089 46.9087 15.8053 47.0778 15.887 47.2541C15.9776 47.4417 16.0536 47.6361 16.1144 47.8354C16.1748 48.0322 16.2205 48.2332 16.2509 48.4368C16.2758 48.6332 16.2758 48.8319 16.2509 49.0282C16.2427 49.3879 16.1726 49.7436 16.0437 50.0795C15.9224 50.3828 15.8061 50.6557 15.6949 50.8984C15.5516 51.1382 15.3627 51.3477 15.1389 51.515C14.8692 51.7236 14.5568 51.8702 14.2241 51.9446C13.5814 52.1163 12.918 52.1979 12.2528 52.1872C11.4237 52.1888 10.5957 52.1262 9.77615 52.0002C8.86294 51.8638 7.96086 51.6611 7.07707 51.3937C6.17429 51.1258 5.29382 50.7878 4.4437 50.3828C3.63919 49.995 2.87553 49.5277 2.16414 48.9878C1.52302 48.5015 0.963399 47.9163 0.506279 47.2541C0.198195 46.8235 0.0225265 46.3123 0.000833287 45.7832C-0.00921231 45.3435 0.0716632 44.9064 0.238393 44.4994C0.373767 44.2051 0.530891 43.9212 0.708457 43.6503C0.896824 43.3693 1.10102 43.0993 1.32005 42.8416C1.53121 42.5937 1.75562 42.3575 1.99229 42.1339C2.20227 41.9346 2.42333 41.7473 2.65442 41.5729C2.87251 41.4402 3.10268 41.3285 3.34183 41.2393C3.543 41.1643 3.75132 41.1101 3.96353 41.0775C4.16153 41.0523 4.36195 41.0523 4.55995 41.0775C4.75708 41.0775 4.96431 41.1331 5.18671 41.1786C5.4091 41.2241 5.69215 41.305 5.95498 41.3909C6.21781 41.4769 6.46043 41.5678 6.73337 41.6639C7.00631 41.7599 7.23882 41.866 7.46121 41.9772C7.67209 42.0746 7.8779 42.1825 8.07786 42.3007L8.30025 42.4473C8.3632 42.4887 8.41384 42.5463 8.44683 42.6141C8.47955 42.687 8.48839 42.7684 8.4721 42.8466C8.4516 42.9769 8.41066 43.1031 8.3508 43.2206C8.22787 43.4734 8.07331 43.7095 7.89084 43.9232C7.7357 44.1037 7.54902 44.2544 7.3399 44.368C7.13564 44.474 6.91537 44.5457 6.68788 44.5803C6.42105 44.614 6.15105 44.614 5.88422 44.5803C5.65333 44.5598 5.42382 44.5261 5.19681 44.4792C4.86502 44.3948 4.52696 44.3374 4.18592 44.3073C4.06146 44.2845 3.93324 44.2933 3.81309 44.333C3.69295 44.3728 3.58476 44.4422 3.49852 44.5348C3.37216 44.7168 3.44292 44.9796 3.71586 45.3182C4.06212 45.7177 4.45206 46.0771 4.87838 46.3898C5.42272 46.8027 5.99716 47.1744 6.5969 47.5018C7.19323 47.834 7.80934 48.1294 8.44178 48.3863C9.04158 48.6105 9.65226 48.8045 10.2715 48.9676C10.823 49.1163 11.3835 49.2294 11.9496 49.3062C12.3732 49.3655 12.8023 49.3757 13.2283 49.3365C13.5771 49.2961 13.7843 49.19 13.8602 49.0181C14.0219 48.6896 13.5771 48.078 12.6319 47.1429C12.3274 46.8809 12.1246 46.5202 12.059 46.1238C11.9934 45.7275 12.0692 45.3207 12.2731 44.9745C12.4297 44.6359 12.637 44.4994 12.8644 44.5449Z" fill="#232323"/>
<path d="M16.1752 40.2537C16.1752 40.8653 16.2258 41.4415 16.2763 41.9975C16.3084 42.164 16.3236 42.3334 16.3218 42.503C16.3206 42.6151 16.3001 42.7263 16.2611 42.8315C16.228 42.9084 16.1837 42.9799 16.1297 43.0438C16.0806 43.0977 16.0264 43.1468 15.968 43.1904C15.8433 43.3021 15.7098 43.4036 15.5687 43.4936L15.0632 43.8474C14.8973 43.9577 14.7093 44.0302 14.5123 44.0597C14.2738 44.0872 14.0321 44.0542 13.8097 43.9637C13.3902 43.8272 12.8898 43.6554 12.3237 43.4583C11.7576 43.2611 11.141 43.0084 10.494 42.7405C9.84703 42.4726 9.17984 42.1946 8.47222 41.8914C7.76459 41.5881 7.12268 41.2798 6.45043 40.9563C5.77819 40.6328 5.17166 40.3144 4.58534 40.001C3.99902 39.6876 3.53907 39.349 3.03362 39.0659C2.77584 38.8789 2.65454 38.7071 2.66465 38.5605C2.71965 38.3082 2.84802 38.0778 3.03362 37.8984C3.28012 37.5958 3.54693 37.3104 3.83222 37.0441C4.11471 36.7665 4.42271 36.516 4.75214 36.2961C4.96361 36.151 5.20281 36.0512 5.45471 36.0029C5.66082 36.0048 5.85823 36.0863 6.00564 36.2304C6.48581 36.6044 7.01653 37.0037 7.64834 37.4182C8.28015 37.8326 8.91195 38.2522 9.58925 38.6767C10.2665 39.1013 10.9641 39.5107 11.6717 39.91C12.3793 40.3093 13.0667 40.6834 13.7339 41.0321C13.7369 40.6351 13.7623 40.2385 13.8097 39.8443C13.8603 39.4854 13.9209 39.0963 14.0068 38.6767C14.0339 38.4846 14.1048 38.3013 14.2141 38.141C14.3267 38.0072 14.4854 37.9206 14.6589 37.8984C14.846 37.8533 15.0376 37.8296 15.23 37.8276C15.3983 37.8154 15.5672 37.8154 15.7355 37.8276C15.8721 37.8179 16.0082 37.8515 16.1247 37.9236C16.1803 37.9742 16.2005 38.146 16.1954 38.4291C16.1752 39.0508 16.1752 39.6472 16.1752 40.2537Z" fill="#232323"/>
<path d="M9.89265 29.1494C10.0639 29.1713 10.2217 29.2538 10.3374 29.3819C10.5902 29.6549 10.8934 29.9632 11.2422 30.3018C11.5909 30.6405 11.9801 30.9943 12.3997 31.3532C12.8192 31.712 13.2589 32.081 13.7189 32.45C14.1788 32.819 14.6438 33.1778 15.0987 33.5266C15.5536 33.8753 16.0035 34.2039 16.4281 34.5071C16.8526 34.8104 17.2368 35.0732 17.5805 35.3057C17.6849 35.3705 17.7622 35.4712 17.7978 35.5888C17.7996 35.7414 17.7517 35.8904 17.6613 36.0134C17.54 36.2105 17.4238 36.3925 17.3075 36.5694C17.1948 36.738 17.0662 36.8954 16.9234 37.0394C16.8112 37.1739 16.6557 37.265 16.4837 37.2972C16.2884 37.2999 16.0962 37.2492 15.9277 37.1506C15.6244 37.0192 15.2403 36.8322 14.7651 36.5896C14.29 36.347 13.7896 36.0841 13.2488 35.7708C12.708 35.4574 12.1368 35.1389 11.5505 34.7902C10.9642 34.4414 10.4031 34.0876 9.86232 33.7439C9.3215 33.4002 8.82111 33.0616 8.34599 32.733C7.87087 32.4045 7.48673 32.1164 7.15819 31.8586C6.96612 31.6817 6.88525 31.5149 6.92568 31.3532C7.01503 31.1193 7.1672 30.9147 7.36542 30.7618C7.92545 30.2348 8.5465 29.7766 9.21535 29.3971C9.42099 29.2674 9.65187 29.183 9.89265 29.1494Z" fill="#232323"/>
<path d="M18.4245 27.1271C18.748 27.0614 19.0563 26.9906 19.3545 26.9198C19.6527 26.8491 19.9206 26.7783 20.1734 26.7076C20.4261 26.6368 20.6333 26.566 20.8052 26.5003C20.977 26.4346 21.0832 26.4195 21.1236 26.5003C21.1691 26.6295 21.1691 26.7704 21.1236 26.8996C21.1008 27.0402 21.067 27.1788 21.0225 27.3141C20.977 27.4653 20.923 27.6138 20.8608 27.7589C20.7931 27.9871 20.6908 28.2036 20.5575 28.4008C20.4027 28.619 20.1835 28.7833 19.9307 28.8709L19.4253 29.0629C19.213 29.1438 18.9805 29.2247 18.7126 29.3106L17.8534 29.5785C17.545 29.6695 17.2418 29.7453 16.9486 29.811C17.3378 30.1496 17.7068 30.4529 18.0454 30.7259L18.9805 31.4638C19.0866 31.5194 19.1473 31.5801 19.1625 31.6559C19.1714 31.7498 19.1539 31.8443 19.1119 31.9288C19.0534 32.0537 18.9823 32.1722 18.8996 32.2826C18.7985 32.414 18.6924 32.5606 18.5812 32.7224C18.4198 32.9756 18.2039 33.1897 17.9494 33.3491C17.8347 33.398 17.7098 33.418 17.5855 33.4074C17.4613 33.3969 17.3415 33.356 17.2367 33.2885C16.9739 33.157 16.6352 32.9751 16.2258 32.7325C15.8164 32.4899 15.3666 32.227 14.8813 31.9238C14.3961 31.6205 13.8957 31.3273 13.3852 30.9634C12.8747 30.5995 12.3743 30.276 11.9093 29.9525C11.4443 29.629 10.9995 29.2853 10.5952 28.972C10.1908 28.6586 9.85216 28.3806 9.58427 28.1329C9.51564 28.0771 9.46542 28.002 9.44017 27.9172C9.41493 27.8324 9.41582 27.742 9.44275 27.6578C9.55332 27.4419 9.71678 27.2576 9.91787 27.122C10.2174 26.8692 10.5331 26.6362 10.863 26.4245C11.1778 26.2097 11.5071 26.0172 11.8487 25.8483C12.0155 25.7674 12.1519 25.7017 12.2631 25.6562C12.352 25.6196 12.4456 25.5957 12.5411 25.5855C12.6115 25.5787 12.6818 25.5986 12.7383 25.6411C12.8007 25.6916 12.8552 25.7513 12.9 25.818C13.1274 26.1111 13.4054 26.4245 13.734 26.7733C14.0625 27.122 14.4416 27.491 14.8611 27.8954C14.7807 27.3712 14.7284 26.8431 14.7044 26.3133C14.6741 25.7523 14.6691 25.2064 14.7044 24.6858C14.7398 24.1652 14.7499 23.6749 14.7904 23.225C14.8308 22.7752 14.8763 22.4113 14.9066 22.1181C14.9133 21.9491 14.9859 21.7895 15.1088 21.6733C15.2733 21.5304 15.4638 21.4206 15.6698 21.3498C15.9105 21.2644 16.1596 21.2051 16.4128 21.1729C16.6352 21.1729 16.8677 21.1325 17.0952 21.1274C17.2327 21.1306 17.3642 21.1846 17.4642 21.2791C17.5645 21.4143 17.613 21.5812 17.6006 21.7491C17.6193 22.1027 17.6193 22.457 17.6006 22.8106C17.5703 23.2402 17.54 23.7002 17.5147 24.2006C17.4894 24.7009 17.4743 25.2114 17.4692 25.7523C17.4642 26.2931 17.4692 26.8036 17.5147 27.2686C17.7927 27.2484 18.1061 27.1928 18.4245 27.1271Z" fill="#232323"/>
</svg>
