<svg width="115" height="115" viewBox="0 0 115 115" fill="none" xmlns="http://www.w3.org/2000/svg">
<path d="M4.5022 53.2691C11.847 55.4067 21.2735 64.0621 12.2407 75.33C18.4451 71.74 27.505 69.2553 33.628 74.3023C39.7509 79.3494 33.9855 93.7918 33.9855 93.7918C33.9855 93.7918 45.7878 85.1136 50.7296 92.7915C54.703 98.9713 58.1921 111.29 58.1921 111.29C58.1921 111.29 58.4546 94.2394 62.7718 93.0199C67.0891 91.8003 74.4475 101.698 74.4475 101.698C74.4475 101.698 70.0442 88.7812 73.7596 84.7573C77.475 80.7333 86.8834 76.7779 111.067 95.2625C100.727 83.3871 93.8481 68.8442 97.1064 60.7415C100.365 52.6388 107.633 55.8452 107.633 55.8452C107.633 55.8452 96.2194 36.8901 101.749 30.0435C94.993 32.1491 87.3043 31.9116 85.4172 27.8648C83.53 23.818 88.241 21.7352 88.241 21.7352C88.241 21.7352 80.9641 20.2736 77.8325 14.1715C76.3952 11.2535 75.9881 7.92757 76.6785 4.74422C71.4743 9.69536 68.5599 10.9514 66.2247 9.73647C63.8896 8.52152 62.9981 3.21411 62.9981 3.21411C61.464 7.84553 56.6534 11.8649 53.6576 12.413C49.6526 13.1575 45.4122 10.6911 43.0092 6.67169C42.8282 11.2985 42.6653 19.5702 34.5331 21.7444C27.8942 23.5166 5.27152 11.6959 5.27152 11.6959C5.27152 11.6959 23.8258 27.0792 20.3141 38.5527C16.8024 50.0262 4.5022 53.2691 4.5022 53.2691Z" fill="#FFA219"/>
<path d="M17.4946 51.8762C23.0881 53.4474 30.2881 59.7231 23.4727 67.803C28.1747 65.2452 35.0534 63.4913 39.7281 67.159C44.4029 70.8266 40.0856 81.1994 40.0856 81.1994C40.0856 81.1994 49.0234 74.9967 52.8067 80.5508C55.8523 85.0224 58.5585 93.9107 58.5585 93.9107C58.5585 93.9107 58.6852 81.6287 61.9617 80.7655C65.2381 79.9022 70.8768 87.0823 70.8768 87.0823C70.8768 87.0823 67.4736 77.7555 70.2794 74.8734C73.0852 71.9913 80.2354 69.1823 98.6902 82.5925C90.7797 74.001 85.4849 63.4821 87.9287 57.6632C90.3724 51.8442 95.9115 54.1782 95.9115 54.1782C95.9115 54.1782 87.1503 40.4757 91.3363 35.5657C86.209 37.0501 80.3621 36.8446 78.9094 33.9214C77.4568 30.9982 81.0274 29.5184 81.0274 29.5184C81.0274 29.5184 75.4882 28.4313 73.0897 24.0374C71.9894 21.955 71.6682 19.5427 72.1846 17.241C68.2475 20.7853 66.0391 21.6806 64.2606 20.7945C62.4821 19.9084 61.7625 16.0671 61.7625 16.0671C60.6085 19.406 56.9565 22.2743 54.6938 22.6626C51.6482 23.1787 48.417 21.3837 46.548 18.4788C46.4303 21.8085 46.3398 27.769 40.1671 29.2991C35.1529 30.546 17.9019 21.9363 17.9019 21.9363C17.9019 21.9363 32.0711 33.1038 29.4509 41.3527C26.8306 49.6016 17.4946 51.8762 17.4946 51.8762Z" fill="#FFD833"/>
<path d="M103.306 28.9882L101.596 29.518C95.3279 31.4684 87.698 31.4684 85.9059 27.6271C85.6908 27.2168 85.5616 26.7662 85.5266 26.3034C85.4916 25.8405 85.5514 25.3754 85.7023 24.9369C86.3539 23.1875 88.4402 22.2375 88.4628 22.2283L90.0196 21.5478L88.3316 21.1961C88.2592 21.1961 81.2673 19.7071 78.3032 13.9155C76.9382 11.1154 76.5476 7.93274 77.1944 4.88106L77.6832 3.05407L76.3256 4.36494C71.4879 8.96439 68.6323 10.3849 66.4918 9.27041C64.7721 8.35691 63.7765 4.5385 63.5457 3.13629L63.1837 0.994141L62.5003 3.04494C60.939 7.72204 56.1647 11.408 53.5626 11.8921C49.897 12.5727 45.8422 10.3666 43.4708 6.41117L42.5431 4.85823L42.4617 6.93186C42.2852 11.5222 42.0091 19.2047 34.3928 21.2372C28.03 22.918 5.7422 11.3486 5.51592 11.2299L0.990479 8.8639L4.92762 12.1342C5.11316 12.2849 23.1606 27.417 19.7982 38.4064C16.4358 49.3957 4.48412 52.7117 4.36646 52.7437L2.46125 53.2461L4.35288 53.7942C7.70411 54.7777 10.6874 56.75 12.9196 59.4579C13.8183 60.578 14.5055 61.8552 14.9469 63.226C16.119 66.9805 15.0646 70.9359 11.8199 74.9827L10.0097 77.2436L12.5077 75.7957C18.7845 72.1646 27.5367 69.9768 33.2886 74.7224C39.0404 79.468 33.542 93.449 33.4832 93.5815L32.7817 95.34L34.3023 94.2255C34.3702 94.1753 41.0542 89.32 46.2132 90.2838C47.0495 90.4337 47.8449 90.7608 48.5469 91.2434C49.2489 91.7259 49.8416 92.3531 50.2861 93.0836C54.1645 99.1264 57.6445 111.312 57.6762 111.431L58.6763 114.966L58.7352 111.29C58.8347 104.859 60.0611 94.3443 62.9212 93.5312C66.1659 92.6178 72.0309 99.3593 74.0221 102.036L76.0767 104.804L74.9634 101.533C74.9181 101.406 70.705 88.877 74.1579 85.1362C76.5971 82.4962 80.1315 81.4822 84.6659 82.1126C91.4089 83.058 100.184 87.6209 110.746 95.6871L115 98.93L111.479 94.8924C100.387 82.1719 94.6853 68.2092 97.6087 60.9377C98.5636 58.5672 99.962 56.9869 101.772 56.2424C104.56 55.1005 107.393 56.32 107.424 56.3337L108.981 57.0188L108.099 55.5527C107.986 55.3654 96.9435 36.8488 102.188 30.3767L103.306 28.9882ZM85.5348 29.0704C88.0827 32.2996 94.5857 32.5143 100.546 30.9522C97.3281 37.6299 104.166 50.8208 106.465 54.9086C104.766 54.4947 102.983 54.6109 101.351 55.2421C99.265 56.0962 97.663 57.8775 96.595 60.5312C94.9975 64.5049 95.6492 70.1229 98.4821 76.8006C100.591 81.7654 103.845 87.1139 107.818 92.1838C87.2002 77.4354 77.7103 79.6827 73.3569 84.3963C70.5058 87.4885 72.0445 95.1573 73.1396 99.2452C72.4382 98.4276 71.5603 97.4593 70.5918 96.5047C67.2882 93.2709 64.6047 91.9372 62.6135 92.4807C60.6223 93.0243 59.1651 96.3448 58.3188 102.529C58.0428 104.543 57.8663 106.535 57.7803 108.111C56.486 104.041 53.9653 96.8381 51.1731 92.4899C50.6534 91.635 49.9599 90.9011 49.1385 90.3366C48.3171 89.7721 47.3864 89.3898 46.4078 89.215C42.2309 88.4339 37.357 90.9826 35.049 92.4122C36.3749 88.4568 39.1626 78.148 33.9674 73.8637C31.0575 71.4658 27.3376 70.5066 22.9027 71.0181C19.8177 71.4305 16.822 72.3566 14.0373 73.7586C16.3815 70.0818 17.0558 66.3639 15.9742 62.9017C14.5306 58.284 10.2586 54.8904 6.19474 53.2826C8.01344 52.5974 9.7574 51.725 11.399 50.6792C14.6845 48.5873 18.9882 44.8145 20.8527 38.7306C22.3415 33.7886 20.2191 27.6545 14.5306 20.4973C12.6757 18.1928 10.6775 16.0097 8.54797 13.9612C15.2275 17.2178 29.4601 23.6671 34.6688 22.274C42.258 20.2461 43.231 13.0569 43.4799 8.32951L43.5975 8.47567C46.254 11.851 50.1594 13.6187 53.7572 12.9518C56.6897 12.4083 60.8531 9.02833 62.8624 4.97698C63.3421 6.73089 64.3196 9.34806 65.9894 10.2159C68.4558 11.4993 71.2933 10.3757 75.9002 6.21477C75.5924 9.04065 76.1016 11.896 77.3664 14.4362C79.7966 19.1864 84.5664 21.2098 86.8699 21.936C85.9116 22.5739 85.1608 23.4826 84.7112 24.5486C84.5056 25.123 84.4203 25.7341 84.4608 26.3434C84.5013 26.9528 84.6667 27.547 84.9465 28.0884C85.1039 28.4379 85.3013 28.7675 85.5348 29.0704Z" fill="#232323"/>
</svg>
