<svg width="20" height="20" viewBox="0 0 20 20" fill="none" xmlns="http://www.w3.org/2000/svg">
<rect y="1.90479" width="19.0478" height="17.1431" rx="3" fill="#232323"/>
<circle cx="14.2856" cy="14.2856" r="5.71435" fill="white"/>
<path fill-rule="evenodd" clip-rule="evenodd" d="M14.2856 11.4287C14.8116 11.4287 15.238 11.8551 15.238 12.3811V13.8914L16.3877 15.041C16.7596 15.413 16.7596 16.016 16.3877 16.3879C16.0157 16.7598 15.4127 16.7598 15.0408 16.3879L13.6122 14.9593C13.4336 14.7807 13.3333 14.5385 13.3333 14.2859V12.3811C13.3333 11.8551 13.7597 11.4287 14.2856 11.4287Z" fill="#232323"/>
<path fill-rule="evenodd" clip-rule="evenodd" d="M4.76196 0C5.28795 0 5.71435 0.4264 5.71435 0.952392V2.85718C5.71435 3.38317 5.28795 3.80957 4.76196 3.80957C4.23597 3.80957 3.80957 3.38317 3.80957 2.85718V0.952392C3.80957 0.4264 4.23597 0 4.76196 0Z" fill="white"/>
<path fill-rule="evenodd" clip-rule="evenodd" d="M14.2856 0C14.8116 0 15.238 0.4264 15.238 0.952392V2.85718C15.238 3.38317 14.8116 3.80957 14.2856 3.80957C13.7597 3.80957 13.3333 3.38317 13.3333 2.85718V0.952392C13.3333 0.4264 13.7597 0 14.2856 0Z" fill="white"/>
</svg>
