<svg width="72" height="64" viewBox="0 0 72 64" fill="none" xmlns="http://www.w3.org/2000/svg">
<path d="M62.8304 28.1539C59.8742 24.7782 54.8247 23.179 50.869 21.3546C48.306 20.1719 45.7757 18.9189 43.3762 17.4731C39.2358 14.7364 35.8197 11.1843 31.9017 7.97541C28.0654 4.83391 23.6934 4.27135 19.1336 6.07621C11.5135 9.09418 7.46753 18.4869 10.996 25.9269C12.8457 29.8257 16.6256 33.0403 19.8744 35.735C21.4681 37.0557 23.1248 38.294 24.8346 39.4582C23.5108 41.1461 21.4181 41.9778 19.252 42.5183C19.1955 42.5328 19.1436 42.5618 19.1015 42.6022C19.0594 42.6427 19.0285 42.6933 19.0117 42.7492C18.9949 42.8052 18.9928 42.8645 19.0056 42.9214C19.0185 42.9784 19.0458 43.0311 19.0849 43.0744C22.2041 46.526 28.1456 46.5426 31.4477 43.4539C32.0862 43.7956 32.7286 44.1287 33.375 44.4534C40.6588 48.0971 52.4005 52.5348 59.9454 47.2208C65.5593 43.2771 67.4231 33.3978 62.8304 28.1539Z" fill="#232323"/>
<path d="M29.77 9.24391C27.7558 6.81716 22.2488 5.62192 19.7428 7.95192C19.6975 7.99435 19.739 8.08513 19.8037 8.06426C23.3868 6.88915 26.4038 7.58395 29.6439 9.39927C29.6645 9.41599 29.6909 9.42384 29.7173 9.42109C29.7437 9.41834 29.7679 9.40523 29.7846 9.38462C29.8013 9.36402 29.8092 9.33762 29.8064 9.31124C29.8037 9.28485 29.7906 9.26063 29.77 9.24391ZM31.0528 10.3096C31.1976 10.3619 31.3065 10.1922 31.2477 10.0686C31.1112 9.79259 30.7418 9.60638 30.4573 9.72701C30.4455 9.73273 30.4353 9.74117 30.4275 9.75163C30.4197 9.76209 30.4145 9.77426 30.4123 9.78714C30.4102 9.80002 30.4111 9.81323 30.4151 9.82567C30.4191 9.83811 30.4259 9.84941 30.4352 9.85865C30.6246 10.02 30.812 10.2225 31.0528 10.3096ZM58.7846 45.5129C55.3644 46.8361 52.4132 47.5719 48.7151 47.29C45.6495 47.0586 42.7512 46.0059 39.7181 45.6242C39.6567 45.6163 39.6534 45.7047 39.7035 45.7249C45.128 47.9262 53.8735 49.6493 58.8746 45.6373C58.9485 45.5779 58.863 45.487 58.786 45.5138L58.7846 45.5129ZM61.1215 43.7407C61.1205 43.7278 61.1165 43.7153 61.1097 43.7042C61.103 43.6932 61.0937 43.6839 61.0826 43.6771C61.0716 43.6703 61.0591 43.6663 61.0462 43.6653C61.0333 43.6642 61.0203 43.6663 61.0083 43.6713C60.7088 43.8462 60.5086 44.1176 60.2599 44.3506C60.022 44.5739 59.7536 44.7545 59.6127 45.0594C59.5948 45.0964 59.6132 45.1558 59.6645 45.1536C60.3015 45.1011 61.1867 44.4355 61.1264 43.7437L61.1215 43.7407ZM21.8736 35.3884C20.2042 33.5549 18.142 32.1044 16.372 30.3659C14.2209 28.2532 12.726 25.8075 11.4686 23.0921C11.4503 23.053 11.3926 23.0782 11.4009 23.1179C12.4844 28.2659 17.3915 32.9315 21.7919 35.4903C21.8056 35.4976 21.8214 35.4999 21.8366 35.4968C21.8518 35.4937 21.8654 35.4854 21.8751 35.4733C21.8848 35.4612 21.8899 35.4461 21.8897 35.4306C21.8894 35.4151 21.8837 35.4002 21.8736 35.3884ZM63.3017 31.8815C63.6227 32.8206 63.6644 33.8202 63.8325 34.7906C63.8363 34.8035 63.844 34.8149 63.8547 34.8232C63.8653 34.8314 63.8783 34.836 63.8918 34.8363C63.9052 34.8366 63.9184 34.8326 63.9294 34.8248C63.9404 34.8171 63.9487 34.8061 63.953 34.7933C64.3775 33.0134 63.5334 29.991 61.7712 29.1284C61.7419 29.1104 61.6896 29.1456 61.7155 29.1817C62.3505 30.0635 62.9479 30.8328 63.3017 31.8815ZM28.9325 43.3036C28.2189 43.5264 27.5265 43.8104 26.81 44.0208C26.0282 44.2499 25.2187 44.2418 24.4273 44.3987C24.4162 44.4016 24.4062 44.4076 24.3985 44.4161C24.3908 44.4245 24.3857 44.4351 24.3838 44.4464C24.382 44.4577 24.3835 44.4693 24.3881 44.4798C24.3928 44.4902 24.4004 44.4991 24.41 44.5054C25.1203 44.8632 25.9741 44.733 26.7244 44.5789C27.5851 44.403 28.3957 44.08 28.9998 43.4275C29.0459 43.3789 29.0074 43.2803 28.9325 43.3036ZM23.6674 44.3633C23.5695 44.3002 23.455 44.2676 23.3386 44.2699C23.2221 44.2721 23.109 44.3089 23.0136 44.3757C22.9962 44.3925 22.986 44.4153 22.9853 44.4395C22.9845 44.4636 22.9931 44.487 23.0094 44.5049C23.0894 44.5805 23.1865 44.6356 23.2925 44.6655C23.3985 44.6953 23.5101 44.6989 23.6178 44.6761C23.6503 44.6676 23.6797 44.6498 23.7023 44.6248C23.7248 44.5998 23.7396 44.5688 23.7448 44.5355C23.75 44.5022 23.7454 44.4682 23.7315 44.4375C23.7176 44.4069 23.6951 44.3809 23.6667 44.3629L23.6674 44.3633Z" fill="white"/>
<path d="M35.0121 22.311C34.816 22.6306 34.6235 22.7875 34.3472 22.618C34.1374 22.4893 34.1027 22.2023 34.2171 22.0158C34.3944 21.6893 34.5959 21.3683 34.7899 21.052C34.8982 20.8755 35.0097 20.7011 35.1397 20.4967C35.1641 19.8517 35.1908 19.2403 35.2229 18.6277C35.2476 18.1616 35.2797 17.691 35.3097 17.2236C35.3242 16.9759 35.3074 16.7044 35.4381 16.4913C35.5157 16.3648 35.6362 16.3103 35.7977 16.3086C36.0461 16.3143 36.1299 16.5215 36.154 16.7287C36.1783 16.9132 36.1663 17.1121 36.1514 17.2633C36.1153 17.7407 36.0845 18.2167 36.0517 18.6961C36.0307 19.059 36.0164 19.426 35.9643 20.0264L36.1678 19.9038C36.7804 19.5326 37.3956 19.1721 37.9936 18.7874C38.2255 18.6409 38.4367 18.4909 38.6499 18.3376C38.7874 18.2478 38.9422 18.2419 39.0821 18.3277C39.2786 18.4482 39.3593 18.6902 39.249 18.87C39.1162 19.0864 38.851 19.2125 38.6475 19.3351C37.712 19.9115 36.7883 20.5135 35.8099 21.0177L35.7769 21.0342C35.5086 21.4791 35.2653 21.8981 35.0121 22.311ZM38.1068 22.1516C37.869 22.487 37.7362 22.8454 37.8059 23.2548C37.863 23.5876 38.0183 23.9395 38.3346 24.1336C38.651 24.3276 39.0263 24.3058 39.3481 24.2145C39.7203 24.1083 40.0151 23.7621 40.1928 23.4724C40.54 22.9063 40.7453 22.0562 40.0094 21.6048C39.3635 21.2086 38.4988 21.5947 38.1068 22.1516ZM37.4692 21.7193C38.1391 20.7692 39.416 20.3609 40.4016 20.9655C40.8344 21.231 41.1124 21.5848 41.2275 22.077C41.367 22.6712 41.2039 23.3181 40.8772 23.8509C40.7076 24.1273 40.4948 24.3771 40.2423 24.5796C39.6232 25.066 38.8227 25.1982 38.1177 24.8758C38.0603 24.8497 38.0037 24.815 37.9471 24.7803C37.4643 24.4841 37.1536 23.982 37.054 23.4122C36.9609 22.8693 37.0663 22.3612 37.3543 21.8917C37.3911 21.8318 37.4291 21.7772 37.4692 21.7193ZM45.5676 24.6612C45.1927 25.1828 44.8324 25.7179 44.4974 26.264C44.2687 26.6369 44.0392 27.0185 43.8424 27.4065C43.7891 27.5159 43.7465 27.6226 43.6832 27.7259C43.5219 27.9889 43.3488 28.0844 43.1157 27.9414C42.9392 27.8331 42.8956 27.6277 42.9921 27.4257L43.0783 27.2403L42.8759 27.249C42.4785 27.2619 41.9051 27.1209 41.5687 26.9146C41.3157 26.7594 41.0909 26.5207 41.0058 26.2486C40.9037 25.9294 40.9552 25.5989 41.0804 25.2678C41.2083 24.9247 41.4052 24.5964 41.5729 24.3006C41.6492 24.1686 41.7276 24.0334 41.8072 23.9036C42.0421 23.5206 42.3352 23.0726 42.639 22.7641C42.7683 22.628 42.9602 22.599 43.1134 22.693C43.3232 22.8217 43.3263 23.0481 43.214 23.2313C43.1527 23.3312 43.0755 23.4122 43.003 23.5005C42.8104 23.7398 42.639 23.9968 42.4777 24.2598C42.2775 24.5861 42.116 24.872 41.9564 25.1545C41.7157 25.5842 41.5649 26.0095 42.0377 26.2995C42.3573 26.4956 42.7634 26.6255 43.1221 26.5339C43.4055 26.4603 43.59 26.2939 43.733 26.0609C43.8004 25.951 43.8624 25.8424 43.9278 25.7358C44.1933 25.303 44.4821 24.8844 44.7776 24.4699C44.8659 24.3408 44.9712 24.1991 45.0913 24.1078C45.2431 23.9948 45.3735 24.0289 45.4864 24.1211C45.6597 24.2869 45.7078 24.4401 45.5975 24.6199C45.5893 24.6333 45.5791 24.6499 45.5676 24.6612ZM48.226 26.7821C48.1374 26.792 48.032 26.7547 47.8952 26.6938C47.7444 26.6333 47.6097 26.5691 47.4605 26.5509C47.158 26.5211 46.78 26.5321 46.4983 26.7672C46.3626 26.8764 46.2814 27.0237 46.2018 27.1536C46.0915 27.3334 45.9866 27.5119 45.8783 27.6884C45.6884 27.998 45.4938 28.3003 45.3039 28.61C45.1732 28.8231 45.0828 28.9555 44.8929 28.9811C44.8044 28.991 44.7268 28.9755 44.6569 28.9326C44.4771 28.8223 44.4212 28.5772 44.5356 28.3907C44.7621 28.0439 44.9913 27.6851 45.2078 27.3321C45.4591 26.9225 45.709 26.5076 45.9556 26.0906C46.1409 25.7735 46.35 25.2832 46.6307 25.0796C46.7373 25.0029 46.8555 24.9746 47.0153 25.0726C47.2018 25.187 47.2308 25.4385 47.0863 25.6294L46.9065 25.8628L47.1956 25.8247C47.5927 25.775 48.0109 25.8253 48.3405 26.0275C48.5869 26.1787 48.6458 26.3293 48.4987 26.569C48.4293 26.6823 48.3232 26.773 48.226 26.7821ZM22.0517 21.1321L21.3846 21.9396C21.6853 22.0209 21.9795 22.1464 22.2592 22.318C23.0633 22.8112 23.5029 23.5963 23.5047 24.3329C23.5093 25.0987 23.3617 25.7987 22.9819 26.4181C22.2956 27.5369 20.6619 28.3289 18.8988 27.2474C18.0497 26.7266 17.397 25.852 17.3328 25.0152C17.3086 24.7186 17.3669 24.4106 17.517 24.1659C17.8111 23.6864 18.4125 23.636 18.8221 23.8872C19.0918 24.0526 19.2 24.2909 19.2361 24.5123C19.2903 24.8274 19.139 25.0852 19.3424 25.3474C19.4724 25.5165 19.678 25.6632 19.8079 25.7429C20.5621 26.2055 21.0879 25.875 21.4371 25.3056C21.5352 25.1458 21.6503 24.8796 21.6841 24.6116C21.733 24.2292 21.5868 23.9745 21.2871 23.7907C20.9425 23.5793 20.4894 23.4664 20.0966 23.4454C19.8406 23.4259 19.5304 23.3937 19.2407 23.216C18.7812 22.9341 18.6663 22.3481 18.9936 21.9715C19.2051 21.7163 19.4016 21.4519 19.6051 21.1986C19.9978 20.704 20.3875 20.2144 20.7822 19.7279C20.7838 19.5571 20.8366 19.4038 20.9101 19.284C21.1031 18.9693 21.5519 18.7084 22.1163 19.0546C22.2661 19.1465 22.4117 19.2564 22.5585 19.3533C23.1034 19.7425 23.639 20.0573 24.1757 20.359C24.4964 20.542 24.8398 20.677 25.1495 20.867C25.634 21.1641 25.8662 21.6709 25.5751 22.1454C25.4005 22.4301 24.9932 22.6683 24.4874 22.4955C23.9685 22.3216 23.1863 21.8487 22.7368 21.5729C22.507 21.432 22.2754 21.283 22.0517 21.1321ZM31.2893 34.7718C30.6179 34.7793 30.2251 34.1534 30.3064 33.5503C30.3588 33.2181 30.5333 32.844 30.6857 32.5732C30.9277 32.1786 31.2211 31.678 31.0362 31.2621C30.9623 31.1137 30.8112 30.9454 30.6128 30.7756C30.1047 30.3265 29.5706 29.9645 29.0883 29.5518C28.6931 30.1961 28.2898 30.8424 27.8946 31.4867C27.7874 31.6615 27.6284 31.8871 27.4041 32.0175C27.1686 32.1549 26.8527 32.188 26.4731 31.9552C25.8937 31.5998 25.9508 31.0024 26.2541 30.5079C26.5451 30.0334 26.8412 29.562 27.1322 29.0875C27.4355 28.593 27.7338 28.0955 28.0371 27.601C28.4752 26.8868 28.9133 26.1726 29.3614 25.4645C29.6287 25.051 29.86 24.6292 30.1754 24.3278C30.5009 24.0325 30.9035 23.9701 31.4379 24.2979L31.5278 24.3531C31.9601 24.6457 32.4592 24.9863 32.9311 25.3376C33.4049 25.6969 33.8634 26.0813 34.2133 26.4746C35.2242 27.617 35.4086 28.7956 34.7928 29.7995C34.5171 30.249 34.0512 30.6163 33.4499 30.7562C33.2001 30.816 32.9502 30.7864 32.7102 30.763C33.1751 31.8317 32.7969 32.7958 32.3251 33.565C32.1566 33.8397 32.1394 34.1591 31.977 34.4238C31.8392 34.6485 31.6129 34.7709 31.2893 34.7718ZM29.9829 28.0934C30.6367 28.4394 31.2733 28.8024 31.9952 28.9703C32.4825 29.0835 33.0022 29.0655 33.186 28.7658C33.3851 28.4412 33.1742 28.0231 32.8212 27.6347C32.4067 27.1674 31.7093 26.6571 31.1333 26.2626C30.7365 26.8647 30.3597 27.479 29.9829 28.0934ZM35.2127 35.2674C35.5024 35.4451 35.9305 35.5427 36.256 35.5499C36.7282 35.5646 37.013 35.5262 37.4217 34.9383C37.1932 34.8737 36.9186 34.7947 36.5991 34.688C36.3287 34.5909 36.0503 34.4958 35.8406 34.4565C35.5327 34.3983 35.2276 34.4586 35.0224 34.7932C34.9121 34.973 34.9729 35.1203 35.2127 35.2674ZM36.7598 38.2923C36.3153 38.0196 36.256 37.612 36.3482 37.1255C35.6654 37.1741 34.9362 37.0293 34.2919 36.6341C33.0232 35.856 32.9574 34.6746 33.4568 33.8604C33.8581 33.2061 34.5051 32.8125 35.4975 32.8644C36.8626 32.925 38.014 33.8718 38.377 33.5377C38.6093 33.3159 37.9545 32.8593 37.6748 32.6877C37.3102 32.4641 37.0452 32.3359 36.815 32.4421C36.5212 32.585 36.1692 32.8227 35.6586 32.5233C35.3009 32.3108 35.2014 32.0023 35.2252 31.7282C35.2524 31.4149 35.3909 31.1218 36.0557 30.856C36.8054 30.5528 37.6067 30.7144 38.5357 31.2842C40.124 32.2584 40.5536 33.3399 39.8091 34.5536C39.4936 35.0681 39.1528 35.3883 38.6688 36.1775C38.4758 36.4921 38.2927 36.8129 38.1677 37.1624C38.0614 37.4478 38.0621 37.895 37.9242 38.1197C37.7281 38.4394 37.2593 38.5986 36.7598 38.2923ZM42.8375 41.9996C42.3231 41.684 42.2748 41.1801 42.4217 40.8509C42.7071 40.2286 43.0662 39.5759 43.4247 38.9915C43.6912 38.557 43.9827 38.1378 44.2523 37.6982C44.5035 37.2887 44.5802 36.9508 44.0857 36.6475C43.6512 36.3809 43.1882 36.3513 42.7908 36.5062C42.5184 36.6141 42.3045 36.8059 42.1213 37.0373C41.7592 37.4819 41.4617 38.0006 41.1737 38.4701C41.0052 38.7448 40.8437 39.0306 40.6901 39.3145C40.3623 39.8489 39.9265 40.0215 39.4041 39.7974C39.073 39.6424 38.8546 39.3709 38.8974 38.9985C38.9421 38.5447 39.2669 38.1047 39.4906 37.7401C40.0083 36.896 40.6091 36.096 41.1299 35.2469C41.3413 34.9022 41.5377 34.5484 41.711 34.1873C41.7213 34.1593 41.7397 34.1293 41.755 34.1043C41.945 33.7947 42.4509 33.5414 42.9954 33.8753C43.36 34.0989 43.4618 34.4707 43.3637 34.8436C43.9537 34.8343 44.6215 34.9896 45.1809 35.3327C45.7353 35.6728 46.1167 36.1267 46.245 36.6796C46.4273 37.4582 46.0787 38.1723 45.7417 38.7217C45.5119 39.0963 45.2621 39.4587 45.0324 39.8333C44.8363 40.153 44.6502 40.4787 44.4791 40.8137C44.3337 41.0957 44.2312 41.3972 44.0658 41.6669C43.7594 42.1663 43.317 42.2937 42.8375 41.9996ZM48.8334 45.6498C48.4139 45.3924 48.3908 45.0827 48.4045 44.8024C48.4068 44.4738 48.4509 44.1778 48.4397 43.8823C48.4152 43.1937 48.3579 42.5811 48.3187 41.9727C48.075 42.0226 47.8324 42.0594 47.5963 42.0521C47.4137 42.3387 47.226 42.6223 47.0314 42.8947C46.9092 43.0604 46.7969 43.2321 46.6578 43.3805C46.4474 43.6226 46.1046 43.8454 45.5814 43.6001C45.0919 43.2999 44.8796 42.7159 45.2336 42.2732C45.8014 41.5492 46.2955 40.7661 46.7765 39.982C46.9174 39.7522 47.0503 39.5244 47.1912 39.2947C47.5619 38.6903 47.9856 38.1116 48.3563 37.5072C48.6228 37.0727 48.8563 36.6248 49.0679 36.1565C49.2687 35.6611 49.9211 35.5388 50.3406 35.7962C50.6203 35.9677 50.7901 36.2849 50.771 36.5963C50.7447 37.0201 50.4838 37.3894 50.2978 37.7151C50.0746 38.135 49.8268 38.5054 49.5839 38.8789C49.3105 39.3023 49.0451 39.7238 48.7816 40.1533C49.4804 40.0114 50.1823 39.8645 50.8495 39.662C51.3675 39.5123 51.8804 39.2702 52.3299 39.5459C52.7195 39.7848 52.9245 40.3024 52.6824 40.6969C52.4465 41.0815 51.9281 41.176 51.5471 41.2928C51.0613 41.4348 50.5636 41.5626 50.0621 41.6742C50.0781 41.8834 50.1042 42.0987 50.1202 42.3079C50.1558 42.7766 50.1865 43.2421 50.204 43.7066C50.2351 44.2274 50.3083 44.9597 50.0387 45.3993C49.8672 45.679 49.3678 45.9776 48.8334 45.6498Z" fill="white"/>
</svg>
