<svg width="72" height="64" viewBox="0 0 72 64" fill="none" xmlns="http://www.w3.org/2000/svg">
<path d="M62.8304 28.1539C59.8742 24.7782 54.8247 23.179 50.869 21.3546C48.306 20.1719 45.7757 18.9189 43.3762 17.4731C39.2358 14.7364 35.8197 11.1843 31.9017 7.97541C28.0654 4.83391 23.6934 4.27135 19.1336 6.07621C11.5135 9.09418 7.46753 18.4869 10.996 25.9269C12.8457 29.8257 16.6256 33.0403 19.8744 35.735C21.4681 37.0557 23.1248 38.294 24.8346 39.4582C23.5108 41.1461 21.4181 41.9778 19.252 42.5183C19.1955 42.5328 19.1436 42.5618 19.1015 42.6022C19.0594 42.6427 19.0285 42.6933 19.0117 42.7492C18.9949 42.8052 18.9928 42.8645 19.0056 42.9214C19.0185 42.9784 19.0458 43.0311 19.0849 43.0744C22.2041 46.526 28.1456 46.5426 31.4477 43.4539C32.0862 43.7956 32.7286 44.1287 33.375 44.4534C40.6588 48.0971 52.4005 52.5348 59.9454 47.2208C65.5593 43.2771 67.4231 33.3978 62.8304 28.1539Z" fill="#232323"/>
<path d="M29.77 9.24391C27.7558 6.81716 22.2488 5.62192 19.7428 7.95192C19.6975 7.99435 19.739 8.08513 19.8037 8.06426C23.3868 6.88915 26.4038 7.58395 29.6439 9.39927C29.6645 9.41599 29.6909 9.42384 29.7173 9.42109C29.7437 9.41834 29.7679 9.40523 29.7846 9.38462C29.8013 9.36402 29.8092 9.33762 29.8064 9.31124C29.8037 9.28485 29.7906 9.26063 29.77 9.24391ZM31.0528 10.3096C31.1976 10.3619 31.3065 10.1922 31.2477 10.0686C31.1112 9.79259 30.7418 9.60638 30.4573 9.72701C30.4455 9.73273 30.4353 9.74117 30.4275 9.75163C30.4197 9.76209 30.4145 9.77426 30.4123 9.78714C30.4102 9.80002 30.4111 9.81323 30.4151 9.82567C30.4191 9.83811 30.4259 9.84941 30.4352 9.85865C30.6246 10.02 30.812 10.2225 31.0528 10.3096ZM58.7846 45.5129C55.3644 46.8361 52.4132 47.5719 48.7151 47.29C45.6495 47.0586 42.7512 46.0059 39.7181 45.6242C39.6567 45.6163 39.6534 45.7047 39.7035 45.7249C45.128 47.9262 53.8735 49.6493 58.8746 45.6373C58.9485 45.5779 58.863 45.487 58.786 45.5138L58.7846 45.5129ZM61.1215 43.7407C61.1205 43.7278 61.1165 43.7153 61.1097 43.7042C61.103 43.6932 61.0937 43.6839 61.0826 43.6771C61.0716 43.6703 61.0591 43.6663 61.0462 43.6653C61.0333 43.6642 61.0203 43.6663 61.0083 43.6713C60.7088 43.8462 60.5086 44.1176 60.2599 44.3506C60.022 44.5739 59.7536 44.7545 59.6127 45.0594C59.5948 45.0964 59.6132 45.1558 59.6645 45.1536C60.3015 45.1011 61.1867 44.4355 61.1264 43.7437L61.1215 43.7407ZM21.8736 35.3884C20.2042 33.5549 18.142 32.1044 16.372 30.3659C14.2209 28.2532 12.726 25.8075 11.4686 23.0921C11.4503 23.053 11.3926 23.0782 11.4009 23.1179C12.4844 28.2659 17.3915 32.9315 21.7919 35.4903C21.8056 35.4976 21.8214 35.4999 21.8366 35.4968C21.8518 35.4937 21.8654 35.4854 21.8751 35.4733C21.8848 35.4612 21.8899 35.4461 21.8897 35.4306C21.8894 35.4151 21.8837 35.4002 21.8736 35.3884ZM63.3017 31.8815C63.6227 32.8206 63.6644 33.8202 63.8325 34.7906C63.8363 34.8035 63.844 34.8149 63.8547 34.8232C63.8653 34.8314 63.8783 34.836 63.8918 34.8363C63.9052 34.8366 63.9184 34.8326 63.9294 34.8248C63.9404 34.8171 63.9487 34.8061 63.953 34.7933C64.3775 33.0134 63.5334 29.991 61.7712 29.1284C61.7419 29.1104 61.6896 29.1456 61.7155 29.1817C62.3505 30.0635 62.9479 30.8328 63.3017 31.8815ZM28.9325 43.3036C28.2189 43.5264 27.5265 43.8104 26.81 44.0208C26.0282 44.2499 25.2187 44.2418 24.4273 44.3987C24.4162 44.4016 24.4062 44.4076 24.3985 44.4161C24.3908 44.4245 24.3857 44.4351 24.3838 44.4464C24.382 44.4577 24.3835 44.4693 24.3881 44.4798C24.3928 44.4902 24.4004 44.4991 24.41 44.5054C25.1203 44.8632 25.9741 44.733 26.7244 44.5789C27.5851 44.403 28.3957 44.08 28.9998 43.4275C29.0459 43.3789 29.0074 43.2803 28.9325 43.3036ZM23.6674 44.3633C23.5695 44.3002 23.455 44.2676 23.3386 44.2699C23.2221 44.2721 23.109 44.3089 23.0136 44.3757C22.9962 44.3925 22.986 44.4153 22.9853 44.4395C22.9845 44.4636 22.9931 44.487 23.0094 44.5049C23.0894 44.5805 23.1865 44.6356 23.2925 44.6655C23.3985 44.6953 23.5101 44.6989 23.6178 44.6761C23.6503 44.6676 23.6797 44.6498 23.7023 44.6248C23.7248 44.5998 23.7396 44.5688 23.7448 44.5355C23.75 44.5022 23.7454 44.4682 23.7315 44.4375C23.7176 44.4069 23.6951 44.3809 23.6667 44.3629L23.6674 44.3633Z" fill="white"/>
<path d="M35.0121 22.311C34.816 22.6306 34.6235 22.7875 34.3472 22.618C34.1374 22.4893 34.1027 22.2023 34.2171 22.0158C34.3944 21.6893 34.5959 21.3683 34.7899 21.052C34.8982 20.8755 35.0097 20.7011 35.1397 20.4967C35.1641 19.8517 35.1908 19.2403 35.2229 18.6277C35.2476 18.1616 35.2797 17.691 35.3097 17.2236C35.3242 16.9759 35.3074 16.7044 35.4381 16.4913C35.5157 16.3648 35.6362 16.3103 35.7977 16.3086C36.0461 16.3143 36.1299 16.5215 36.154 16.7287C36.1783 16.9132 36.1663 17.1121 36.1514 17.2633C36.1153 17.7407 36.0845 18.2167 36.0517 18.6961C36.0307 19.059 36.0164 19.426 35.9643 20.0264L36.1678 19.9038C36.7804 19.5326 37.3956 19.1721 37.9936 18.7874C38.2255 18.6409 38.4367 18.4909 38.6499 18.3376C38.7874 18.2478 38.9422 18.2419 39.0821 18.3277C39.2786 18.4482 39.3593 18.6902 39.249 18.87C39.1162 19.0864 38.851 19.2125 38.6475 19.3351C37.712 19.9115 36.7883 20.5135 35.8099 21.0177L35.7769 21.0342C35.5086 21.4791 35.2653 21.8981 35.0121 22.311ZM38.1068 22.1516C37.869 22.487 37.7362 22.8454 37.8059 23.2548C37.863 23.5876 38.0183 23.9395 38.3346 24.1336C38.651 24.3276 39.0263 24.3058 39.3481 24.2145C39.7203 24.1083 40.0151 23.7621 40.1928 23.4724C40.54 22.9063 40.7453 22.0562 40.0094 21.6048C39.3635 21.2086 38.4988 21.5947 38.1068 22.1516ZM37.4692 21.7193C38.1391 20.7692 39.416 20.3609 40.4016 20.9655C40.8344 21.231 41.1124 21.5848 41.2275 22.077C41.367 22.6712 41.2039 23.3181 40.8772 23.8509C40.7076 24.1273 40.4948 24.3771 40.2423 24.5796C39.6232 25.066 38.8227 25.1982 38.1177 24.8758C38.0603 24.8497 38.0037 24.815 37.9471 24.7803C37.4643 24.4841 37.1536 23.982 37.054 23.4122C36.9609 22.8693 37.0663 22.3612 37.3543 21.8917C37.3911 21.8318 37.4291 21.7772 37.4692 21.7193ZM45.5676 24.6612C45.1927 25.1828 44.8324 25.7179 44.4974 26.264C44.2687 26.6369 44.0392 27.0185 43.8424 27.4065C43.7891 27.5159 43.7465 27.6226 43.6832 27.7259C43.5219 27.9889 43.3488 28.0844 43.1157 27.9414C42.9392 27.8331 42.8956 27.6277 42.9921 27.4257L43.0783 27.2403L42.8759 27.249C42.4785 27.2619 41.9051 27.1209 41.5687 26.9146C41.3157 26.7594 41.0909 26.5207 41.0058 26.2486C40.9037 25.9294 40.9552 25.5989 41.0804 25.2678C41.2083 24.9247 41.4052 24.5964 41.5729 24.3006C41.6492 24.1686 41.7276 24.0334 41.8072 23.9036C42.0421 23.5206 42.3352 23.0726 42.639 22.7641C42.7683 22.628 42.9602 22.599 43.1134 22.693C43.3232 22.8217 43.3263 23.0481 43.214 23.2313C43.1527 23.3312 43.0755 23.4122 43.003 23.5005C42.8104 23.7398 42.639 23.9968 42.4777 24.2598C42.2775 24.5861 42.116 24.872 41.9564 25.1545C41.7157 25.5842 41.5649 26.0095 42.0377 26.2995C42.3573 26.4956 42.7634 26.6255 43.1221 26.5339C43.4055 26.4603 43.59 26.2939 43.733 26.0609C43.8004 25.951 43.8624 25.8424 43.9278 25.7358C44.1933 25.303 44.4821 24.8844 44.7776 24.4699C44.8659 24.3408 44.9712 24.1991 45.0913 24.1078C45.2431 23.9948 45.3735 24.0289 45.4864 24.1211C45.6597 24.2869 45.7078 24.4401 45.5975 24.6199C45.5893 24.6333 45.5791 24.6499 45.5676 24.6612ZM48.226 26.7821C48.1374 26.792 48.032 26.7547 47.8952 26.6938C47.7444 26.6333 47.6097 26.5691 47.4605 26.5509C47.158 26.5211 46.78 26.5321 46.4983 26.7672C46.3626 26.8764 46.2814 27.0237 46.2018 27.1536C46.0915 27.3334 45.9866 27.5119 45.8783 27.6884C45.6884 27.998 45.4938 28.3003 45.3039 28.61C45.1732 28.8231 45.0828 28.9555 44.8929 28.9811C44.8044 28.991 44.7268 28.9755 44.6569 28.9326C44.4771 28.8223 44.4212 28.5772 44.5356 28.3907C44.7621 28.0439 44.9913 27.6851 45.2078 27.3321C45.4591 26.9225 45.709 26.5076 45.9556 26.0906C46.1409 25.7735 46.35 25.2832 46.6307 25.0796C46.7373 25.0029 46.8555 24.9746 47.0153 25.0726C47.2018 25.187 47.2308 25.4385 47.0863 25.6294L46.9065 25.8628L47.1956 25.8247C47.5927 25.775 48.0109 25.8253 48.3405 26.0275C48.5869 26.1787 48.6458 26.3293 48.4987 26.569C48.4293 26.6823 48.3232 26.773 48.226 26.7821ZM22.8141 25.3804C23.0078 25.5129 23.2153 25.6677 23.353 25.869C23.6484 26.2839 23.4852 26.7405 23.0806 27.0079C22.676 27.2753 22.1976 27.1812 21.8598 26.8915C21.4554 27.5508 21.3038 27.8427 21.0146 28.0228C20.778 28.1732 20.4479 28.2182 20.0484 27.9731C19.449 27.6055 19.5538 27.0649 19.7276 26.7591L20.276 25.865C20.0327 25.6677 18.498 24.8638 17.8634 24.5089C17.6044 24.3707 17.3101 24.1558 17.3006 23.6894C17.2858 23.0411 17.7435 22.8888 18.5375 22.4685C18.7496 22.358 18.9487 22.2464 19.1458 22.1267C20.1718 21.5187 21.2452 20.878 22.4738 20.5112C23.1587 20.2576 24.1448 20.017 24.7841 20.4092C25.2437 20.691 25.3576 21.1665 25.0543 21.6609C24.7586 22.0982 24.4748 22.5496 24.193 23.0091C24.0122 23.3038 23.8334 23.6066 23.6695 23.9185C23.4104 24.4194 23.1132 24.9039 22.8141 25.3804ZM22.4297 22.3538C22.0158 22.5467 21.6107 22.7588 21.2015 22.9889C20.8145 23.2052 20.4344 23.4327 20.0141 23.6697C20.215 23.7792 20.4228 23.8998 20.6307 24.0204C20.8305 24.143 21.0314 24.2525 21.23 24.3881C21.4211 24.0654 21.6275 23.7177 21.8258 23.3719C22.0088 23.0511 22.2049 22.7314 22.4297 22.3538ZM31.4741 34.8852C30.8027 34.8927 30.4099 34.2668 30.4912 33.6636C30.5436 33.3315 30.7181 32.9574 30.8705 32.6865C31.1125 32.2919 31.4059 31.7913 31.221 31.3755C31.1471 31.2271 30.996 31.0588 30.7977 30.889C30.2895 30.4399 29.7554 30.0779 29.2731 29.6652C28.8779 30.3095 28.4746 30.9557 28.0794 31.6C27.9722 31.7749 27.8132 32.0004 27.5889 32.1309C27.3534 32.2682 27.0375 32.3013 26.6579 32.0685C26.0785 31.7131 26.1356 31.1158 26.4389 30.6213C26.7299 30.1468 27.026 29.6754 27.317 29.2009C27.6203 28.7064 27.9186 28.2089 28.2219 27.7144C28.66 27.0002 29.0981 26.2859 29.5462 25.5778C29.8135 25.1644 30.0448 24.7426 30.3602 24.4412C30.6857 24.1459 31.0883 24.0835 31.6227 24.4113L31.7126 24.4664C32.1449 24.7591 32.644 25.0996 33.1159 25.4509C33.5897 25.8103 34.0482 26.1946 34.3981 26.588C35.409 27.7304 35.5934 28.909 34.9776 29.9129C34.7019 30.3624 34.236 30.7297 33.6347 30.8695C33.3849 30.9294 33.135 30.8998 32.895 30.8763C33.3599 31.9451 32.9817 32.9091 32.5099 33.6783C32.3414 33.953 32.3242 34.2724 32.1618 34.5371C32.024 34.7619 31.7977 34.8843 31.4741 34.8852ZM30.1677 28.2067C30.8215 28.5528 31.4581 28.9158 32.18 29.0836C32.6673 29.1969 33.187 29.1789 33.3708 28.8792C33.5699 28.5545 33.359 28.1364 33.006 27.7481C32.5915 27.2808 31.8941 26.7705 31.3181 26.376C30.9213 26.978 30.5445 27.5924 30.1677 28.2067ZM35.3975 35.3808C35.6872 35.5584 36.1153 35.6561 36.4408 35.6633C36.913 35.6779 37.1978 35.6395 37.6065 35.0516C37.378 34.9871 37.1034 34.908 36.7839 34.8014C36.5135 34.7043 36.2351 34.6091 36.0255 34.5699C35.7175 34.5116 35.4124 34.5719 35.2072 34.9066C35.0969 35.0864 35.1577 35.2337 35.3975 35.3808ZM36.9446 38.4056C36.5001 38.133 36.4408 37.7254 36.533 37.2389C35.8502 37.2875 35.121 37.1427 34.4767 36.7475C33.208 35.9693 33.1422 34.7879 33.6416 33.9738C34.0429 33.3195 34.6899 32.9258 35.6823 32.9778C37.0474 33.0383 38.1988 33.9852 38.5618 33.6511C38.7941 33.4292 38.1393 32.9726 37.8596 32.8011C37.495 32.5774 37.23 32.4492 36.9998 32.5555C36.706 32.6983 36.354 32.9361 35.8434 32.6366C35.4857 32.4241 35.3862 32.1156 35.41 31.8415C35.4372 31.5283 35.5757 31.2352 36.2405 30.9693C36.9902 30.6662 37.7915 30.8277 38.7205 31.3976C40.3088 32.3718 40.7384 33.4533 39.9939 34.667C39.6784 35.1814 39.3376 35.5017 38.8536 36.2908C38.6606 36.6055 38.4775 36.9263 38.3525 37.2758C38.2462 37.5611 38.2469 38.0083 38.109 38.2331C37.913 38.5528 37.4441 38.712 36.9446 38.4056ZM43.0223 42.1129C42.5079 41.7974 42.4596 41.2934 42.6065 40.9642C42.8919 40.342 43.251 39.6893 43.6095 39.1049C43.876 38.6703 44.1675 38.2511 44.4371 37.8116C44.6883 37.402 44.765 37.0641 44.2705 36.7608C43.836 36.4943 43.373 36.4646 42.9756 36.6195C42.7032 36.7274 42.4893 36.9193 42.3061 37.1506C41.944 37.5953 41.6465 38.1139 41.3585 38.5834C41.19 38.8581 41.0285 39.144 40.8749 39.4279C40.5471 39.9623 40.1113 40.1349 39.589 39.9107C39.2578 39.7557 39.0394 39.4843 39.0822 39.1119C39.1269 38.6581 39.4517 38.2181 39.6754 37.8535C40.1931 37.0094 40.7939 36.2093 41.3147 35.3602C41.5261 35.0156 41.7225 34.6618 41.8958 34.3007C41.9062 34.2726 41.9245 34.2427 41.9399 34.2177C42.1298 33.908 42.6357 33.6547 43.1802 33.9886C43.5448 34.2123 43.6466 34.5841 43.5485 34.957C44.1385 34.9477 44.8063 35.1029 45.3657 35.446C45.9201 35.7861 46.3015 36.24 46.4298 36.793C46.6121 37.5716 46.2635 38.2857 45.9265 38.8351C45.6967 39.2097 45.4469 39.572 45.2172 39.9466C45.0211 40.2663 44.835 40.5921 44.6639 40.9271C44.5185 41.209 44.416 41.5105 44.2506 41.7802C43.9442 42.2797 43.5018 42.407 43.0223 42.1129ZM49.0182 45.7631C48.5987 45.5058 48.5756 45.196 48.5893 44.9158C48.5916 44.5872 48.6357 44.2912 48.6245 43.9956C48.6001 43.307 48.5427 42.6945 48.5035 42.0861C48.2598 42.136 48.0172 42.1728 47.7811 42.1655C47.5985 42.4521 47.4108 42.7356 47.2162 43.0081C47.094 43.1737 46.9818 43.3455 46.8426 43.4938C46.6322 43.736 46.2894 43.9587 45.7662 43.7134C45.2767 43.4132 45.0644 42.8293 45.4184 42.3866C45.9862 41.6625 46.4803 40.8795 46.9613 40.0953C47.1022 39.8656 47.2351 39.6378 47.376 39.408C47.7467 38.8037 48.1704 38.2249 48.5411 37.6206C48.8076 37.1861 49.0411 36.7381 49.2527 36.2699C49.4535 35.7744 50.1059 35.6522 50.5254 35.9095C50.8051 36.0811 50.9749 36.3983 50.9558 36.7096C50.9295 37.1334 50.6687 37.5027 50.4826 37.8285C50.2594 38.2484 50.0116 38.6188 49.7688 38.9922C49.4953 39.4157 49.2299 39.8371 48.9664 40.2667C49.6652 40.1248 50.3671 39.9779 51.0343 39.7754C51.5523 39.6257 52.0652 39.3835 52.5147 39.6592C52.9043 39.8982 53.1093 40.4157 52.8672 40.8103C52.6313 41.1949 52.1129 41.2893 51.7319 41.4062C51.2461 41.5481 50.7484 41.6759 50.2469 41.7876C50.2629 41.9968 50.289 42.2121 50.305 42.4213C50.3406 42.8899 50.3713 43.3555 50.3888 43.8199C50.4199 44.3408 50.4931 45.0731 50.2235 45.5126C50.052 45.7923 49.5526 46.0909 49.0182 45.7631Z" fill="white"/>
</svg>
