<svg width="72" height="64" viewBox="0 0 72 64" fill="none" xmlns="http://www.w3.org/2000/svg">
<path d="M62.8304 28.1539C59.8742 24.7782 54.8247 23.179 50.869 21.3546C48.306 20.1719 45.7757 18.9189 43.3762 17.4731C39.2358 14.7364 35.8197 11.1843 31.9017 7.97541C28.0654 4.83391 23.6934 4.27135 19.1336 6.07621C11.5135 9.09418 7.46753 18.4869 10.996 25.9269C12.8457 29.8257 16.6256 33.0403 19.8744 35.735C21.4681 37.0557 23.1248 38.294 24.8346 39.4582C23.5108 41.1461 21.4181 41.9778 19.252 42.5183C19.1955 42.5328 19.1436 42.5618 19.1015 42.6022C19.0594 42.6427 19.0285 42.6933 19.0117 42.7492C18.9949 42.8052 18.9928 42.8645 19.0056 42.9214C19.0185 42.9784 19.0458 43.0311 19.0849 43.0744C22.2041 46.526 28.1456 46.5426 31.4477 43.4539C32.0862 43.7956 32.7286 44.1287 33.375 44.4534C40.6588 48.0971 52.4005 52.5348 59.9454 47.2208C65.5593 43.2771 67.4231 33.3978 62.8304 28.1539Z" fill="#232323"/>
<path d="M29.77 9.24391C27.7558 6.81716 22.2488 5.62192 19.7428 7.95192C19.6975 7.99435 19.739 8.08513 19.8037 8.06426C23.3868 6.88915 26.4038 7.58395 29.6439 9.39927C29.6645 9.41599 29.6909 9.42384 29.7173 9.42109C29.7437 9.41834 29.7679 9.40523 29.7846 9.38462C29.8013 9.36402 29.8092 9.33762 29.8064 9.31124C29.8037 9.28485 29.7906 9.26063 29.77 9.24391ZM31.0528 10.3096C31.1976 10.3619 31.3065 10.1922 31.2477 10.0686C31.1112 9.79259 30.7418 9.60638 30.4573 9.72701C30.4455 9.73273 30.4353 9.74117 30.4275 9.75163C30.4197 9.76209 30.4145 9.77426 30.4123 9.78714C30.4102 9.80002 30.4111 9.81323 30.4151 9.82567C30.4191 9.83811 30.4259 9.84941 30.4352 9.85865C30.6246 10.02 30.812 10.2225 31.0528 10.3096ZM58.7846 45.5129C55.3644 46.8361 52.4132 47.5719 48.7151 47.29C45.6495 47.0586 42.7512 46.0059 39.7181 45.6242C39.6567 45.6163 39.6534 45.7047 39.7035 45.7249C45.128 47.9262 53.8735 49.6493 58.8746 45.6373C58.9485 45.5779 58.863 45.487 58.786 45.5138L58.7846 45.5129ZM61.1215 43.7407C61.1205 43.7278 61.1165 43.7153 61.1097 43.7042C61.103 43.6932 61.0937 43.6839 61.0826 43.6771C61.0716 43.6703 61.0591 43.6663 61.0462 43.6653C61.0333 43.6642 61.0203 43.6663 61.0083 43.6713C60.7088 43.8462 60.5086 44.1176 60.2599 44.3506C60.022 44.5739 59.7536 44.7545 59.6127 45.0594C59.5948 45.0964 59.6132 45.1558 59.6645 45.1536C60.3015 45.1011 61.1867 44.4355 61.1264 43.7437L61.1215 43.7407ZM21.8736 35.3884C20.2042 33.5549 18.142 32.1044 16.372 30.3659C14.2209 28.2532 12.726 25.8075 11.4686 23.0921C11.4503 23.053 11.3926 23.0782 11.4009 23.1179C12.4844 28.2659 17.3915 32.9315 21.7919 35.4903C21.8056 35.4976 21.8214 35.4999 21.8366 35.4968C21.8518 35.4937 21.8654 35.4854 21.8751 35.4733C21.8848 35.4612 21.8899 35.4461 21.8897 35.4306C21.8894 35.4151 21.8837 35.4002 21.8736 35.3884ZM63.3017 31.8815C63.6227 32.8206 63.6644 33.8202 63.8325 34.7906C63.8363 34.8035 63.844 34.8149 63.8547 34.8232C63.8653 34.8314 63.8783 34.836 63.8918 34.8363C63.9052 34.8366 63.9184 34.8326 63.9294 34.8248C63.9404 34.8171 63.9487 34.8061 63.953 34.7933C64.3775 33.0134 63.5334 29.991 61.7712 29.1284C61.7419 29.1104 61.6896 29.1456 61.7155 29.1817C62.3505 30.0635 62.9479 30.8328 63.3017 31.8815ZM28.9325 43.3036C28.2189 43.5264 27.5265 43.8104 26.81 44.0208C26.0282 44.2499 25.2187 44.2418 24.4273 44.3987C24.4162 44.4016 24.4062 44.4076 24.3985 44.4161C24.3908 44.4245 24.3857 44.4351 24.3838 44.4464C24.382 44.4577 24.3835 44.4693 24.3881 44.4798C24.3928 44.4902 24.4004 44.4991 24.41 44.5054C25.1203 44.8632 25.9741 44.733 26.7244 44.5789C27.5851 44.403 28.3957 44.08 28.9998 43.4275C29.0459 43.3789 29.0074 43.2803 28.9325 43.3036ZM23.6674 44.3633C23.5695 44.3002 23.455 44.2676 23.3386 44.2699C23.2221 44.2721 23.109 44.3089 23.0136 44.3757C22.9962 44.3925 22.986 44.4153 22.9853 44.4395C22.9845 44.4636 22.9931 44.487 23.0094 44.5049C23.0894 44.5805 23.1865 44.6356 23.2925 44.6655C23.3985 44.6953 23.5101 44.6989 23.6178 44.6761C23.6503 44.6676 23.6797 44.6498 23.7023 44.6248C23.7248 44.5998 23.7396 44.5688 23.7448 44.5355C23.75 44.5022 23.7454 44.4682 23.7315 44.4375C23.7176 44.4069 23.6951 44.3809 23.6667 44.3629L23.6674 44.3633Z" fill="white"/>
<path d="M35.0121 22.311C34.816 22.6306 34.6235 22.7875 34.3472 22.618C34.1374 22.4893 34.1027 22.2023 34.2171 22.0158C34.3944 21.6893 34.5959 21.3683 34.7899 21.052C34.8982 20.8755 35.0097 20.7011 35.1397 20.4967C35.1641 19.8517 35.1908 19.2403 35.2229 18.6277C35.2476 18.1616 35.2797 17.691 35.3097 17.2236C35.3242 16.9759 35.3074 16.7044 35.4381 16.4913C35.5157 16.3648 35.6362 16.3103 35.7977 16.3086C36.0461 16.3143 36.1299 16.5215 36.154 16.7287C36.1783 16.9132 36.1663 17.1121 36.1514 17.2633C36.1153 17.7407 36.0845 18.2167 36.0517 18.6961C36.0307 19.059 36.0164 19.426 35.9643 20.0264L36.1678 19.9038C36.7804 19.5326 37.3956 19.1721 37.9936 18.7874C38.2255 18.6409 38.4367 18.4909 38.6499 18.3376C38.7874 18.2478 38.9422 18.2419 39.0821 18.3277C39.2786 18.4482 39.3593 18.6902 39.249 18.87C39.1162 19.0864 38.851 19.2125 38.6475 19.3351C37.712 19.9115 36.7883 20.5135 35.8099 21.0177L35.7769 21.0342C35.5086 21.4791 35.2653 21.8981 35.0121 22.311ZM38.1068 22.1516C37.869 22.487 37.7362 22.8454 37.8059 23.2548C37.863 23.5876 38.0183 23.9395 38.3346 24.1336C38.651 24.3276 39.0263 24.3058 39.3481 24.2145C39.7203 24.1083 40.0151 23.7621 40.1928 23.4724C40.54 22.9063 40.7453 22.0562 40.0094 21.6048C39.3635 21.2086 38.4988 21.5947 38.1068 22.1516ZM37.4692 21.7193C38.1391 20.7692 39.416 20.3609 40.4016 20.9655C40.8344 21.231 41.1124 21.5848 41.2275 22.077C41.367 22.6712 41.2039 23.3181 40.8772 23.8509C40.7076 24.1273 40.4948 24.3771 40.2423 24.5796C39.6232 25.066 38.8227 25.1982 38.1177 24.8758C38.0603 24.8497 38.0037 24.815 37.9471 24.7803C37.4643 24.4841 37.1536 23.982 37.054 23.4122C36.9609 22.8693 37.0663 22.3612 37.3543 21.8917C37.3911 21.8318 37.4291 21.7772 37.4692 21.7193ZM45.5676 24.6612C45.1927 25.1828 44.8324 25.7179 44.4974 26.264C44.2687 26.6369 44.0392 27.0185 43.8424 27.4065C43.7891 27.5159 43.7465 27.6226 43.6832 27.7259C43.5219 27.9889 43.3488 28.0844 43.1157 27.9414C42.9392 27.8331 42.8956 27.6277 42.9921 27.4257L43.0783 27.2403L42.8759 27.249C42.4785 27.2619 41.9051 27.1209 41.5687 26.9146C41.3157 26.7594 41.0909 26.5207 41.0058 26.2486C40.9037 25.9294 40.9552 25.5989 41.0804 25.2678C41.2083 24.9247 41.4052 24.5964 41.5729 24.3006C41.6492 24.1686 41.7276 24.0334 41.8072 23.9036C42.0421 23.5206 42.3352 23.0726 42.639 22.7641C42.7683 22.628 42.9602 22.599 43.1134 22.693C43.3232 22.8217 43.3263 23.0481 43.214 23.2313C43.1527 23.3312 43.0755 23.4122 43.003 23.5005C42.8104 23.7398 42.639 23.9968 42.4777 24.2598C42.2775 24.5861 42.116 24.872 41.9564 25.1545C41.7157 25.5842 41.5649 26.0095 42.0377 26.2995C42.3573 26.4956 42.7634 26.6255 43.1221 26.5339C43.4055 26.4603 43.59 26.2939 43.733 26.0609C43.8004 25.951 43.8624 25.8424 43.9278 25.7358C44.1933 25.303 44.4821 24.8844 44.7776 24.4699C44.8659 24.3408 44.9712 24.1991 45.0913 24.1078C45.2431 23.9948 45.3735 24.0289 45.4864 24.1211C45.6597 24.2869 45.7078 24.4401 45.5975 24.6199C45.5893 24.6333 45.5791 24.6499 45.5676 24.6612ZM48.226 26.7821C48.1374 26.792 48.032 26.7547 47.8952 26.6938C47.7444 26.6333 47.6097 26.5691 47.4605 26.5509C47.158 26.5211 46.78 26.5321 46.4983 26.7672C46.3626 26.8764 46.2814 27.0237 46.2018 27.1536C46.0915 27.3334 45.9866 27.5119 45.8783 27.6884C45.6884 27.998 45.4938 28.3003 45.3039 28.61C45.1732 28.8231 45.0828 28.9555 44.8929 28.9811C44.8044 28.991 44.7268 28.9755 44.6569 28.9326C44.4771 28.8223 44.4212 28.5772 44.5356 28.3907C44.7621 28.0439 44.9913 27.6851 45.2078 27.3321C45.4591 26.9225 45.709 26.5076 45.9556 26.0906C46.1409 25.7735 46.35 25.2832 46.6307 25.0796C46.7373 25.0029 46.8555 24.9746 47.0153 25.0726C47.2018 25.187 47.2308 25.4385 47.0863 25.6294L46.9065 25.8628L47.1956 25.8247C47.5927 25.775 48.0109 25.8253 48.3405 26.0275C48.5869 26.1787 48.6458 26.3293 48.4987 26.569C48.4293 26.6823 48.3232 26.773 48.226 26.7821ZM17.4137 25.1748C17.3876 24.657 17.4731 24.0358 17.7243 23.6262C17.9265 23.2966 18.4355 23.0383 18.9999 23.3845C19.5293 23.7092 19.4616 24.1557 19.3995 24.4476C19.2846 24.8926 19.1951 25.1058 19.5434 25.4569C19.6837 25.598 19.8612 25.7344 20.036 25.8416C20.6154 26.197 21.0701 26.0497 21.4193 25.4803C21.5357 25.2905 21.5992 25.075 21.5167 24.8732C21.4323 24.6634 21.2258 24.4061 21.0009 24.1788C20.603 23.7629 20.0625 23.4451 20.4454 22.8208C20.617 22.5411 20.9227 22.4124 21.1969 22.4362C21.4318 22.4566 21.6419 22.5511 21.8451 22.6345C22.2104 22.7898 22.5226 22.9195 22.896 22.5573C23.2831 22.128 23.281 21.728 22.7815 21.4216C22.4868 21.2409 22.2026 21.1215 21.8783 21.1907C21.5157 21.2776 21.2143 21.4777 20.865 21.5315C20.4494 21.5928 20.0909 21.3592 19.8912 21.0236C19.618 20.5948 19.8533 20.0655 20.2434 19.8442C20.3807 19.7772 20.523 19.7133 20.6704 19.6524C21.2627 19.404 22.0194 19.2014 22.8435 19.4938C23.127 19.592 23.4101 19.7244 23.6698 19.8838C25.0333 20.7201 25.385 22.0631 24.7876 23.0371C24.4414 23.6015 24.0024 24.2052 23.2235 24.4216C23.5244 25.1974 23.383 25.8874 23.0245 26.4717C22.7151 26.9762 22.1938 27.4675 21.5765 27.7007C20.7655 28.0143 20.0099 27.9014 19.1208 27.3561C18.3217 26.8659 17.4725 26.0426 17.4137 25.1748ZM31.3392 34.8024C30.6679 34.8099 30.275 34.1841 30.3563 33.5809C30.4088 33.2488 30.5833 32.8746 30.7357 32.6038C30.9777 32.2092 31.271 31.7086 31.0861 31.2928C31.0122 31.1443 30.8611 30.976 30.6628 30.8063C30.1547 30.3571 29.6206 29.9952 29.1382 29.5825C28.743 30.2268 28.3398 30.873 27.9446 31.5173C27.8373 31.6921 27.6784 31.9177 27.454 32.0482C27.2185 32.1855 26.9026 32.2186 26.523 31.9858C25.9437 31.6304 26.0008 31.033 26.3041 30.5386C26.5951 30.0641 26.8911 29.5926 27.1822 29.1182C27.4855 28.6237 27.7838 28.1261 28.0871 27.6317C28.5252 26.9174 28.9633 26.2032 29.4113 25.4951C29.6787 25.0817 29.9099 24.6599 30.2254 24.3584C30.5508 24.0632 30.9534 24.0008 31.4879 24.3286L31.5778 24.3837C32.01 24.6764 32.5092 25.0169 32.9811 25.3682C33.4549 25.7276 33.9134 26.1119 34.2633 26.5052C35.2741 27.6477 35.4586 28.8262 34.8428 29.8302C34.567 30.2797 34.1012 30.647 33.4999 30.7868C33.2501 30.8467 33.0001 30.8171 32.7602 30.7936C33.2251 31.8624 32.8468 32.8264 32.375 33.5956C32.2066 33.8703 32.1894 34.1897 32.027 34.4544C31.8891 34.6792 31.6628 34.8016 31.3392 34.8024ZM30.0328 28.124C30.6866 28.4701 31.3232 28.833 32.0451 29.0009C32.5324 29.1142 33.0521 29.0962 33.236 28.7965C33.4351 28.4718 33.2241 28.0537 32.8712 27.6654C32.4567 27.1981 31.7592 26.6878 31.1832 26.2932C30.7864 26.8953 30.4096 27.5097 30.0328 28.124ZM35.2626 35.298C35.5523 35.4757 35.9805 35.5734 36.306 35.5806C36.7782 35.5952 37.0629 35.5568 37.4717 34.9689C37.2432 34.9044 36.9686 34.8253 36.6491 34.7187C36.3787 34.6216 36.1002 34.5264 35.8906 34.4872C35.5827 34.4289 35.2776 34.4892 35.0723 34.8239C34.962 35.0037 35.0229 35.151 35.2626 35.298ZM36.8098 38.3229C36.3653 38.0502 36.3059 37.6427 36.3981 37.1562C35.7153 37.2048 34.9861 37.06 34.3418 36.6648C33.0732 35.8866 33.0074 34.7052 33.5067 33.8911C33.908 33.2368 34.555 32.8431 35.5474 32.895C36.9125 32.9556 38.0639 33.9024 38.427 33.5683C38.6593 33.3465 38.0045 32.8899 37.7248 32.7183C37.3602 32.4947 37.0951 32.3665 36.865 32.4728C36.5711 32.6156 36.2191 32.8534 35.7085 32.5539C35.3508 32.3414 35.2513 32.0329 35.2751 31.7588C35.3023 31.4455 35.4408 31.1525 36.1057 30.8866C36.8553 30.5834 37.6567 30.745 38.5857 31.3148C40.174 32.2891 40.6035 33.3705 39.8591 34.5843C39.5435 35.0987 39.2028 35.419 38.7187 36.2081C38.5257 36.5228 38.3427 36.8436 38.2177 37.1931C38.1114 37.4784 38.112 37.9256 37.9742 38.1504C37.7781 38.47 37.3093 38.6293 36.8098 38.3229ZM42.8875 42.0302C42.373 41.7146 42.3247 41.2107 42.4716 40.8815C42.7571 40.2592 43.1162 39.6065 43.4746 39.0222C43.7412 38.5876 44.0327 38.1684 44.3023 37.7289C44.5535 37.3193 44.6301 36.9814 44.1357 36.6781C43.7011 36.4116 43.2382 36.3819 42.8407 36.5368C42.5683 36.6447 42.3544 36.8366 42.1713 37.0679C41.8092 37.5126 41.5117 38.0312 41.2237 38.5007C41.0552 38.7754 40.8936 39.0612 40.7401 39.3451C40.4123 39.8796 39.9765 40.0522 39.4541 39.828C39.123 39.673 38.9046 39.4016 38.9474 39.0292C38.992 38.5754 39.3169 38.1354 39.5405 37.7708C40.0583 36.9267 40.659 36.1266 41.1798 35.2775C41.3912 34.9329 41.5876 34.579 41.761 34.218C41.7713 34.1899 41.7897 34.16 41.805 34.135C41.9949 33.8253 42.5009 33.572 43.0453 33.9059C43.4099 34.1296 43.5118 34.5014 43.4137 34.8743C44.0037 34.8649 44.6714 35.0202 45.2308 35.3633C45.7852 35.7034 46.1667 36.1573 46.2949 36.7103C46.4773 37.4889 46.1286 38.203 45.7916 38.7524C45.5618 39.127 45.3121 39.4893 45.0823 39.8639C44.8862 40.1836 44.7002 40.5094 44.5291 40.8443C44.3836 41.1263 44.2812 41.4278 44.1157 41.6975C43.8094 42.197 43.367 42.3243 42.8875 42.0302ZM48.8834 45.6804C48.4638 45.4231 48.4407 45.1133 48.4545 44.8331C48.4567 44.5045 48.5008 44.2085 48.4896 43.9129C48.4652 43.2243 48.4079 42.6117 48.3686 42.0034C48.1249 42.0533 47.8824 42.0901 47.6463 42.0827C47.4636 42.3694 47.2759 42.6529 47.0813 42.9254C46.9591 43.091 46.8469 43.2627 46.7078 43.4111C46.4974 43.6533 46.1545 43.876 45.6314 43.6307C45.1419 43.3305 44.9295 42.7466 45.2836 42.3038C45.8514 41.5798 46.3454 40.7968 46.8264 40.0126C46.9673 39.7829 47.1002 39.555 47.2411 39.3253C47.6118 38.7209 48.0355 38.1422 48.4062 37.5379C48.6728 37.1033 48.9063 36.6554 49.1179 36.1872C49.3187 35.6917 49.971 35.5695 50.3906 35.8268C50.6703 35.9984 50.84 36.3156 50.8209 36.6269C50.7947 37.0507 50.5338 37.42 50.3477 37.7458C50.1245 38.1657 49.8767 38.5361 49.6339 38.9095C49.3604 39.3329 49.095 39.7544 48.8316 40.184C49.5304 40.0421 50.2322 39.8952 50.8995 39.6927C51.4175 39.543 51.9303 39.3008 52.3799 39.5765C52.7694 39.8155 52.9744 40.333 52.7324 40.7276C52.4965 41.1122 51.978 41.2066 51.597 41.3235C51.1113 41.4654 50.6136 41.5932 50.112 41.7049C50.1281 41.9141 50.1541 42.1294 50.1702 42.3385C50.2058 42.8072 50.2364 43.2728 50.254 43.7372C50.2851 44.2581 50.3583 44.9904 50.0887 45.4299C49.9171 45.7096 49.4178 46.0082 48.8834 45.6804Z" fill="white"/>
</svg>
