<svg width="72" height="64" viewBox="0 0 72 64" fill="none" xmlns="http://www.w3.org/2000/svg">
<path d="M62.8305 28.1539C59.8743 24.7782 54.8248 23.179 50.8691 21.3546C48.3062 20.1719 45.7758 18.9189 43.3763 17.4731C39.236 14.7364 35.8198 11.1843 31.9018 7.97541C28.0655 4.83391 23.6935 4.27135 19.1337 6.07621C11.5136 9.09418 7.46766 18.4869 10.9961 25.9269C12.8458 29.8257 16.6257 33.0403 19.8745 35.735C21.4682 37.0557 23.1249 38.294 24.8347 39.4582C23.511 41.1461 21.4182 41.9778 19.2522 42.5183C19.1956 42.5328 19.1438 42.5618 19.1017 42.6022C19.0596 42.6427 19.0286 42.6933 19.0118 42.7492C18.995 42.8052 18.9929 42.8645 19.0058 42.9214C19.0186 42.9784 19.0459 43.0311 19.0851 43.0744C22.2042 46.526 28.1457 46.5426 31.4478 43.4539C32.0863 43.7956 32.7287 44.1287 33.3751 44.4534C40.6589 48.0971 52.4006 52.5348 59.9455 47.2208C65.5595 43.2771 67.4233 33.3978 62.8305 28.1539Z" fill="#232323"/>
<path d="M29.7701 9.24391C27.7559 6.81716 22.2489 5.62192 19.7429 7.95192C19.6977 7.99435 19.7391 8.08513 19.8038 8.06426C23.3869 6.88915 26.4039 7.58395 29.644 9.39927C29.6646 9.41599 29.691 9.42384 29.7174 9.42109C29.7438 9.41834 29.768 9.40523 29.7848 9.38462C29.8015 9.36402 29.8093 9.33762 29.8066 9.31124C29.8038 9.28485 29.7907 9.26063 29.7701 9.24391ZM31.0529 10.3096C31.1977 10.3619 31.3066 10.1922 31.2478 10.0686C31.1114 9.79259 30.742 9.60638 30.4574 9.72701C30.4457 9.73273 30.4354 9.74117 30.4276 9.75163C30.4198 9.76209 30.4146 9.77426 30.4124 9.78714C30.4103 9.80002 30.4112 9.81323 30.4152 9.82567C30.4192 9.83811 30.4261 9.84941 30.4353 9.85865C30.6248 10.02 30.8121 10.2225 31.0529 10.3096ZM58.7847 45.5129C55.3645 46.8361 52.4133 47.5719 48.7153 47.29C45.6496 47.0586 42.7513 46.0059 39.7183 45.6242C39.6568 45.6163 39.6535 45.7047 39.7036 45.7249C45.1281 47.9262 53.8736 49.6493 58.8747 45.6373C58.9486 45.5779 58.8631 45.487 58.7861 45.5138L58.7847 45.5129ZM61.1216 43.7407C61.1206 43.7278 61.1166 43.7153 61.1099 43.7042C61.1031 43.6932 61.0938 43.6839 61.0828 43.6771C61.0717 43.6703 61.0592 43.6663 61.0463 43.6653C61.0334 43.6642 61.0204 43.6663 61.0085 43.6713C60.7089 43.8462 60.5087 44.1176 60.26 44.3506C60.0221 44.5739 59.7537 44.7545 59.6128 45.0594C59.5949 45.0964 59.6133 45.1558 59.6646 45.1536C60.3016 45.1011 61.1868 44.4355 61.1265 43.7437L61.1216 43.7407ZM21.8737 35.3884C20.2043 33.5549 18.1422 32.1044 16.3721 30.3659C14.221 28.2532 12.7261 25.8075 11.4687 23.0921C11.4504 23.053 11.3927 23.0782 11.401 23.1179C12.4845 28.2659 17.3916 32.9315 21.7921 35.4903C21.8057 35.4976 21.8215 35.4999 21.8367 35.4968C21.8519 35.4937 21.8655 35.4854 21.8752 35.4733C21.8849 35.4612 21.8901 35.4461 21.8898 35.4306C21.8895 35.4151 21.8838 35.4002 21.8737 35.3884ZM63.3018 31.8815C63.6228 32.8206 63.6645 33.8202 63.8327 34.7906C63.8364 34.8035 63.8441 34.8149 63.8548 34.8232C63.8654 34.8314 63.8784 34.836 63.8919 34.8363C63.9053 34.8366 63.9185 34.8326 63.9295 34.8248C63.9405 34.8171 63.9488 34.8061 63.9531 34.7933C64.3776 33.0134 63.5335 29.991 61.7714 29.1284C61.742 29.1104 61.6897 29.1456 61.7156 29.1817C62.3506 30.0635 62.948 30.8328 63.3018 31.8815ZM28.9326 43.3036C28.2191 43.5264 27.5267 43.8104 26.8101 44.0208C26.0283 44.2499 25.2188 44.2418 24.4275 44.3987C24.4164 44.4016 24.4063 44.4076 24.3986 44.4161C24.3909 44.4245 24.3858 44.4351 24.384 44.4464C24.3821 44.4577 24.3836 44.4693 24.3883 44.4798C24.3929 44.4902 24.4005 44.4991 24.4101 44.5054C25.1204 44.8632 25.9742 44.733 26.7245 44.5789C27.5852 44.403 28.3958 44.08 28.9999 43.4275C29.046 43.3789 29.0075 43.2803 28.9326 43.3036ZM23.6675 44.3633C23.5696 44.3002 23.4551 44.2676 23.3387 44.2699C23.2223 44.2721 23.1091 44.3089 23.0137 44.3757C22.9963 44.3925 22.9862 44.4153 22.9854 44.4395C22.9846 44.4636 22.9932 44.487 23.0095 44.5049C23.0895 44.5805 23.1866 44.6356 23.2926 44.6655C23.3986 44.6953 23.5102 44.6989 23.6179 44.6761C23.6505 44.6676 23.6798 44.6498 23.7024 44.6248C23.725 44.5998 23.7397 44.5688 23.7449 44.5355C23.7501 44.5022 23.7455 44.4682 23.7316 44.4375C23.7177 44.4069 23.6952 44.3809 23.6668 44.3629L23.6675 44.3633Z" fill="white"/>
<path d="M35.0122 22.311C34.8161 22.6306 34.6237 22.7875 34.3473 22.618C34.1375 22.4893 34.1028 22.2023 34.2172 22.0158C34.3946 21.6893 34.596 21.3683 34.79 21.052C34.8983 20.8755 35.0099 20.7011 35.1398 20.4967C35.1642 19.8517 35.1909 19.2403 35.2231 18.6277C35.2477 18.1616 35.2798 17.691 35.3098 17.2236C35.3243 16.9759 35.3075 16.7044 35.4382 16.4913C35.5158 16.3648 35.6363 16.3103 35.7978 16.3086C36.0463 16.3143 36.13 16.5215 36.1541 16.7287C36.1784 16.9132 36.1664 17.1121 36.1516 17.2633C36.1154 17.7407 36.0846 18.2167 36.0518 18.6961C36.0308 19.059 36.0165 19.426 35.9644 20.0264L36.1679 19.9038C36.7806 19.5326 37.3957 19.1721 37.9937 18.7874C38.2256 18.6409 38.4368 18.4909 38.65 18.3376C38.7876 18.2478 38.9424 18.2419 39.0822 18.3277C39.2787 18.4482 39.3594 18.6902 39.2491 18.87C39.1163 19.0864 38.8511 19.2125 38.6476 19.3351C37.7121 19.9115 36.7884 20.5135 35.81 21.0177L35.777 21.0342C35.5087 21.4791 35.2655 21.8981 35.0122 22.311ZM38.1069 22.1516C37.8691 22.487 37.7363 22.8454 37.806 23.2548C37.8631 23.5876 38.0184 23.9395 38.3347 24.1336C38.6511 24.3276 39.0265 24.3058 39.3483 24.2145C39.7204 24.1083 40.0153 23.7621 40.1929 23.4724C40.5402 22.9063 40.7454 22.0562 40.0095 21.6048C39.3636 21.2086 38.4989 21.5947 38.1069 22.1516ZM37.4693 21.7193C38.1392 20.7692 39.4161 20.3609 40.4017 20.9655C40.8346 21.231 41.1125 21.5848 41.2276 22.077C41.3672 22.6712 41.2041 23.3181 40.8773 23.8509C40.7078 24.1273 40.495 24.3771 40.2424 24.5796C39.6233 25.066 38.8228 25.1982 38.1178 24.8758C38.0604 24.8497 38.0038 24.815 37.9472 24.7803C37.4644 24.4841 37.1538 23.982 37.0542 23.4122C36.961 22.8693 37.0664 22.3612 37.3544 21.8917C37.3912 21.8318 37.4292 21.7772 37.4693 21.7193ZM45.5677 24.6612C45.1928 25.1828 44.8325 25.7179 44.4975 26.264C44.2688 26.6369 44.0393 27.0185 43.8426 27.4065C43.7892 27.5159 43.7466 27.6226 43.6833 27.7259C43.522 27.9889 43.3489 28.0844 43.1158 27.9414C42.9393 27.8331 42.8958 27.6277 42.9922 27.4257L43.0784 27.2403L42.876 27.249C42.4786 27.2619 41.9052 27.1209 41.5689 26.9146C41.3158 26.7594 41.091 26.5207 41.0059 26.2486C40.9039 25.9294 40.9553 25.5989 41.0805 25.2678C41.2085 24.9247 41.4053 24.5964 41.573 24.3006C41.6493 24.1686 41.7277 24.0334 41.8073 23.9036C42.0422 23.5206 42.3353 23.0726 42.6392 22.7641C42.7684 22.628 42.9603 22.599 43.1135 22.693C43.3233 22.8217 43.3264 23.0481 43.2141 23.2313C43.1528 23.3312 43.0757 23.4122 43.0031 23.5005C42.8105 23.7398 42.6392 23.9968 42.4778 24.2598C42.2777 24.5861 42.1161 24.872 41.9566 25.1545C41.7159 25.5842 41.565 26.0095 42.0378 26.2995C42.3575 26.4956 42.7635 26.6255 43.1222 26.5339C43.4056 26.4603 43.5901 26.2939 43.7331 26.0609C43.8005 25.951 43.8625 25.8424 43.9279 25.7358C44.1934 25.303 44.4822 24.8844 44.7777 24.4699C44.8661 24.3408 44.9713 24.1991 45.0914 24.1078C45.2433 23.9948 45.3736 24.0289 45.4866 24.1211C45.6598 24.2869 45.7079 24.4401 45.5976 24.6199C45.5894 24.6333 45.5792 24.6499 45.5677 24.6612ZM48.2261 26.7821C48.1376 26.792 48.0321 26.7547 47.8953 26.6938C47.7445 26.6333 47.6098 26.5691 47.4606 26.5509C47.1581 26.5211 46.7801 26.5321 46.4984 26.7672C46.3627 26.8764 46.2816 27.0237 46.2019 27.1536C46.0916 27.3334 45.9867 27.5119 45.8785 27.6884C45.6885 27.998 45.4939 28.3003 45.304 28.61C45.1733 28.8231 45.0829 28.9555 44.893 28.9811C44.8045 28.991 44.727 28.9755 44.657 28.9326C44.4772 28.8223 44.4213 28.5772 44.5357 28.3907C44.7622 28.0439 44.9915 27.6851 45.208 27.3321C45.4592 26.9225 45.7091 26.5076 45.9557 26.0906C46.141 25.7735 46.3502 25.2832 46.6308 25.0796C46.7374 25.0029 46.8556 24.9746 47.0155 25.0726C47.2019 25.187 47.231 25.4385 47.0864 25.6294L46.9066 25.8628L47.1957 25.8247C47.5928 25.775 48.011 25.8253 48.3407 26.0275C48.5871 26.1787 48.6459 26.3293 48.4988 26.569C48.4294 26.6823 48.3233 26.773 48.2261 26.7821ZM20.5136 23.6736C20.9012 23.0865 21.2808 22.5013 21.6634 21.9112C21.2663 21.8188 20.873 21.6532 20.5084 21.4296C19.909 21.0619 20.0301 20.3938 20.2078 20.1042C20.6061 19.4548 21.4187 20.0014 21.8926 20.1478C22.3354 20.2888 22.6508 20.2004 23.0572 20.0647C23.4312 19.9367 23.83 19.8582 24.1696 20.0665C24.7789 20.4403 24.5307 21.0579 24.2262 21.476C23.4665 22.5016 22.8136 23.5996 22.1288 24.6712C21.6938 25.3805 21.3224 26.0531 20.928 26.7186C20.8453 26.8534 20.7745 27.0025 20.6918 27.1373C20.5141 27.427 20.2776 27.6669 19.8837 27.659C19.5091 27.6423 19.1568 27.4881 18.981 27.1809C18.6996 26.6646 19.0413 26.1524 19.2825 25.7367C19.7193 24.9461 20.1065 24.3037 20.5136 23.6736ZM31.3294 34.7963C30.658 34.8038 30.2652 34.1779 30.3464 33.5748C30.3989 33.2426 30.5734 32.8685 30.7258 32.5977C30.9678 32.2031 31.2611 31.7025 31.0763 31.2867C31.0024 31.1382 30.8512 30.9699 30.6529 30.8002C30.1448 30.351 29.6107 29.989 29.1284 29.5763C28.7332 30.2206 28.3299 30.8669 27.9347 31.5112C27.8275 31.686 27.6685 31.9116 27.4441 32.042C27.2086 32.1794 26.8928 32.2125 26.5132 31.9797C25.9338 31.6243 25.9909 31.0269 26.2942 30.5324C26.5852 30.0579 26.8813 29.5865 27.1723 29.112C27.4756 28.6176 27.7739 28.12 28.0772 27.6255C28.5153 26.9113 28.9534 26.1971 29.4015 25.489C29.6688 25.0755 29.9 24.6537 30.2155 24.3523C30.541 24.057 30.9436 23.9946 31.478 24.3225L31.5679 24.3776C32.0002 24.6702 32.4993 25.0108 32.9712 25.3621C33.445 25.7214 33.9035 26.1058 34.2534 26.4991C35.2642 27.6415 35.4487 28.8201 34.8329 29.824C34.5572 30.2736 34.0913 30.6408 33.49 30.7807C33.2402 30.8405 32.9903 30.8109 32.7503 30.7875C33.2152 31.8563 32.837 32.8203 32.3652 33.5895C32.1967 33.8642 32.1795 34.1836 32.0171 34.4483C31.8793 34.6731 31.653 34.7955 31.3294 34.7963ZM30.0229 28.1179C30.6768 28.4639 31.3134 28.8269 32.0353 28.9948C32.5225 29.1081 33.0423 29.09 33.2261 28.7903C33.4252 28.4657 33.2143 28.0476 32.8613 27.6593C32.4468 27.1919 31.7494 26.6816 31.1734 26.2871C30.7766 26.8892 30.3998 27.5035 30.0229 28.1179ZM35.2528 35.2919C35.5425 35.4696 35.9706 35.5672 36.2961 35.5744C36.7683 35.5891 37.0531 35.5507 37.4618 34.9628C37.2333 34.8982 36.9587 34.8192 36.6392 34.7126C36.3688 34.6155 36.0904 34.5203 35.8807 34.481C35.5728 34.4228 35.2677 34.4831 35.0624 34.8177C34.9522 34.9975 35.013 35.1449 35.2528 35.2919ZM36.7999 38.3168C36.3554 38.0441 36.2961 37.6365 36.3883 37.1501C35.7054 37.1987 34.9763 37.0538 34.332 36.6586C33.0633 35.8805 32.9975 34.6991 33.4969 33.8849C33.8982 33.2306 34.5452 32.837 35.5375 32.8889C36.9026 32.9495 38.0541 33.8963 38.4171 33.5622C38.6494 33.3404 37.9946 32.8838 37.7149 32.7122C37.3503 32.4886 37.0853 32.3604 36.8551 32.4667C36.5613 32.6095 36.2092 32.8472 35.6986 32.5478C35.341 32.3353 35.2415 32.0268 35.2653 31.7527C35.2924 31.4394 35.431 31.1463 36.0958 30.8805C36.8454 30.5773 37.6468 30.7389 38.5758 31.3087C40.1641 32.2829 40.5937 33.3644 39.8492 34.5781C39.5337 35.0926 39.1929 35.4128 38.7088 36.202C38.5158 36.5166 38.3328 36.8374 38.2078 37.1869C38.1015 37.4723 38.1022 37.9195 37.9643 38.1443C37.7682 38.4639 37.2994 38.6231 36.7999 38.3168ZM42.8776 42.0241C42.3632 41.7085 42.3148 41.2046 42.4618 40.8754C42.7472 40.2531 43.1063 39.6004 43.4648 39.016C43.7313 38.5815 44.0228 38.1623 44.2924 37.7228C44.5436 37.3132 44.6203 36.9753 44.1258 36.672C43.6913 36.4055 43.2283 36.3758 42.8308 36.5307C42.5585 36.6386 42.3445 36.8304 42.1614 37.0618C41.7993 37.5064 41.5018 38.0251 41.2138 38.4946C41.0453 38.7693 40.8837 39.0551 40.7302 39.339C40.4024 39.8734 39.9666 40.0461 39.4442 39.8219C39.1131 39.6669 38.8947 39.3954 38.9375 39.023C38.9822 38.5692 39.307 38.1292 39.5307 37.7646C40.0484 36.9205 40.6491 36.1205 41.17 35.2714C41.3813 34.9267 41.5777 34.5729 41.7511 34.2118C41.7614 34.1838 41.7798 34.1538 41.7951 34.1289C41.9851 33.8192 42.491 33.5659 43.0354 33.8998C43.4 34.1234 43.5019 34.4953 43.4038 34.8681C43.9938 34.8588 44.6616 35.0141 45.221 35.3572C45.7754 35.6973 46.1568 36.1512 46.2851 36.7041C46.4674 37.4827 46.1187 38.1968 45.7817 38.7463C45.552 39.1209 45.3022 39.4832 45.0724 39.8578C44.8764 40.1775 44.6903 40.5032 44.5192 40.8382C44.3737 41.1202 44.2713 41.4217 44.1059 41.6914C43.7995 42.1908 43.3571 42.3182 42.8776 42.0241ZM48.8735 45.6743C48.4539 45.4169 48.4308 45.1072 48.4446 44.8269C48.4468 44.4984 48.4909 44.2023 48.4798 43.9068C48.4553 43.2182 48.398 42.6056 48.3587 41.9973C48.1151 42.0471 47.8725 42.0839 47.6364 42.0766C47.4537 42.3632 47.2661 42.6468 47.0715 42.9192C46.9492 43.0849 46.837 43.2566 46.6979 43.405C46.4875 43.6471 46.1447 43.8699 45.6215 43.6246C45.132 43.3244 44.9197 42.7404 45.2737 42.2977C45.8415 41.5737 46.3356 40.7907 46.8165 40.0065C46.9575 39.7767 47.0903 39.5489 47.2313 39.3192C47.602 38.7148 48.0257 38.1361 48.3964 37.5317C48.6629 37.0972 48.8964 36.6493 49.108 36.181C49.3088 35.6856 49.9612 35.5633 50.3807 35.8207C50.6604 35.9922 50.8302 36.3094 50.811 36.6208C50.7848 37.0446 50.5239 37.4139 50.3378 37.7396C50.1147 38.1595 49.8669 38.5299 49.624 38.9034C49.3506 39.3268 49.0852 39.7483 48.8217 40.1778C49.5205 40.0359 50.2224 39.8891 50.8896 39.6866C51.4076 39.5369 51.9205 39.2947 52.37 39.5704C52.7596 39.8093 52.9645 40.3269 52.7225 40.7215C52.4866 41.106 51.9682 41.2005 51.5872 41.3173C51.1014 41.4593 50.6037 41.5871 50.1022 41.6987C50.1182 41.9079 50.1443 42.1232 50.1603 42.3324C50.1959 42.8011 50.2265 43.2666 50.2441 43.7311C50.2752 44.2519 50.3484 44.9842 50.0788 45.4238C49.9073 45.7035 49.4079 46.0021 48.8735 45.6743Z" fill="white"/>
</svg>
