<svg width="72" height="64" viewBox="0 0 72 64" fill="none" xmlns="http://www.w3.org/2000/svg">
<path d="M62.8305 28.1539C59.8743 24.7782 54.8248 23.179 50.8691 21.3546C48.3062 20.1719 45.7758 18.9189 43.3763 17.4731C39.236 14.7364 35.8198 11.1843 31.9018 7.97541C28.0655 4.83391 23.6935 4.27135 19.1337 6.07621C11.5136 9.09418 7.46766 18.4869 10.9961 25.9269C12.8458 29.8257 16.6257 33.0403 19.8745 35.735C21.4682 37.0557 23.1249 38.294 24.8347 39.4582C23.511 41.1461 21.4182 41.9778 19.2522 42.5183C19.1956 42.5328 19.1438 42.5618 19.1017 42.6022C19.0596 42.6427 19.0286 42.6933 19.0118 42.7492C18.995 42.8052 18.9929 42.8645 19.0058 42.9214C19.0186 42.9784 19.0459 43.0311 19.0851 43.0744C22.2042 46.526 28.1457 46.5426 31.4478 43.4539C32.0863 43.7956 32.7287 44.1287 33.3751 44.4534C40.6589 48.0971 52.4006 52.5348 59.9455 47.2208C65.5595 43.2771 67.4233 33.3978 62.8305 28.1539Z" fill="#232323"/>
<path d="M29.7701 9.24391C27.7559 6.81716 22.2489 5.62192 19.7429 7.95192C19.6977 7.99435 19.7391 8.08513 19.8038 8.06426C23.3869 6.88915 26.4039 7.58395 29.644 9.39927C29.6646 9.41599 29.691 9.42384 29.7174 9.42109C29.7438 9.41834 29.768 9.40523 29.7848 9.38462C29.8015 9.36402 29.8093 9.33762 29.8066 9.31124C29.8038 9.28485 29.7907 9.26063 29.7701 9.24391ZM31.0529 10.3096C31.1977 10.3619 31.3066 10.1922 31.2478 10.0686C31.1114 9.79259 30.742 9.60638 30.4574 9.72701C30.4457 9.73273 30.4354 9.74117 30.4276 9.75163C30.4198 9.76209 30.4146 9.77426 30.4124 9.78714C30.4103 9.80002 30.4112 9.81323 30.4152 9.82567C30.4192 9.83811 30.4261 9.84941 30.4353 9.85865C30.6248 10.02 30.8121 10.2225 31.0529 10.3096ZM58.7847 45.5129C55.3645 46.8361 52.4133 47.5719 48.7153 47.29C45.6496 47.0586 42.7513 46.0059 39.7183 45.6242C39.6568 45.6163 39.6535 45.7047 39.7036 45.7249C45.1281 47.9262 53.8736 49.6493 58.8747 45.6373C58.9486 45.5779 58.8631 45.487 58.7861 45.5138L58.7847 45.5129ZM61.1216 43.7407C61.1206 43.7278 61.1166 43.7153 61.1099 43.7042C61.1031 43.6932 61.0938 43.6839 61.0828 43.6771C61.0717 43.6703 61.0592 43.6663 61.0463 43.6653C61.0334 43.6642 61.0204 43.6663 61.0085 43.6713C60.7089 43.8462 60.5087 44.1176 60.26 44.3506C60.0221 44.5739 59.7537 44.7545 59.6128 45.0594C59.5949 45.0964 59.6133 45.1558 59.6646 45.1536C60.3016 45.1011 61.1868 44.4355 61.1265 43.7437L61.1216 43.7407ZM21.8737 35.3884C20.2043 33.5549 18.1422 32.1044 16.3721 30.3659C14.221 28.2532 12.7261 25.8075 11.4687 23.0921C11.4504 23.053 11.3927 23.0782 11.401 23.1179C12.4845 28.2659 17.3916 32.9315 21.7921 35.4903C21.8057 35.4976 21.8215 35.4999 21.8367 35.4968C21.8519 35.4937 21.8655 35.4854 21.8752 35.4733C21.8849 35.4612 21.8901 35.4461 21.8898 35.4306C21.8895 35.4151 21.8838 35.4002 21.8737 35.3884ZM63.3018 31.8815C63.6228 32.8206 63.6645 33.8202 63.8327 34.7906C63.8364 34.8035 63.8441 34.8149 63.8548 34.8232C63.8654 34.8314 63.8784 34.836 63.8919 34.8363C63.9053 34.8366 63.9185 34.8326 63.9295 34.8248C63.9405 34.8171 63.9488 34.8061 63.9531 34.7933C64.3776 33.0134 63.5335 29.991 61.7714 29.1284C61.742 29.1104 61.6897 29.1456 61.7156 29.1817C62.3506 30.0635 62.948 30.8328 63.3018 31.8815ZM28.9326 43.3036C28.2191 43.5264 27.5267 43.8104 26.8101 44.0208C26.0283 44.2499 25.2188 44.2418 24.4275 44.3987C24.4164 44.4016 24.4063 44.4076 24.3986 44.4161C24.3909 44.4245 24.3858 44.4351 24.384 44.4464C24.3821 44.4577 24.3836 44.4693 24.3883 44.4798C24.3929 44.4902 24.4005 44.4991 24.4101 44.5054C25.1204 44.8632 25.9742 44.733 26.7245 44.5789C27.5852 44.403 28.3958 44.08 28.9999 43.4275C29.046 43.3789 29.0075 43.2803 28.9326 43.3036ZM23.6675 44.3633C23.5696 44.3002 23.4551 44.2676 23.3387 44.2699C23.2223 44.2721 23.1091 44.3089 23.0137 44.3757C22.9963 44.3925 22.9862 44.4153 22.9854 44.4395C22.9846 44.4636 22.9932 44.487 23.0095 44.5049C23.0895 44.5805 23.1866 44.6356 23.2926 44.6655C23.3986 44.6953 23.5102 44.6989 23.6179 44.6761C23.6505 44.6676 23.6798 44.6498 23.7024 44.6248C23.725 44.5998 23.7397 44.5688 23.7449 44.5355C23.7501 44.5022 23.7455 44.4682 23.7316 44.4375C23.7177 44.4069 23.6952 44.3809 23.6668 44.3629L23.6675 44.3633Z" fill="white"/>
<path d="M35.0122 22.311C34.8161 22.6306 34.6237 22.7875 34.3473 22.618C34.1375 22.4893 34.1028 22.2023 34.2172 22.0158C34.3946 21.6893 34.596 21.3683 34.79 21.052C34.8983 20.8755 35.0099 20.7011 35.1398 20.4967C35.1642 19.8517 35.1909 19.2403 35.2231 18.6277C35.2477 18.1616 35.2798 17.691 35.3098 17.2236C35.3243 16.9759 35.3075 16.7044 35.4382 16.4913C35.5158 16.3648 35.6363 16.3103 35.7978 16.3086C36.0463 16.3143 36.13 16.5215 36.1541 16.7287C36.1784 16.9132 36.1664 17.1121 36.1516 17.2633C36.1154 17.7407 36.0846 18.2167 36.0518 18.6961C36.0308 19.059 36.0165 19.426 35.9644 20.0264L36.1679 19.9038C36.7806 19.5326 37.3957 19.1721 37.9937 18.7874C38.2256 18.6409 38.4368 18.4909 38.65 18.3376C38.7876 18.2478 38.9424 18.2419 39.0822 18.3277C39.2787 18.4482 39.3594 18.6902 39.2491 18.87C39.1163 19.0864 38.8511 19.2125 38.6476 19.3351C37.7121 19.9115 36.7884 20.5135 35.81 21.0177L35.777 21.0342C35.5087 21.4791 35.2655 21.8981 35.0122 22.311ZM38.1069 22.1516C37.8691 22.487 37.7363 22.8454 37.806 23.2548C37.8631 23.5876 38.0184 23.9395 38.3347 24.1336C38.6511 24.3276 39.0265 24.3058 39.3483 24.2145C39.7204 24.1083 40.0153 23.7621 40.1929 23.4724C40.5402 22.9063 40.7454 22.0562 40.0095 21.6048C39.3636 21.2086 38.4989 21.5947 38.1069 22.1516ZM37.4693 21.7193C38.1392 20.7692 39.4161 20.3609 40.4017 20.9655C40.8346 21.231 41.1125 21.5848 41.2276 22.077C41.3672 22.6712 41.2041 23.3181 40.8773 23.8509C40.7078 24.1273 40.495 24.3771 40.2424 24.5796C39.6233 25.066 38.8228 25.1982 38.1178 24.8758C38.0604 24.8497 38.0038 24.815 37.9472 24.7803C37.4644 24.4841 37.1538 23.982 37.0542 23.4122C36.961 22.8693 37.0664 22.3612 37.3544 21.8917C37.3912 21.8318 37.4292 21.7772 37.4693 21.7193ZM45.5677 24.6612C45.1928 25.1828 44.8325 25.7179 44.4975 26.264C44.2688 26.6369 44.0393 27.0185 43.8426 27.4065C43.7892 27.5159 43.7466 27.6226 43.6833 27.7259C43.522 27.9889 43.3489 28.0844 43.1158 27.9414C42.9393 27.8331 42.8958 27.6277 42.9922 27.4257L43.0784 27.2403L42.876 27.249C42.4786 27.2619 41.9052 27.1209 41.5689 26.9146C41.3158 26.7594 41.091 26.5207 41.0059 26.2486C40.9039 25.9294 40.9553 25.5989 41.0805 25.2678C41.2085 24.9247 41.4053 24.5964 41.573 24.3006C41.6493 24.1686 41.7277 24.0334 41.8073 23.9036C42.0422 23.5206 42.3353 23.0726 42.6392 22.7641C42.7684 22.628 42.9603 22.599 43.1135 22.693C43.3233 22.8217 43.3264 23.0481 43.2141 23.2313C43.1528 23.3312 43.0757 23.4122 43.0031 23.5005C42.8105 23.7398 42.6392 23.9968 42.4778 24.2598C42.2777 24.5861 42.1161 24.872 41.9566 25.1545C41.7159 25.5842 41.565 26.0095 42.0378 26.2995C42.3575 26.4956 42.7635 26.6255 43.1222 26.5339C43.4056 26.4603 43.5901 26.2939 43.7331 26.0609C43.8005 25.951 43.8625 25.8424 43.9279 25.7358C44.1934 25.303 44.4822 24.8844 44.7777 24.4699C44.8661 24.3408 44.9713 24.1991 45.0914 24.1078C45.2433 23.9948 45.3736 24.0289 45.4866 24.1211C45.6598 24.2869 45.7079 24.4401 45.5976 24.6199C45.5894 24.6333 45.5792 24.6499 45.5677 24.6612ZM48.2261 26.7821C48.1376 26.792 48.0321 26.7547 47.8953 26.6938C47.7445 26.6333 47.6098 26.5691 47.4606 26.5509C47.1581 26.5211 46.7801 26.5321 46.4984 26.7672C46.3627 26.8764 46.2816 27.0237 46.2019 27.1536C46.0916 27.3334 45.9867 27.5119 45.8785 27.6884C45.6885 27.998 45.4939 28.3003 45.304 28.61C45.1733 28.8231 45.0829 28.9555 44.893 28.9811C44.8045 28.991 44.727 28.9755 44.657 28.9326C44.4772 28.8223 44.4213 28.5772 44.5357 28.3907C44.7622 28.0439 44.9915 27.6851 45.208 27.3321C45.4592 26.9225 45.7091 26.5076 45.9557 26.0906C46.141 25.7735 46.3502 25.2832 46.6308 25.0796C46.7374 25.0029 46.8556 24.9746 47.0155 25.0726C47.2019 25.187 47.231 25.4385 47.0864 25.6294L46.9066 25.8628L47.1957 25.8247C47.5928 25.775 48.011 25.8253 48.3407 26.0275C48.5871 26.1787 48.6459 26.3293 48.4988 26.569C48.4294 26.6823 48.3233 26.773 48.2261 26.7821ZM18.255 26.605C18.0141 26.471 17.7641 26.352 17.5293 26.208C16.855 25.7944 16.7756 25.2851 17.1494 24.6758C17.7651 23.6719 19.2361 23.3918 20.5324 23.3964C21.4268 23.3951 22.7428 23.2331 23.2299 22.439C23.5179 21.9695 23.0297 21.5326 22.6851 21.3212C22.0907 20.9566 21.6286 21.2506 21.2124 21.6827C20.9678 21.9245 20.6546 22.1998 20.0603 21.8352C19.4959 21.489 19.538 20.8824 19.7218 20.5828C20.0802 19.9984 20.8207 19.4971 21.6128 19.3712C22.2449 19.2709 22.9791 19.4188 23.6084 19.8048C23.7632 19.8997 23.9089 20.0097 24.0465 20.1216C24.8839 20.8071 25.2579 21.4077 25.1567 22.3011C25.1093 22.7257 24.9779 23.1193 24.7603 23.4739C23.9822 24.7426 22.3296 25.2068 20.6283 25.2012C20.2394 25.1964 19.8583 25.2238 19.4929 25.2816C19.8199 25.4546 20.1468 25.6276 20.4645 25.8156C21.2437 26.2935 21.8395 26.6109 22.2134 27.122C22.511 27.5108 22.4535 28.0529 22.1219 28.3582C21.8501 28.6108 21.5278 28.688 21.0583 28.4001C20.5538 28.0906 20.1387 27.6916 19.6542 27.3945C19.1947 27.1126 18.7187 26.8688 18.255 26.605ZM31.3593 34.8147C30.688 34.8222 30.2951 34.1963 30.3764 33.5931C30.4289 33.261 30.6034 32.8869 30.7558 32.6161C30.9978 32.2215 31.2911 31.7209 31.1062 31.305C31.0323 31.1566 30.8812 30.9883 30.6829 30.8185C30.1748 30.3694 29.6407 30.0074 29.1583 29.5947C28.7631 30.239 28.3599 30.8853 27.9647 31.5296C27.8574 31.7044 27.6985 31.9299 27.4741 32.0604C27.2386 32.1978 26.9227 32.2309 26.5431 31.998C25.9638 31.6427 26.0209 31.0453 26.3242 30.5508C26.6152 30.0763 26.9112 29.6049 27.2023 29.1304C27.5056 28.6359 27.8039 28.1384 28.1072 27.6439C28.5453 26.9297 28.9834 26.2155 29.4314 25.5073C29.6988 25.0939 29.93 24.6721 30.2455 24.3707C30.5709 24.0754 30.9735 24.013 31.508 24.3408L31.5979 24.396C32.0301 24.6886 32.5293 25.0291 33.0012 25.3805C33.475 25.7398 33.9335 26.1242 34.2834 26.5175C35.2942 27.6599 35.4787 28.8385 34.8629 29.8424C34.5871 30.2919 34.1213 30.6592 33.52 30.799C33.2702 30.8589 33.0202 30.8293 32.7803 30.8059C33.2452 31.8746 32.8669 32.8387 32.3951 33.6079C32.2267 33.8826 32.2095 34.202 32.0471 34.4667C31.9092 34.6914 31.6829 34.8138 31.3593 34.8147ZM30.0529 28.1363C30.7067 28.4823 31.3433 28.8453 32.0652 29.0131C32.5525 29.1264 33.0722 29.1084 33.2561 28.8087C33.4552 28.4841 33.2442 28.066 32.8913 27.6776C32.4768 27.2103 31.7793 26.7 31.2034 26.3055C30.8065 26.9076 30.4297 27.5219 30.0529 28.1363ZM35.2827 35.3103C35.5724 35.488 36.0006 35.5856 36.3261 35.5928C36.7983 35.6075 37.083 35.5691 37.4918 34.9812C37.2633 34.9166 36.9887 34.8376 36.6692 34.7309C36.3988 34.6338 36.1203 34.5387 35.9107 34.4994C35.6028 34.4411 35.2977 34.5015 35.0924 34.8361C34.9821 35.0159 35.043 35.1632 35.2827 35.3103ZM36.8299 38.3352C36.3854 38.0625 36.326 37.6549 36.4182 37.1684C35.7354 37.217 35.0062 37.0722 34.3619 36.677C33.0933 35.8989 33.0275 34.7174 33.5268 33.9033C33.9281 33.249 34.5751 32.8554 35.5675 32.9073C36.9326 32.9679 38.084 33.9147 38.4471 33.5806C38.6794 33.3588 38.0246 32.9022 37.7449 32.7306C37.3803 32.507 37.1152 32.3788 36.8851 32.485C36.5912 32.6279 36.2392 32.8656 35.7286 32.5662C35.3709 32.3537 35.2714 32.0452 35.2952 31.7711C35.3224 31.4578 35.4609 31.1647 36.1258 30.8989C36.8754 30.5957 37.6768 30.7573 38.6058 31.3271C40.1941 32.3013 40.6236 33.3828 39.8792 34.5965C39.5636 35.111 39.2229 35.4312 38.7388 36.2204C38.5458 36.535 38.3628 36.8558 38.2378 37.2053C38.1315 37.4907 38.1321 37.9379 37.9943 38.1626C37.7982 38.4823 37.3294 38.6415 36.8299 38.3352ZM42.9076 42.0424C42.3931 41.7269 42.3448 41.223 42.4917 40.8938C42.7772 40.2715 43.1363 39.6188 43.4947 39.0344C43.7613 38.5999 44.0528 38.1807 44.3224 37.7411C44.5736 37.3316 44.6502 36.9937 44.1558 36.6904C43.7212 36.4238 43.2583 36.3942 42.8608 36.5491C42.5884 36.657 42.3745 36.8488 42.1914 37.0802C41.8293 37.5248 41.5318 38.0435 41.2438 38.513C41.0753 38.7877 40.9137 39.0735 40.7602 39.3574C40.4324 39.8918 39.9966 40.0644 39.4742 39.8403C39.1431 39.6853 38.9247 39.4138 38.9675 39.0414C39.0121 38.5876 39.337 38.1476 39.5606 37.783C40.0784 36.9389 40.6791 36.1388 41.1999 35.2898C41.4113 34.9451 41.6077 34.5913 41.7811 34.2302C41.7914 34.2022 41.8098 34.1722 41.8251 34.1472C42.015 33.8376 42.521 33.5842 43.0654 33.9182C43.43 34.1418 43.5319 34.5136 43.4338 34.8865C44.0238 34.8772 44.6915 35.0325 45.2509 35.3756C45.8053 35.7156 46.1868 36.1696 46.315 36.7225C46.4974 37.5011 46.1487 38.2152 45.8117 38.7646C45.5819 39.1392 45.3322 39.5016 45.1024 39.8762C44.9063 40.1958 44.7203 40.5216 44.5492 40.8566C44.4037 41.1386 44.3013 41.44 44.1358 41.7098C43.8295 42.2092 43.3871 42.3365 42.9076 42.0424ZM48.9035 45.6927C48.4839 45.4353 48.4608 45.1256 48.4746 44.8453C48.4768 44.5167 48.5209 44.2207 48.5097 43.9252C48.4853 43.2366 48.428 42.624 48.3887 42.0156C48.145 42.0655 47.9025 42.1023 47.6664 42.095C47.4837 42.3816 47.296 42.6652 47.1014 42.9376C46.9792 43.1032 46.867 43.275 46.7279 43.4234C46.5175 43.6655 46.1746 43.8883 45.6515 43.643C45.162 43.3427 44.9496 42.7588 45.3037 42.3161C45.8715 41.5921 46.3655 40.809 46.8465 40.0249C46.9874 39.7951 47.1203 39.5673 47.2612 39.3375C47.6319 38.7332 48.0556 38.1545 48.4263 37.5501C48.6929 37.1156 48.9264 36.6677 49.138 36.1994C49.3388 35.704 49.9911 35.5817 50.4107 35.839C50.6904 36.0106 50.8601 36.3278 50.841 36.6392C50.8148 37.063 50.5539 37.4322 50.3678 37.758C50.1446 38.1779 49.8968 38.5483 49.654 38.9218C49.3805 39.3452 49.1151 39.7667 48.8517 40.1962C49.5505 40.0543 50.2523 39.9074 50.9196 39.7049C51.4376 39.5552 51.9504 39.313 52.4 39.5888C52.7895 39.8277 52.9945 40.3453 52.7525 40.7398C52.5166 41.1244 51.9981 41.2188 51.6171 41.3357C51.1314 41.4777 50.6337 41.6055 50.1321 41.7171C50.1482 41.9263 50.1742 42.1416 50.1903 42.3508C50.2259 42.8194 50.2565 43.285 50.2741 43.7495C50.3052 44.2703 50.3784 45.0026 50.1088 45.4421C49.9372 45.7219 49.4379 46.0205 48.9035 45.6927Z" fill="white"/>
</svg>
