<svg width="24" height="24" viewBox="0 0 24 24" fill="none" xmlns="http://www.w3.org/2000/svg">
<rect x="2" y="5" width="20" height="17" rx="3" fill="#232323"/>
<rect x="10" y="12" width="4" height="2" rx="1" fill="#FFD933"/>
<path d="M7.8 5.5H8.13852L8.26424 5.1857L8.70991 4.07152C9.08957 3.12238 10.0088 2.5 11.0311 2.5H12.9689C13.9912 2.5 14.9104 3.12238 15.2901 4.07152L15.7358 5.1857L15.8615 5.5H16.2H19C20.3807 5.5 21.5 6.61929 21.5 8V10C21.5 11.3807 20.3807 12.5 19 12.5H16.4646C16.2219 10.8039 14.7632 9.5 13 9.5H11C9.23676 9.5 7.77806 10.8039 7.53544 12.5H5C3.61929 12.5 2.5 11.3807 2.5 10V8C2.5 6.61929 3.61929 5.5 5 5.5H7.8ZM9.48983 4.8143L9.21555 5.5H9.95407H14.0459H14.7844L14.5102 4.8143L14.3616 4.44291C14.1338 3.87343 13.5823 3.5 12.9689 3.5H11.0311C10.4177 3.5 9.86618 3.87343 9.63838 4.44291L9.48983 4.8143Z" fill="#FFD933" stroke="#232323"/>
</svg>
