<svg width="15" height="16" viewBox="0 0 15 16" fill="none" xmlns="http://www.w3.org/2000/svg">
<path d="M4.7834 3.15035C5.26148 2.87358 5.70212 2.4404 5.89826 1.85198L6.00703 1.52566C6.21006 0.916567 6.79321 0.5 7.44249 0.5C8.09176 0.5 8.67491 0.916567 8.87794 1.52566L8.98672 1.85199C9.18286 2.4404 9.62349 2.87358 10.1016 3.15035C10.5821 3.42855 11.1742 3.59019 11.7814 3.46595L12.119 3.39686C12.748 3.26814 13.4003 3.56488 13.725 4.12717C14.0496 4.68946 13.9804 5.40276 13.5544 5.88314L13.3255 6.14127C12.9148 6.6045 12.7578 7.19974 12.7578 7.75437C12.7578 8.309 12.9148 8.90423 13.3255 9.36746L13.5544 9.62559C13.9804 10.106 14.0496 10.8193 13.725 11.3816C13.4003 11.9438 12.748 12.2406 12.119 12.1119L11.7814 12.0428C11.1743 11.9185 10.5822 12.0802 10.1016 12.3584C9.6235 12.6352 9.18285 13.0684 8.98671 13.6568L8.87794 13.9831C8.67491 14.5922 8.09176 15.0088 7.44249 15.0088C6.79321 15.0088 6.21006 14.5922 6.00703 13.9831L5.89827 13.6568C5.70212 13.0684 5.26147 12.6352 4.78338 12.3584C4.3028 12.0802 3.71069 11.9185 3.10353 12.0428L2.76596 12.1119C2.13696 12.2406 1.48462 11.9438 1.15999 11.3816C0.835349 10.8193 0.904533 10.106 1.33051 9.62559L1.55946 9.36739C1.97021 8.90418 2.12716 8.30898 2.12716 7.75437C2.12716 7.19976 1.97022 6.60455 1.55946 6.14133L1.33051 5.88314C0.904532 5.40276 0.835349 4.68946 1.15999 4.12717C1.48462 3.56488 2.13696 3.26814 2.76596 3.39686L3.10361 3.46595C3.71075 3.5902 4.30284 3.42856 4.7834 3.15035Z" stroke="#6A6A6A" stroke-linecap="round" stroke-linejoin="round"/>
<path fill-rule="evenodd" clip-rule="evenodd" d="M7.44259 9.86931C8.61058 9.86931 9.55742 8.92247 9.55742 7.75448C9.55742 6.58649 8.61058 5.63965 7.44259 5.63965C6.2746 5.63965 5.32776 6.58649 5.32776 7.75448C5.32776 8.92247 6.2746 9.86931 7.44259 9.86931Z" fill="#6A6A6A"/>
</svg>
