<svg width="32" height="32" viewBox="0 0 32 32" fill="none" xmlns="http://www.w3.org/2000/svg">
<rect x="2.08691" y="2.78259" width="29.2174" height="29.2174" rx="14.6087" fill="#232323"/>
<rect x="0.5" y="0.5" width="28.2174" height="28.2174" rx="14.1087" fill="white" stroke="#232323"/>
<path d="M14.6061 8.12048C14.0941 8.12048 13.6786 8.53602 13.6786 9.04802C13.6786 9.56001 14.0941 9.97555 14.6061 9.97555C15.1181 9.97555 15.5336 9.56001 15.5336 9.04802C15.5336 8.53602 15.1181 8.12048 14.6061 8.12048ZM13.6786 11.8306C13.1666 11.8306 12.751 12.2461 12.751 12.7581C12.751 13.2701 13.1666 13.6857 13.6786 13.6857H14.0551C13.3873 15.0909 12.2919 17.3902 12.1129 17.7436C11.4321 19.0913 12.0034 20.4836 13.2148 20.9612C14.3408 21.4046 15.7312 20.8536 16.3452 19.7146C16.5882 19.2639 16.4194 18.6823 15.9686 18.4393C15.5179 18.1963 14.9651 18.3651 14.722 18.8159C14.543 19.1488 14.1386 19.3121 13.9104 19.2221C13.6925 19.1359 13.5886 18.9337 13.7657 18.584C14.0115 18.098 14.966 16.1269 14.9827 16.0917C15.2878 15.4508 16.3527 13.2098 16.374 13.1644C16.6625 12.5485 16.2126 11.8306 15.5336 11.8306H13.6786Z" fill="#232323"/>
</svg>
